G04*
G04 #@! TF.GenerationSoftware,Altium Limited,Altium Designer,25.4.2 (15)*
G04*
G04 Layer_Physical_Order=1*
G04 Layer_Color=255*
%FSLAX44Y44*%
%MOMM*%
G71*
G04*
G04 #@! TF.SameCoordinates,BD49B22D-EE2B-44C8-A640-33F07053280C*
G04*
G04*
G04 #@! TF.FilePolarity,Positive*
G04*
G01*
G75*
%ADD11C,0.3810*%
%ADD12C,0.2540*%
%ADD21R,0.5000X0.4000*%
%ADD22R,1.4800X1.9000*%
G04:AMPARAMS|DCode=23|XSize=0.3mm|YSize=1.8mm|CornerRadius=0mm|HoleSize=0mm|Usage=FLASHONLY|Rotation=135.000|XOffset=0mm|YOffset=0mm|HoleType=Round|Shape=Round|*
%AMOVALD23*
21,1,1.5000,0.3000,0.0000,0.0000,225.0*
1,1,0.3000,0.5303,0.5303*
1,1,0.3000,-0.5303,-0.5303*
%
%ADD23OVALD23*%

G04:AMPARAMS|DCode=24|XSize=0.3mm|YSize=1.8mm|CornerRadius=0mm|HoleSize=0mm|Usage=FLASHONLY|Rotation=45.000|XOffset=0mm|YOffset=0mm|HoleType=Round|Shape=Round|*
%AMOVALD24*
21,1,1.5000,0.3000,0.0000,0.0000,135.0*
1,1,0.3000,0.5303,-0.5303*
1,1,0.3000,-0.5303,0.5303*
%
%ADD24OVALD24*%

G04:AMPARAMS|DCode=25|XSize=1.6mm|YSize=1.2mm|CornerRadius=0mm|HoleSize=0mm|Usage=FLASHONLY|Rotation=225.000|XOffset=0mm|YOffset=0mm|HoleType=Round|Shape=Rectangle|*
%AMROTATEDRECTD25*
4,1,4,0.1414,0.9900,0.9900,0.1414,-0.1414,-0.9900,-0.9900,-0.1414,0.1414,0.9900,0.0*
%
%ADD25ROTATEDRECTD25*%

G04:AMPARAMS|DCode=26|XSize=0.4mm|YSize=0.5mm|CornerRadius=0mm|HoleSize=0mm|Usage=FLASHONLY|Rotation=315.000|XOffset=0mm|YOffset=0mm|HoleType=Round|Shape=Rectangle|*
%AMROTATEDRECTD26*
4,1,4,-0.3182,-0.0354,0.0354,0.3182,0.3182,0.0354,-0.0354,-0.3182,-0.3182,-0.0354,0.0*
%
%ADD26ROTATEDRECTD26*%

G04:AMPARAMS|DCode=27|XSize=1.3mm|YSize=1.2mm|CornerRadius=0mm|HoleSize=0mm|Usage=FLASHONLY|Rotation=135.000|XOffset=0mm|YOffset=0mm|HoleType=Round|Shape=Rectangle|*
%AMROTATEDRECTD27*
4,1,4,0.8839,-0.0354,0.0354,-0.8839,-0.8839,0.0354,-0.0354,0.8839,0.8839,-0.0354,0.0*
%
%ADD27ROTATEDRECTD27*%

%ADD28O,0.2500X1.2000*%
%ADD29R,0.2500X1.2000*%
%ADD30R,1.6000X0.3500*%
%ADD31R,1.5000X1.5000*%
%ADD32R,1.5000X1.9000*%
%ADD33R,2.0000X1.0000*%
%ADD34R,0.4000X0.5000*%
%ADD35R,0.5000X1.2000*%
%ADD36R,1.0000X1.4000*%
%ADD37R,1.0000X0.8000*%
%ADD38R,0.8000X1.0000*%
%ADD39O,3.0000X1.0000*%
G04:AMPARAMS|DCode=40|XSize=0.4mm|YSize=0.5mm|CornerRadius=0mm|HoleSize=0mm|Usage=FLASHONLY|Rotation=225.000|XOffset=0mm|YOffset=0mm|HoleType=Round|Shape=Rectangle|*
%AMROTATEDRECTD40*
4,1,4,-0.0354,0.3182,0.3182,-0.0354,0.0354,-0.3182,-0.3182,0.0354,-0.0354,0.3182,0.0*
%
%ADD40ROTATEDRECTD40*%

%ADD65C,0.1544*%
%ADD66C,0.2540*%
%ADD67C,0.3048*%
%ADD68C,1.6000*%
%ADD69C,0.6096*%
G36*
X772297Y962171D02*
X774614Y961483D01*
X775120Y933894D01*
X774964Y933515D01*
X765080Y913257D01*
X765036Y913278D01*
X765023Y913248D01*
X765065Y913227D01*
X765065Y913226D01*
X763356Y909919D01*
X761703Y909662D01*
X757998Y905956D01*
X756920Y907034D01*
X755842Y905956D01*
X752279Y909520D01*
X751749Y908990D01*
X749857Y910556D01*
X749857D01*
X747724Y912688D01*
X744161Y909124D01*
X742005Y911280D01*
X745569Y914843D01*
X743853Y916560D01*
X744212Y916919D01*
X737074Y924059D01*
X736721Y923706D01*
X732552Y927876D01*
X732382Y928285D01*
X732858Y931381D01*
X747443Y943040D01*
X747692Y943336D01*
X747999Y943571D01*
X749098Y945004D01*
X749506Y945988D01*
X749752Y946448D01*
X753794Y959781D01*
X756127Y960366D01*
X756554Y960131D01*
X759006Y958715D01*
X761815Y957962D01*
X764725D01*
X767534Y958715D01*
X770054Y960169D01*
X772061Y962177D01*
X772297Y962171D01*
D02*
G37*
G36*
X1047240Y1011135D02*
X1047240Y1011135D01*
X1049666Y1010859D01*
X1050128Y1010798D01*
X1052819Y1009684D01*
X1055130Y1007910D01*
X1056904Y1005599D01*
X1058018Y1002908D01*
X1058381Y1000150D01*
X1058355Y1000020D01*
Y911301D01*
X1057402Y911176D01*
X1055733Y910484D01*
X1054301Y909385D01*
X1053202Y907953D01*
X1052511Y906284D01*
X1052305Y904724D01*
X1052259Y904494D01*
Y835874D01*
X1052305Y835644D01*
X1052511Y834084D01*
X1053202Y832415D01*
X1054301Y830983D01*
X1055733Y829884D01*
X1057402Y829193D01*
X1058355Y829067D01*
Y761441D01*
X1057402Y761316D01*
X1055733Y760624D01*
X1054301Y759525D01*
X1053202Y758093D01*
X1052511Y756424D01*
X1052305Y754864D01*
X1052259Y754634D01*
Y686014D01*
X1052305Y685784D01*
X1052511Y684224D01*
X1053202Y682555D01*
X1054301Y681123D01*
X1055733Y680024D01*
X1057402Y679333D01*
X1058355Y679207D01*
Y590020D01*
X1058381Y589890D01*
X1058018Y587132D01*
X1056904Y584441D01*
X1055130Y582130D01*
X1052819Y580356D01*
X1050128Y579242D01*
X1047370Y578879D01*
X1047240Y578905D01*
X507240D01*
X507240Y578905D01*
X507240Y578905D01*
X504814Y579181D01*
X504352Y579242D01*
X501661Y580356D01*
X499350Y582130D01*
X497576Y584441D01*
X496462Y587132D01*
X496099Y589890D01*
X496125Y590020D01*
Y723258D01*
X496316Y725719D01*
X504732D01*
Y737759D01*
Y749799D01*
X496316D01*
X496125Y752260D01*
Y759292D01*
X516704D01*
Y777246D01*
X519515Y780058D01*
X521497Y779849D01*
X522139Y779413D01*
Y733344D01*
X518736Y729940D01*
X516928Y730447D01*
X516196Y730993D01*
Y736235D01*
X507780D01*
Y725719D01*
X512732D01*
X513977Y723642D01*
X513875Y723179D01*
X512947Y720121D01*
X512947Y720121D01*
X512738Y719155D01*
X512738Y719155D01*
X512670Y718640D01*
X512074Y716907D01*
X511874Y716423D01*
X510743Y714950D01*
X510696Y714919D01*
X507833Y712038D01*
X507356Y711321D01*
X506887Y710619D01*
X506885Y710611D01*
X506883Y710607D01*
X506880Y710594D01*
X506768Y710221D01*
X506575Y709754D01*
X506420Y708574D01*
X506361Y708130D01*
X506358Y708103D01*
X506104Y706172D01*
X506105Y706165D01*
X506137Y703638D01*
Y628705D01*
X503756Y627331D01*
X501699Y625274D01*
X500245Y622754D01*
X499492Y619944D01*
Y617035D01*
X500245Y614226D01*
X501699Y611706D01*
X503756Y609649D01*
X506276Y608195D01*
X509086Y607442D01*
X511995D01*
X514804Y608195D01*
X517324Y609649D01*
X519381Y611706D01*
X520835Y614226D01*
X521588Y617035D01*
Y619944D01*
X520835Y622754D01*
X519381Y625274D01*
X517324Y627331D01*
X514943Y628705D01*
Y638046D01*
X517289Y639019D01*
X527056Y629252D01*
X527197Y629158D01*
X528904Y627078D01*
X527099Y625274D01*
X525645Y622754D01*
X524892Y619944D01*
Y617035D01*
X525645Y614226D01*
X526870Y612103D01*
X526308Y609356D01*
X524803Y608995D01*
X520482Y607205D01*
X516493Y604761D01*
X514851Y603358D01*
X514804Y603385D01*
X511995Y604138D01*
X509086D01*
X506276Y603385D01*
X503756Y601931D01*
X501699Y599874D01*
X500245Y597354D01*
X499492Y594544D01*
Y591636D01*
X500245Y588826D01*
X501699Y586306D01*
X503756Y584249D01*
X506276Y582795D01*
X509086Y582042D01*
X511995D01*
X514804Y582795D01*
X517324Y584249D01*
X519381Y586306D01*
X520835Y588826D01*
X521588Y591636D01*
Y594544D01*
X520927Y597011D01*
X522317Y598152D01*
X523554Y598813D01*
X524854Y597906D01*
X525550Y597000D01*
X524892Y594544D01*
Y591636D01*
X525645Y588826D01*
X527099Y586306D01*
X529156Y584249D01*
X531676Y582795D01*
X534486Y582042D01*
X537394D01*
X540204Y582795D01*
X542724Y584249D01*
X544781Y586306D01*
X546235Y588826D01*
X546988Y591636D01*
Y594544D01*
X546729Y595511D01*
X548418Y597193D01*
X550629Y595917D01*
X550649Y595876D01*
X550292Y594544D01*
Y591636D01*
X551045Y588826D01*
X552499Y586306D01*
X554556Y584249D01*
X557076Y582795D01*
X559885Y582042D01*
X562794D01*
X565604Y582795D01*
X568124Y584249D01*
X570181Y586306D01*
X571635Y588826D01*
X572388Y591636D01*
Y594544D01*
X572197Y595258D01*
X572259Y597772D01*
X575297Y601329D01*
X577741Y605318D01*
X578646Y607503D01*
X581835Y608565D01*
X582476Y608195D01*
X585285Y607442D01*
X588195D01*
X588369Y607489D01*
X590337Y605387D01*
X590020Y604367D01*
X589121Y603890D01*
X588195Y604138D01*
X585285D01*
X582476Y603385D01*
X579956Y601931D01*
X577899Y599874D01*
X576445Y597354D01*
X575692Y594544D01*
Y591636D01*
X576445Y588826D01*
X577899Y586306D01*
X579956Y584249D01*
X582476Y582795D01*
X585285Y582042D01*
X588195D01*
X591004Y582795D01*
X593524Y584249D01*
X595581Y586306D01*
X597035Y588826D01*
X597788Y591636D01*
Y594544D01*
X597035Y597354D01*
X596726Y597889D01*
X597867Y599206D01*
X598097Y599608D01*
X599243Y601005D01*
X600916Y604136D01*
X601947Y607534D01*
X602032Y608405D01*
X602032Y608408D01*
X602028Y608428D01*
X602114Y609300D01*
X604759Y610246D01*
X605356Y609649D01*
X607876Y608195D01*
X608186Y608112D01*
X609340Y605743D01*
X608228Y603479D01*
X607876Y603385D01*
X605356Y601931D01*
X603299Y599874D01*
X601845Y597354D01*
X601092Y594544D01*
Y591636D01*
X601845Y588826D01*
X603299Y586306D01*
X605356Y584249D01*
X607876Y582795D01*
X610686Y582042D01*
X613595D01*
X616404Y582795D01*
X618924Y584249D01*
X620981Y586306D01*
X622435Y588826D01*
X623188Y591636D01*
Y594544D01*
X622435Y597354D01*
X620981Y599874D01*
X618924Y601931D01*
X619937Y604278D01*
X623618Y608530D01*
X623648Y608583D01*
X623696Y608621D01*
X626215Y611571D01*
X629223Y611182D01*
X630756Y609649D01*
X633276Y608195D01*
X634175Y607954D01*
X635442Y605286D01*
X634747Y603779D01*
X633276Y603385D01*
X630756Y601931D01*
X628699Y599874D01*
X627245Y597354D01*
X626492Y594544D01*
Y591636D01*
X627245Y588826D01*
X628699Y586306D01*
X630756Y584249D01*
X633276Y582795D01*
X636086Y582042D01*
X638994D01*
X641804Y582795D01*
X644324Y584249D01*
X646381Y586306D01*
X647835Y588826D01*
X648588Y591636D01*
Y594544D01*
X647835Y597354D01*
X646381Y599874D01*
X644836Y601418D01*
X651405Y612014D01*
X653797Y611976D01*
X654163Y611642D01*
X656156Y609649D01*
X658676Y608195D01*
X660497Y607707D01*
X661789Y605529D01*
X661889Y604902D01*
X661486Y604138D01*
X658676Y603385D01*
X656156Y601931D01*
X654099Y599874D01*
X652645Y597354D01*
X651892Y594544D01*
Y591636D01*
X652645Y588826D01*
X654099Y586306D01*
X656156Y584249D01*
X658676Y582795D01*
X661486Y582042D01*
X664395D01*
X667204Y582795D01*
X669724Y584249D01*
X671781Y586306D01*
X673235Y588826D01*
X673988Y591636D01*
Y594544D01*
X673235Y597354D01*
X671781Y599874D01*
X671430Y600225D01*
X677055Y611475D01*
X679840Y611366D01*
X681556Y609649D01*
X684076Y608195D01*
X686886Y607442D01*
X689794D01*
X692604Y608195D01*
X692678Y608237D01*
X694576Y606400D01*
X694164Y605629D01*
X692373Y603447D01*
X689794Y604138D01*
X686886D01*
X684076Y603385D01*
X681556Y601931D01*
X679499Y599874D01*
X678045Y597354D01*
X677292Y594544D01*
Y591636D01*
X678045Y588826D01*
X679499Y586306D01*
X681556Y584249D01*
X684076Y582795D01*
X686886Y582042D01*
X689794D01*
X692604Y582795D01*
X695124Y584249D01*
X697181Y586306D01*
X698635Y588826D01*
X699388Y591636D01*
Y594544D01*
X698646Y597315D01*
X700773Y599805D01*
X703217Y603794D01*
X705007Y608115D01*
X705047Y608283D01*
X707862Y609127D01*
X709476Y608195D01*
X711079Y607765D01*
X712477Y605458D01*
X712531Y604902D01*
X711954Y604049D01*
X709476Y603385D01*
X706956Y601931D01*
X704899Y599874D01*
X703445Y597354D01*
X702692Y594544D01*
Y591636D01*
X703445Y588826D01*
X704899Y586306D01*
X706956Y584249D01*
X709476Y582795D01*
X712286Y582042D01*
X715194D01*
X718004Y582795D01*
X720524Y584249D01*
X722581Y586306D01*
X724035Y588826D01*
X724788Y591636D01*
Y594544D01*
X724035Y597354D01*
X722581Y599874D01*
X722041Y600413D01*
X727354Y611729D01*
X728926Y612186D01*
X729444Y612148D01*
X730179Y611916D01*
X730299Y611706D01*
X732356Y609649D01*
X734876Y608195D01*
X736739Y607696D01*
X737996Y605562D01*
X738104Y604902D01*
X737685Y604138D01*
X734876Y603385D01*
X732356Y601931D01*
X730299Y599874D01*
X728845Y597354D01*
X728092Y594544D01*
Y591636D01*
X728845Y588826D01*
X730299Y586306D01*
X732356Y584249D01*
X734876Y582795D01*
X737685Y582042D01*
X740594D01*
X743404Y582795D01*
X745924Y584249D01*
X747981Y586306D01*
X749435Y588826D01*
X750188Y591636D01*
Y594544D01*
X749435Y597354D01*
X747981Y599874D01*
X747658Y600196D01*
X753299Y611370D01*
X756108Y611298D01*
X757756Y609649D01*
X760276Y608195D01*
X761879Y607765D01*
X763277Y605458D01*
X763331Y604902D01*
X762754Y604049D01*
X760276Y603385D01*
X757756Y601931D01*
X755699Y599874D01*
X754245Y597354D01*
X753492Y594544D01*
Y591636D01*
X754245Y588826D01*
X755699Y586306D01*
X757756Y584249D01*
X760276Y582795D01*
X763085Y582042D01*
X765994D01*
X768804Y582795D01*
X771324Y584249D01*
X773381Y586306D01*
X774835Y588826D01*
X775588Y591636D01*
Y594544D01*
X774835Y597354D01*
X773381Y599874D01*
X772841Y600413D01*
X778154Y611729D01*
X779726Y612186D01*
X780244Y612148D01*
X780979Y611916D01*
X781099Y611706D01*
X783156Y609649D01*
X785676Y608195D01*
X788485Y607442D01*
X791395D01*
X794204Y608195D01*
X796724Y609649D01*
X798781Y611706D01*
X798901Y611916D01*
X799636Y612148D01*
X800153Y612186D01*
X801726Y611729D01*
X807039Y600413D01*
X806499Y599874D01*
X805045Y597354D01*
X804292Y594544D01*
Y591636D01*
X805045Y588826D01*
X806499Y586306D01*
X808556Y584249D01*
X811076Y582795D01*
X813885Y582042D01*
X816795D01*
X819604Y582795D01*
X822124Y584249D01*
X824181Y586306D01*
X825635Y588826D01*
X826388Y591636D01*
Y594544D01*
X825635Y597354D01*
X824181Y599874D01*
X822124Y601931D01*
X819604Y603385D01*
X817126Y604049D01*
X816549Y604902D01*
X816603Y605458D01*
X818001Y607765D01*
X819604Y608195D01*
X822124Y609649D01*
X824181Y611706D01*
X824301Y611916D01*
X825036Y612148D01*
X825553Y612186D01*
X827126Y611729D01*
X832439Y600413D01*
X831899Y599874D01*
X830445Y597354D01*
X829692Y594544D01*
Y591636D01*
X830445Y588826D01*
X831899Y586306D01*
X833956Y584249D01*
X836476Y582795D01*
X839286Y582042D01*
X842195D01*
X845004Y582795D01*
X847524Y584249D01*
X849581Y586306D01*
X851035Y588826D01*
X851788Y591636D01*
Y594544D01*
X851035Y597354D01*
X849581Y599874D01*
X847524Y601931D01*
X845004Y603385D01*
X842526Y604049D01*
X841949Y604902D01*
X842003Y605458D01*
X843401Y607765D01*
X845004Y608195D01*
X847301Y609521D01*
X848172Y609747D01*
X850205Y609429D01*
X856149Y597881D01*
X855845Y597354D01*
X855092Y594544D01*
Y591636D01*
X855845Y588826D01*
X857299Y586306D01*
X859356Y584249D01*
X861876Y582795D01*
X864686Y582042D01*
X867595D01*
X870404Y582795D01*
X872924Y584249D01*
X874981Y586306D01*
X876435Y588826D01*
X877188Y591636D01*
Y594544D01*
X876435Y597354D01*
X874981Y599874D01*
X872924Y601931D01*
X870404Y603385D01*
X867595Y604138D01*
X864686D01*
X864193Y604006D01*
X863453Y605143D01*
X864264Y606655D01*
X864987Y607442D01*
X867595D01*
X870404Y608195D01*
X872924Y609649D01*
X873657Y610383D01*
X876841Y610065D01*
X882511Y600894D01*
X882925Y600099D01*
X882699Y599874D01*
X881245Y597354D01*
X880492Y594544D01*
Y591636D01*
X881245Y588826D01*
X882699Y586306D01*
X884756Y584249D01*
X887276Y582795D01*
X890086Y582042D01*
X892995D01*
X895804Y582795D01*
X898324Y584249D01*
X900381Y586306D01*
X901835Y588826D01*
X902588Y591636D01*
Y594544D01*
X901835Y597354D01*
X900381Y599874D01*
X898324Y601931D01*
X895804Y603385D01*
X892995Y604138D01*
X892756D01*
X891987Y604902D01*
X892315Y606355D01*
X893468Y607569D01*
X895804Y608195D01*
X898324Y609649D01*
X899746Y611072D01*
X902637Y611021D01*
X908325Y600099D01*
X908099Y599874D01*
X906645Y597354D01*
X905892Y594544D01*
Y591636D01*
X906645Y588826D01*
X908099Y586306D01*
X910156Y584249D01*
X912676Y582795D01*
X915486Y582042D01*
X918394D01*
X921204Y582795D01*
X923724Y584249D01*
X925781Y586306D01*
X927235Y588826D01*
X927988Y591636D01*
Y594544D01*
X927235Y597354D01*
X925781Y599874D01*
X923724Y601931D01*
X921204Y603385D01*
X918394Y604138D01*
X918259D01*
X917829Y604902D01*
X918009Y605713D01*
X919193Y607656D01*
X921204Y608195D01*
X923724Y609649D01*
X924503Y610429D01*
X927782Y610406D01*
X929412Y608380D01*
X933725Y600099D01*
X933499Y599874D01*
X932045Y597354D01*
X931292Y594544D01*
Y591636D01*
X932045Y588826D01*
X933499Y586306D01*
X935556Y584249D01*
X938076Y582795D01*
X940885Y582042D01*
X943794D01*
X946604Y582795D01*
X949124Y584249D01*
X951181Y586306D01*
X952635Y588826D01*
X953388Y591636D01*
Y594544D01*
X952635Y597354D01*
X951181Y599874D01*
X949124Y601931D01*
X946604Y603385D01*
X943794Y604138D01*
X943659D01*
X943229Y604902D01*
X943410Y605713D01*
X944593Y607656D01*
X946604Y608195D01*
X949124Y609649D01*
X950785Y611311D01*
X953589Y611390D01*
X959227Y600201D01*
X958899Y599874D01*
X957445Y597354D01*
X956692Y594544D01*
Y591636D01*
X957445Y588826D01*
X958899Y586306D01*
X960956Y584249D01*
X963476Y582795D01*
X966285Y582042D01*
X969194D01*
X972004Y582795D01*
X974524Y584249D01*
X976581Y586306D01*
X978035Y588826D01*
X978788Y591636D01*
Y594544D01*
X978035Y597354D01*
X976581Y599874D01*
X974524Y601931D01*
X972004Y603385D01*
X969194Y604138D01*
X968779Y604902D01*
X968886Y605555D01*
X970149Y607698D01*
X972004Y608195D01*
X974524Y609649D01*
X976581Y611706D01*
X978035Y614226D01*
X978788Y617035D01*
Y619944D01*
X978035Y622754D01*
X976581Y625274D01*
X974524Y627331D01*
X972004Y628785D01*
X969194Y629538D01*
X966285D01*
X963476Y628785D01*
X960956Y627331D01*
X959164Y625538D01*
X956402Y625376D01*
X955402Y627361D01*
X955394Y627370D01*
X955391Y627381D01*
X955387Y627390D01*
X955243Y627572D01*
X955192Y627695D01*
X954093Y629128D01*
X953842Y629321D01*
X953621Y629591D01*
X939536Y641216D01*
X939796Y642505D01*
X940715Y643634D01*
X968541Y640335D01*
Y638479D01*
X974079D01*
X974089Y638477D01*
X996996D01*
X999239Y630659D01*
X998039Y629433D01*
X997112Y628863D01*
X994594Y629538D01*
X991685D01*
X988876Y628785D01*
X986356Y627331D01*
X984299Y625274D01*
X982845Y622754D01*
X982092Y619944D01*
Y617035D01*
X982845Y614226D01*
X984299Y611706D01*
X986356Y609649D01*
X988876Y608195D01*
X991685Y607442D01*
X994594D01*
X997404Y608195D01*
X999924Y609649D01*
X1001981Y611706D01*
X1002101Y611916D01*
X1002836Y612148D01*
X1003353Y612186D01*
X1004926Y611729D01*
X1010239Y600413D01*
X1009699Y599874D01*
X1008245Y597354D01*
X1007492Y594544D01*
Y591636D01*
X1008245Y588826D01*
X1009699Y586306D01*
X1011756Y584249D01*
X1014276Y582795D01*
X1017085Y582042D01*
X1019995D01*
X1022804Y582795D01*
X1025324Y584249D01*
X1027381Y586306D01*
X1028835Y588826D01*
X1029588Y591636D01*
Y594544D01*
X1028835Y597354D01*
X1027381Y599874D01*
X1025324Y601931D01*
X1022804Y603385D01*
X1020326Y604049D01*
X1019749Y604902D01*
X1019803Y605458D01*
X1021201Y607765D01*
X1022804Y608195D01*
X1025324Y609649D01*
X1027381Y611706D01*
X1028835Y614226D01*
X1029588Y617035D01*
Y619944D01*
X1028835Y622754D01*
X1027381Y625274D01*
X1025324Y627331D01*
X1022804Y628785D01*
X1019995Y629538D01*
X1017085D01*
X1014276Y628785D01*
X1011963Y627450D01*
X1011215Y627348D01*
X1009200Y627869D01*
X1004530Y644146D01*
Y647911D01*
X1014293D01*
X1016225Y648296D01*
X1017822Y649362D01*
X1017933Y649384D01*
X1019571Y650479D01*
X1020666Y652117D01*
X1021050Y654050D01*
X1020666Y655983D01*
X1019571Y657621D01*
X1017933Y658716D01*
X1016000Y659100D01*
X1015381D01*
X1013449Y658716D01*
X1012395Y658011D01*
X1004159D01*
Y662812D01*
X1004286Y663448D01*
X1003902Y665381D01*
X1002807Y667019D01*
X1001169Y668114D01*
X999236Y668498D01*
X997303Y668114D01*
X995665Y667019D01*
X995538Y666892D01*
X994444Y665254D01*
X994059Y663321D01*
Y660291D01*
X993435Y658009D01*
X991576Y657248D01*
Y657248D01*
X991576Y657248D01*
X988060D01*
Y652708D01*
X985012D01*
Y657248D01*
X981496D01*
X981496Y657248D01*
X979140Y657692D01*
Y660654D01*
X978756Y662587D01*
X977661Y664225D01*
X976023Y665320D01*
X974090Y665704D01*
X972157Y665320D01*
X970519Y664225D01*
X969424Y662587D01*
X969040Y660654D01*
Y657576D01*
X964184D01*
X962251Y657192D01*
X960613Y656097D01*
X959518Y654459D01*
X959134Y652526D01*
X956932Y650579D01*
X952710Y651079D01*
X951194Y653817D01*
X951230Y653903D01*
Y655721D01*
X950959Y656376D01*
X950858Y657144D01*
X950167Y658812D01*
X949593Y659561D01*
X949319Y660017D01*
X949313Y660024D01*
X949302Y660033D01*
X949294Y660045D01*
X870826Y745646D01*
X877841Y782259D01*
X878332Y783443D01*
Y785261D01*
X877636Y786942D01*
X876350Y788228D01*
X874669Y788924D01*
X872851D01*
X871170Y788228D01*
X869884Y786942D01*
X869188Y785261D01*
Y783886D01*
X862827Y750691D01*
X860065Y749772D01*
X859487Y750299D01*
X865948Y787954D01*
X866394Y789031D01*
Y790849D01*
X865698Y792530D01*
X864412Y793816D01*
X862731Y794512D01*
X860913D01*
X859232Y793816D01*
X858531Y793114D01*
X858518Y793111D01*
X857477Y793095D01*
X856214Y793444D01*
X855774Y793676D01*
X854456Y796604D01*
Y796945D01*
X854455Y796947D01*
X856153Y799487D01*
X901149D01*
X902640Y799783D01*
X903904Y800628D01*
X913111Y809834D01*
X913460Y810357D01*
X913844Y810854D01*
X913879Y810985D01*
X913955Y811098D01*
X914078Y811715D01*
X914242Y812321D01*
X914393Y814519D01*
X917007Y815498D01*
X919362Y813142D01*
X920370Y812469D01*
X921560Y812232D01*
X927733D01*
X931964Y795770D01*
X932141Y795401D01*
X932270Y795013D01*
X932402Y794860D01*
X932489Y794678D01*
X932794Y794405D01*
X933062Y794094D01*
X933242Y794003D01*
X933393Y793869D01*
X933779Y793733D01*
X934145Y793549D01*
X945535Y790394D01*
X945929Y790365D01*
X946315Y790282D01*
X947999Y790255D01*
X948275Y784212D01*
X946520Y782375D01*
X945965D01*
X945405Y782264D01*
X944843Y782165D01*
X944812Y782145D01*
X944776Y782138D01*
X944301Y781821D01*
X943819Y781515D01*
X943798Y781485D01*
X943768Y781465D01*
X943450Y780990D01*
X943122Y780523D01*
X943114Y780487D01*
X943094Y780456D01*
X942982Y779896D01*
X942858Y779339D01*
X942737Y774113D01*
X934927Y771270D01*
X934922Y771267D01*
X934917Y771267D01*
X934404Y770953D01*
X933890Y770641D01*
X933887Y770637D01*
X933883Y770634D01*
X933525Y770143D01*
X933173Y769663D01*
X933172Y769658D01*
X933169Y769654D01*
X933027Y769066D01*
X932885Y768485D01*
X932886Y768480D01*
X932885Y768475D01*
X932082Y748517D01*
X929822Y746257D01*
X929148Y745249D01*
X928912Y744059D01*
Y735924D01*
X928793Y735330D01*
Y697449D01*
X928822Y697305D01*
Y696220D01*
X928734Y695777D01*
X928970Y694587D01*
X929644Y693579D01*
X931009Y692215D01*
X931631Y691283D01*
X932639Y690610D01*
X933657Y690407D01*
Y686626D01*
X949753D01*
Y695134D01*
X949766Y695198D01*
Y701004D01*
X949529Y702194D01*
X948856Y703202D01*
X945518Y706540D01*
X944510Y707213D01*
X943320Y707450D01*
X943188D01*
Y712116D01*
X945642Y712323D01*
X946338Y710642D01*
X947624Y709356D01*
X949305Y708660D01*
X951123D01*
X952758Y709337D01*
X957757D01*
Y706161D01*
X966756D01*
Y706160D01*
X976852D01*
Y710978D01*
X977530D01*
X979020Y711274D01*
X979622Y711676D01*
X983827D01*
X984977Y709136D01*
X978105Y701313D01*
X978042Y701203D01*
X977947Y701118D01*
X977653Y700722D01*
X967947D01*
Y686626D01*
X976189D01*
X976202Y686607D01*
X976302Y686543D01*
X976377Y686451D01*
X976810Y686218D01*
X977224Y685953D01*
X977341Y685933D01*
X977445Y685877D01*
X977934Y685827D01*
X978418Y685741D01*
X989952Y685974D01*
X992113Y684487D01*
X992492Y683829D01*
Y676018D01*
X1001008D01*
Y686058D01*
X1002532D01*
Y687582D01*
X1012572D01*
Y696098D01*
X1012194D01*
X1011548Y697015D01*
X1010889Y698638D01*
X1011353Y699758D01*
Y701438D01*
X1011206Y701792D01*
X1011910Y702846D01*
X1011910D01*
Y709323D01*
Y715800D01*
Y722277D01*
Y731873D01*
X1011402D01*
Y732028D01*
X1000862D01*
X992416D01*
X989814Y730677D01*
Y723043D01*
X978802D01*
X978119Y724857D01*
X979928Y726793D01*
X984504Y726186D01*
X985137Y730615D01*
X969817D01*
X967410Y733022D01*
Y745369D01*
X960266D01*
X959104Y746530D01*
Y752856D01*
Y758952D01*
X956555Y761501D01*
X956161Y764817D01*
X955859Y765114D01*
X956056D01*
Y765224D01*
X955954D01*
X955894Y765165D01*
X955802Y765257D01*
Y779063D01*
X956056Y779081D01*
Y804287D01*
X959323Y807554D01*
Y809340D01*
X960576Y810593D01*
X960722D01*
Y810743D01*
X961898Y811919D01*
Y819658D01*
X962810D01*
X959230Y823238D01*
X956968Y825500D01*
X954532D01*
Y839978D01*
X954546Y839964D01*
X959230D01*
X959216Y839978D01*
X979678D01*
X980186Y839470D01*
X979932Y839216D01*
Y823722D01*
X979922D01*
Y811727D01*
X980009Y811641D01*
X978327Y809960D01*
X965154D01*
X962152Y806958D01*
Y765114D01*
X962217Y763735D01*
X964079Y761873D01*
X970915D01*
X971804Y760476D01*
X976122Y753279D01*
Y752823D01*
X981775D01*
X981853Y752745D01*
X981542Y752435D01*
Y738038D01*
Y736600D01*
X985992D01*
X988314Y752856D01*
X980902Y758610D01*
X980745Y759145D01*
X981198Y761596D01*
X990252Y765902D01*
X992492Y764155D01*
Y756662D01*
X1001008D01*
Y765178D01*
X994644D01*
X994070Y767718D01*
X998603Y769874D01*
X998875D01*
X1000556Y770570D01*
X1001842Y771856D01*
X1002538Y773537D01*
Y775355D01*
X1001842Y777036D01*
X1000556Y778322D01*
X998875Y779018D01*
X997057D01*
X995376Y778322D01*
X994933Y777878D01*
X987272Y774235D01*
X984758Y775852D01*
Y776117D01*
X984062Y777798D01*
X982776Y779084D01*
X981095Y779780D01*
X979277D01*
X978868Y779611D01*
X974000D01*
Y781208D01*
X968445D01*
X967784Y789244D01*
X969505Y791112D01*
X974000D01*
Y803763D01*
X981456Y805434D01*
X984294Y839968D01*
X988607Y840191D01*
X988897Y840264D01*
X989088Y840273D01*
X989230Y840264D01*
X990374Y839797D01*
X990966Y839391D01*
X991619Y838785D01*
X991628Y838775D01*
Y837823D01*
X1001668D01*
X1011708D01*
Y846339D01*
X1011330D01*
X1010684Y847256D01*
X1010024Y848879D01*
X1010488Y849999D01*
Y851679D01*
X1010342Y852033D01*
X1011046Y853087D01*
X1011046D01*
Y859564D01*
Y866041D01*
Y872518D01*
Y882114D01*
X1010538D01*
Y882269D01*
X999998D01*
X989458D01*
Y882114D01*
X988950D01*
Y873913D01*
X988472Y873593D01*
X988472Y873593D01*
X988162Y873284D01*
X982307D01*
X967571Y888020D01*
Y894292D01*
X968576D01*
Y912388D01*
X966875D01*
X966491Y914928D01*
X1006844Y927434D01*
X1015682D01*
Y943142D01*
X1018499D01*
Y943141D01*
X1018586D01*
Y927434D01*
X1032682D01*
Y943530D01*
X1029198D01*
X1028890Y946070D01*
X1029092Y946275D01*
X1031220Y947153D01*
X1032101Y946564D01*
X1034034Y946180D01*
X1035967Y946564D01*
X1037605Y947659D01*
X1038700Y949297D01*
X1039084Y951230D01*
X1038700Y953163D01*
X1038488Y953479D01*
X1038262Y954616D01*
X1037168Y956254D01*
X1036594Y956828D01*
X1038153Y958861D01*
X1038406Y958715D01*
X1040567Y958136D01*
X1044389Y940858D01*
X1040282Y932447D01*
X1039810Y931976D01*
X1039114Y930295D01*
Y928477D01*
X1039810Y926796D01*
X1041096Y925510D01*
X1042777Y924814D01*
X1044595D01*
X1046276Y925510D01*
X1047562Y926796D01*
X1048258Y928477D01*
Y928715D01*
X1052976Y938376D01*
X1053133Y938969D01*
X1053355Y939542D01*
X1053350Y939793D01*
X1053414Y940037D01*
X1053332Y940645D01*
X1053319Y941259D01*
X1049171Y960006D01*
X1049454Y960169D01*
X1051511Y962226D01*
X1052965Y964746D01*
X1053718Y967555D01*
Y970464D01*
X1052965Y973274D01*
X1051511Y975794D01*
X1049454Y977851D01*
X1046934Y979305D01*
X1044125Y980058D01*
X1041216D01*
X1038406Y979305D01*
X1035886Y977851D01*
X1033829Y975794D01*
X1032375Y973274D01*
X1031622Y970464D01*
Y967555D01*
X1032375Y964746D01*
X1032521Y964493D01*
X1030488Y962934D01*
X1027800Y965622D01*
X1028318Y967555D01*
Y970464D01*
X1027565Y973274D01*
X1026111Y975794D01*
X1024054Y977851D01*
X1021534Y979305D01*
X1018725Y980058D01*
X1015816D01*
X1013006Y979305D01*
X1010486Y977851D01*
X1008429Y975794D01*
X1008309Y975584D01*
X1007574Y975352D01*
X1007056Y975314D01*
X1005484Y975771D01*
X1000171Y987087D01*
X1000711Y987626D01*
X1002165Y990146D01*
X1002918Y992955D01*
Y995864D01*
X1002165Y998674D01*
X1000711Y1001194D01*
X998654Y1003251D01*
X996134Y1004705D01*
X993325Y1005458D01*
X990415D01*
X987606Y1004705D01*
X985086Y1003251D01*
X983029Y1001194D01*
X981575Y998674D01*
X980822Y995864D01*
Y992955D01*
X981575Y990146D01*
X983029Y987626D01*
X985086Y985569D01*
X987606Y984115D01*
X990084Y983451D01*
X990661Y982598D01*
X990607Y982042D01*
X989209Y979735D01*
X987606Y979305D01*
X985086Y977851D01*
X983029Y975794D01*
X981575Y973274D01*
X980822Y970464D01*
Y967816D01*
X980133Y967168D01*
X979949Y967065D01*
X979637Y967128D01*
X977518Y968612D01*
Y970464D01*
X976765Y973274D01*
X975311Y975794D01*
X973254Y977851D01*
X970734Y979305D01*
X967924Y980058D01*
X965015D01*
X962206Y979305D01*
X959686Y977851D01*
X957629Y975794D01*
X956175Y973274D01*
X955422Y970464D01*
Y967555D01*
X955854Y965943D01*
X953877Y964308D01*
X951634Y965748D01*
X952118Y967555D01*
Y970464D01*
X951365Y973274D01*
X949911Y975794D01*
X948488Y977216D01*
X948539Y980107D01*
X959461Y985795D01*
X959686Y985569D01*
X962206Y984115D01*
X965015Y983362D01*
X967924D01*
X970734Y984115D01*
X973254Y985569D01*
X975311Y987626D01*
X976765Y990146D01*
X977518Y992955D01*
Y995864D01*
X976765Y998674D01*
X975311Y1001194D01*
X973254Y1003251D01*
X970734Y1004705D01*
X967924Y1005458D01*
X965015D01*
X962206Y1004705D01*
X959686Y1003251D01*
X957629Y1001194D01*
X956175Y998674D01*
X955422Y995864D01*
Y995729D01*
X954658Y995299D01*
X953847Y995480D01*
X951904Y996663D01*
X951365Y998674D01*
X949911Y1001194D01*
X947854Y1003251D01*
X945334Y1004705D01*
X942524Y1005458D01*
X939615D01*
X936806Y1004705D01*
X934286Y1003251D01*
X932229Y1001194D01*
X930775Y998674D01*
X930022Y995864D01*
Y992955D01*
X930775Y990146D01*
X932229Y987626D01*
X932945Y986911D01*
X932481Y983783D01*
X931922Y983484D01*
X929621Y981596D01*
X929505Y981473D01*
X929446Y981433D01*
X929381Y981336D01*
X926921Y978339D01*
X926400Y977364D01*
X923318Y976986D01*
X922454Y977851D01*
X919934Y979305D01*
X917923Y979844D01*
X916740Y981787D01*
X916559Y982598D01*
X916989Y983362D01*
X917124D01*
X919934Y984115D01*
X922454Y985569D01*
X924511Y987626D01*
X925965Y990146D01*
X926718Y992955D01*
Y995864D01*
X925965Y998674D01*
X924511Y1001194D01*
X922454Y1003251D01*
X919934Y1004705D01*
X917124Y1005458D01*
X914215D01*
X911406Y1004705D01*
X908886Y1003251D01*
X906829Y1001194D01*
X905375Y998674D01*
X904622Y995864D01*
Y992955D01*
X905375Y990146D01*
X906829Y987626D01*
X907055Y987401D01*
X901367Y976479D01*
X898476Y976428D01*
X897054Y977851D01*
X894534Y979305D01*
X892523Y979844D01*
X891339Y981787D01*
X891159Y982598D01*
X891589Y983362D01*
X891724D01*
X894534Y984115D01*
X897054Y985569D01*
X899111Y987626D01*
X900565Y990146D01*
X901318Y992955D01*
Y995864D01*
X900565Y998674D01*
X899111Y1001194D01*
X897054Y1003251D01*
X894534Y1004705D01*
X891724Y1005458D01*
X888816D01*
X886006Y1004705D01*
X883486Y1003251D01*
X881429Y1001194D01*
X879975Y998674D01*
X879222Y995864D01*
Y992955D01*
X879975Y990146D01*
X881429Y987626D01*
X881655Y987401D01*
X875967Y976479D01*
X873076Y976428D01*
X871654Y977851D01*
X869134Y979305D01*
X867531Y979735D01*
X866133Y982042D01*
X866079Y982598D01*
X866656Y983451D01*
X869134Y984115D01*
X871654Y985569D01*
X873711Y987626D01*
X875165Y990146D01*
X875918Y992955D01*
Y995864D01*
X875165Y998674D01*
X873711Y1001194D01*
X871654Y1003251D01*
X869134Y1004705D01*
X866324Y1005458D01*
X863416D01*
X860606Y1004705D01*
X858086Y1003251D01*
X856029Y1001194D01*
X854575Y998674D01*
X853822Y995864D01*
Y992955D01*
X854575Y990146D01*
X856029Y987626D01*
X856569Y987087D01*
X851256Y975771D01*
X848393Y975650D01*
X848311Y975794D01*
X846254Y977851D01*
X843734Y979305D01*
X841723Y979844D01*
X840539Y981787D01*
X840359Y982598D01*
X840789Y983362D01*
X840925D01*
X843734Y984115D01*
X846254Y985569D01*
X848311Y987626D01*
X849765Y990146D01*
X850518Y992955D01*
Y995864D01*
X849765Y998674D01*
X848311Y1001194D01*
X846254Y1003251D01*
X843734Y1004705D01*
X840925Y1005458D01*
X838016D01*
X835206Y1004705D01*
X832686Y1003251D01*
X830629Y1001194D01*
X829175Y998674D01*
X828422Y995864D01*
Y992955D01*
X829175Y990146D01*
X830629Y987626D01*
X830855Y987401D01*
X825167Y976479D01*
X822276Y976428D01*
X820854Y977851D01*
X818334Y979305D01*
X815525Y980058D01*
X815094D01*
X813452Y982585D01*
X813774Y983298D01*
X813848Y983362D01*
X815525D01*
X818334Y984115D01*
X820854Y985569D01*
X822911Y987626D01*
X824365Y990146D01*
X825118Y992955D01*
Y995864D01*
X824365Y998674D01*
X822911Y1001194D01*
X820854Y1003251D01*
X818334Y1004705D01*
X815525Y1005458D01*
X812616D01*
X809806Y1004705D01*
X807286Y1003251D01*
X805229Y1001194D01*
X803775Y998674D01*
X803022Y995864D01*
Y992955D01*
X803775Y990146D01*
X805019Y987991D01*
X804682Y987576D01*
X804630Y987401D01*
X804529Y987249D01*
X804415Y986678D01*
X804249Y986120D01*
X804173Y985303D01*
X804173Y985302D01*
X804131Y984859D01*
X801935Y982182D01*
X800118Y978783D01*
X799618Y977135D01*
X799236Y976892D01*
X797193Y976446D01*
X796779Y976526D01*
X795454Y977851D01*
X792934Y979305D01*
X791129Y979789D01*
X789823Y981983D01*
X789727Y982598D01*
X790125Y983362D01*
X792934Y984115D01*
X795454Y985569D01*
X797511Y987626D01*
X798965Y990146D01*
X799718Y992955D01*
Y995864D01*
X798965Y998674D01*
X797511Y1001194D01*
X795454Y1003251D01*
X792934Y1004705D01*
X790125Y1005458D01*
X787215D01*
X784406Y1004705D01*
X781886Y1003251D01*
X779829Y1001194D01*
X778375Y998674D01*
X777622Y995864D01*
Y992955D01*
X778375Y990146D01*
X779829Y987626D01*
X780893Y986563D01*
X777442Y978851D01*
X776412Y976609D01*
X776401Y976593D01*
X776399Y976580D01*
X775223Y974705D01*
X772762Y974666D01*
X772111Y975794D01*
X770054Y977851D01*
X767534Y979305D01*
X765931Y979735D01*
X764533Y982042D01*
X764479Y982598D01*
X765056Y983451D01*
X767534Y984115D01*
X770054Y985569D01*
X772111Y987626D01*
X773565Y990146D01*
X774318Y992955D01*
Y995864D01*
X773565Y998674D01*
X772111Y1001194D01*
X770054Y1003251D01*
X767534Y1004705D01*
X764725Y1005458D01*
X761815D01*
X759006Y1004705D01*
X756486Y1003251D01*
X754429Y1001194D01*
X752975Y998674D01*
X752222Y995864D01*
Y992955D01*
X752975Y990146D01*
X754429Y987626D01*
X754969Y987087D01*
X749656Y975771D01*
X748084Y975314D01*
X747566Y975352D01*
X746831Y975584D01*
X746711Y975794D01*
X744654Y977851D01*
X742134Y979305D01*
X740531Y979735D01*
X739133Y982042D01*
X739079Y982598D01*
X739656Y983451D01*
X742134Y984115D01*
X744654Y985569D01*
X746711Y987626D01*
X748165Y990146D01*
X748918Y992955D01*
Y995864D01*
X748165Y998674D01*
X746711Y1001194D01*
X744654Y1003251D01*
X742134Y1004705D01*
X739324Y1005458D01*
X736415D01*
X733606Y1004705D01*
X731086Y1003251D01*
X729029Y1001194D01*
X727575Y998674D01*
X726822Y995864D01*
Y992955D01*
X727575Y990146D01*
X729029Y987626D01*
X729569Y987087D01*
X724256Y975771D01*
X722684Y975314D01*
X722166Y975352D01*
X722005Y975403D01*
X721411Y975620D01*
X721311Y975794D01*
X719254Y977851D01*
X716734Y979305D01*
X715131Y979735D01*
X713733Y982042D01*
X713679Y982598D01*
X714256Y983451D01*
X716734Y984115D01*
X719254Y985569D01*
X721311Y987626D01*
X722765Y990146D01*
X723518Y992955D01*
Y995864D01*
X722765Y998674D01*
X721311Y1001194D01*
X719254Y1003251D01*
X716734Y1004705D01*
X713924Y1005458D01*
X711015D01*
X708206Y1004705D01*
X705686Y1003251D01*
X703629Y1001194D01*
X702175Y998674D01*
X701422Y995864D01*
Y992955D01*
X702175Y990146D01*
X703629Y987626D01*
X704169Y987087D01*
X698856Y975771D01*
X697284Y975314D01*
X696766Y975352D01*
X696031Y975584D01*
X695911Y975794D01*
X693854Y977851D01*
X691334Y979305D01*
X689881Y979695D01*
X688374Y982137D01*
X688343Y982561D01*
X688861Y983452D01*
X691334Y984115D01*
X693854Y985569D01*
X695911Y987626D01*
X697365Y990146D01*
X698118Y992955D01*
Y995864D01*
X697365Y998674D01*
X695911Y1001194D01*
X693854Y1003251D01*
X691334Y1004705D01*
X688524Y1005458D01*
X685615D01*
X682806Y1004705D01*
X680286Y1003251D01*
X678229Y1001194D01*
X676775Y998674D01*
X676022Y995864D01*
Y992955D01*
X676775Y990146D01*
X678229Y987626D01*
X678798Y987058D01*
X678693Y986632D01*
X678477Y986031D01*
X677801Y981502D01*
X675617Y978998D01*
X675383Y978591D01*
X674444Y977446D01*
X673504Y975688D01*
X671102Y975435D01*
X670631Y975584D01*
X670511Y975794D01*
X668454Y977851D01*
X665934Y979305D01*
X663124Y980058D01*
X660216D01*
X657406Y979305D01*
X655444Y978173D01*
X652831Y979026D01*
X652666Y981157D01*
X652662Y981171D01*
X652664Y981185D01*
X652663Y981195D01*
X652521Y981689D01*
X652426Y982413D01*
X651735Y984081D01*
X651078Y984938D01*
X650803Y985377D01*
X646472Y989985D01*
X646565Y990146D01*
X647318Y992955D01*
Y995864D01*
X646565Y998674D01*
X645111Y1001194D01*
X643054Y1003251D01*
X640534Y1004705D01*
X637724Y1005458D01*
X634815D01*
X632006Y1004705D01*
X629486Y1003251D01*
X627429Y1001194D01*
X625975Y998674D01*
X625222Y995864D01*
Y992955D01*
X625975Y990146D01*
X627429Y987626D01*
X629486Y985569D01*
X632006Y984115D01*
X634815Y983362D01*
X637724D01*
X640032Y983980D01*
X643016Y980805D01*
X641422Y978793D01*
X640534Y979305D01*
X637724Y980058D01*
X634815D01*
X632006Y979305D01*
X629486Y977851D01*
X627646Y976010D01*
X625292Y975855D01*
X624885Y975869D01*
X619307Y987223D01*
X619711Y987626D01*
X621165Y990146D01*
X621918Y992955D01*
Y995864D01*
X621165Y998674D01*
X619711Y1001194D01*
X617654Y1003251D01*
X615134Y1004705D01*
X612324Y1005458D01*
X609416D01*
X606606Y1004705D01*
X604086Y1003251D01*
X602029Y1001194D01*
X600575Y998674D01*
X599822Y995864D01*
Y992955D01*
X600575Y990146D01*
X602029Y987626D01*
X604086Y985569D01*
X606606Y984115D01*
X609275Y983400D01*
X609426Y983342D01*
X609790Y982598D01*
X609706Y982026D01*
X608348Y979772D01*
X606606Y979305D01*
X604086Y977851D01*
X602664Y976428D01*
X599773Y976479D01*
X594085Y987401D01*
X594311Y987626D01*
X595765Y990146D01*
X596518Y992955D01*
Y995864D01*
X595765Y998674D01*
X594311Y1001194D01*
X592254Y1003251D01*
X589734Y1004705D01*
X586925Y1005458D01*
X584016D01*
X581206Y1004705D01*
X578686Y1003251D01*
X576629Y1001194D01*
X575175Y998674D01*
X574422Y995864D01*
Y992955D01*
X575175Y990146D01*
X576629Y987626D01*
X578686Y985569D01*
X581206Y984115D01*
X584016Y983362D01*
X584151D01*
X584581Y982598D01*
X584400Y981787D01*
X583217Y979844D01*
X581206Y979305D01*
X578686Y977851D01*
X577264Y976428D01*
X574373Y976479D01*
X568685Y987401D01*
X568911Y987626D01*
X570365Y990146D01*
X571118Y992955D01*
Y995864D01*
X570365Y998674D01*
X568911Y1001194D01*
X566854Y1003251D01*
X564334Y1004705D01*
X561525Y1005458D01*
X558615D01*
X555806Y1004705D01*
X553286Y1003251D01*
X551229Y1001194D01*
X549775Y998674D01*
X549022Y995864D01*
Y992955D01*
X549775Y990146D01*
X551229Y987626D01*
X553286Y985569D01*
X555806Y984115D01*
X558615Y983362D01*
X558751D01*
X559181Y982598D01*
X559001Y981787D01*
X557817Y979844D01*
X555806Y979305D01*
X553286Y977851D01*
X551864Y976428D01*
X548973Y976479D01*
X543285Y987401D01*
X543511Y987626D01*
X544965Y990146D01*
X545718Y992955D01*
Y995864D01*
X544965Y998674D01*
X543511Y1001194D01*
X541454Y1003251D01*
X538934Y1004705D01*
X536124Y1005458D01*
X533215D01*
X530406Y1004705D01*
X527886Y1003251D01*
X525829Y1001194D01*
X524375Y998674D01*
X523622Y995864D01*
Y992955D01*
X524375Y990146D01*
X525829Y987626D01*
X527886Y985569D01*
X530406Y984115D01*
X533215Y983362D01*
X533351D01*
X533781Y982598D01*
X533601Y981787D01*
X532417Y979844D01*
X530406Y979305D01*
X528421Y978159D01*
X527954Y978096D01*
X527746Y978109D01*
X526970Y978340D01*
X525545Y979102D01*
X525014Y980385D01*
X524774Y980697D01*
X524608Y981051D01*
X518831Y988874D01*
X519565Y990146D01*
X520318Y992955D01*
Y995864D01*
X519565Y998674D01*
X518111Y1001194D01*
X516054Y1003251D01*
X513534Y1004705D01*
X510724Y1005458D01*
X507816D01*
X505006Y1004705D01*
X502486Y1003251D01*
X500429Y1001194D01*
X498975Y998674D01*
X498665Y997516D01*
X496125Y997851D01*
Y1000020D01*
X496099Y1000150D01*
X496462Y1002908D01*
X497576Y1005599D01*
X499350Y1007910D01*
X501661Y1009684D01*
X504352Y1010798D01*
X504814Y1010859D01*
X507240Y1011135D01*
Y1011135D01*
X509780Y1011135D01*
X1047240D01*
X1047240Y1011135D01*
D02*
G37*
G36*
X946794Y876244D02*
X945543Y873903D01*
X945134Y873984D01*
X944626D01*
X942693Y873600D01*
X941055Y872505D01*
X939960Y870867D01*
X939576Y868934D01*
X939960Y867001D01*
X941055Y865363D01*
X941216Y865256D01*
X941224Y862257D01*
X941179Y862189D01*
X940229Y860767D01*
X939896Y859090D01*
Y849590D01*
X940229Y847913D01*
X941179Y846491D01*
X942601Y845541D01*
X944278Y845208D01*
X945955Y845541D01*
X946778Y846091D01*
X947601Y845541D01*
X949278Y845208D01*
X950955Y845541D01*
X951077Y845623D01*
X951682Y845328D01*
X951109Y842783D01*
X949960Y842772D01*
X949835Y841898D01*
X942038D01*
X941994Y841969D01*
X941864Y842064D01*
X941767Y842192D01*
X941378Y842418D01*
X941014Y842682D01*
X940857Y842720D01*
X940718Y842801D01*
X940272Y842861D01*
X939835Y842967D01*
X939676Y842942D01*
X939517Y842963D01*
X938468Y842897D01*
X935949Y845285D01*
Y845965D01*
X930909D01*
Y849013D01*
X935949D01*
Y851440D01*
X936458D01*
Y861536D01*
X930920D01*
X930910Y861538D01*
X926398D01*
X923789Y864147D01*
X923656Y867323D01*
X941271Y881767D01*
X946794Y876244D01*
D02*
G37*
G36*
X994867Y855472D02*
X989671Y851408D01*
X989670Y851409D01*
X988447Y843295D01*
X980655Y842892D01*
X978192Y844326D01*
X977608Y856966D01*
X979859Y859535D01*
X980744D01*
X980745Y859536D01*
X994867D01*
Y855472D01*
D02*
G37*
G36*
X599877Y839796D02*
X596313Y836233D01*
X596772Y835774D01*
X596784Y832492D01*
X594694Y830402D01*
X594056Y830138D01*
X592770Y828852D01*
X592074Y827171D01*
Y825353D01*
X592770Y823672D01*
X594056Y822386D01*
X595737Y821690D01*
X597555D01*
X599236Y822386D01*
X599869Y823019D01*
X600602Y823662D01*
X601581Y823542D01*
X603327Y822990D01*
X607229Y819089D01*
X607896Y818089D01*
X618503Y807482D01*
X620007Y806477D01*
X621782Y806124D01*
X623556Y806477D01*
X625061Y807482D01*
X625855Y808672D01*
X627668Y809024D01*
X628668Y809048D01*
X628955Y808814D01*
X629155Y807813D01*
X630109Y806385D01*
X630679Y805815D01*
Y802050D01*
X631014Y800366D01*
X631285Y799960D01*
X630758Y798782D01*
X629601Y797747D01*
X629269Y797825D01*
X628596Y798832D01*
X627092Y799837D01*
X626236Y800007D01*
X626066Y800863D01*
X625061Y802367D01*
X623556Y803372D01*
X621782Y803726D01*
X620007Y803372D01*
X618503Y802367D01*
X609020Y792884D01*
X569682D01*
Y797773D01*
X570191D01*
Y802143D01*
X579620Y811572D01*
X579625Y811567D01*
X582663Y815124D01*
X585107Y819112D01*
X586897Y823434D01*
X587989Y827982D01*
X588356Y832645D01*
X588356Y832645D01*
X588261Y833743D01*
Y833744D01*
X588261Y833745D01*
X588139Y834916D01*
X588273Y836329D01*
X588264Y836371D01*
X588349Y836946D01*
X588349Y837693D01*
Y838954D01*
X588655Y839328D01*
X589643Y840139D01*
X592025Y840520D01*
X594158Y838388D01*
X597722Y841952D01*
X599877Y839796D01*
D02*
G37*
G36*
X704959Y883764D02*
X705546Y882346D01*
X706832Y881060D01*
X708513Y880364D01*
X710331D01*
X711325Y880776D01*
X712970Y880428D01*
X714094Y879687D01*
X714561Y878558D01*
X715847Y877272D01*
X717284Y876677D01*
X717681Y876269D01*
X718773Y874084D01*
X718233Y872832D01*
X717232Y872417D01*
X715946Y871131D01*
X715250Y869451D01*
Y867632D01*
X715946Y865951D01*
X717173Y864724D01*
X715960Y863511D01*
X715264Y861831D01*
Y860012D01*
X715960Y858331D01*
X717246Y857045D01*
X718927Y856349D01*
X720746D01*
X722426Y857045D01*
X723712Y858331D01*
X724408Y860012D01*
Y860021D01*
X726420Y862074D01*
X726567Y862261D01*
X726627Y862301D01*
X726789Y862544D01*
X727048Y862806D01*
X727136Y862896D01*
X728373Y864499D01*
X729843Y866403D01*
X732383Y865536D01*
Y825082D01*
X732680Y823592D01*
X733524Y822328D01*
X755224Y800628D01*
X755224Y800628D01*
X756488Y799783D01*
X757979Y799487D01*
X782148D01*
X782828Y798469D01*
Y796651D01*
X783524Y794970D01*
X784810Y793684D01*
X786178Y793117D01*
X787899Y792019D01*
X787995Y791566D01*
X787244Y789230D01*
X785739Y788225D01*
X784734Y786721D01*
X784564Y785865D01*
X783708Y785695D01*
X782204Y784690D01*
X781199Y783185D01*
X781028Y782329D01*
X780173Y782159D01*
X778668Y781154D01*
X777663Y779650D01*
X777493Y778794D01*
X776637Y778624D01*
X775133Y777619D01*
X774128Y776114D01*
X773957Y775258D01*
X773102Y775088D01*
X771597Y774083D01*
X770592Y772579D01*
X770422Y771723D01*
X769566Y771553D01*
X768062Y770547D01*
X767057Y769043D01*
X766886Y768187D01*
X766031Y768017D01*
X764526Y767012D01*
X763521Y765508D01*
X763351Y764652D01*
X762495Y764482D01*
X760991Y763476D01*
X759985Y761972D01*
X759815Y761116D01*
X758960Y760946D01*
X757455Y759941D01*
X756450Y758437D01*
X756280Y757581D01*
X755424Y757411D01*
X753920Y756405D01*
X752914Y754901D01*
X752744Y754045D01*
X751888Y753875D01*
X750384Y752870D01*
X749379Y751366D01*
X749209Y750510D01*
X748353Y750340D01*
X746849Y749334D01*
X745843Y747830D01*
X745673Y746974D01*
X744817Y746804D01*
X743313Y745799D01*
X742308Y744294D01*
X742138Y743439D01*
X741282Y743268D01*
X739777Y742263D01*
X738772Y740759D01*
X738602Y739903D01*
X737746Y739733D01*
X736242Y738728D01*
X735237Y737223D01*
X735067Y736368D01*
X734211Y736197D01*
X732706Y735192D01*
X731701Y733688D01*
X731531Y732832D01*
X730675Y732662D01*
X729171Y731657D01*
X728166Y730152D01*
X727995Y729296D01*
X727140Y729126D01*
X725635Y728121D01*
X724630Y726617D01*
X724460Y725761D01*
X723604Y725591D01*
X722100Y724585D01*
X721095Y723081D01*
X720817Y721686D01*
X720267Y721577D01*
X718931Y720684D01*
X718038Y719347D01*
X717928Y718797D01*
X716533Y718520D01*
X715029Y717514D01*
X714024Y716010D01*
X713671Y714236D01*
X714024Y712461D01*
X715029Y710957D01*
X725523Y700463D01*
X725847Y699754D01*
Y677210D01*
X708105Y659467D01*
X708069Y659467D01*
X706460Y657583D01*
X704436Y655213D01*
X701513Y650444D01*
X699659Y645967D01*
X697121Y646477D01*
X697309Y698029D01*
X698822Y700026D01*
X699307Y700350D01*
X709914Y710957D01*
X710919Y712461D01*
X711272Y714236D01*
X710919Y716010D01*
X709914Y717514D01*
X708409Y718520D01*
X707553Y718690D01*
X707383Y719546D01*
X706378Y721050D01*
X705470Y721656D01*
X705306Y723787D01*
X705477Y724474D01*
X725558Y734060D01*
X725825D01*
X727506Y734756D01*
X728792Y736042D01*
X729488Y737723D01*
Y739541D01*
X728792Y741222D01*
X727506Y742508D01*
X725825Y743204D01*
X724007D01*
X722326Y742508D01*
X721879Y742061D01*
X707609Y735249D01*
X706691Y735739D01*
X705358Y736989D01*
Y738271D01*
X704662Y739952D01*
X703376Y741238D01*
X701695Y741934D01*
X699877D01*
X698196Y741238D01*
X696910Y739952D01*
X696692Y739426D01*
X694263Y739909D01*
X694152Y739980D01*
Y754269D01*
X693768Y756202D01*
X692673Y757840D01*
X688706Y761807D01*
X688688Y761901D01*
X687593Y763539D01*
X685955Y764634D01*
X684022Y765018D01*
X682089Y764634D01*
X680451Y763539D01*
X679356Y761901D01*
X678972Y759968D01*
Y759349D01*
X679356Y757417D01*
X680451Y755779D01*
X684052Y752178D01*
Y746745D01*
X682180Y746014D01*
X681512Y745877D01*
X680125Y746804D01*
X679269Y746974D01*
X679099Y747830D01*
X678094Y749334D01*
X676589Y750340D01*
X675734Y750510D01*
X675564Y751366D01*
X674558Y752870D01*
X673054Y753875D01*
X672599Y754414D01*
X672895Y756662D01*
X672851Y756991D01*
X672885Y757249D01*
X672729Y759604D01*
X672729Y760292D01*
X673483Y765763D01*
X673862Y766679D01*
Y768497D01*
X673166Y770178D01*
X671880Y771464D01*
X670199Y772160D01*
X668381D01*
X666700Y771464D01*
X665414Y770178D01*
X664718Y768497D01*
Y767384D01*
X662992Y765975D01*
X662309Y765699D01*
X661184Y765863D01*
X660416Y767012D01*
X658912Y768017D01*
X657517Y768295D01*
X657407Y768845D01*
X656514Y770181D01*
X655178Y771074D01*
X654628Y771184D01*
X654350Y772579D01*
X653345Y774083D01*
X651841Y775088D01*
X650985Y775258D01*
X650815Y776114D01*
X649809Y777619D01*
X648305Y778624D01*
X647449Y778794D01*
X647279Y779650D01*
X646274Y781154D01*
X646979Y781795D01*
X647151Y781932D01*
X647216Y782010D01*
X647669Y782421D01*
X647929Y782858D01*
X648256Y783247D01*
X648364Y783589D01*
X648548Y783897D01*
X648621Y784401D01*
X648774Y784885D01*
X648743Y785243D01*
X648795Y785598D01*
X648755Y786367D01*
X649533Y787231D01*
X649782Y787334D01*
X651068Y788620D01*
X651764Y790301D01*
Y792119D01*
X651068Y793800D01*
X649782Y795086D01*
X648101Y795782D01*
X646283D01*
X644602Y795086D01*
X643316Y793800D01*
X643075Y793217D01*
X640992Y790905D01*
X640635Y790306D01*
X639633Y789708D01*
X639279Y789618D01*
X636673Y790256D01*
X635667Y791761D01*
X634163Y792766D01*
X633307Y792936D01*
X633137Y793792D01*
X632132Y795296D01*
X633605Y797315D01*
X634853Y796798D01*
X636671D01*
X638352Y797494D01*
X639638Y798780D01*
X640334Y800461D01*
Y802279D01*
X639638Y803960D01*
X639484Y804114D01*
Y807638D01*
X639149Y809323D01*
X638195Y810751D01*
X637625Y811322D01*
Y813463D01*
X637290Y815148D01*
X636335Y816576D01*
X635592Y817320D01*
X635667Y818089D01*
X636673Y819593D01*
X638830Y820590D01*
X641284Y819862D01*
X642570Y818576D01*
X644251Y817880D01*
X646069D01*
X647750Y818576D01*
X649036Y819862D01*
X649732Y821543D01*
Y823361D01*
X649563Y823770D01*
Y829685D01*
X649228Y831370D01*
X649009Y831696D01*
X649809Y832231D01*
X650815Y833736D01*
X650985Y834591D01*
X651841Y834762D01*
X653345Y835767D01*
X654350Y837271D01*
X654520Y838127D01*
X655376Y838297D01*
X656881Y839302D01*
X657886Y840807D01*
X658056Y841662D01*
X658912Y841833D01*
X660416Y842838D01*
X661421Y844342D01*
X661591Y845198D01*
X662447Y845368D01*
X663952Y846373D01*
X664957Y847878D01*
X665127Y848733D01*
X665983Y848904D01*
X667487Y849909D01*
X668492Y851413D01*
X668663Y852269D01*
X669518Y852439D01*
X671023Y853444D01*
X672028Y854949D01*
X672198Y855805D01*
X673054Y855975D01*
X674558Y856980D01*
X675564Y858484D01*
X675734Y859340D01*
X676589Y859510D01*
X678094Y860515D01*
X679099Y862020D01*
X679269Y862876D01*
X680125Y863046D01*
X681629Y864051D01*
X682635Y865555D01*
X682805Y866411D01*
X683661Y866581D01*
X685165Y867587D01*
X686170Y869091D01*
X686340Y869947D01*
X687196Y870117D01*
X688700Y871122D01*
X689706Y872626D01*
X689876Y873482D01*
X690732Y873652D01*
X692236Y874658D01*
X693241Y876162D01*
X693411Y877018D01*
X694267Y877188D01*
X695771Y878193D01*
X696777Y879697D01*
X696947Y880553D01*
X697803Y880723D01*
X699307Y881729D01*
X700312Y883233D01*
X700364Y883494D01*
X702582Y884677D01*
X704959Y883764D01*
D02*
G37*
G36*
X498975Y964746D02*
X500429Y962226D01*
X502486Y960169D01*
X505006Y958715D01*
X506265Y958377D01*
X514307Y898909D01*
X514445Y898507D01*
X514504Y898061D01*
X515195Y896393D01*
X516294Y894960D01*
X517727Y893861D01*
X519395Y893169D01*
X519746Y893123D01*
X520098Y892994D01*
X545575Y888985D01*
X545377Y886445D01*
X539910D01*
X537942Y886186D01*
X536107Y885426D01*
X534532Y884218D01*
X533324Y882643D01*
X532564Y880808D01*
X532506Y880364D01*
X549910D01*
X567314D01*
X567256Y880808D01*
X566496Y882643D01*
X568549Y884046D01*
X597469Y856207D01*
X596710Y853412D01*
X594473Y852875D01*
X590100Y851064D01*
X586065Y848591D01*
X583086Y846047D01*
X582466Y845517D01*
X581592Y844534D01*
X581473Y844455D01*
X581327Y844235D01*
X581327Y844235D01*
X581130Y843941D01*
X580495Y843114D01*
X579804Y841446D01*
X579623Y840067D01*
X579568Y839790D01*
X579543Y839667D01*
Y837849D01*
X579538Y837414D01*
X579538Y837414D01*
X579344Y836946D01*
X579286Y834898D01*
X579344Y832645D01*
X579472Y832336D01*
X579337Y829955D01*
X579198Y828538D01*
X578000Y824587D01*
X576054Y820947D01*
X573562Y817910D01*
X573393Y817798D01*
X564113Y808517D01*
X562890Y809171D01*
X560081Y810023D01*
X557285Y810298D01*
X557160Y810323D01*
X556704D01*
Y818468D01*
X535808D01*
Y810323D01*
X535311D01*
X533626Y809988D01*
X532922Y809536D01*
X531923Y808924D01*
X530914Y808062D01*
X528773Y806233D01*
X526082Y803082D01*
X523917Y799549D01*
X522331Y795722D01*
X521971Y794222D01*
X521573Y793932D01*
X519136Y793295D01*
X518315Y793844D01*
X516704Y794164D01*
Y809871D01*
X516814Y810005D01*
X519223Y814511D01*
X520706Y819400D01*
X521207Y824484D01*
X521178D01*
X520794Y826417D01*
X519699Y828055D01*
X518061Y829150D01*
X516128Y829534D01*
X514195Y829150D01*
X512557Y828055D01*
X511707Y826783D01*
X511462Y826417D01*
X511078Y824484D01*
X510883Y822025D01*
X510818Y821366D01*
X509939Y818468D01*
X496125D01*
Y965569D01*
X498665Y965903D01*
X498975Y964746D01*
D02*
G37*
G36*
X939550Y835856D02*
X952755Y822651D01*
Y820190D01*
X953641D01*
X954680Y819151D01*
X954631Y819102D01*
Y813295D01*
X955273D01*
X955719Y812849D01*
Y809157D01*
X952755Y806193D01*
Y803939D01*
X952835Y803859D01*
Y793287D01*
X946365Y793389D01*
X934974Y796544D01*
X930143Y815340D01*
X921560D01*
X918232Y818667D01*
X919062Y838571D01*
X939710Y839861D01*
X939550Y835856D01*
D02*
G37*
G36*
X578691Y777228D02*
X579804Y775809D01*
X579565Y775232D01*
Y773413D01*
X580261Y771733D01*
X580871Y771123D01*
X580979Y770394D01*
X580820Y768781D01*
X580819Y768777D01*
X580539Y768136D01*
X579817Y767653D01*
X579817Y767653D01*
X572761Y760598D01*
X570042Y760526D01*
X568756Y761812D01*
X567075Y762508D01*
X565257D01*
X564161Y762054D01*
X563576Y761812D01*
X562169Y760707D01*
X562186Y760690D01*
X551803Y750307D01*
X539073D01*
Y759292D01*
X556704D01*
Y766483D01*
X558078Y768454D01*
X561594D01*
Y772994D01*
X563118D01*
Y774518D01*
X568158D01*
Y776945D01*
X568667D01*
Y776983D01*
X575646D01*
X577330Y777318D01*
X577814Y777641D01*
X578691Y777228D01*
D02*
G37*
G36*
X952569Y755759D02*
X953151Y755177D01*
X952947Y754973D01*
X951510Y755005D01*
X949564Y753059D01*
Y745754D01*
X948579Y744769D01*
X946122Y745046D01*
X946115Y744444D01*
X942899D01*
X941063Y738883D01*
Y735083D01*
X942086Y734060D01*
X939800Y731774D01*
Y731711D01*
X940080D01*
Y704570D01*
X940308Y704342D01*
X943320D01*
X944535Y703128D01*
X946658Y701004D01*
Y700024D01*
Y697611D01*
Y695198D01*
X942177D01*
X941864Y695512D01*
X940308Y693956D01*
Y690372D01*
X939818Y693466D01*
X938332Y691980D01*
X936831Y693481D01*
X933828D01*
Y693790D01*
X931842Y695777D01*
X931930Y695865D01*
Y700898D01*
X933602Y703904D01*
X933747Y705083D01*
X934466Y721614D01*
Y725678D01*
X934720D01*
X933196Y727202D01*
Y727710D01*
X934209Y728926D01*
X933196Y735330D01*
X933564Y735698D01*
X932019D01*
Y744059D01*
X934769Y746809D01*
X935124D01*
X935990Y768350D01*
X945795Y771919D01*
X945965Y779267D01*
X952569D01*
Y755759D01*
D02*
G37*
G36*
X613951Y722370D02*
X613962Y722380D01*
X616199Y721648D01*
X616935Y720912D01*
X616621Y719334D01*
Y716044D01*
X602495Y701918D01*
X615291Y689122D01*
X630915Y704747D01*
X629082Y706580D01*
X629701Y708864D01*
X632187Y711350D01*
X628976Y714560D01*
X631132Y716716D01*
X634342Y713505D01*
X635320Y714483D01*
X638033Y714995D01*
X638755Y714512D01*
X639671Y713900D01*
X641604Y713516D01*
X642779Y711160D01*
X641276Y709657D01*
X642573Y708361D01*
X642281Y706894D01*
Y702935D01*
X639935Y701963D01*
X637506Y704392D01*
X635019Y701906D01*
X638230Y698696D01*
X636074Y696540D01*
X632864Y699751D01*
X630378Y697264D01*
X628029Y696803D01*
X627898Y696934D01*
X622937Y691973D01*
X629329Y685581D01*
X627174Y683425D01*
X620782Y689818D01*
X616237Y685272D01*
X615877Y685632D01*
X603082Y672836D01*
X616585Y659333D01*
X616725Y659474D01*
X618649Y657987D01*
X623964Y652672D01*
X630003Y658711D01*
X631080Y657633D01*
X632158Y658711D01*
X638550Y652318D01*
X643095Y656864D01*
X643455Y656504D01*
X656250Y669300D01*
X656689Y669602D01*
X659149Y668308D01*
X658982Y666373D01*
X658982D01*
X658273Y663934D01*
X657645Y661886D01*
X657612Y661807D01*
X644079Y648273D01*
X644079Y648273D01*
X639441Y643636D01*
X633459D01*
X632586Y645021D01*
X632351Y646120D01*
X636395Y650163D01*
X631080Y655478D01*
X626119Y650517D01*
X630821Y645815D01*
X630927Y645107D01*
X630699Y642967D01*
X629770Y642346D01*
X626826Y639403D01*
X624840D01*
X623155Y639067D01*
X621727Y638113D01*
X613152Y629538D01*
X610686D01*
X607876Y628785D01*
X605356Y627331D01*
X603299Y625274D01*
X603179Y625064D01*
X602708Y624915D01*
X600306Y625168D01*
X599366Y626926D01*
X597611Y629065D01*
X597522Y629199D01*
X597511Y629210D01*
X597511Y629210D01*
X597511Y629210D01*
X594666Y632074D01*
X589449Y711372D01*
X590112Y711994D01*
X590406Y712168D01*
X591829Y712584D01*
X595492Y708922D01*
X605805Y719234D01*
X605947Y719206D01*
X608051D01*
X609736Y719541D01*
X611164Y720495D01*
X613495Y722826D01*
X613951Y722370D01*
D02*
G37*
G36*
X993661Y704488D02*
X990606Y689096D01*
X978355Y688848D01*
X975995Y693293D01*
X980440Y699262D01*
X989141Y709168D01*
X1008201D01*
X993661Y704488D01*
D02*
G37*
G36*
X552111Y695258D02*
X542987Y686133D01*
X542033Y684705D01*
X541697Y683020D01*
Y669138D01*
X541697Y631142D01*
X539553Y629642D01*
X537151Y630299D01*
X536320Y631855D01*
X533328Y635501D01*
X533306Y635479D01*
X533233Y635527D01*
X522309Y646452D01*
Y660835D01*
X522309Y660835D01*
Y698224D01*
X522309Y700133D01*
X523208Y710255D01*
X527311Y715053D01*
X529694Y714174D01*
Y711055D01*
X529440Y708620D01*
X529440Y708620D01*
X529440D01*
Y703082D01*
X529438Y703072D01*
Y691581D01*
X529242Y691289D01*
X528858Y689356D01*
X529242Y687423D01*
X530337Y685785D01*
X531975Y684690D01*
X533908Y684306D01*
X535412Y684605D01*
X535841Y684690D01*
X537479Y685785D01*
X537453Y685811D01*
X538564Y687260D01*
X539263Y688946D01*
X539428Y690203D01*
X539538Y690756D01*
Y697523D01*
X548535D01*
Y707026D01*
X548535Y708619D01*
X548535Y708619D01*
X548281Y709461D01*
X548281Y709461D01*
Y720557D01*
X547890D01*
Y725211D01*
X552111D01*
Y695258D01*
D02*
G37*
G36*
X752433Y688885D02*
X754238Y688587D01*
X754974Y687095D01*
X756115Y683732D01*
X728372Y654258D01*
X718009Y646378D01*
X717811Y646153D01*
X717561Y645987D01*
X716956Y645382D01*
X716793Y645137D01*
X716572Y644943D01*
X716320Y644429D01*
X716002Y643954D01*
X715945Y643665D01*
X715815Y643401D01*
X715640Y642742D01*
X715639Y642741D01*
X712113Y629492D01*
X709476Y628785D01*
X708999Y628510D01*
X706459Y629976D01*
Y634249D01*
X706458Y634254D01*
X706459Y634259D01*
X706459Y634270D01*
X706430Y634412D01*
X706749Y638462D01*
X707733Y642560D01*
X709345Y646453D01*
X711547Y650047D01*
X714190Y653140D01*
X714313Y653223D01*
X733363Y672273D01*
X734317Y673701D01*
X734653Y675386D01*
Y679910D01*
X737193Y680681D01*
X737855Y679689D01*
X739493Y678594D01*
X741426Y678210D01*
X743359Y678594D01*
X744997Y679689D01*
X746092Y681327D01*
X746370Y682728D01*
X747047Y684988D01*
X749533Y687474D01*
X746323Y690684D01*
X748478Y692840D01*
X752433Y688885D01*
D02*
G37*
G36*
X845312Y796947D02*
X845312Y796945D01*
Y795127D01*
X846008Y793446D01*
X846396Y793058D01*
X847447Y790723D01*
X847438Y790701D01*
X847532Y790474D01*
X840067Y758931D01*
X840049Y758416D01*
X840015Y758158D01*
X839887Y757632D01*
X839887Y757623D01*
Y757623D01*
X839389Y745931D01*
X839508Y745164D01*
X839598Y744393D01*
X839640Y744318D01*
X839653Y744234D01*
X840056Y743570D01*
X840434Y742892D01*
X910240Y660782D01*
X910524Y660096D01*
X911810Y658810D01*
X912906Y658356D01*
X912258Y655875D01*
X906999Y656499D01*
X906165Y656844D01*
X904347D01*
X902666Y656148D01*
X902202Y655684D01*
X899094Y655476D01*
X833452Y736047D01*
X820942Y756849D01*
X823195Y759102D01*
X819984Y762312D01*
X821062Y763390D01*
X819984Y764468D01*
X823810Y768293D01*
X823858Y768709D01*
X824967Y770486D01*
X825547Y770539D01*
X829127Y774120D01*
X832691Y777683D01*
X830975Y779400D01*
X831335Y779760D01*
X831276Y779818D01*
X833643Y782185D01*
X834738Y783823D01*
X835122Y785756D01*
Y785876D01*
X834738Y787809D01*
X833643Y789447D01*
X832005Y790542D01*
X830072Y790926D01*
X828139Y790542D01*
X826501Y789447D01*
X826259Y789085D01*
X823782Y786608D01*
X821958Y788432D01*
X820673Y789291D01*
X813017Y796947D01*
X813382Y798549D01*
X813991Y799487D01*
X843615D01*
X845312Y796947D01*
D02*
G37*
%LPC*%
G36*
X756566Y913808D02*
X754434Y911675D01*
X756920Y909189D01*
X759053Y911322D01*
X756566Y913808D01*
D02*
G37*
G36*
X1044575Y1004811D02*
Y996315D01*
X1053071D01*
X1052492Y998478D01*
X1051104Y1000882D01*
X1049142Y1002844D01*
X1046738Y1004232D01*
X1044575Y1004811D01*
D02*
G37*
G36*
X1019175D02*
Y996315D01*
X1027671D01*
X1027092Y998478D01*
X1025704Y1000882D01*
X1023742Y1002844D01*
X1021338Y1004232D01*
X1019175Y1004811D01*
D02*
G37*
G36*
X1015365D02*
X1013202Y1004232D01*
X1010798Y1002844D01*
X1008836Y1000882D01*
X1007448Y998478D01*
X1006869Y996315D01*
X1015365D01*
Y1004811D01*
D02*
G37*
G36*
X1040765D02*
X1038602Y1004232D01*
X1036198Y1002844D01*
X1034236Y1000882D01*
X1032848Y998478D01*
X1032269Y996315D01*
X1040765D01*
Y1004811D01*
D02*
G37*
G36*
X1053071Y992505D02*
X1044575D01*
Y984009D01*
X1046738Y984588D01*
X1049142Y985976D01*
X1051104Y987938D01*
X1052492Y990342D01*
X1053071Y992505D01*
D02*
G37*
G36*
X1027671D02*
X1019175D01*
Y984009D01*
X1021338Y984588D01*
X1023742Y985976D01*
X1025704Y987938D01*
X1027092Y990342D01*
X1027671Y992505D01*
D02*
G37*
G36*
X1040765D02*
X1032269D01*
X1032848Y990342D01*
X1034236Y987938D01*
X1036198Y985976D01*
X1038602Y984588D01*
X1040765Y984009D01*
Y992505D01*
D02*
G37*
G36*
X1015365D02*
X1006869D01*
X1007448Y990342D01*
X1008836Y987938D01*
X1010798Y985976D01*
X1013202Y984588D01*
X1015365Y984009D01*
Y992505D01*
D02*
G37*
G36*
X663124Y1005458D02*
X660216D01*
X657406Y1004705D01*
X654886Y1003251D01*
X652829Y1001194D01*
X651375Y998674D01*
X650622Y995864D01*
Y992955D01*
X651375Y990146D01*
X652829Y987626D01*
X654886Y985569D01*
X657406Y984115D01*
X660216Y983362D01*
X663124D01*
X665934Y984115D01*
X668454Y985569D01*
X670511Y987626D01*
X671965Y990146D01*
X672718Y992955D01*
Y995864D01*
X671965Y998674D01*
X670511Y1001194D01*
X668454Y1003251D01*
X665934Y1004705D01*
X663124Y1005458D01*
D02*
G37*
G36*
X1039248Y918439D02*
X1030732D01*
Y907923D01*
X1039248D01*
Y918439D01*
D02*
G37*
G36*
X1027684D02*
X1019168D01*
Y907923D01*
X1027684D01*
Y918439D01*
D02*
G37*
G36*
X1011708Y915419D02*
X1003192D01*
Y906903D01*
X1011708D01*
Y915419D01*
D02*
G37*
G36*
X1000144D02*
X991628D01*
Y906903D01*
X1000144D01*
Y915419D01*
D02*
G37*
G36*
X1039248Y904875D02*
X1030732D01*
Y894359D01*
X1039248D01*
Y904875D01*
D02*
G37*
G36*
X1027684D02*
X1019168D01*
Y894359D01*
X1027684D01*
Y904875D01*
D02*
G37*
G36*
X1011708Y903855D02*
X1001668D01*
X991628D01*
Y895339D01*
X1001199D01*
X1001845Y894422D01*
X1002504Y892799D01*
X1002040Y891679D01*
Y889999D01*
X1001522Y889491D01*
Y885317D01*
X1010538D01*
Y888083D01*
X1010538Y888083D01*
X1010538D01*
X1010488Y890602D01*
Y891679D01*
X1010024Y892799D01*
X1010684Y894422D01*
X1011330Y895339D01*
X1011708D01*
Y903855D01*
D02*
G37*
G36*
X998474Y888083D02*
X989458D01*
Y885317D01*
X998474D01*
Y888083D01*
D02*
G37*
G36*
X1041646Y887269D02*
X1030630D01*
Y881253D01*
X1041646D01*
Y887269D01*
D02*
G37*
G36*
X1027582D02*
X1016566D01*
Y881253D01*
X1027582D01*
Y887269D01*
D02*
G37*
G36*
X1041646Y878205D02*
X1030630D01*
Y872189D01*
X1041646D01*
Y878205D01*
D02*
G37*
G36*
X1027582D02*
X1016566D01*
Y872189D01*
X1027582D01*
Y878205D01*
D02*
G37*
G36*
X1041646Y869489D02*
X1030630D01*
Y863473D01*
X1041646D01*
Y869489D01*
D02*
G37*
G36*
X1027582D02*
X1016566D01*
Y863473D01*
X1027582D01*
Y869489D01*
D02*
G37*
G36*
X1041646Y860425D02*
X1030630D01*
Y854409D01*
X1041646D01*
Y860425D01*
D02*
G37*
G36*
X1027582D02*
X1016566D01*
Y854409D01*
X1027582D01*
Y860425D01*
D02*
G37*
G36*
X1039248Y847319D02*
X1030732D01*
Y836803D01*
X1039248D01*
Y847319D01*
D02*
G37*
G36*
X1027684D02*
X1019168D01*
Y836803D01*
X1027684D01*
Y847319D01*
D02*
G37*
G36*
X1011708Y834775D02*
X1003192D01*
Y826259D01*
X1011708D01*
Y834775D01*
D02*
G37*
G36*
X1000144D02*
X991628D01*
Y826259D01*
X1000144D01*
Y834775D01*
D02*
G37*
G36*
X1039248Y833755D02*
X1030732D01*
Y823239D01*
X1039248D01*
Y833755D01*
D02*
G37*
G36*
X1027684D02*
X1019168D01*
Y823239D01*
X1027684D01*
Y833755D01*
D02*
G37*
G36*
X1028382Y806116D02*
X1014286D01*
Y805547D01*
X1013428Y803362D01*
X1004429D01*
Y803363D01*
X999332D01*
X999286Y803372D01*
X986028D01*
X984095Y802988D01*
X982457Y801893D01*
X981362Y800255D01*
X980978Y798322D01*
X981362Y796389D01*
X982457Y794751D01*
X984095Y793656D01*
X986028Y793272D01*
X994333D01*
Y792267D01*
X1003332D01*
Y792266D01*
X1013428D01*
X1014286Y790081D01*
Y790020D01*
X1028382D01*
Y806116D01*
D02*
G37*
G36*
X1044874Y805608D02*
X1039858D01*
Y799592D01*
X1044874D01*
Y805608D01*
D02*
G37*
G36*
X1036810D02*
X1031794D01*
Y799592D01*
X1036810D01*
Y805608D01*
D02*
G37*
G36*
X1044874Y796544D02*
X1039858D01*
Y790528D01*
X1044874D01*
Y796544D01*
D02*
G37*
G36*
X1036810D02*
X1031794D01*
Y790528D01*
X1036810D01*
Y796544D01*
D02*
G37*
G36*
X1040112Y768198D02*
X1031596D01*
Y757682D01*
X1040112D01*
Y768198D01*
D02*
G37*
G36*
X1028548D02*
X1020032D01*
Y757682D01*
X1028548D01*
Y768198D01*
D02*
G37*
G36*
X1012572Y765178D02*
X1004056D01*
Y756662D01*
X1012572D01*
Y765178D01*
D02*
G37*
G36*
X1040112Y754634D02*
X1031596D01*
Y744118D01*
X1040112D01*
Y754634D01*
D02*
G37*
G36*
X1028548D02*
X1020032D01*
Y744118D01*
X1028548D01*
Y754634D01*
D02*
G37*
G36*
X507780Y749799D02*
Y739283D01*
X516196D01*
Y749799D01*
X507780D01*
D02*
G37*
G36*
X1012572Y753614D02*
X1002532D01*
X992492D01*
Y745098D01*
X1002063D01*
X1002709Y744181D01*
X1003368Y742558D01*
X1002905Y741438D01*
Y739758D01*
X1002386Y739250D01*
Y735076D01*
X1011402D01*
Y737842D01*
X1011402Y737842D01*
X1011402D01*
X1011353Y740361D01*
Y741438D01*
X1010889Y742558D01*
X1011548Y744181D01*
X1012194Y745098D01*
X1012572D01*
Y753614D01*
D02*
G37*
G36*
X999338Y737842D02*
X990322D01*
Y736600D01*
X991108D01*
X994156Y735330D01*
X994087Y735076D01*
X999338D01*
Y737842D01*
D02*
G37*
G36*
X1042510Y737028D02*
X1031494D01*
Y731012D01*
X1042510D01*
Y737028D01*
D02*
G37*
G36*
X1028446D02*
X1017430D01*
Y731012D01*
X1028446D01*
Y737028D01*
D02*
G37*
G36*
X1042510Y727964D02*
X1031494D01*
Y721948D01*
X1042510D01*
Y727964D01*
D02*
G37*
G36*
X1028446D02*
X1017430D01*
Y721948D01*
X1028446D01*
Y727964D01*
D02*
G37*
G36*
X1042510Y719248D02*
X1031494D01*
Y713232D01*
X1042510D01*
Y719248D01*
D02*
G37*
G36*
X1028446D02*
X1017430D01*
Y713232D01*
X1028446D01*
Y719248D01*
D02*
G37*
G36*
X1042510Y710184D02*
X1031494D01*
Y704168D01*
X1042510D01*
Y710184D01*
D02*
G37*
G36*
X1028446D02*
X1017430D01*
Y704168D01*
X1028446D01*
Y710184D01*
D02*
G37*
G36*
X1040112Y697078D02*
X1031596D01*
Y686562D01*
X1040112D01*
Y697078D01*
D02*
G37*
G36*
X1028548D02*
X1020032D01*
Y686562D01*
X1028548D01*
Y697078D01*
D02*
G37*
G36*
X1012572Y684534D02*
X1004056D01*
Y676018D01*
X1012572D01*
Y684534D01*
D02*
G37*
G36*
X1040112Y683514D02*
X1031596D01*
Y672998D01*
X1040112D01*
Y683514D01*
D02*
G37*
G36*
X1028548D02*
X1020032D01*
Y672998D01*
X1028548D01*
Y683514D01*
D02*
G37*
G36*
X1045395Y629538D02*
X1042486D01*
X1039676Y628785D01*
X1037156Y627331D01*
X1035099Y625274D01*
X1033645Y622754D01*
X1032892Y619944D01*
Y617035D01*
X1033645Y614226D01*
X1035099Y611706D01*
X1037156Y609649D01*
X1039676Y608195D01*
X1042486Y607442D01*
X1045395D01*
X1048204Y608195D01*
X1050724Y609649D01*
X1052781Y611706D01*
X1054235Y614226D01*
X1054988Y617035D01*
Y619944D01*
X1054235Y622754D01*
X1052781Y625274D01*
X1050724Y627331D01*
X1048204Y628785D01*
X1045395Y629538D01*
D02*
G37*
G36*
X1045845Y603491D02*
Y594995D01*
X1054341D01*
X1053762Y597158D01*
X1052374Y599562D01*
X1050412Y601524D01*
X1048008Y602912D01*
X1045845Y603491D01*
D02*
G37*
G36*
X1042035D02*
X1039872Y602912D01*
X1037468Y601524D01*
X1035506Y599562D01*
X1034118Y597158D01*
X1033539Y594995D01*
X1042035D01*
Y603491D01*
D02*
G37*
G36*
X1054341Y591185D02*
X1045845D01*
Y582689D01*
X1048008Y583268D01*
X1050412Y584656D01*
X1052374Y586618D01*
X1053762Y589022D01*
X1054341Y591185D01*
D02*
G37*
G36*
X1042035D02*
X1033539D01*
X1034118Y589022D01*
X1035506Y586618D01*
X1037468Y584656D01*
X1039872Y583268D01*
X1042035Y582689D01*
Y591185D01*
D02*
G37*
G36*
X994594Y604138D02*
X991685D01*
X988876Y603385D01*
X986356Y601931D01*
X984299Y599874D01*
X982845Y597354D01*
X982092Y594544D01*
Y591636D01*
X982845Y588826D01*
X984299Y586306D01*
X986356Y584249D01*
X988876Y582795D01*
X991685Y582042D01*
X994594D01*
X997404Y582795D01*
X999924Y584249D01*
X1001981Y586306D01*
X1003435Y588826D01*
X1004188Y591636D01*
Y594544D01*
X1003435Y597354D01*
X1001981Y599874D01*
X999924Y601931D01*
X997404Y603385D01*
X994594Y604138D01*
D02*
G37*
G36*
X791395D02*
X788485D01*
X785676Y603385D01*
X783156Y601931D01*
X781099Y599874D01*
X779645Y597354D01*
X778892Y594544D01*
Y591636D01*
X779645Y588826D01*
X781099Y586306D01*
X783156Y584249D01*
X785676Y582795D01*
X788485Y582042D01*
X791395D01*
X794204Y582795D01*
X796724Y584249D01*
X798781Y586306D01*
X800235Y588826D01*
X800988Y591636D01*
Y594544D01*
X800235Y597354D01*
X798781Y599874D01*
X796724Y601931D01*
X794204Y603385D01*
X791395Y604138D01*
D02*
G37*
G36*
X567314Y877316D02*
X551434D01*
Y871235D01*
X559910D01*
X561878Y871494D01*
X563713Y872254D01*
X565288Y873462D01*
X566496Y875038D01*
X567256Y876872D01*
X567314Y877316D01*
D02*
G37*
G36*
X548386D02*
X532506D01*
X532564Y876872D01*
X533324Y875038D01*
X534532Y873462D01*
X536107Y872254D01*
X537942Y871494D01*
X539910Y871235D01*
X548386D01*
Y877316D01*
D02*
G37*
G36*
X559910Y861557D02*
X539910D01*
X537809Y861281D01*
X535851Y860470D01*
X534170Y859180D01*
X532880Y857499D01*
X532069Y855541D01*
X531793Y853440D01*
X532069Y851339D01*
X532880Y849381D01*
X534170Y847700D01*
X535851Y846410D01*
X537809Y845599D01*
X539910Y845323D01*
X559910D01*
X562011Y845599D01*
X563969Y846410D01*
X565650Y847700D01*
X568180Y846824D01*
X568691Y846313D01*
X570329Y845218D01*
X572262Y844834D01*
X574195Y845218D01*
X575833Y846313D01*
X576928Y847951D01*
X577312Y849884D01*
X576928Y851817D01*
X575833Y853455D01*
X572277Y857011D01*
X570639Y858106D01*
X568706Y858490D01*
X566179D01*
X565650Y859180D01*
X563969Y860470D01*
X562011Y861281D01*
X559910Y861557D01*
D02*
G37*
G36*
X568158Y771470D02*
X564642D01*
Y768454D01*
X568158D01*
Y771470D01*
D02*
G37*
G36*
X834846Y775528D02*
X832360Y773042D01*
X834493Y770909D01*
X836979Y773396D01*
X834846Y775528D01*
D02*
G37*
G36*
X830205Y770887D02*
X827719Y768400D01*
X829851Y766268D01*
X832337Y768754D01*
X830205Y770887D01*
D02*
G37*
G36*
X825704Y765876D02*
X823217Y763390D01*
X825350Y761257D01*
X827836Y763744D01*
X825704Y765876D01*
D02*
G37*
%LPD*%
D11*
X736993Y709075D02*
G03*
X735968Y710617I-4544J-1910D01*
G01*
X509982Y809647D02*
G03*
X516128Y824484I-14837J14837D01*
G01*
X533908Y689356D02*
G03*
X534488Y690756I-1400J1400D01*
G01*
X563118Y772994D02*
X563618D01*
X569603Y767009D01*
X571063D01*
X571500Y766572D01*
X506256Y773940D02*
X515945Y783628D01*
X506256Y771840D02*
Y773940D01*
X515945Y783628D02*
Y788741D01*
X516382Y789178D01*
X639960Y733552D02*
Y733686D01*
X641604Y718566D02*
Y731908D01*
X639960Y733552D02*
X641604Y731908D01*
X972265Y953103D02*
X991870Y969010D01*
X565237Y793917D02*
X576580Y796798D01*
X564642Y793822D02*
X565237Y793917D01*
X559910Y878840D02*
X571754Y869950D01*
X549910Y878840D02*
X559910D01*
X568706Y853440D02*
X572262Y849884D01*
X549910Y853440D02*
X568706D01*
X948857Y801116D02*
X949350Y800130D01*
X939546Y801116D02*
X948857D01*
X986028Y798322D02*
X999286D01*
X999381Y797815D01*
X974089Y643527D02*
X998047D01*
X964184Y652526D02*
X974090D01*
X830072Y785756D02*
Y785876D01*
X823842Y779526D02*
X830072Y785756D01*
X823842Y779406D02*
Y779526D01*
X1032693Y804709D02*
X1038343Y799059D01*
Y798077D02*
Y799059D01*
X1032693Y804709D02*
Y809061D01*
X1032256Y809498D02*
X1032693Y809061D01*
X1033597Y951667D02*
Y952683D01*
Y951667D02*
X1034034Y951230D01*
X1017270Y969010D02*
X1033597Y952683D01*
X1014548Y948690D02*
X1014643Y949285D01*
X1017270Y969010D01*
X680118Y730146D02*
X689102Y739129D01*
X684022Y759349D02*
X689102Y754269D01*
X680118Y730145D02*
Y730146D01*
X689102Y739129D02*
Y754269D01*
X684022Y759349D02*
Y759968D01*
X740685Y697638D02*
X741392Y698614D01*
X736993Y709075D02*
X741392Y698614D01*
X730682Y716003D02*
X735968Y710617D01*
X740685Y684620D02*
X741426Y683879D01*
X740685Y684620D02*
Y697638D01*
X741426Y683260D02*
Y683879D01*
X506256Y805920D02*
X509982Y809647D01*
X534488Y690756D02*
Y703072D01*
X639572Y734208D02*
Y746067D01*
X651834Y758329D02*
Y758430D01*
X639572Y746067D02*
X651834Y758329D01*
X639572Y734208D02*
X639766Y734014D01*
X814699Y769620D02*
Y769754D01*
X818387Y784861D02*
X823842Y779406D01*
X808464Y793785D02*
X809036D01*
X817960Y784861D01*
X818387D01*
X999014Y652961D02*
X1014293D01*
X998983D02*
X999014D01*
X999109Y653056D01*
Y663321D01*
X999236Y663448D01*
X1015381Y654050D02*
X1016000D01*
X1014293Y652961D02*
X1015381Y654050D01*
X974090Y652526D02*
Y660654D01*
X986536Y652708D02*
Y661670D01*
X964485Y854547D02*
Y867203D01*
X964278Y854340D02*
X964485Y854547D01*
Y867203D02*
X964692Y867410D01*
X919226Y861568D02*
X924306Y856488D01*
X930910D01*
X919734Y847344D02*
X922274D01*
X922419Y847489D02*
X930909D01*
X922274Y847344D02*
X922419Y847489D01*
X944626Y868934D02*
X945134D01*
X949278Y864790D01*
X1038216Y782692D02*
Y797950D01*
X1038098Y782574D02*
X1038216Y782692D01*
X1038334Y798068D02*
Y799068D01*
X971732Y721114D02*
Y721614D01*
D12*
X518922Y711757D02*
G03*
X519392Y712566I-13466J8371D01*
G01*
X513819Y711815D02*
G03*
X517144Y718566I-8363J8314D01*
G01*
X521033Y726024D02*
G03*
X517144Y718566I8584J-9219D01*
G01*
X510955Y708934D02*
G03*
X510540Y706167I8990J-2763D01*
G01*
X521224Y726203D02*
G03*
X521225Y726204I-1724J1865D01*
G01*
X534234Y715010D02*
G03*
X527173Y712085I0J-9985D01*
G01*
X968669Y914340D02*
G03*
X967839Y914322I-359J-2515D01*
G01*
X957716Y912378D02*
G03*
X955741Y910540I479J-2494D01*
G01*
X955367Y909120D02*
G03*
X955303Y908832I3911J-1030D01*
G01*
X971332Y952378D02*
G03*
X972265Y953103I-17177J23047D01*
G01*
X583946Y832645D02*
G03*
X583914Y833047I-2540J0D01*
G01*
X576507Y814685D02*
G03*
X583946Y832645I-17960J17960D01*
G01*
X564643Y802821D02*
G03*
X557160Y805920I-7482J-7482D01*
G01*
X722442Y885410D02*
G03*
X723574Y884647I2937J3133D01*
G01*
X722442Y885410D02*
G03*
X720841Y886473I-3987J-4270D01*
G01*
X723574Y884647D02*
G03*
X726431Y884380I1805J3896D01*
G01*
X719109Y887253D02*
G03*
X719259Y887180I1187J2245D01*
G01*
X866324Y745548D02*
G03*
X866948Y743361I2496J-470D01*
G01*
X1008165Y615513D02*
G03*
X1008769Y613903I10375J2977D01*
G01*
X946660Y654821D02*
G03*
X946055Y657063I-2484J533D01*
G01*
X854769Y824609D02*
G03*
X853179Y825725I-2143J-1364D01*
G01*
X823529Y832233D02*
G03*
X822394Y832223I-545J-2481D01*
G01*
X809234Y829080D02*
G03*
X809180Y829067I997J-4177D01*
G01*
X832709Y822651D02*
G03*
X831741Y822889I-1875J-5533D01*
G01*
X814434Y825610D02*
G03*
X812715Y825531I-667J-4242D01*
G01*
X851973Y790125D02*
G03*
X851816Y791743I-2474J576D01*
G01*
X844352Y757917D02*
G03*
X844286Y757449I2472J-585D01*
G01*
X951466Y625388D02*
G03*
X950818Y626196I-2264J-1151D01*
G01*
X927734Y617489D02*
G03*
X925354Y625303I-10748J997D01*
G01*
Y625303D02*
G03*
X912814Y632649I-16110J-13125D01*
G01*
X898422Y627899D02*
G03*
X877704Y648606I-70104J-49421D01*
G01*
X901096Y623509D02*
G03*
X898422Y627899I-34100J-17765D01*
G01*
X875359Y624104D02*
G03*
X864602Y635066I-28894J-17594D01*
G01*
X798650Y709579D02*
G03*
X798557Y709781I-91775J-42407D01*
G01*
X569552Y912649D02*
G03*
X568021Y913549I-1972J-1602D01*
G01*
X518670Y899499D02*
G03*
X520779Y897344I2516J352D01*
G01*
X569529Y889214D02*
G03*
X568170Y889886I-1755J-1837D01*
G01*
X521543Y977249D02*
G03*
X521066Y978436I-2519J-322D01*
G01*
X528343Y922359D02*
G03*
X530412Y920172I2521J312D01*
G01*
X566022Y934476D02*
G03*
X565678Y934881I-6112J-4836D01*
G01*
X550497Y964024D02*
G03*
X551558Y962372I9573J4986D01*
G01*
X575897Y964024D02*
G03*
X576457Y963071I9573J4986D01*
G01*
X601297Y964024D02*
G03*
X601301Y964016I9573J4986D01*
G01*
X632185Y918767D02*
G03*
X632229Y918670I2334J1002D01*
G01*
X632523Y950131D02*
G03*
X632306Y950781I-2496J-470D01*
G01*
X638245Y919280D02*
G03*
X638434Y918688I2496J471D01*
G01*
X653762Y909756D02*
G03*
X653970Y908929I2533J195D01*
G01*
X648276Y980827D02*
G03*
X647595Y982362I-2532J-205D01*
G01*
X676020Y967728D02*
G03*
X674905Y964138I11106J-5418D01*
G01*
X678935Y976104D02*
G03*
X676365Y970396I8135J-7094D01*
G01*
X702699Y973597D02*
G03*
X701937Y971368I9771J-4587D01*
G01*
X689850Y917381D02*
G03*
X689845Y917360I2479J-555D01*
G01*
X728099Y973597D02*
G03*
X727875Y973085I9771J-4587D01*
G01*
X722304Y959490D02*
G03*
X722465Y959816I-2191J1285D01*
G01*
X692325Y908394D02*
G03*
X691865Y905169I3704J-2173D01*
G01*
X707075Y903671D02*
G03*
X707579Y904389I-1796J1796D01*
G01*
X724501Y930337D02*
G03*
X724489Y930327I3717J-4507D01*
G01*
D02*
G03*
X723826Y929474I1628J-1950D01*
G01*
X724570Y930393D02*
G03*
X724501Y930337I3648J-4563D01*
G01*
X715191Y911052D02*
G03*
X714960Y910158I2303J-1072D01*
G01*
X753499Y973597D02*
G03*
X752940Y972141I9771J-4587D01*
G01*
X744694Y946479D02*
G03*
X745539Y947726I-1586J1984D01*
G01*
X714023Y895895D02*
G03*
X714014Y895629I4285J-281D01*
G01*
X848045Y956417D02*
G03*
X851801Y964516I-11269J10146D01*
G01*
X834712Y931773D02*
G03*
X834710Y931770I1991J-1577D01*
G01*
X872635Y961513D02*
G03*
X874443Y964024I-7765J7497D01*
G01*
X897633Y961117D02*
G03*
X899843Y964024I-7363J7893D01*
G01*
X1002603Y970155D02*
G03*
X1001641Y973597I-10733J-1145D01*
G01*
X932559Y978320D02*
G03*
X927571Y965979I12992J-12429D01*
G01*
X938180Y981430D02*
G03*
X932559Y978320I2178J-10572D01*
G01*
X876932Y618288D02*
G03*
X875359Y624104I-10792J202D01*
G01*
X851472Y617332D02*
G03*
X845858Y627993I-10732J1158D01*
G01*
X830650Y614654D02*
G03*
X830969Y613903I10089J3836D01*
G01*
X797577Y701653D02*
G03*
X794293Y709289I-90702J-34481D01*
G01*
X796223Y692792D02*
G03*
X795732Y694521I-35422J-9114D01*
G01*
X795626Y694865D02*
G03*
X795615Y694898I-88751J-27692D01*
G01*
D02*
G03*
X795613Y694905I-3884J-1195D01*
G01*
D02*
G03*
X795611Y694914I-7760J-2417D01*
G01*
D02*
G03*
X795608Y694923I-11641J-3624D01*
G01*
D02*
G03*
X795607Y694927I-3877J-1219D01*
G01*
D02*
G03*
X795604Y694934I-15519J-4839D01*
G01*
D02*
G03*
X795603Y694939I-3883J-1200D01*
G01*
D02*
G03*
X795598Y694953I-7757J-2428D01*
G01*
D02*
G03*
X795597Y694956I-15511J-4866D01*
G01*
X795597D02*
G03*
X795582Y695007I-19403J-6036D01*
G01*
D02*
G03*
X795581Y695010I-3882J-1203D01*
G01*
D02*
G03*
X795577Y695022I-11634J-3647D01*
G01*
D02*
G03*
X795572Y695036I-7756J-2431D01*
G01*
D02*
G03*
X795571Y695040I-3873J-1232D01*
G01*
D02*
G03*
X795570Y695043I-15503J-4889D01*
G01*
D02*
G03*
X795567Y695052I-15504J-4886D01*
G01*
D02*
G03*
X795566Y695058I-3880J-1209D01*
G01*
D02*
G03*
X795561Y695072I-7751J-2448D01*
G01*
D02*
G03*
X795560Y695075I-11624J-3679D01*
G01*
D02*
G03*
X789997Y708817I-88685J-27903D01*
G01*
X804687Y616748D02*
G03*
X805569Y613903I10653J1742D01*
G01*
X792887Y688924D02*
G03*
X791855Y693304I-32086J-5246D01*
G01*
X791742Y693667D02*
G03*
X791735Y693692I-84867J-26495D01*
G01*
D02*
G03*
X791731Y693704I-7765J-2402D01*
G01*
D02*
G03*
X791729Y693709I-3878J-1216D01*
G01*
D02*
G03*
X791721Y693734I-11642J-3621D01*
G01*
D02*
G03*
X791720Y693738I-3875J-1223D01*
G01*
D02*
G03*
X791711Y693767I-15521J-4833D01*
G01*
D02*
G03*
X791702Y693798I-15517J-4847D01*
G01*
X791701Y693799D01*
D02*
G03*
X791700Y693805I-3880J-1208D01*
G01*
D02*
G03*
X791696Y693814I-7753J-2441D01*
G01*
D02*
G03*
X791694Y693821I-11629J-3664D01*
G01*
D02*
G03*
X791691Y693831I-11629J-3664D01*
G01*
D02*
G03*
X791687Y693843I-7754J-2438D01*
G01*
D02*
G03*
X791686Y693847I-3872J-1233D01*
G01*
D02*
G03*
X786067Y707584I-84811J-26675D01*
G01*
D02*
G03*
X786066Y707585I-18115J-9205D01*
G01*
D02*
G03*
X786061Y707596I-7253J-3669D01*
G01*
D02*
G03*
X786057Y707603I-3619J-1848D01*
G01*
D02*
G03*
X786034Y707647I-18106J-9224D01*
G01*
X786034Y707647D02*
G03*
X786014Y707688I-7249J-3676D01*
G01*
D02*
G03*
X786009Y707698I-7238J-3699D01*
G01*
D02*
G03*
X786008Y707700I-3612J-1863D01*
G01*
D02*
G03*
X786007Y707701I-3621J-1846D01*
G01*
D02*
G03*
X786002Y707712I-7230J-3713D01*
G01*
D02*
G03*
X785998Y707719I-79126J-40540D01*
G01*
D02*
G03*
X785989Y707736I-3611J-1865D01*
G01*
D02*
G03*
X785983Y707747I-7213J-3747D01*
G01*
D02*
G03*
X785980Y707754I-10819J-5622D01*
G01*
D02*
G03*
X785975Y707763I-14427J-7491D01*
G01*
D02*
G03*
X785968Y707776I-18034J-9363D01*
G01*
D02*
G03*
X785966Y707779I-21639J-11239D01*
G01*
D02*
G03*
X785906Y707896I-31124J-16122D01*
G01*
X790194Y640011D02*
G03*
X790193Y640206I-5842J69D01*
G01*
X789242Y684291D02*
G03*
X787976Y692092I-28441J-613D01*
G01*
X787859Y692468D02*
G03*
X787853Y692487I-80984J-25296D01*
G01*
D02*
G03*
X787853Y692488I-3884J-1196D01*
G01*
D02*
G03*
X787850Y692498I-11642J-3620D01*
G01*
D02*
G03*
X787846Y692511I-7762J-2411D01*
G01*
X787846D02*
G03*
X787832Y692557I-11647J-3606D01*
G01*
X787831Y692558D01*
D02*
G03*
X787824Y692580I-11637J-3638D01*
G01*
D02*
G03*
X787821Y692591I-7756J-2430D01*
G01*
D02*
G03*
X787819Y692598I-3874J-1228D01*
G01*
D02*
G03*
X787818Y692601I-11624J-3678D01*
G01*
D02*
G03*
X787817Y692603I-11630J-3661D01*
G01*
D02*
G03*
X787815Y692609I-3880J-1210D01*
G01*
D02*
G03*
X787812Y692619I-7749J-2452D01*
G01*
D02*
G03*
X782443Y705745I-80936J-25447D01*
G01*
D02*
G03*
X782441Y705748I-3629J-1829D01*
G01*
D02*
G03*
X782423Y705783I-14490J-7369D01*
G01*
X782423Y705783D02*
G03*
X782403Y705822I-7250J-3675D01*
G01*
D02*
G03*
X782398Y705833I-7239J-3697D01*
G01*
D02*
G03*
X782397Y705834I-3613J-1862D01*
G01*
D02*
G03*
X782397Y705835I-3621J-1845D01*
G01*
D02*
G03*
X782391Y705846I-7232J-3710D01*
G01*
D02*
G03*
X782387Y705854I-75516J-38674D01*
G01*
D02*
G03*
X782379Y705870I-3611J-1865D01*
G01*
D02*
G03*
X782374Y705879I-7214J-3745D01*
G01*
D02*
G03*
X782369Y705889I-10821J-5617D01*
G01*
D02*
G03*
X782362Y705902I-14428J-7489D01*
G01*
D02*
G03*
X782359Y705907I-18033J-9365D01*
G01*
D02*
G03*
X782358Y705910I-25258J-13090D01*
G01*
D02*
G03*
X782027Y706532I-27516J-14253D01*
G01*
X783937Y691393D02*
G03*
X783172Y693705I-77062J-24221D01*
G01*
X783942Y691378D02*
G03*
X783937Y691393I-7754J-2438D01*
G01*
X783943Y691376D02*
G03*
X783942Y691378I-11627J-3668D01*
G01*
X783947Y691363D02*
G03*
X783943Y691376I-7752J-2443D01*
G01*
X783949Y691356D02*
G03*
X783947Y691363I-3881J-1205D01*
G01*
X783950Y691352D02*
G03*
X783949Y691356I-11635J-3644D01*
G01*
X783951Y691351D02*
G03*
X783950Y691352I-15509J-4871D01*
G01*
X783953Y691342D02*
G03*
X783951Y691351I-7754J-2437D01*
G01*
X783955Y691337D02*
G03*
X783953Y691342I-3881J-1207D01*
G01*
X783956Y691333D02*
G03*
X783955Y691337I-3876J-1222D01*
G01*
X783960Y691322D02*
G03*
X783956Y691333I-7760J-2417D01*
G01*
X783969Y691291D02*
G03*
X783960Y691322I-7758J-2423D01*
G01*
X783971Y691285D02*
G03*
X783969Y691291I-3884J-1197D01*
G01*
X783977Y691268D02*
G03*
X783971Y691285I-77101J-24095D01*
G01*
X785184Y683678D02*
G03*
X784078Y690941I-24384J0D01*
G01*
X785180Y681802D02*
G03*
X785184Y682286I-24379J484D01*
G01*
X783172Y693705D02*
G03*
X778814Y703916I-76297J-26533D01*
G01*
X764566Y685257D02*
G03*
X764565Y685259I-3882J-1203D01*
G01*
X780074Y690131D02*
G03*
X780072Y690136I-11632J-3651D01*
G01*
X780066Y690157D02*
G03*
X780063Y690166I-7750J-2449D01*
G01*
X780068Y690151D02*
G03*
X780067Y690154I-3873J-1231D01*
G01*
X780072Y690136D02*
G03*
X780068Y690151I-7757J-2428D01*
G01*
X780067Y690154D02*
G03*
X780066Y690157I-3879J-1213D01*
G01*
X776756Y671259D02*
G03*
X776758Y671319I-12186J387D01*
G01*
X768452Y686446D02*
G03*
X768447Y686463I-3887J-1187D01*
G01*
X780087Y690091D02*
G03*
X780082Y690106I-11639J-3629D01*
G01*
X780088Y690088D02*
G03*
X780087Y690091I-3877J-1220D01*
G01*
X780063Y690166D02*
G03*
X775233Y701992I-73188J-22994D01*
G01*
X780818Y671131D02*
G03*
X780820Y671209I-16248J515D01*
G01*
X780726Y669772D02*
G03*
X780818Y671131I-18695J1945D01*
G01*
X781121Y683678D02*
G03*
X780198Y689731I-20320J0D01*
G01*
X776188Y688940D02*
G03*
X776188Y688942I-3873J-1232D01*
G01*
X772334Y687650D02*
G03*
X772329Y687665I-3887J-1187D01*
G01*
X776191Y688931D02*
G03*
X776188Y688940I-15507J-4877D01*
G01*
X780082Y690106D02*
G03*
X780080Y690112I-3882J-1201D01*
G01*
X776197Y688911D02*
G03*
X776197Y688913I-11632J-3653D01*
G01*
X772323Y687683D02*
X772323Y687684D01*
X776197Y688913D02*
G03*
X776195Y688920I-3881J-1205D01*
G01*
X764863Y682173D02*
G03*
X764865Y682286I-4062J113D01*
G01*
X772327Y687673D02*
G03*
X772323Y687683I-7761J-2414D01*
G01*
X781111Y681679D02*
G03*
X781121Y682286I-20311J607D01*
G01*
X776188Y688942D02*
G03*
X771618Y700135I-69312J-21770D01*
G01*
X780094Y690068D02*
G03*
X780091Y690077I-73218J-22896D01*
G01*
X772987Y681932D02*
G03*
X772992Y682286I-12187J355D01*
G01*
X780091Y690077D02*
G03*
X780088Y690088I-7762J-2411D01*
G01*
X771926Y667730D02*
G03*
X772694Y671386I-9895J3986D01*
G01*
D02*
G03*
X772695Y671428I-8124J259D01*
G01*
X772992Y683678D02*
G03*
X772441Y687304I-12192J0D01*
G01*
X777049Y681800D02*
G03*
X777057Y682286I-16249J486D01*
G01*
X776216Y688851D02*
G03*
X776211Y688868I-3887J-1186D01*
G01*
X768439Y686486D02*
G03*
X764350Y696496I-61564J-19314D01*
G01*
X772314Y687713D02*
G03*
X767971Y698341I-65439J-20540D01*
G01*
X780080Y690112D02*
G03*
X780077Y690122I-7757J-2428D01*
G01*
D02*
G03*
X780074Y690130I-11636J-3641D01*
G01*
D02*
G03*
X780074Y690131I-3875J-1225D01*
G01*
X776365Y668315D02*
G03*
X776756Y671259I-14334J3402D01*
G01*
X776211Y688868D02*
G03*
X776209Y688875I-69336J-21695D01*
G01*
X768925Y682052D02*
G03*
X768929Y682286I-8125J234D01*
G01*
X772323Y687684D02*
G03*
X772319Y687697I-7758J-2425D01*
G01*
D02*
G03*
X772315Y687708I-11635J-3643D01*
G01*
X776195Y688920D02*
G03*
X776191Y688931I-7753J-2440D01*
G01*
X777057Y683678D02*
G03*
X776319Y688519I-16256J0D01*
G01*
X772315Y687708D02*
G03*
X772314Y687713I-3874J-1228D01*
G01*
X776209Y688875D02*
G03*
X776206Y688885I-7762J-2412D01*
G01*
X772329Y687665D02*
G03*
X772327Y687673I-65454J-20493D01*
G01*
X776199Y688905D02*
G03*
X776197Y688911I-3876J-1221D01*
G01*
X768441Y686480D02*
G03*
X768439Y686486I-3876J-1221D01*
G01*
X768445Y686470D02*
G03*
X768441Y686480I-7761J-2416D01*
G01*
X763734Y669832D02*
G03*
X764570Y671637I-1703J1885D01*
G01*
X776206Y688885D02*
G03*
X776199Y688905I-7764J-2405D01*
G01*
X767761Y668433D02*
G03*
X768632Y671514I-5730J3284D01*
G01*
D02*
G03*
X768633Y671533I-4062J132D01*
G01*
X768447Y686463D02*
G03*
X768445Y686470I-61571J-19290D01*
G01*
X768929Y683678D02*
G03*
X768562Y686090I-8128J0D01*
G01*
X764565Y685259D02*
G03*
X760727Y694654I-57690J-18087D01*
G01*
X760800Y683293D02*
Y683294D01*
X764865Y683678D02*
G03*
X764682Y684881I-4064J0D01*
G01*
X760684Y684054D02*
G03*
X757104Y692812I-53809J-16882D01*
G01*
X784549Y689210D02*
G03*
X784078Y690941I-23748J-5532D01*
G01*
X778814Y703916D02*
G03*
X778798Y703946I-10862J-5537D01*
G01*
D02*
G03*
X778796Y703950I-14469J-7409D01*
G01*
D02*
G03*
X778795Y703952I-3623J-1842D01*
G01*
D02*
G03*
X778792Y703959I-10855J-5552D01*
G01*
D02*
G03*
X778788Y703967I-7239J-3697D01*
G01*
D02*
G03*
X778786Y703969I-3614J-1858D01*
G01*
D02*
G03*
X778785Y703971I-3621J-1844D01*
G01*
D02*
G03*
X778780Y703981I-7232J-3709D01*
G01*
D02*
G03*
X778776Y703989I-71905J-36809D01*
G01*
D02*
G03*
X778768Y704004I-3611J-1864D01*
G01*
D02*
G03*
X778763Y704015I-7215J-3742D01*
G01*
D02*
G03*
X778756Y704028I-10822J-5615D01*
G01*
D02*
G03*
X778752Y704035I-14427J-7491D01*
G01*
D02*
G03*
X778749Y704040I-21650J-11218D01*
G01*
D02*
G03*
X778453Y704597I-23907J-12383D01*
G01*
X778240Y704985D02*
G03*
X778012Y705391I-20047J-10987D01*
G01*
X774311Y613903D02*
G03*
X775276Y617373I-9771J4587D01*
G01*
X775233Y701992D02*
G03*
X775194Y702068I-10892J-5478D01*
G01*
D02*
G03*
X775182Y702092I-7243J-3689D01*
G01*
D02*
G03*
X775175Y702105I-10853J-5555D01*
G01*
D02*
G03*
X775173Y702108I-3622J-1842D01*
G01*
D02*
G03*
X775168Y702118I-7233J-3708D01*
G01*
D02*
G03*
X775165Y702125I-68293J-34946D01*
G01*
D02*
G03*
X775157Y702141I-3612J-1863D01*
G01*
D02*
G03*
X775150Y702153I-7216J-3741D01*
G01*
D02*
G03*
X775145Y702163I-10821J-5616D01*
G01*
D02*
G03*
X775145Y702164I-14430J-7486D01*
G01*
D02*
G03*
X775141Y702170I-18043J-9347D01*
G01*
D02*
G03*
X774859Y702698I-20299J-10513D01*
G01*
X774698Y702992D02*
G03*
X774269Y703738I-16505J-8994D01*
G01*
X771617Y700135D02*
G03*
X771584Y700200I-10892J-5479D01*
G01*
D02*
G03*
X771578Y700212I-7244J-3687D01*
G01*
X771578D02*
G03*
X771565Y700238I-3627J-1834D01*
G01*
D02*
G03*
X771556Y700255I-7237J-3701D01*
G01*
D02*
G03*
X771553Y700262I-64681J-33083D01*
G01*
D02*
G03*
X771544Y700279I-3612J-1862D01*
G01*
D02*
G03*
X771539Y700289I-7216J-3742D01*
G01*
D02*
G03*
X771537Y700293I-10823J-5613D01*
G01*
D02*
G03*
X771533Y700301I-14435J-7476D01*
G01*
D02*
G03*
X771301Y700734I-16691J-8643D01*
G01*
X771127Y701052D02*
G03*
X770598Y701946I-12933J-7054D01*
G01*
X752554Y619664D02*
G03*
X752639Y619852I-2268J1145D01*
G01*
X767971Y698341D02*
G03*
X767970Y698342I-13129J-6684D01*
G01*
D02*
G03*
X767967Y698348I-10869J-5524D01*
G01*
D02*
G03*
X767964Y698355I-3627J-1834D01*
G01*
D02*
G03*
X767958Y698366I-7238J-3698D01*
G01*
D02*
G03*
X767957Y698367I-10856J-5548D01*
G01*
D02*
G03*
X767951Y698379I-7242J-3690D01*
G01*
X767951Y698379D02*
X767951Y698380D01*
D02*
G03*
X767945Y698391I-7235J-3703D01*
G01*
D02*
G03*
X767941Y698400I-61069J-31219D01*
G01*
D02*
G03*
X767933Y698416I-3612J-1863D01*
G01*
D02*
G03*
X767929Y698423I-7217J-3739D01*
G01*
D02*
G03*
X767925Y698431I-10827J-5605D01*
G01*
D02*
G03*
X767744Y698770I-13083J-6773D01*
G01*
X767559Y699106D02*
G03*
X767016Y699995I-9366J-5108D01*
G01*
X764350Y696496D02*
G03*
X764348Y696499I-9508J-4838D01*
G01*
D02*
G03*
X764341Y696514I-7246J-3682D01*
G01*
D02*
G03*
X764339Y696516I-3615J-1857D01*
G01*
D02*
G03*
X764338Y696520I-3624J-1840D01*
G01*
D02*
G03*
X764332Y696530I-7236J-3702D01*
G01*
D02*
G03*
X764329Y696537I-57457J-29358D01*
G01*
D02*
G03*
X764321Y696552I-3613J-1861D01*
G01*
D02*
G03*
X764316Y696561I-7219J-3734D01*
G01*
D02*
G03*
X764189Y696799I-9474J-4904D01*
G01*
X763989Y697163D02*
G03*
X763544Y697868I-5796J-3165D01*
G01*
X723511Y613903D02*
G03*
X724407Y616838I-9771J4587D01*
G01*
X728221Y637748D02*
G03*
X727414Y636252I1703J-1885D01*
G01*
X760727Y694654D02*
G03*
X760726Y694657I-3625J-1837D01*
G01*
D02*
G03*
X760720Y694669I-5884J-2999D01*
G01*
D02*
G03*
X760715Y694677I-53844J-27497D01*
G01*
D02*
G03*
X760708Y694691I-3614J-1859D01*
G01*
D02*
G03*
X760633Y694831I-5866J-3034D01*
G01*
X760421Y695219D02*
G03*
X760211Y695542I-2227J-1221D01*
G01*
X757102Y692817D02*
G03*
X756802Y693273I-2260J-1160D01*
G01*
X757104Y692812D02*
G03*
X757102Y692817I-50229J-25640D01*
G01*
X711200Y656336D02*
G03*
X702056Y634260I22076J-22076D01*
G01*
X694616Y599366D02*
G03*
X702056Y617327I-17960J17960D01*
G01*
X692496Y629491D02*
G03*
X692660Y630370I-2376J898D01*
G01*
X693424Y700192D02*
G03*
X692909Y698675I2025J-1534D01*
G01*
X687864Y701225D02*
G03*
X687328Y699653I2004J-1561D01*
G01*
X687255Y639500D02*
G03*
X687575Y640733I-2220J1234D01*
G01*
X676175Y619554D02*
G03*
X676125Y619459I2222J-1231D01*
G01*
X666138Y633956D02*
G03*
X677418Y676618I-75036J42662D01*
G01*
X693526Y714270D02*
G03*
X694260Y716002I-1805J1787D01*
G01*
X663986Y632679D02*
G03*
X665730Y633423I-51J2539D01*
G01*
D02*
G03*
X666138Y633956I-1796J1796D01*
G01*
X663986Y632679D02*
G03*
X658114Y629694I153J-7567D01*
G01*
X660783Y705307D02*
G03*
X660770Y705332I-2470J-1306D01*
G01*
X663226Y665073D02*
G03*
X663440Y666080I-5586J1711D01*
G01*
X672466Y702754D02*
G03*
X668681Y710978I-10805J11D01*
G01*
X661066Y659034D02*
G03*
X661698Y660086I-1796J1796D01*
G01*
X664122Y656343D02*
G03*
X665762Y658456I-19216J16610D01*
G01*
X677418Y702764D02*
G03*
X673608Y711962I-13008J0D01*
G01*
X663440Y666080D02*
G03*
X663441Y666090I-5799J705D01*
G01*
X654546Y625276D02*
G03*
X653767Y624180I8394J-6786D01*
G01*
D02*
G03*
X653766Y624177I9173J-5690D01*
G01*
X666755Y727055D02*
G03*
X666967Y728292I-6374J1728D01*
G01*
X666476Y724275D02*
G03*
X666476Y724276I-4055J-268D01*
G01*
X666755Y727055D02*
G03*
X666476Y724276I8060J-2213D01*
G01*
X667116Y729430D02*
G03*
X666997Y728697I4163J-1052D01*
G01*
X670814Y718707D02*
G03*
X673608Y711962I9539J0D01*
G01*
X670532Y724534D02*
G03*
X670531Y724541I-4055J-273D01*
G01*
X671770Y727870D02*
G03*
X670531Y724541I3045J-3028D01*
G01*
X672873Y728973D02*
G03*
X673096Y729231I-1805J1787D01*
G01*
X676157Y733255D02*
G03*
X675940Y733004I1812J-1780D01*
G01*
X667555Y712062D02*
G03*
X668050Y711518I10773J9305D01*
G01*
X662686Y718700D02*
G03*
X662892Y716019I17667J7D01*
G01*
X667053Y715725D02*
G03*
X667010Y716060I-2535J-154D01*
G01*
X666750Y718707D02*
G03*
X667010Y716060I13603J0D01*
G01*
X662921Y715632D02*
G03*
X662892Y716019I-2540J0D01*
G01*
X666750Y720122D02*
G03*
X666745Y720281I-2540J0D01*
G01*
X662685Y719993D02*
G03*
X662682Y720133I-2540J-1D01*
G01*
X662844Y728173D02*
G03*
X662921Y728783I-2463J622D01*
G01*
X662771Y727883D02*
G03*
X662421Y724008I12044J-3041D01*
G01*
X659289Y734886D02*
G03*
X658516Y714284I34475J-11609D01*
G01*
X651944Y722873D02*
G03*
X652548Y715556I26384J-1506D01*
G01*
X667553Y712072D02*
G03*
X667555Y712062I2517J345D01*
G01*
X660770Y705332D02*
G03*
X660751Y705366I-2456J-1331D01*
G01*
X614665Y604786D02*
G03*
X612140Y593745I22875J-11041D01*
G01*
X615026Y605332D02*
G03*
X614665Y604786I1920J-1662D01*
G01*
X620289Y611411D02*
G03*
X620348Y611480I-8149J7079D01*
G01*
X626225Y618362D02*
G03*
X626815Y619712I-1931J1649D01*
G01*
X636322Y629215D02*
G03*
X626815Y619712I1218J-10725D01*
G01*
X636322Y629215D02*
G03*
X637806Y629932I-303J2522D01*
G01*
X614834Y624994D02*
G03*
X612140Y618490I6504J-6504D01*
G01*
X667122Y752505D02*
G03*
X668283Y755309I-2804J2804D01*
G01*
D02*
G03*
X668492Y756957I-4075J1354D01*
G01*
X566166Y757936D02*
G03*
X565299Y757577I0J-1226D01*
G01*
X546804Y739082D02*
G03*
X546256Y737759I1323J-1323D01*
G01*
D02*
G03*
X543487Y731075I6684J-6684D01*
G01*
X538732Y784131D02*
G03*
X536194Y782187I124J-2791D01*
G01*
X534684Y777444D02*
G03*
X533908Y772447I15701J-4997D01*
G01*
Y764348D02*
G03*
X534670Y762508I2602J0D01*
G01*
X535311Y805920D02*
G03*
X526007Y782591I12133J-18358D01*
G01*
X580898Y709433D02*
G03*
X579088Y711866I-2540J0D01*
G01*
X566692Y732146D02*
G03*
X566686Y732130I3801J-1439D01*
G01*
X576167Y732187D02*
G03*
X576156Y732176I2874J-2874D01*
G01*
X576580Y706849D02*
G03*
X575255Y709079I-2540J0D01*
G01*
X568828Y726249D02*
G03*
X568822Y726234I3807J-1422D01*
G01*
X576156Y732176D02*
G03*
X574302Y729289I5758J-5736D01*
G01*
X571246Y705585D02*
G03*
X570339Y707531I-2540J0D01*
G01*
X565009Y727642D02*
G03*
X570339Y707531I16904J-6282D01*
G01*
X565011Y727646D02*
G03*
X565009Y727642I11431J-4241D01*
G01*
X568820Y726228D02*
G03*
X575255Y709080I13094J-4868D01*
G01*
X572635Y724827D02*
G03*
X572630Y724814I3807J-1422D01*
G01*
X579040Y729314D02*
G03*
X578107Y727862I2874J-2874D01*
G01*
X565015Y727657D02*
G03*
X565011Y727646I7620J-2830D01*
G01*
X568822Y726234D02*
G03*
X568820Y726228I7620J-2830D01*
G01*
X576441Y723405D02*
G03*
X581207Y715561I5472J-2045D01*
G01*
X565021Y727672D02*
G03*
X565015Y727657I3807J-1422D01*
G01*
X572630Y724814D02*
G03*
X579088Y711866I9284J-3454D01*
G01*
X574302Y729289D02*
G03*
X574300Y729285I3805J-1426D01*
G01*
X572226Y733842D02*
G03*
X570497Y730718I9688J-7402D01*
G01*
D02*
G03*
X570493Y730707I3803J-1433D01*
G01*
X568995Y736307D02*
G03*
X568988Y736298I3231J-2465D01*
G01*
X588879Y745466D02*
G03*
X581737Y738278I2467J-9594D01*
G01*
X587865Y749402D02*
G03*
X580234Y744339I3482J-13529D01*
G01*
X591724Y741702D02*
G03*
X585547Y736574I-377J-5830D01*
G01*
X577010Y746812D02*
G03*
X577003Y746804I3225J-2473D01*
G01*
X594198Y774954D02*
G03*
X612158Y782393I0J25400D01*
G01*
X581074Y737111D02*
G03*
X581737Y738278I-1799J1793D01*
G01*
X586848Y753336D02*
G03*
X577010Y746812I4498J-17464D01*
G01*
X543487Y714396D02*
G03*
X543233Y715009I-867J0D01*
G01*
X555678Y638228D02*
G03*
X563118Y656189I-17960J17960D01*
G01*
X546696Y617582D02*
G03*
X546585Y620275I-10756J908D01*
G01*
D02*
G03*
X546100Y622135I-10645J-1785D01*
G01*
Y614845D02*
G03*
X546696Y617582I-10160J3645D01*
G01*
X584814Y735087D02*
G03*
X585547Y736574I-1787J1805D01*
G01*
X591736Y741701D02*
G03*
X593256Y742097I151J2536D01*
G01*
X593965Y746789D02*
G03*
X593920Y746778I2472J-9593D01*
G01*
X594540Y602090D02*
G03*
X597629Y608408I-10358J8978D01*
G01*
D02*
G03*
X597850Y611298I-11983J2370D01*
G01*
X597524Y618950D02*
G03*
X594398Y626097I-10784J-460D01*
G01*
X585042Y711410D02*
G03*
X584292Y713235I-2540J22D01*
G01*
X580898Y632594D02*
G03*
X586740Y618490I19946J0D01*
G01*
X569141Y600891D02*
G03*
X576287Y615001I-17960J17960D01*
G01*
D02*
G03*
X576246Y615962I-2512J376D01*
G01*
X576462Y621789D02*
G03*
X576246Y615962I10278J-3299D01*
G01*
X576462Y621789D02*
G03*
X576580Y622541I-2422J764D01*
G01*
X563806Y620956D02*
G03*
X571246Y638917I-17960J17960D01*
G01*
X566693Y732148D02*
G03*
X566692Y732146I7607J-2863D01*
G01*
X568988Y736298D02*
G03*
X566693Y732148I12926J-9858D01*
G01*
X590225Y754215D02*
G03*
X591367Y754866I-645J2457D01*
G01*
X598457Y761882D02*
G03*
X598439Y761864I12667J-12836D01*
G01*
X592943Y750723D02*
G03*
X592887Y750708I3493J-13526D01*
G01*
X594554Y751142D02*
G03*
X595707Y751800I-640J2458D01*
G01*
X597819Y753912D02*
G03*
X598335Y754667I-1805J1787D01*
G01*
X605505Y761836D02*
G03*
X598335Y754667I5619J-12790D01*
G01*
X605505Y761836D02*
G03*
X606258Y762351I-1034J2320D01*
G01*
X582690Y714836D02*
G03*
X581207Y715561I-1796J-1796D01*
G01*
X598436Y747952D02*
G03*
X599588Y748611I-640J2458D01*
G01*
X600706Y749728D02*
G03*
X601363Y750876I-1800J1792D01*
G01*
X609144Y758752D02*
G03*
X601540Y751551I1980J-9706D01*
G01*
X609144Y758752D02*
G03*
X610411Y759433I-520J2486D01*
G01*
X599743Y742012D02*
G03*
X603629Y743471I1428J2101D01*
G01*
X599743Y742012D02*
G03*
X593256Y742097I-3307J-4816D01*
G01*
X615067Y753357D02*
G03*
X605470Y750515I-3943J-4311D01*
G01*
X615067Y753357D02*
G03*
X618557Y753437I1703J1885D01*
G01*
X537972Y606044D02*
G03*
X545145Y608557I0J11495D01*
G01*
D02*
G03*
X545262Y608651I-7173J8982D01*
G01*
X534015Y606044D02*
G03*
X516054Y598605I0J-25400D01*
G01*
X535940Y618490D02*
G03*
X530193Y632365I-19623J0D01*
G01*
X584586Y841342D02*
G03*
X583946Y839667I1900J-1686D01*
G01*
X602681Y849916D02*
G03*
X584586Y841342I1112J-25726D01*
G01*
X604582Y849174D02*
G03*
X602681Y849916I-1796J-1796D01*
G01*
X607123Y839977D02*
G03*
X605888Y840461I-1608J-2285D01*
G01*
X607147Y839960D02*
G03*
X607123Y839977I-1631J-2268D01*
G01*
X583870Y836329D02*
G03*
X583946Y836946I-2464J617D01*
G01*
X583870Y836329D02*
G03*
X583766Y833974I5664J-1431D01*
G01*
X637692Y837278D02*
X640658Y834312D01*
X645160Y822452D02*
Y829685D01*
X640658Y834188D02*
X645160Y829685D01*
X640658Y834188D02*
Y834312D01*
X510540Y729529D02*
X510794D01*
Y719582D02*
Y729529D01*
X521225Y726204D02*
X521236Y726214D01*
X510955Y708934D02*
X513819Y711815D01*
X517906Y698224D02*
X517906Y700328D01*
X534670Y730435D02*
Y762508D01*
X517906Y700328D02*
X518922Y711757D01*
X519392Y712566D02*
X534670Y730435D01*
X521033Y726024D02*
X521224Y726203D01*
X521236Y726214D02*
X526542Y731520D01*
X517906Y660835D02*
Y698224D01*
X524764Y709676D02*
X527173Y712085D01*
X559910Y904240D02*
X566140Y898010D01*
X571634D02*
X572262Y897382D01*
X566140Y898010D02*
X571634D01*
X549910Y904240D02*
X559910D01*
X535940Y593090D02*
X538026D01*
X547678Y602742D01*
X548640D01*
X660908Y909585D02*
X660908Y909125D01*
X671279Y881472D02*
X676583Y876169D01*
X670201Y901316D02*
X671414Y895104D01*
X660908Y909585D02*
Y933097D01*
X670052Y902653D02*
X670201Y901316D01*
X665734Y951992D02*
X670052Y902653D01*
X660908Y909125D02*
X671279Y881472D01*
X1007592Y734032D02*
X1017270Y741426D01*
X1000862Y733552D02*
X1007592Y734032D01*
X968669Y914340D02*
X973582Y913638D01*
X967831Y914320D02*
X967839Y914321D01*
X957716Y912378D02*
X967831Y914320D01*
X955739Y910531D02*
X955741Y910540D01*
X955367Y909120D02*
X955739Y910531D01*
X954278Y903340D02*
X955303Y908832D01*
X1008762Y689746D02*
X1016898D01*
X1002532Y686058D02*
X1008762Y689746D01*
X1030072Y685038D02*
X1032138Y693268D01*
Y700922D01*
Y707978D01*
X1029970Y711708D02*
X1032138Y707978D01*
X1031630Y733218D02*
Y740292D01*
X1029970Y729488D02*
X1031630Y733218D01*
Y740292D02*
Y747928D01*
X1030072Y756158D02*
X1031630Y747928D01*
X1008762Y753430D02*
X1015991D01*
X1002532Y755138D02*
X1008762Y753430D01*
X1007898Y840232D02*
X1015238D01*
X1001668Y836299D02*
X1007898Y840232D01*
Y830069D02*
X1015882Y819540D01*
X1001668Y836299D02*
X1007898Y830069D01*
X1015882Y819540D02*
X1022978Y827049D01*
X1029208Y835279D01*
X999998Y883793D02*
X1000035Y884273D01*
Y899149D01*
X1001668Y905379D01*
X1007898Y911609D02*
X1013088Y921140D01*
X1001668Y905379D02*
X1007898Y911609D01*
Y906780D02*
X1014984D01*
X1001668Y905379D02*
X1007898Y906780D01*
X1014984D02*
X1022978D01*
X1029208Y906399D01*
X1030732Y883459D02*
Y891032D01*
X1029106Y879729D02*
X1030732Y883459D01*
X1029598Y851036D02*
Y858219D01*
X1029106Y861949D02*
X1029598Y858219D01*
X634156Y776107D02*
X639460Y781411D01*
X644398Y785368D01*
X874588Y880273D02*
X971332Y952378D01*
X644263Y787958D02*
X644398Y785368D01*
X1029106Y879729D02*
X1030868Y883459D01*
X567598Y781665D02*
X567877Y781386D01*
X563119Y781993D02*
X563447Y781665D01*
X567598D01*
X567877Y781386D02*
X575646D01*
X562391Y781263D02*
X563121Y781993D01*
X556162Y776958D02*
X560467Y781263D01*
X562391D01*
X546256Y771840D02*
X551374Y776958D01*
X556162D01*
X575646Y781386D02*
X576326Y782066D01*
X538732Y784131D02*
X543083Y788482D01*
X611175D01*
X616479Y793785D01*
X584768Y774954D02*
X594198D01*
X584137Y774323D02*
X584768Y774954D01*
X564643Y802821D02*
X576507Y814685D01*
X583766Y833974D02*
X583914Y833047D01*
X546256Y805920D02*
X557160D01*
X535311D02*
X546256D01*
X506256Y737759D02*
X510540Y729529D01*
X671414Y895104D02*
X671682Y894149D01*
X673063Y891592D02*
X674056Y887289D01*
X675478Y896100D02*
X676761Y893642D01*
X677013Y892886D01*
X671682Y894149D02*
X673063Y891592D01*
X677013Y892886D02*
X678350Y888543D01*
X674116Y904336D02*
Y944118D01*
X678350Y888543D02*
X683654Y883240D01*
X674116Y904336D02*
X675478Y896100D01*
X681886Y892079D02*
X687189Y886775D01*
X685422Y895614D02*
X690725Y890311D01*
X679542Y897784D02*
X681886Y892079D01*
X683606Y899467D02*
Y939638D01*
Y899467D02*
X685422Y895614D01*
X679542Y897784D02*
Y941321D01*
X683606Y939638D02*
X688594Y944626D01*
X717868Y887924D02*
X719090Y887264D01*
X717854Y887932D02*
X717868Y887924D01*
X719090Y887264D02*
X719109Y887253D01*
X719259Y887180D02*
X720841Y886473D01*
X644263Y787958D02*
X647192Y791210D01*
X854456Y747014D02*
X930402Y659384D01*
X866326Y745556D02*
X873760Y784352D01*
X866948Y743361D02*
X946049Y657070D01*
X866324Y745548D02*
X866326Y745556D01*
X998982Y643962D02*
X1000212Y643232D01*
X1008165Y615513D01*
X1008769Y613903D02*
X1018540Y593090D01*
X946658Y654812D02*
X946660Y654821D01*
X946049Y657070D02*
X946055Y657063D01*
X854769Y824609D02*
X859536Y817118D01*
X853171Y825726D02*
X853179Y825725D01*
X823529Y832233D02*
X853171Y825726D01*
X809234Y829080D02*
X822394Y832223D01*
X806696Y828439D02*
X809180Y829067D01*
X801393Y823136D02*
X806696Y828439D01*
X905256Y652272D02*
X972859Y644257D01*
X974089Y643527D01*
X843788Y745744D02*
X914400Y662686D01*
X854456Y747014D02*
X861822Y789940D01*
X832709Y822651D02*
X843788Y818896D01*
X814434Y825610D02*
X831741Y822889D01*
X810231Y824903D02*
X812715Y825531D01*
X804928Y819600D02*
X810231Y824903D01*
X808464Y816065D02*
X813767Y821368D01*
X830834Y817118D01*
X849884Y796036D02*
X851816Y791743D01*
X851971Y790116D02*
X851973Y790125D01*
X844352Y757917D02*
X851971Y790116D01*
X844286Y757440D02*
X844286Y757449D01*
X843788Y745744D02*
X844286Y757440D01*
X935228Y639064D02*
X950818Y626195D01*
X951466Y625388D02*
X951470Y625380D01*
X967740Y593090D01*
X829841Y733509D02*
X911363Y633447D01*
X977138Y764540D02*
X997966Y774446D01*
X949350Y760644D02*
X953589Y756405D01*
X949104Y750920D02*
X953589Y755405D01*
X968452Y772160D02*
X969682Y775208D01*
X980186D01*
X1043686Y929386D02*
X1049020Y940308D01*
X1042670Y969010D02*
X1049020Y940308D01*
X1024277Y939212D02*
X1025634Y935482D01*
X1024277Y939212D02*
Y947459D01*
X1023547Y948689D02*
X1024277Y947459D01*
X790786Y776107D02*
X796089Y770804D01*
X825777Y732064D02*
X838934Y714764D01*
X911363Y633447D02*
X912044Y632766D01*
X912814Y632649D01*
X803160Y777875D02*
X829747Y733664D01*
X816254Y747896D02*
X825777Y732064D01*
X821713Y730380D02*
X877704Y648606D01*
X829747Y733664D02*
X829841Y733509D01*
X799625Y774340D02*
X816254Y747896D01*
X796089Y770804D02*
X821713Y730380D01*
X838934Y714764D02*
X910220Y620062D01*
X910947Y619335D01*
X916940Y618490D01*
X901096Y623509D02*
X901128Y623448D01*
X904946Y616117D01*
X789777Y760174D02*
X790788Y757157D01*
X792072Y753825D01*
X789018Y763733D02*
X789777Y761976D01*
Y760174D02*
Y761976D01*
X793312Y765512D02*
X793841Y763660D01*
X792554Y767269D02*
X793312Y765512D01*
X887649Y619272D02*
X891540Y618490D01*
X783715Y769036D02*
X789018Y763733D01*
X886927Y619993D02*
X887649Y619272D01*
X793841Y760837D02*
X794470Y758960D01*
X793841Y760837D02*
Y763660D01*
X794470Y758960D02*
X886927Y619993D01*
X792072Y753825D02*
X792166Y753522D01*
X781947Y756662D02*
X784037Y750699D01*
X788102Y752382D02*
X788579Y751362D01*
X821003Y675783D02*
X845328Y628523D01*
X785483Y760198D02*
X788102Y752382D01*
X788579Y751362D02*
X793954Y741156D01*
X784515Y749678D02*
X821003Y675783D01*
X792166Y753522D02*
X863953Y635629D01*
X864373Y635209D01*
X784037Y750699D02*
X784515Y749678D01*
X780180Y765501D02*
X785483Y760198D01*
X793954Y741156D02*
X862493Y620020D01*
X776644Y761965D02*
X781947Y756662D01*
X864373Y635209D02*
X864602Y635066D01*
X773108Y758430D02*
X778412Y753126D01*
X798557Y709781D01*
X862493Y620020D02*
X863210Y619302D01*
X866140Y618490D01*
X927734Y617489D02*
X933116Y610800D01*
X794322Y779643D02*
X799625Y774340D01*
X933116Y610800D02*
X942340Y593090D01*
X696028Y724842D02*
X724916Y738632D01*
X690725Y719539D02*
X696028Y724842D01*
X694690Y760476D02*
X694944Y760222D01*
Y737900D02*
Y760222D01*
X709422Y884936D02*
X717868Y887924D01*
X703834Y913638D02*
X703945Y900372D01*
X547370Y929640D02*
Y943102D01*
Y929640D02*
X549910D01*
X702826Y899422D02*
X707075Y903671D01*
X692325Y908394D02*
X722304Y959490D01*
X549910Y929640D02*
X559910D01*
X530423Y920170D02*
X568021Y913549D01*
X569558Y912641D02*
X628853Y839046D01*
X569552Y912649D02*
X569558Y912641D01*
X566022Y934476D02*
X635924Y846117D01*
X509270Y969010D02*
X518670Y899499D01*
X520779Y897344D02*
X520791Y897342D01*
X568170Y889886D01*
X569529Y889214D02*
X569536Y889207D01*
X625317Y835510D01*
X630621Y830207D01*
X509270Y994410D02*
X521066Y978436D01*
X521543Y977249D02*
X521544Y977239D01*
X528343Y922359D01*
X530412Y920172D02*
X530423Y920170D01*
X628853Y839046D02*
X634156Y833742D01*
X534670Y969010D02*
X565678Y934881D01*
X551558Y962372D02*
X639459Y849652D01*
X635924Y846117D02*
X641227Y840813D01*
X534670Y994410D02*
X550497Y964024D01*
X639459Y849652D02*
X644763Y844349D01*
X560070Y969010D02*
X642995Y853188D01*
X648298Y847884D01*
X560070Y994410D02*
X575897Y964024D01*
X576457Y963071D02*
X646531Y856723D01*
X651834Y851420D01*
X585470Y969010D02*
X650066Y860259D01*
X655369Y854956D01*
X585470Y994410D02*
X601297Y964024D01*
X601301Y964016D02*
X653602Y863794D01*
X658905Y858491D01*
X610870Y969010D02*
X632185Y918767D01*
X632229Y918670D02*
X632234Y918660D01*
X657137Y867330D01*
X662440Y862027D01*
X610870Y994410D02*
X632306Y950781D01*
X632523Y950131D02*
X632524Y950125D01*
X638245Y919280D01*
X638434Y918688D02*
X638438Y918680D01*
X660673Y870865D01*
X665976Y865562D01*
X667727Y870882D02*
X667727Y870882D01*
X645064Y916033D02*
X663450Y876158D01*
X645065Y916661D02*
X646043Y951630D01*
X645064Y916033D02*
Y916625D01*
X645065Y916661D01*
X663450Y876158D02*
X667727Y870882D01*
X636270Y969010D02*
X645694Y952952D01*
X646043Y952356D01*
Y951630D02*
Y952356D01*
X653970Y908929D02*
X653974Y908920D01*
X648277Y980818D02*
X653762Y909756D01*
X648276Y980827D02*
X648277Y980818D01*
X636270Y994410D02*
X647595Y982362D01*
X653974Y908920D02*
X667744Y877936D01*
X673047Y872633D01*
X654845Y964580D02*
X655817Y965551D01*
X654845Y963275D02*
Y964580D01*
Y963275D02*
X660908Y933097D01*
X655817Y965551D02*
X661670Y969010D01*
X673862Y944372D02*
X674116Y944118D01*
X680152Y946718D02*
Y951558D01*
X679542Y941321D02*
X680152Y946718D01*
X674540Y957256D02*
X680152Y951558D01*
X674510Y957909D02*
X674905Y964138D01*
X674510Y957909D02*
X674540Y957256D01*
X674815Y885007D02*
X680118Y879704D01*
X674056Y887289D02*
X674815Y885007D01*
X688957Y899150D02*
X694260Y893846D01*
X687670Y909487D02*
X689844Y917355D01*
X687670Y903616D02*
X688198Y900907D01*
X687670Y903616D02*
Y909487D01*
X688198Y900907D02*
X688957Y899150D01*
X681965Y979579D02*
X682831Y985381D01*
X676020Y967728D02*
X676365Y970396D01*
X678935Y976104D02*
X681965Y979579D01*
X682831Y985381D02*
X687070Y994410D01*
X689844Y917355D02*
X689845Y917360D01*
X702699Y973597D02*
X712470Y994410D01*
X689850Y917381D02*
X701937Y971368D01*
X728099Y973597D02*
X737870Y994410D01*
X722465Y959816D02*
X727875Y973085D01*
X691865Y905169D02*
X692493Y902685D01*
X697796Y897382D01*
X707579Y904389D02*
X737870Y969010D01*
X701331Y900917D02*
X702826Y899422D01*
X736661Y917540D02*
X736720Y916566D01*
X715191Y911052D02*
X723826Y929474D01*
X714023Y895895D02*
X714959Y910147D01*
X714960Y910158D01*
X728506Y925695D02*
X736661Y917540D01*
X753499Y973597D02*
X763270Y994410D01*
X745539Y947726D02*
X752940Y972141D01*
X724570Y930393D02*
X744694Y946479D01*
X713994Y890016D02*
X714014Y895629D01*
X713994Y890016D02*
X717854Y887932D01*
X726431Y884380D02*
X728914Y885007D01*
X734218Y890311D01*
X752252Y919474D02*
Y919576D01*
X743592Y910470D02*
Y910813D01*
X752252Y919474D01*
X748817Y900671D02*
X749170Y901025D01*
X750202D02*
X750556Y900671D01*
X737631D02*
X748817D01*
X730682Y893846D02*
X730807D01*
X737631Y900671D01*
X749170Y901025D02*
X750202D01*
X772661Y893399D02*
X815467Y961948D01*
X756920Y907034D02*
X763778Y913892D01*
X751895Y872633D02*
X772661Y893399D01*
X814070Y969010D02*
X815467Y962966D01*
Y961948D02*
Y962966D01*
X777181Y890848D02*
X809372Y936625D01*
X809450Y936774D01*
X755431Y869098D02*
X777181Y890848D01*
X809450Y936774D02*
X839470Y994410D01*
X767805Y867330D02*
X781269Y882117D01*
X777205Y883801D02*
X839799Y965493D01*
Y966522D01*
X839470Y969010D02*
X839799Y966522D01*
X758966Y865562D02*
X777086Y883682D01*
X781269Y882117D02*
X848045Y956417D01*
X762502Y862027D02*
X767805Y867330D01*
X777086Y883682D02*
X777205Y883801D01*
X794483Y889242D02*
X825894Y920654D01*
X825894D01*
X825895Y920654D01*
X794274Y889006D02*
X794483Y889242D01*
X786314Y878768D02*
X794274Y889006D01*
X834713Y931773D02*
X847223Y942491D01*
X826072Y920832D02*
X834710Y931770D01*
X825895Y920654D02*
X826072Y920832D01*
X834712Y931773D02*
X834713Y931773D01*
X847223Y942491D02*
X847404Y942672D01*
X851801Y964516D02*
X852196Y967413D01*
X864870Y994410D01*
X786202Y878656D02*
X786314Y878768D01*
X766037Y858491D02*
X786202Y878656D01*
X847404Y942672D02*
X865177Y965531D01*
X864870Y969010D02*
X865177Y966561D01*
Y965531D02*
Y966561D01*
X874443Y964024D02*
X890270Y994410D01*
X774876Y860259D02*
X872635Y961513D01*
X769573Y854956D02*
X774876Y860259D01*
X778412Y856723D02*
X890270Y969010D01*
X773108Y851420D02*
X778412Y856723D01*
X899843Y964024D02*
X915670Y994410D01*
X781947Y853188D02*
X897633Y961117D01*
X776644Y847884D02*
X781947Y853188D01*
X785483Y849652D02*
X915670Y969010D01*
X780179Y844349D02*
X785483Y849652D01*
X789018Y846117D02*
X904748Y947928D01*
X783715Y840813D02*
X789018Y846117D01*
X906766Y927230D02*
X927545Y960748D01*
X1005904Y939212D02*
X1008634Y935482D01*
X1002603Y970155D02*
X1005904Y939212D01*
X991870Y994410D02*
X1001641Y973597D01*
X927545Y960748D02*
X927571Y965979D01*
X943755Y982579D02*
X966470Y994410D01*
X938180Y981430D02*
X943755Y982579D01*
X791784Y833742D02*
X797846Y839804D01*
X790816Y833742D02*
X791784D01*
X790786Y833742D02*
X790816Y833742D01*
X906403Y926772D02*
X906611Y926980D01*
X798633Y840135D02*
X906306Y926675D01*
X906611Y926980D02*
X906766Y927230D01*
X792554Y842581D02*
X901446Y933196D01*
X797846Y839804D02*
X798633Y840135D01*
X787251Y837278D02*
X792554Y842581D01*
X906306Y926675D02*
X906403Y926772D01*
X892330Y907688D02*
X966470Y969010D01*
X803160Y831974D02*
X942603Y912134D01*
X794322Y830207D02*
X799625Y835510D01*
X797857Y826671D02*
X803160Y831974D01*
X942890Y912223D02*
X1005904Y931752D01*
X807115Y839281D02*
X892330Y907688D01*
X942603Y912134D02*
X942890Y912223D01*
X799625Y835510D02*
X806227Y838658D01*
X807115Y839281D01*
X1005904Y931752D02*
X1008634Y935482D01*
X787400Y797560D02*
X796089Y792017D01*
X801393Y786714D01*
X815053Y770107D02*
Y780125D01*
X804928Y790249D02*
X815053Y780125D01*
X814699Y769754D02*
X815053Y770107D01*
X797857Y783178D02*
X803160Y777875D01*
X787251Y772572D02*
X792554Y767269D01*
X904946Y616117D02*
X916940Y593090D01*
X886341Y603072D02*
X891540Y593090D01*
X876932Y618288D02*
X886341Y603072D01*
X862758Y594660D02*
X863474Y593944D01*
X851472Y616588D02*
X862758Y594660D01*
X851472Y617203D02*
X851472Y616588D01*
X851472Y617203D02*
X851472Y617332D01*
X845609Y628243D02*
X845858Y627993D01*
X845328Y628523D02*
X845609Y628243D01*
X863474Y593944D02*
X866140Y593090D01*
X798650Y709579D02*
X840740Y618490D01*
X830969Y613903D02*
X840740Y593090D01*
X797577Y701653D02*
X830650Y614654D01*
X774876Y749591D02*
X794293Y709289D01*
X769573Y754894D02*
X774876Y749591D01*
X796223Y692792D02*
X815340Y618490D01*
X795626Y694865D02*
X795732Y694521D01*
X771341Y746055D02*
X789997Y708817D01*
X766037Y751359D02*
X771341Y746055D01*
X805569Y613903D02*
X815340Y593090D01*
X792887Y688924D02*
X804687Y616748D01*
X791742Y693667D02*
X791855Y693304D01*
X767805Y742520D02*
X785906Y707896D01*
X762502Y747823D02*
X767805Y742520D01*
X789940Y618490D02*
X790194Y640011D01*
X789242Y684291D02*
X790193Y640206D01*
X787859Y692468D02*
X787976Y692092D01*
X764270Y738984D02*
X782027Y706532D01*
X758966Y744288D02*
X764270Y738984D01*
X783977Y691268D02*
X784078Y690941D01*
X785184Y682286D02*
Y683678D01*
X784352Y640080D02*
X785180Y681802D01*
X728221Y637748D02*
X763734Y669832D01*
X772992Y682286D02*
Y683678D01*
X768452Y686446D02*
X768562Y686090D01*
X760800Y683294D02*
Y683678D01*
X780094Y690068D02*
X780198Y689731D01*
X776758Y671319D02*
X777049Y681800D01*
X764570Y671646D02*
X764863Y682173D01*
X781121Y682286D02*
Y683678D01*
X772334Y687650D02*
X772441Y687304D01*
X775276Y617373D02*
X780726Y669772D01*
X776216Y688851D02*
X776319Y688519D01*
X731446Y651101D02*
X760800Y682286D01*
X780820Y671209D02*
X781111Y681679D01*
X777057Y682286D02*
Y683678D01*
X772695Y671428D02*
X772987Y681932D01*
X768633Y671533D02*
X768925Y682052D01*
X747401Y691762D02*
X747864Y691193D01*
X764540Y618490D02*
X776365Y668315D01*
X747864Y691193D02*
X753946Y685111D01*
X764865Y682286D02*
Y683678D01*
X764566Y685257D02*
X764682Y684881D01*
X768929Y682286D02*
Y683678D01*
X764570Y671637D02*
X764570Y671646D01*
X760800Y682286D02*
Y683293D01*
X752642Y619860D02*
X771926Y667730D01*
X739140Y618490D02*
X767761Y668433D01*
X778240Y704985D02*
X778453Y704597D01*
X760734Y735449D02*
X778012Y705391D01*
X755431Y740752D02*
X760734Y735449D01*
X764540Y593090D02*
X774311Y613903D01*
X775233Y701992D02*
X775233Y701992D01*
X774698Y702992D02*
X774859Y702698D01*
X757198Y731913D02*
X774269Y703738D01*
X751895Y737216D02*
X757198Y731913D01*
X771617Y700135D02*
X771618Y700135D01*
X771127Y701052D02*
X771301Y700734D01*
X753663Y728378D02*
X770598Y701946D01*
X748360Y733681D02*
X753663Y728378D01*
X739140Y593090D02*
X752554Y619664D01*
X752639Y619852D02*
X752642Y619860D01*
X767559Y699106D02*
X767744Y698770D01*
X750127Y724842D02*
X767016Y699995D01*
X744824Y730145D02*
X750127Y724842D01*
X763989Y697163D02*
X764189Y696799D01*
X746592Y721307D02*
X763544Y697868D01*
X741289Y726610D02*
X746592Y721307D01*
X713740Y593090D02*
X723511Y613903D01*
X724407Y616838D02*
X727414Y636252D01*
X760421Y695219D02*
X760633Y694831D01*
X760204Y695550D02*
X760211Y695542D01*
X743056Y717771D02*
X760204Y695550D01*
X737753Y723074D02*
X743056Y717771D01*
X739521Y714236D02*
X756802Y693273D01*
X734217Y719539D02*
X739521Y714236D01*
X720674Y642874D02*
X731160Y650847D01*
X731296Y650952D02*
X731446Y651101D01*
X731160Y650847D02*
X731296Y650952D01*
X719894Y641609D02*
X720070Y642269D01*
X720674Y642874D01*
X713740Y618490D02*
X719894Y641609D01*
X702056Y634260D02*
X702056Y634249D01*
Y617327D02*
Y634249D01*
X711200Y656336D02*
X730250Y675386D01*
Y700716D01*
X728914Y703629D02*
X730250Y700716D01*
X723611Y708932D02*
X728914Y703629D01*
X688340Y593090D02*
X694616Y599366D01*
X692660Y630370D02*
X692660Y630379D01*
X688340Y618490D02*
X692496Y629491D01*
X692660Y630379D02*
X692909Y698675D01*
X693424Y700192D02*
X696028Y703629D01*
X701331Y708932D01*
X687575Y640733D02*
Y640744D01*
X682752Y642112D02*
Y703496D01*
X687328Y699653D02*
X687575Y640744D01*
X676175Y619554D02*
X687255Y639500D01*
X666846Y626206D02*
X682752Y642112D01*
X662940Y593090D02*
X676125Y619459D01*
X687864Y701225D02*
X692493Y707165D01*
X697796Y712468D01*
X682752Y703496D02*
X693526Y714270D01*
X694260Y716002D02*
Y716003D01*
X662940Y618490D02*
Y622132D01*
X666846Y626038D01*
Y626206D01*
X663986Y632679D02*
X663986Y632679D01*
X651631Y684426D02*
X651985Y684780D01*
X662862Y654988D02*
X664122Y656343D01*
X671988Y672752D02*
X672466Y684839D01*
X665762Y658456D02*
X667504Y663604D01*
X668402Y686523D02*
Y694729D01*
X647192Y645160D02*
X661066Y659034D01*
X661698Y660086D02*
X663226Y665073D01*
X672466Y684839D02*
Y702754D01*
X666768Y703119D02*
X667039Y702173D01*
X651631Y685134D02*
Y699296D01*
X671495Y661847D02*
X671568Y662935D01*
X635773Y644917D02*
Y645042D01*
X637540Y618490D02*
X665598Y646548D01*
X671495Y661847D01*
X664338Y688206D02*
Y693046D01*
X663970Y676226D02*
X664338Y688206D01*
X658347Y678416D02*
X658496Y690626D01*
X667504Y663604D02*
X667983Y674492D01*
X660783Y705307D02*
X662975Y701164D01*
X663590Y709436D02*
X664834Y707031D01*
X671568Y662935D02*
X671988Y672752D01*
X663482Y666436D02*
X663970Y676226D01*
X662975Y701164D02*
X664338Y693046D01*
X668050Y711518D02*
X668681Y710978D01*
X657640Y676676D02*
X658347Y678416D01*
X667039Y702173D02*
X668402Y694729D01*
X651631Y683394D02*
Y684426D01*
X664834Y707031D02*
X666768Y703119D01*
X663441Y666090D02*
X663482Y666436D01*
X651631Y685134D02*
X651985Y684780D01*
X677418Y676618D02*
Y702764D01*
X667983Y674492D02*
X668402Y686523D01*
X651631Y699296D02*
X655485Y703150D01*
X650240Y659384D02*
X657640Y666784D01*
Y676676D01*
X637540Y598004D02*
X653766Y624177D01*
X637540Y598004D02*
X637540Y593090D01*
X654546Y625276D02*
X658114Y629694D01*
X666967Y728292D02*
X666997Y728697D01*
X667744Y731913D02*
X673047Y737216D01*
X666477Y724258D02*
X666744Y720292D01*
X667116Y729430D02*
X667744Y731913D01*
X666476Y724275D02*
X666477Y724258D01*
X632883Y639233D02*
X641265D01*
X647192Y645160D02*
Y645160D01*
X641265Y639233D02*
X647192Y645160D01*
X635773Y645042D02*
X650115Y659384D01*
X650240D01*
X624840Y635000D02*
X628650D01*
X614834Y624994D02*
X624840Y635000D01*
X628650D02*
X632883Y639233D01*
X634750Y644652D02*
X635394Y645296D01*
X624298Y644652D02*
X634750D01*
X670814Y718707D02*
Y720344D01*
X670532Y724534D02*
X670814Y720344D01*
X671770Y727870D02*
X672873Y728973D01*
X673096Y729231D02*
X675940Y733004D01*
X676157Y733255D02*
X676164Y733262D01*
X676166Y733264D01*
Y733264D02*
X676583Y733681D01*
X662685Y719993D02*
X662686Y718700D01*
X662680Y720155D02*
X662682Y720133D01*
X666750Y720122D02*
X666750Y718707D01*
X666744Y720292D02*
X666745Y720281D01*
X662921Y714228D02*
Y715632D01*
X662421Y724008D02*
X662680Y720155D01*
X667053Y715725D02*
X667553Y712072D01*
X662771Y727883D02*
X662844Y728173D01*
X662921Y728784D02*
Y731840D01*
Y714228D02*
X662982Y714059D01*
X662921Y731840D02*
X663450Y733364D01*
X664208Y735449D02*
X669512Y740752D01*
X660673Y738984D02*
X665976Y744288D01*
X663450Y733364D02*
X664208Y735449D01*
X658833Y713040D02*
X659741Y706907D01*
X659289Y734886D02*
X660673Y738984D01*
X662982Y714059D02*
X663590Y709436D01*
X658516Y714284D02*
X658833Y713040D01*
X655132Y703647D02*
X655485Y705033D01*
X653257Y713010D02*
X654745Y711522D01*
X651944Y722873D02*
X652843Y738638D01*
Y744298D01*
X654745Y711522D02*
X655485Y705033D01*
X653012Y713494D02*
X653257Y713010D01*
X652548Y715556D02*
X653012Y713494D01*
X655369Y754770D02*
Y754894D01*
X647700Y747100D02*
X655369Y754770D01*
X649156Y710365D02*
Y711364D01*
X647700Y712820D02*
Y747100D01*
Y712820D02*
X649156Y711364D01*
X659741Y706907D02*
X660566Y705699D01*
X637806Y629932D02*
X662862Y654988D01*
X653602Y746055D02*
X658905Y751359D01*
X652843Y744298D02*
X653602Y746055D01*
X660566Y705699D02*
X660751Y705366D01*
X614553Y654396D02*
X624298Y644652D01*
X612140Y593090D02*
Y593745D01*
X615026Y605332D02*
X620289Y611411D01*
X620348Y611480D02*
X626225Y618362D01*
X633222Y809498D02*
Y813463D01*
X635082Y802050D02*
X635762Y801370D01*
X635082Y802050D02*
Y807638D01*
X633222Y809498D02*
X635082Y807638D01*
X626108Y820578D02*
X633222Y813463D01*
X556514Y738124D02*
X582930Y764540D01*
X590804D01*
X611124Y748084D02*
Y749046D01*
X607942Y736226D02*
X608296Y736580D01*
Y745255D01*
X611124Y748084D01*
X668326Y759457D02*
X668492Y756957D01*
X668326Y760594D02*
X669290Y767588D01*
X668326Y759457D02*
X668326Y760594D01*
X662440Y747823D02*
X667122Y752505D01*
X546804Y739082D02*
X565299Y757577D01*
X543487Y714396D02*
Y731075D01*
X534684Y777444D02*
X536194Y782187D01*
X533908Y764348D02*
Y772447D01*
X526542Y731520D02*
Y780285D01*
X526007Y782591D02*
X526542Y780285D01*
X582168Y721106D02*
X598424Y704850D01*
X581914Y721360D02*
Y726440D01*
X572635Y724827D02*
X574300Y729285D01*
X582168Y721106D02*
X582422Y721360D01*
X579040Y729314D02*
X584814Y735087D01*
X576441Y723405D02*
X578107Y727862D01*
X614553Y654396D02*
Y657987D01*
X581914Y726440D02*
X591346Y735872D01*
X596436D01*
X581914Y721360D02*
X582168Y721106D01*
X563118Y656189D02*
Y696722D01*
X568828Y726249D02*
X570493Y730707D01*
X565021Y727672D02*
X566686Y732130D01*
X556514Y733084D02*
Y738124D01*
Y733084D02*
X556514Y733084D01*
Y693434D02*
Y733084D01*
X546100Y683020D02*
X556514Y693434D01*
X568995Y736307D02*
X577003Y746804D01*
X572226Y733842D02*
X580234Y744339D01*
X586848Y753336D02*
X590225Y754215D01*
X588879Y745466D02*
X593920Y746778D01*
X612158Y782393D02*
X620014Y790249D01*
X587865Y749402D02*
X592887Y750708D01*
X598424Y704342D02*
Y704850D01*
X571246Y638917D02*
Y705585D01*
X510540Y618490D02*
Y706167D01*
X517906Y644628D02*
Y660835D01*
X517906Y660835D01*
X530169Y632365D02*
X530193D01*
X529366Y633168D02*
X530169Y632365D01*
X517906Y644628D02*
X529366Y633168D01*
X543487Y703071D02*
Y714396D01*
X554228Y636778D02*
X555678Y638228D01*
X591724Y741702D02*
X591736Y741701D01*
X590381Y630141D02*
X594398Y626097D01*
X597524Y618950D02*
X597850Y611298D01*
X586740Y593090D02*
X594540Y602090D01*
X585042Y711304D02*
X590381Y630141D01*
X585042Y711304D02*
X585042Y711410D01*
X582690Y714836D02*
X584292Y713235D01*
X580898Y632594D02*
Y709433D01*
X561340Y593090D02*
X569141Y600891D01*
X576580Y622541D02*
Y706849D01*
X561340Y618490D02*
X563806Y620956D01*
X591367Y754866D02*
X598439Y761864D01*
X598457Y761882D02*
X618246Y781411D01*
X623550Y786714D01*
X592943Y750723D02*
X594554Y751142D01*
X595707Y751800D02*
X597819Y753912D01*
X606258Y762351D02*
X627085Y783178D01*
X576167Y732187D02*
X581074Y737111D01*
X593965Y746789D02*
X598436Y747952D01*
X599588Y748611D02*
X600706Y749728D01*
X601363Y750876D02*
X601540Y751551D01*
X610411Y759433D02*
X630621Y779643D01*
X603629Y743471D02*
X605470Y750515D01*
X609010Y690962D02*
Y691642D01*
X596436Y735872D02*
Y737197D01*
Y735872D02*
X607589D01*
X546100Y669138D02*
Y683020D01*
X618557Y753437D02*
X637692Y772572D01*
X546100Y669138D02*
X546100Y622135D01*
X545262Y608651D02*
X546100Y609489D01*
X534015Y606044D02*
X537972D01*
X546100Y609489D02*
Y614845D01*
X623550Y823136D02*
X626108Y820578D01*
X510540Y593090D02*
X516054Y598605D01*
X583946Y836946D02*
Y839667D01*
X604582Y849174D02*
X621782Y831974D01*
X612648Y834703D02*
X612648Y834309D01*
X607331Y839828D02*
X611160Y836190D01*
X607147Y839960D02*
X607331Y839828D01*
X612648Y827091D02*
Y834309D01*
X621782Y831974D02*
X627085Y826671D01*
X611160Y836190D02*
X612648Y834703D01*
X598799Y840874D02*
X600185Y841227D01*
X605888Y840461D01*
X589534Y834898D02*
X589849D01*
X594541Y839590D02*
X597154D01*
X589849Y834898D02*
X594541Y839590D01*
X596646Y826262D02*
X596780D01*
X605028Y834510D02*
X605162D01*
X596780Y826262D02*
X605028Y834510D01*
X620014Y819600D02*
Y819725D01*
X604808Y834156D02*
X605162Y834510D01*
X604808Y827735D02*
Y834156D01*
X612648Y827091D02*
X620014Y819725D01*
X604808Y827735D02*
X616479Y816065D01*
X612312Y686480D02*
X615506Y689674D01*
X612312Y686480D02*
Y690962D01*
X605790Y679958D02*
X612312Y686480D01*
X607617Y664923D02*
X614553Y657987D01*
X600681Y673964D02*
X606232Y679516D01*
X608158Y692322D02*
Y694608D01*
Y692322D02*
X608838Y691642D01*
X598424Y704342D02*
X608158Y694608D01*
X609010Y690962D02*
X612312D01*
X600681Y671859D02*
Y673964D01*
Y671859D02*
X607617Y664923D01*
X614553Y657987D02*
X630727D01*
X631080Y657633D01*
X616391Y689674D02*
X621562Y684503D01*
X607589Y735872D02*
X607942Y736226D01*
X635836Y763645D02*
X641227Y769036D01*
X635836Y762647D02*
Y763645D01*
X635694Y762505D02*
X635836Y762647D01*
X635694Y762505D02*
Y762505D01*
X616712Y743522D02*
X635694Y762505D01*
X616712Y733262D02*
Y743522D01*
X614305Y729862D02*
Y730855D01*
X608051Y723608D02*
X614305Y729862D01*
X605947Y723608D02*
X608051D01*
X605010Y724546D02*
X605947Y723608D01*
X614305Y730855D02*
X616712Y733262D01*
X598321Y724546D02*
X605010D01*
X596907Y723131D02*
X598321Y724546D01*
X620776Y741514D02*
X644763Y765501D01*
X648298Y761841D02*
Y761965D01*
X633242Y746785D02*
X648298Y761841D01*
X620776Y726657D02*
Y741514D01*
X626872Y735076D02*
X633596Y728352D01*
X633242Y727677D02*
Y746785D01*
X621562Y684503D02*
X628252D01*
X637152Y697618D02*
X637506Y697971D01*
X628252Y684503D02*
Y688718D01*
X646684Y706894D02*
X648769Y708979D01*
Y710011D01*
X646684Y694654D02*
Y706894D01*
X643649Y691619D02*
X646684Y694654D01*
X643649Y691120D02*
Y691619D01*
X639885Y687356D02*
X643649Y691120D01*
X642593Y670162D02*
X651278Y678846D01*
X639885Y680779D02*
Y687356D01*
X631588Y672482D02*
X639885Y680779D01*
X623627Y672482D02*
X631588D01*
X616585Y672129D02*
X623274D01*
X623627Y672482D01*
X616231D02*
X616585Y672129D01*
X620776Y726657D02*
X624045Y723388D01*
X621023Y719334D02*
X624045Y722355D01*
Y723388D01*
X651278Y683040D02*
X651631Y683394D01*
X651278Y678846D02*
Y683040D01*
X642593Y670162D02*
Y670162D01*
X949350Y800130D02*
X950580Y801360D01*
X618565Y710991D02*
X621023Y713450D01*
Y719334D01*
X618565Y710363D02*
X621023Y707905D01*
X618565Y710363D02*
Y710991D01*
X683654Y726610D02*
X694944Y737900D01*
X717976Y721638D02*
Y723728D01*
Y721638D02*
X727147Y712468D01*
X717296Y724408D02*
X717976Y723728D01*
X828167Y756666D02*
X828548D01*
X821062Y763390D02*
X821443D01*
X828167Y756666D01*
X830205Y773042D02*
X830205D01*
X838199Y765048D01*
X838200D01*
X687189Y723074D02*
Y723199D01*
X700786Y736796D01*
Y737362D01*
X949278Y854340D02*
Y864790D01*
X933196Y697449D02*
Y735330D01*
Y697449D02*
X934684Y695961D01*
X939418D01*
X941705Y693674D01*
X936752Y738886D02*
X945374D01*
X933196Y735330D02*
X936752Y738886D01*
X1008380Y797814D02*
X1021080D01*
X1021334Y798068D01*
X1038334D02*
X1038343Y798077D01*
X986148Y700532D02*
X986790D01*
X977773Y695452D02*
X981068D01*
X986790Y700532D02*
Y701174D01*
X992752Y707136D01*
X1000142D01*
X975995Y693674D02*
X977773Y695452D01*
X981068D02*
X986148Y700532D01*
X953589Y755405D02*
Y756405D01*
X942175Y742252D02*
Y761403D01*
X940308Y763270D02*
X942175Y761403D01*
X973316Y767400D02*
X976176Y764540D01*
X977138D01*
X968350Y768630D02*
Y772130D01*
Y768630D02*
X969580Y767400D01*
X973316D01*
X950580Y801360D02*
Y804983D01*
X949350Y760644D02*
Y772130D01*
X945374Y738886D02*
X949104Y742616D01*
Y750920D01*
X954891Y816071D02*
Y818809D01*
X943850Y829850D02*
Y831850D01*
Y829850D02*
X954891Y818809D01*
Y816071D02*
X955621Y815341D01*
X943850Y831850D02*
X944625Y832625D01*
X742729Y909848D02*
X743083Y910202D01*
X739613Y909848D02*
X742729D01*
X727147Y897382D02*
X739613Y909848D01*
X736367Y916212D02*
X736720Y916566D01*
X736367Y913673D02*
Y916212D01*
X723611Y900917D02*
X736367Y913673D01*
D21*
X564643Y802821D02*
D03*
X564642Y793822D02*
D03*
X563119Y781993D02*
D03*
X563118Y772994D02*
D03*
X974090Y652526D02*
D03*
X974089Y643527D02*
D03*
X998983Y652961D02*
D03*
X998982Y643962D02*
D03*
X986535Y643709D02*
D03*
X986536Y652708D02*
D03*
X930910Y856488D02*
D03*
X930909Y847489D02*
D03*
D22*
X506256Y737759D02*
D03*
X546256D02*
D03*
X506256Y805920D02*
D03*
X546256D02*
D03*
X506256Y771840D02*
D03*
X546256D02*
D03*
D23*
X616479Y793785D02*
D03*
X620014Y790249D02*
D03*
X623550Y786714D02*
D03*
X627085Y783178D02*
D03*
X630621Y779643D02*
D03*
X634156Y776107D02*
D03*
X637692Y772572D02*
D03*
X641227Y769036D02*
D03*
X644763Y765501D02*
D03*
X648298Y761965D02*
D03*
X651834Y758430D02*
D03*
X655369Y754894D02*
D03*
X658905Y751359D02*
D03*
X662440Y747823D02*
D03*
X665976Y744288D02*
D03*
X669512Y740752D02*
D03*
X673047Y737216D02*
D03*
X676583Y733681D02*
D03*
X680118Y730145D02*
D03*
X683654Y726610D02*
D03*
X687189Y723074D02*
D03*
X690725Y719539D02*
D03*
X694260Y716003D02*
D03*
X697796Y712468D02*
D03*
X701331Y708932D02*
D03*
X808464Y816065D02*
D03*
X804928Y819600D02*
D03*
X801393Y823136D02*
D03*
X797857Y826671D02*
D03*
X794322Y830207D02*
D03*
X790786Y833742D02*
D03*
X787251Y837278D02*
D03*
X783715Y840813D02*
D03*
X780179Y844349D02*
D03*
X776644Y847884D02*
D03*
X773108Y851420D02*
D03*
X769573Y854956D02*
D03*
X766037Y858491D02*
D03*
X762502Y862027D02*
D03*
X758966Y865562D02*
D03*
X755431Y869098D02*
D03*
X751895Y872633D02*
D03*
X748360Y876169D02*
D03*
X744824Y879704D02*
D03*
X741289Y883240D02*
D03*
X737753Y886775D02*
D03*
X734218Y890311D02*
D03*
X730682Y893846D02*
D03*
X727147Y897382D02*
D03*
X723611Y900917D02*
D03*
D24*
Y708932D02*
D03*
X727147Y712468D02*
D03*
X730682Y716003D02*
D03*
X734218Y719539D02*
D03*
X737753Y723074D02*
D03*
X741289Y726610D02*
D03*
X744824Y730145D02*
D03*
X748360Y733681D02*
D03*
X751895Y737216D02*
D03*
X755431Y740752D02*
D03*
X758966Y744288D02*
D03*
X762502Y747823D02*
D03*
X766037Y751359D02*
D03*
X769573Y754894D02*
D03*
X773108Y758430D02*
D03*
X776644Y761965D02*
D03*
X780180Y765501D02*
D03*
X783715Y769036D02*
D03*
X787251Y772572D02*
D03*
X790786Y776107D02*
D03*
X794322Y779643D02*
D03*
X797857Y783178D02*
D03*
X801393Y786714D02*
D03*
X804928Y790249D02*
D03*
X808464Y793785D02*
D03*
X701331Y900917D02*
D03*
X697796Y897382D02*
D03*
X694260Y893846D02*
D03*
X690725Y890311D02*
D03*
X687189Y886775D02*
D03*
X683654Y883240D02*
D03*
X680118Y879704D02*
D03*
X676583Y876169D02*
D03*
X673047Y872633D02*
D03*
X669512Y869098D02*
D03*
X665976Y865562D02*
D03*
X662440Y862027D02*
D03*
X658905Y858491D02*
D03*
X655369Y854956D02*
D03*
X651834Y851420D02*
D03*
X648298Y847884D02*
D03*
X644763Y844349D02*
D03*
X641227Y840813D02*
D03*
X637692Y837278D02*
D03*
X634156Y833742D02*
D03*
X630621Y830207D02*
D03*
X627085Y826671D02*
D03*
X623550Y823136D02*
D03*
X620014Y819600D02*
D03*
X616479Y816065D02*
D03*
D25*
X596907Y723131D02*
D03*
X616706Y703333D02*
D03*
D26*
X614305Y729862D02*
D03*
X607942Y736226D02*
D03*
X651631Y683394D02*
D03*
X657994Y677030D02*
D03*
X643515Y691254D02*
D03*
X637152Y697618D02*
D03*
X655132Y703647D02*
D03*
X648769Y710011D02*
D03*
X623691Y722002D02*
D03*
X630054Y715638D02*
D03*
X814699Y769754D02*
D03*
X821062Y763390D02*
D03*
X598799Y840874D02*
D03*
X605162Y834510D02*
D03*
X830205Y773042D02*
D03*
X823842Y779406D02*
D03*
X747401Y691762D02*
D03*
X741038Y698126D02*
D03*
X743083Y910202D02*
D03*
X736720Y916566D02*
D03*
D27*
X628252Y684503D02*
D03*
X643101Y669654D02*
D03*
X631080Y657633D02*
D03*
X616231Y672482D02*
D03*
D28*
X964278Y854340D02*
D03*
X959278D02*
D03*
X954278D02*
D03*
X949278D02*
D03*
X944278D02*
D03*
Y903340D02*
D03*
X949278D02*
D03*
X954278D02*
D03*
X959278D02*
D03*
D29*
X964278D02*
D03*
D30*
X1000862Y727075D02*
D03*
Y720598D02*
D03*
Y714121D02*
D03*
Y707644D02*
D03*
Y733552D02*
D03*
X999998Y877316D02*
D03*
Y870839D02*
D03*
Y864362D02*
D03*
Y857885D02*
D03*
Y883793D02*
D03*
D31*
X1002532Y686058D02*
D03*
Y755138D02*
D03*
X1001668Y836299D02*
D03*
Y905379D02*
D03*
D32*
X1030072Y685038D02*
D03*
Y756158D02*
D03*
X1029208Y835279D02*
D03*
Y906399D02*
D03*
D33*
X1029970Y711708D02*
D03*
Y729488D02*
D03*
X1029106Y861949D02*
D03*
Y879729D02*
D03*
D34*
X543233Y715009D02*
D03*
X534234Y715010D02*
D03*
X543487Y703071D02*
D03*
X534488Y703072D02*
D03*
X955621Y815341D02*
D03*
X964620Y815340D02*
D03*
X952065Y755905D02*
D03*
X961064Y755904D02*
D03*
X962805Y711709D02*
D03*
X971804Y711708D02*
D03*
X962733Y721615D02*
D03*
X971732Y721614D02*
D03*
X1023547Y948689D02*
D03*
X1014548Y948690D02*
D03*
X1008380Y797814D02*
D03*
X999381Y797815D02*
D03*
D35*
X958952Y772160D02*
D03*
X968452Y800160D02*
D03*
X949452D02*
D03*
X949452Y772160D02*
D03*
X968452D02*
D03*
D36*
X943850Y831850D02*
D03*
X973850D02*
D03*
X945374Y738886D02*
D03*
X975374D02*
D03*
D37*
X941705Y693674D02*
D03*
X975995D02*
D03*
D38*
X1008634Y935482D02*
D03*
X1025634D02*
D03*
X1038334Y798068D02*
D03*
X1021334D02*
D03*
D39*
X549910Y904240D02*
D03*
Y878840D02*
D03*
Y853440D02*
D03*
Y929640D02*
D03*
D40*
X633596Y727323D02*
D03*
X639960Y733686D02*
D03*
X750556Y900671D02*
D03*
X756920Y907034D02*
D03*
D65*
X723872Y865055D02*
G03*
X724052Y865276I-4050J3486D01*
G01*
X723639Y864800D02*
G03*
X723872Y865055I-3817J3741D01*
G01*
X727782Y870107D02*
G03*
X728724Y872451I-3679J2840D01*
G01*
X724498Y880688D02*
G03*
X724602Y880684I115J1540D01*
G01*
X725369Y880683D02*
G03*
X726755Y880804I10J7860D01*
G01*
X727021Y880827D02*
G03*
X726755Y880804I0J-1544D01*
G01*
X768144Y901763D02*
G03*
X768475Y902206I-1052J1131D01*
G01*
X764034Y903015D02*
G03*
X764420Y903494I-986J1189D01*
G01*
X768525Y911438D02*
G03*
X768581Y911549I-4748J2454D01*
G01*
X780042Y975125D02*
G03*
X780026Y975087I1412J-625D01*
G01*
X779132Y972888D02*
G03*
X778376Y968821I9538J-3878D01*
G01*
X778870Y932639D02*
G03*
X779026Y933344I-1388J677D01*
G01*
X792489Y950484D02*
G03*
X792613Y951512I-1383J688D01*
G01*
X799424Y951081D02*
G03*
X803539Y960269I-63096J33778D01*
G01*
D02*
G03*
X804003Y961575I-67211J24591D01*
G01*
D02*
G03*
X803969Y962660I-1462J496D01*
G01*
X807472Y982708D02*
G03*
X802894Y974598I10810J-11449D01*
G01*
X802894D02*
G03*
X803969Y962660I19600J-4253D01*
G01*
X724103Y872947D02*
X727202Y876046D01*
X730843Y879865D02*
X732200Y881223D01*
X719836Y860921D02*
X723639Y864800D01*
X730843Y878163D02*
Y879865D01*
X719822Y868541D02*
X724103Y872947D01*
X728726Y872470D02*
X730518D01*
X728726Y876046D02*
X730843Y878163D01*
X728724Y872451D02*
X728726Y872470D01*
X730518D02*
X741289Y883240D01*
X724052Y865276D02*
X727782Y870107D01*
X727202Y876046D02*
X728726D01*
X718448Y881147D02*
X718455Y881140D01*
X718441Y881148D02*
X718442Y881147D01*
X718448D01*
X718438Y881148D02*
X718441D01*
X718438Y881148D02*
X718438Y881148D01*
X718437Y881148D02*
X718438D01*
X724602Y880684D02*
X725369Y880683D01*
X718455Y881140D02*
X724498Y880688D01*
X727021Y880827D02*
X729139D01*
X732200Y881223D02*
X732450Y881472D01*
X729139Y880827D02*
X729535Y881223D01*
X732200D01*
X768581Y911549D02*
X778870Y932639D01*
X772000Y899809D02*
X799424Y951081D01*
X748360Y876169D02*
X772000Y899809D01*
X746592Y888543D02*
X764034Y903015D01*
X768475Y902206D02*
X792489Y950484D01*
X750127Y885007D02*
X768144Y901763D01*
X764420Y903494D02*
X768525Y911438D01*
X744824Y879704D02*
X750127Y885007D01*
X741289Y883240D02*
X746592Y888543D01*
X739242Y874122D02*
X744824Y879704D01*
X742778Y870587D02*
X748360Y876169D01*
X732450Y881472D02*
X737753Y886775D01*
X780042Y975125D02*
X788670Y994410D01*
X780024Y975081D02*
X780026Y975087D01*
X779132Y972888D02*
X780024Y975081D01*
X778376Y968821D02*
X779026Y933344D01*
X788670Y969010D02*
X792613Y951512D01*
X807881Y983117D02*
X808051Y984941D01*
X808127Y985758D01*
X807472Y982708D02*
X807881Y983117D01*
X808127Y985758D02*
X814498Y992129D01*
Y992998D01*
X814070Y994410D02*
X814498Y992998D01*
X939346Y890016D02*
X943588D01*
X910356Y812589D02*
X913882Y863782D01*
X899668Y806958D02*
X906328Y813618D01*
X901149Y803382D02*
X910356Y812589D01*
X915531Y870489D02*
X939346Y890016D01*
X906328Y813618D02*
X910305Y865263D01*
X915531Y870489D01*
X913882Y863782D02*
X917012Y866912D01*
X940827Y886440D02*
X942106D01*
X954258Y874288D01*
X917012Y866912D02*
X940827Y886440D01*
X943588Y890016D02*
X957834Y875770D01*
X759460Y806958D02*
X899668D01*
X757979Y803382D02*
X901149D01*
X736278Y825082D02*
X757979Y803382D01*
X739854Y826564D02*
X759460Y806958D01*
X950214Y720852D02*
X961970D01*
X950214Y713232D02*
X961577D01*
X961970Y720852D02*
X962733Y721615D01*
X961577Y713232D02*
X962805Y712004D01*
Y711709D02*
Y712004D01*
X954258Y857948D02*
Y874288D01*
X957834Y860578D02*
X959278Y859134D01*
Y857308D02*
Y859134D01*
X957834Y860578D02*
Y875770D01*
X977530Y714873D02*
X978228Y715571D01*
X973936Y714873D02*
X977530D01*
X978228Y715571D02*
X993162D01*
X972960Y719354D02*
Y720386D01*
Y719354D02*
X973865Y718449D01*
X976049D01*
X976747Y719148D01*
X971804Y711708D02*
X973032Y712936D01*
X976747Y719148D02*
X993162D01*
X973032Y712936D02*
Y713968D01*
X973936Y714873D01*
X993162Y719148D02*
X994612Y720598D01*
X1000862D01*
X993162Y715571D02*
X994612Y714121D01*
X1000862D01*
X964278Y896568D02*
Y903340D01*
X963676Y895966D02*
X964278Y896568D01*
X963676Y886407D02*
Y895966D01*
X959278Y896568D02*
Y903340D01*
Y896568D02*
X960100Y895746D01*
Y884925D02*
Y895746D01*
Y884925D02*
X979213Y865812D01*
X989775D01*
X963676Y886407D02*
X980694Y869389D01*
X989775D01*
X991226Y870839D01*
X999998D01*
X989775Y865812D02*
X991226Y864362D01*
X999998D01*
X971804Y711708D02*
Y712208D01*
X1004302Y719620D02*
X1004772Y720090D01*
X736278Y870151D02*
X739242Y873116D01*
X741771Y870587D02*
X742778D01*
X739854Y826564D02*
Y868670D01*
X739242Y873116D02*
Y874122D01*
X739854Y868670D02*
X741771Y870587D01*
X736278Y825082D02*
Y870151D01*
X971732Y721614D02*
X972960Y720386D01*
D66*
X906403Y926772D02*
D03*
X851472Y617203D02*
D03*
X845609Y628243D02*
D03*
X783937Y691393D02*
D03*
X772323Y687683D02*
D03*
X767951Y698379D02*
D03*
D67*
X633242Y727677D02*
X633950Y726970D01*
Y726296D02*
Y726970D01*
X630407Y722754D02*
X633950Y726296D01*
X630407Y715992D02*
Y722754D01*
X630054Y715638D02*
X630407Y715992D01*
X630054Y715638D02*
X637506Y708186D01*
Y697971D02*
Y708186D01*
X628252Y688718D02*
X637152Y697618D01*
D68*
X1042670Y994410D02*
D03*
Y969010D02*
D03*
X1017270Y994410D02*
D03*
Y969010D02*
D03*
X991870Y994410D02*
D03*
Y969010D02*
D03*
X966470Y994410D02*
D03*
Y969010D02*
D03*
X941070Y994410D02*
D03*
Y969010D02*
D03*
X915670Y994410D02*
D03*
Y969010D02*
D03*
X890270Y994410D02*
D03*
Y969010D02*
D03*
X864870Y994410D02*
D03*
Y969010D02*
D03*
X839470Y994410D02*
D03*
Y969010D02*
D03*
X814070Y994410D02*
D03*
Y969010D02*
D03*
X788670Y994410D02*
D03*
Y969010D02*
D03*
X763270Y994410D02*
D03*
Y969010D02*
D03*
X737870Y994410D02*
D03*
Y969010D02*
D03*
X712470Y994410D02*
D03*
Y969010D02*
D03*
X687070Y994410D02*
D03*
Y969010D02*
D03*
X661670Y994410D02*
D03*
Y969010D02*
D03*
X636270Y994410D02*
D03*
Y969010D02*
D03*
X610870Y994410D02*
D03*
Y969010D02*
D03*
X585470Y994410D02*
D03*
Y969010D02*
D03*
X560070Y994410D02*
D03*
Y969010D02*
D03*
X534670D02*
D03*
Y994410D02*
D03*
X509270Y969010D02*
D03*
Y994410D02*
D03*
X1043940Y618490D02*
D03*
Y593090D02*
D03*
X1018540Y618490D02*
D03*
Y593090D02*
D03*
X993140Y618490D02*
D03*
Y593090D02*
D03*
X967740Y618490D02*
D03*
Y593090D02*
D03*
X942340Y618490D02*
D03*
Y593090D02*
D03*
X916940Y618490D02*
D03*
Y593090D02*
D03*
X891540Y618490D02*
D03*
Y593090D02*
D03*
X866140Y618490D02*
D03*
Y593090D02*
D03*
X840740Y618490D02*
D03*
Y593090D02*
D03*
X815340Y618490D02*
D03*
Y593090D02*
D03*
X789940Y618490D02*
D03*
Y593090D02*
D03*
X764540Y618490D02*
D03*
Y593090D02*
D03*
X739140Y618490D02*
D03*
Y593090D02*
D03*
X713740Y618490D02*
D03*
Y593090D02*
D03*
X688340Y618490D02*
D03*
Y593090D02*
D03*
X662940Y618490D02*
D03*
Y593090D02*
D03*
X637540Y618490D02*
D03*
Y593090D02*
D03*
X612140Y618490D02*
D03*
Y593090D02*
D03*
X586740Y618490D02*
D03*
Y593090D02*
D03*
X561340Y618490D02*
D03*
Y593090D02*
D03*
X535940D02*
D03*
Y618490D02*
D03*
X510540Y593090D02*
D03*
Y618490D02*
D03*
D69*
X645160Y822452D02*
D03*
X571500Y766572D02*
D03*
X516382Y789178D02*
D03*
X510794Y719582D02*
D03*
X524764Y709676D02*
D03*
X572262Y897382D02*
D03*
X548640Y602742D02*
D03*
X665734Y951992D02*
D03*
X641604Y718566D02*
D03*
X1017270Y741426D02*
D03*
X973582Y913638D02*
D03*
X1015238Y840232D02*
D03*
X1030732Y891032D02*
D03*
X1014984Y906780D02*
D03*
X1015991Y753430D02*
D03*
X1016898Y689746D02*
D03*
X1032138Y700922D02*
D03*
X1031630Y740292D02*
D03*
X576580Y796798D02*
D03*
X576326Y782066D02*
D03*
X584137Y774323D02*
D03*
X571754Y869950D02*
D03*
X572262Y849884D02*
D03*
X763778Y913892D02*
D03*
X1016000Y654050D02*
D03*
X838200Y765048D02*
D03*
X752252Y919576D02*
D03*
X1029598Y851036D02*
D03*
X700786Y737362D02*
D03*
X986536Y661670D02*
D03*
X974090Y660654D02*
D03*
X964184Y652526D02*
D03*
X694690Y760476D02*
D03*
X589534Y834898D02*
D03*
X999236Y663448D02*
D03*
X986790Y700532D02*
D03*
X719822Y868541D02*
D03*
X1038098Y782574D02*
D03*
X611124Y749046D02*
D03*
X626872Y735076D02*
D03*
X969518Y756158D02*
D03*
X948944Y786130D02*
D03*
X964692Y867410D02*
D03*
X986790Y692404D02*
D03*
X968502Y786384D02*
D03*
X959104D02*
D03*
X959230Y831601D02*
D03*
X932688Y822960D02*
D03*
X977138Y764540D02*
D03*
X940308Y763270D02*
D03*
X1013088Y921140D02*
D03*
X974852Y814832D02*
D03*
X923798Y833882D02*
D03*
X919226Y861568D02*
D03*
X1015882Y819540D02*
D03*
X728506Y925695D02*
D03*
X944626Y868934D02*
D03*
X924306Y822706D02*
D03*
X919734Y847344D02*
D03*
X932180Y833628D02*
D03*
X605790Y679958D02*
D03*
X598424Y704342D02*
D03*
X658496Y690626D02*
D03*
X983996Y848106D02*
D03*
X582422Y721360D02*
D03*
X657640Y666784D02*
D03*
X608838Y691642D02*
D03*
X607617Y664923D02*
D03*
X621030Y647700D02*
D03*
X828548Y756666D02*
D03*
X982484Y855472D02*
D03*
X709422Y884936D02*
D03*
X596436Y737197D02*
D03*
X635394Y645296D02*
D03*
X1032256Y809498D02*
D03*
X717296Y724408D02*
D03*
X718437Y881148D02*
D03*
X596646Y826262D02*
D03*
X753946Y685111D02*
D03*
X650494Y659130D02*
D03*
X873760Y784352D02*
D03*
X859536Y817118D02*
D03*
X950214Y713232D02*
D03*
Y720852D02*
D03*
X719836Y860921D02*
D03*
X830072Y785876D02*
D03*
X787400Y797560D02*
D03*
X669290Y767588D02*
D03*
X647192Y791210D02*
D03*
X905256Y652272D02*
D03*
X590804Y764540D02*
D03*
X784352Y640080D02*
D03*
X516128Y824484D02*
D03*
X554228Y636778D02*
D03*
X563118Y696722D02*
D03*
X533908Y689356D02*
D03*
X688594Y944626D02*
D03*
X614138Y670400D02*
D03*
X724916Y738632D02*
D03*
X986028Y798322D02*
D03*
X939546Y801116D02*
D03*
X684022Y759968D02*
D03*
X874588Y880273D02*
D03*
X930402Y659384D02*
D03*
X1034034Y951230D02*
D03*
X904748Y947928D02*
D03*
X946658Y654812D02*
D03*
X901446Y933196D02*
D03*
X741426Y683260D02*
D03*
X703834Y913638D02*
D03*
X547370Y943102D02*
D03*
X997966Y774446D02*
D03*
X635762Y801370D02*
D03*
X914400Y662686D02*
D03*
X830834Y817118D02*
D03*
X1043686Y929386D02*
D03*
X935228Y639064D02*
D03*
X980186Y775208D02*
D03*
X673862Y944372D02*
D03*
X843788Y818896D02*
D03*
X566166Y757936D02*
D03*
X849884Y796036D02*
D03*
X861822Y789940D02*
D03*
M02*
