G04*
G04 #@! TF.GenerationSoftware,Altium Limited,Altium Designer,25.4.2 (15)*
G04*
G04 Layer_Physical_Order=4*
G04 Layer_Color=16711680*
%FSLAX44Y44*%
%MOMM*%
G71*
G04*
G04 #@! TF.SameCoordinates,BD49B22D-EE2B-44C8-A640-33F07053280C*
G04*
G04*
G04 #@! TF.FilePolarity,Positive*
G04*
G01*
G75*
%ADD11C,0.3810*%
%ADD12C,0.2540*%
%ADD65C,0.1544*%
%ADD68C,1.6000*%
%ADD69C,0.6096*%
G36*
X1047240Y1011135D02*
X1047240Y1011135D01*
X1049666Y1010859D01*
X1050128Y1010798D01*
X1052819Y1009684D01*
X1055130Y1007910D01*
X1056904Y1005599D01*
X1058018Y1002908D01*
X1058381Y1000150D01*
X1058355Y1000020D01*
Y911301D01*
X1057402Y911176D01*
X1055733Y910484D01*
X1054301Y909385D01*
X1053202Y907953D01*
X1052511Y906284D01*
X1052305Y904724D01*
X1052259Y904494D01*
Y835874D01*
X1052305Y835644D01*
X1052511Y834084D01*
X1053202Y832415D01*
X1054301Y830983D01*
X1055733Y829884D01*
X1057402Y829193D01*
X1058355Y829067D01*
Y761441D01*
X1057402Y761316D01*
X1055733Y760624D01*
X1054301Y759525D01*
X1053202Y758093D01*
X1052511Y756424D01*
X1052305Y754864D01*
X1052259Y754634D01*
Y686014D01*
X1052305Y685784D01*
X1052511Y684224D01*
X1053202Y682555D01*
X1054301Y681123D01*
X1055733Y680024D01*
X1057402Y679333D01*
X1058355Y679207D01*
Y590020D01*
X1058381Y589890D01*
X1058018Y587132D01*
X1056904Y584441D01*
X1055130Y582130D01*
X1052819Y580356D01*
X1050128Y579242D01*
X1047370Y578879D01*
X1047240Y578905D01*
X507240D01*
X507240Y578905D01*
X507240Y578905D01*
X504814Y579181D01*
X504352Y579242D01*
X501661Y580356D01*
X499350Y582130D01*
X497576Y584441D01*
X496462Y587132D01*
X496099Y589890D01*
X496125Y590020D01*
Y965569D01*
X498665Y965903D01*
X498975Y964746D01*
X500429Y962226D01*
X502486Y960169D01*
X505006Y958715D01*
X507816Y957962D01*
X510724D01*
X513534Y958715D01*
X516054Y960169D01*
X518111Y962226D01*
X519565Y964746D01*
X520318Y967555D01*
Y970464D01*
X519565Y973274D01*
X518111Y975794D01*
X516054Y977851D01*
X513534Y979305D01*
X510724Y980058D01*
X507816D01*
X505006Y979305D01*
X502486Y977851D01*
X500429Y975794D01*
X498975Y973274D01*
X498665Y972116D01*
X496125Y972451D01*
Y990969D01*
X498665Y991303D01*
X498975Y990146D01*
X500429Y987626D01*
X502486Y985569D01*
X505006Y984115D01*
X507816Y983362D01*
X510724D01*
X513534Y984115D01*
X516054Y985569D01*
X518111Y987626D01*
X519565Y990146D01*
X520318Y992955D01*
Y995864D01*
X519565Y998674D01*
X518111Y1001194D01*
X516054Y1003251D01*
X513534Y1004705D01*
X510724Y1005458D01*
X507816D01*
X505006Y1004705D01*
X502486Y1003251D01*
X500429Y1001194D01*
X498975Y998674D01*
X498665Y997516D01*
X496125Y997851D01*
Y1000020D01*
X496099Y1000150D01*
X496462Y1002908D01*
X497576Y1005599D01*
X499350Y1007910D01*
X501661Y1009684D01*
X504352Y1010798D01*
X504814Y1010859D01*
X507240Y1011135D01*
Y1011135D01*
X509780Y1011135D01*
X1047240D01*
X1047240Y1011135D01*
D02*
G37*
%LPC*%
G36*
X1044575Y1004811D02*
Y996315D01*
X1053071D01*
X1052492Y998478D01*
X1051104Y1000882D01*
X1049142Y1002844D01*
X1046738Y1004232D01*
X1044575Y1004811D01*
D02*
G37*
G36*
X1019175D02*
Y996315D01*
X1027671D01*
X1027092Y998478D01*
X1025704Y1000882D01*
X1023742Y1002844D01*
X1021338Y1004232D01*
X1019175Y1004811D01*
D02*
G37*
G36*
X1015365D02*
X1013202Y1004232D01*
X1010798Y1002844D01*
X1008836Y1000882D01*
X1007448Y998478D01*
X1006869Y996315D01*
X1015365D01*
Y1004811D01*
D02*
G37*
G36*
X1040765D02*
X1038602Y1004232D01*
X1036198Y1002844D01*
X1034236Y1000882D01*
X1032848Y998478D01*
X1032269Y996315D01*
X1040765D01*
Y1004811D01*
D02*
G37*
G36*
X1053071Y992505D02*
X1044575D01*
Y984009D01*
X1046738Y984588D01*
X1049142Y985976D01*
X1051104Y987938D01*
X1052492Y990342D01*
X1053071Y992505D01*
D02*
G37*
G36*
X1027671D02*
X1019175D01*
Y984009D01*
X1021338Y984588D01*
X1023742Y985976D01*
X1025704Y987938D01*
X1027092Y990342D01*
X1027671Y992505D01*
D02*
G37*
G36*
X1040765D02*
X1032269D01*
X1032848Y990342D01*
X1034236Y987938D01*
X1036198Y985976D01*
X1038602Y984588D01*
X1040765Y984009D01*
Y992505D01*
D02*
G37*
G36*
X1015365D02*
X1006869D01*
X1007448Y990342D01*
X1008836Y987938D01*
X1010798Y985976D01*
X1013202Y984588D01*
X1015365Y984009D01*
Y992505D01*
D02*
G37*
G36*
X993325Y1005458D02*
X990415D01*
X987606Y1004705D01*
X985086Y1003251D01*
X983029Y1001194D01*
X981575Y998674D01*
X980822Y995864D01*
Y992955D01*
X981575Y990146D01*
X983029Y987626D01*
X985086Y985569D01*
X987606Y984115D01*
X990415Y983362D01*
X993325D01*
X996134Y984115D01*
X998654Y985569D01*
X1000711Y987626D01*
X1002165Y990146D01*
X1002918Y992955D01*
Y995864D01*
X1002165Y998674D01*
X1000711Y1001194D01*
X998654Y1003251D01*
X996134Y1004705D01*
X993325Y1005458D01*
D02*
G37*
G36*
X967924D02*
X965015D01*
X962206Y1004705D01*
X959686Y1003251D01*
X957629Y1001194D01*
X956175Y998674D01*
X955422Y995864D01*
Y992955D01*
X956175Y990146D01*
X957629Y987626D01*
X959686Y985569D01*
X962206Y984115D01*
X965015Y983362D01*
X967924D01*
X970734Y984115D01*
X973254Y985569D01*
X975311Y987626D01*
X976765Y990146D01*
X977518Y992955D01*
Y995864D01*
X976765Y998674D01*
X975311Y1001194D01*
X973254Y1003251D01*
X970734Y1004705D01*
X967924Y1005458D01*
D02*
G37*
G36*
X917124D02*
X914215D01*
X911406Y1004705D01*
X908886Y1003251D01*
X906829Y1001194D01*
X905375Y998674D01*
X904622Y995864D01*
Y992955D01*
X905375Y990146D01*
X906829Y987626D01*
X908886Y985569D01*
X911406Y984115D01*
X914215Y983362D01*
X917124D01*
X919934Y984115D01*
X922454Y985569D01*
X924511Y987626D01*
X925965Y990146D01*
X926718Y992955D01*
Y995864D01*
X925965Y998674D01*
X924511Y1001194D01*
X922454Y1003251D01*
X919934Y1004705D01*
X917124Y1005458D01*
D02*
G37*
G36*
X891724D02*
X888816D01*
X886006Y1004705D01*
X883486Y1003251D01*
X881429Y1001194D01*
X879975Y998674D01*
X879222Y995864D01*
Y992955D01*
X879975Y990146D01*
X881429Y987626D01*
X883486Y985569D01*
X886006Y984115D01*
X888816Y983362D01*
X891724D01*
X894534Y984115D01*
X897054Y985569D01*
X899111Y987626D01*
X900565Y990146D01*
X901318Y992955D01*
Y995864D01*
X900565Y998674D01*
X899111Y1001194D01*
X897054Y1003251D01*
X894534Y1004705D01*
X891724Y1005458D01*
D02*
G37*
G36*
X866324D02*
X863416D01*
X860606Y1004705D01*
X858086Y1003251D01*
X856029Y1001194D01*
X854575Y998674D01*
X853822Y995864D01*
Y992955D01*
X854575Y990146D01*
X856029Y987626D01*
X858086Y985569D01*
X860606Y984115D01*
X863416Y983362D01*
X866324D01*
X869134Y984115D01*
X871654Y985569D01*
X873711Y987626D01*
X875165Y990146D01*
X875918Y992955D01*
Y995864D01*
X875165Y998674D01*
X873711Y1001194D01*
X871654Y1003251D01*
X869134Y1004705D01*
X866324Y1005458D01*
D02*
G37*
G36*
X840925D02*
X838016D01*
X835206Y1004705D01*
X832686Y1003251D01*
X830629Y1001194D01*
X829175Y998674D01*
X828422Y995864D01*
Y992955D01*
X829175Y990146D01*
X830629Y987626D01*
X832686Y985569D01*
X835206Y984115D01*
X838016Y983362D01*
X840925D01*
X843734Y984115D01*
X846254Y985569D01*
X848311Y987626D01*
X849765Y990146D01*
X850518Y992955D01*
Y995864D01*
X849765Y998674D01*
X848311Y1001194D01*
X846254Y1003251D01*
X843734Y1004705D01*
X840925Y1005458D01*
D02*
G37*
G36*
X815525D02*
X812616D01*
X809806Y1004705D01*
X807286Y1003251D01*
X805229Y1001194D01*
X803775Y998674D01*
X803022Y995864D01*
Y992955D01*
X803775Y990146D01*
X805229Y987626D01*
X807286Y985569D01*
X809806Y984115D01*
X812616Y983362D01*
X815525D01*
X818334Y984115D01*
X820854Y985569D01*
X822911Y987626D01*
X824365Y990146D01*
X825118Y992955D01*
Y995864D01*
X824365Y998674D01*
X822911Y1001194D01*
X820854Y1003251D01*
X818334Y1004705D01*
X815525Y1005458D01*
D02*
G37*
G36*
X790125D02*
X787215D01*
X784406Y1004705D01*
X781886Y1003251D01*
X779829Y1001194D01*
X778375Y998674D01*
X777622Y995864D01*
Y992955D01*
X778375Y990146D01*
X779829Y987626D01*
X781886Y985569D01*
X784406Y984115D01*
X787215Y983362D01*
X790125D01*
X792934Y984115D01*
X795454Y985569D01*
X797511Y987626D01*
X798965Y990146D01*
X799718Y992955D01*
Y995864D01*
X798965Y998674D01*
X797511Y1001194D01*
X795454Y1003251D01*
X792934Y1004705D01*
X790125Y1005458D01*
D02*
G37*
G36*
X764725D02*
X761815D01*
X759006Y1004705D01*
X756486Y1003251D01*
X754429Y1001194D01*
X752975Y998674D01*
X752222Y995864D01*
Y992955D01*
X752975Y990146D01*
X754429Y987626D01*
X756486Y985569D01*
X759006Y984115D01*
X761815Y983362D01*
X764725D01*
X767534Y984115D01*
X770054Y985569D01*
X772111Y987626D01*
X773565Y990146D01*
X774318Y992955D01*
Y995864D01*
X773565Y998674D01*
X772111Y1001194D01*
X770054Y1003251D01*
X767534Y1004705D01*
X764725Y1005458D01*
D02*
G37*
G36*
X739324D02*
X736415D01*
X733606Y1004705D01*
X731086Y1003251D01*
X729029Y1001194D01*
X727575Y998674D01*
X726822Y995864D01*
Y992955D01*
X727575Y990146D01*
X729029Y987626D01*
X731086Y985569D01*
X733606Y984115D01*
X736415Y983362D01*
X739324D01*
X742134Y984115D01*
X744654Y985569D01*
X746711Y987626D01*
X748165Y990146D01*
X748918Y992955D01*
Y995864D01*
X748165Y998674D01*
X746711Y1001194D01*
X744654Y1003251D01*
X742134Y1004705D01*
X739324Y1005458D01*
D02*
G37*
G36*
X713924D02*
X711015D01*
X708206Y1004705D01*
X705686Y1003251D01*
X703629Y1001194D01*
X702175Y998674D01*
X701422Y995864D01*
Y992955D01*
X702175Y990146D01*
X703629Y987626D01*
X705686Y985569D01*
X708206Y984115D01*
X711015Y983362D01*
X713924D01*
X716734Y984115D01*
X719254Y985569D01*
X721311Y987626D01*
X722765Y990146D01*
X723518Y992955D01*
Y995864D01*
X722765Y998674D01*
X721311Y1001194D01*
X719254Y1003251D01*
X716734Y1004705D01*
X713924Y1005458D01*
D02*
G37*
G36*
X688524D02*
X685615D01*
X682806Y1004705D01*
X680286Y1003251D01*
X678229Y1001194D01*
X676775Y998674D01*
X676022Y995864D01*
Y992955D01*
X676775Y990146D01*
X678229Y987626D01*
X680286Y985569D01*
X682806Y984115D01*
X685615Y983362D01*
X688524D01*
X691334Y984115D01*
X693854Y985569D01*
X695911Y987626D01*
X697365Y990146D01*
X698118Y992955D01*
Y995864D01*
X697365Y998674D01*
X695911Y1001194D01*
X693854Y1003251D01*
X691334Y1004705D01*
X688524Y1005458D01*
D02*
G37*
G36*
X637724D02*
X634815D01*
X632006Y1004705D01*
X629486Y1003251D01*
X627429Y1001194D01*
X625975Y998674D01*
X625222Y995864D01*
Y992955D01*
X625975Y990146D01*
X627429Y987626D01*
X629486Y985569D01*
X632006Y984115D01*
X634815Y983362D01*
X637724D01*
X640534Y984115D01*
X643054Y985569D01*
X645111Y987626D01*
X646565Y990146D01*
X647318Y992955D01*
Y995864D01*
X646565Y998674D01*
X645111Y1001194D01*
X643054Y1003251D01*
X640534Y1004705D01*
X637724Y1005458D01*
D02*
G37*
G36*
X612324D02*
X609416D01*
X606606Y1004705D01*
X604086Y1003251D01*
X602029Y1001194D01*
X600575Y998674D01*
X599822Y995864D01*
Y992955D01*
X600575Y990146D01*
X602029Y987626D01*
X604086Y985569D01*
X606606Y984115D01*
X609416Y983362D01*
X612324D01*
X615134Y984115D01*
X617654Y985569D01*
X619711Y987626D01*
X621165Y990146D01*
X621918Y992955D01*
Y995864D01*
X621165Y998674D01*
X619711Y1001194D01*
X617654Y1003251D01*
X615134Y1004705D01*
X612324Y1005458D01*
D02*
G37*
G36*
X586925D02*
X584016D01*
X581206Y1004705D01*
X578686Y1003251D01*
X576629Y1001194D01*
X575175Y998674D01*
X574422Y995864D01*
Y992955D01*
X575175Y990146D01*
X576629Y987626D01*
X578686Y985569D01*
X581206Y984115D01*
X584016Y983362D01*
X586925D01*
X589734Y984115D01*
X592254Y985569D01*
X594311Y987626D01*
X595765Y990146D01*
X596518Y992955D01*
Y995864D01*
X595765Y998674D01*
X594311Y1001194D01*
X592254Y1003251D01*
X589734Y1004705D01*
X586925Y1005458D01*
D02*
G37*
G36*
X561525D02*
X558615D01*
X555806Y1004705D01*
X553286Y1003251D01*
X551229Y1001194D01*
X549775Y998674D01*
X549022Y995864D01*
Y992955D01*
X549775Y990146D01*
X551229Y987626D01*
X553286Y985569D01*
X555806Y984115D01*
X558615Y983362D01*
X561525D01*
X564334Y984115D01*
X566854Y985569D01*
X568911Y987626D01*
X570365Y990146D01*
X571118Y992955D01*
Y995864D01*
X570365Y998674D01*
X568911Y1001194D01*
X566854Y1003251D01*
X564334Y1004705D01*
X561525Y1005458D01*
D02*
G37*
G36*
X536124D02*
X533215D01*
X530406Y1004705D01*
X527886Y1003251D01*
X525829Y1001194D01*
X524375Y998674D01*
X523622Y995864D01*
Y992955D01*
X524375Y990146D01*
X525829Y987626D01*
X527886Y985569D01*
X530406Y984115D01*
X533215Y983362D01*
X536124D01*
X538934Y984115D01*
X541454Y985569D01*
X543511Y987626D01*
X544965Y990146D01*
X545718Y992955D01*
Y995864D01*
X544965Y998674D01*
X543511Y1001194D01*
X541454Y1003251D01*
X538934Y1004705D01*
X536124Y1005458D01*
D02*
G37*
G36*
X942524D02*
X939615D01*
X936806Y1004705D01*
X934286Y1003251D01*
X932229Y1001194D01*
X930775Y998674D01*
X930022Y995864D01*
Y992955D01*
X930775Y990146D01*
X932229Y987626D01*
X932455Y987401D01*
X926767Y976479D01*
X923876Y976428D01*
X922454Y977851D01*
X919934Y979305D01*
X917124Y980058D01*
X914215D01*
X911406Y979305D01*
X908886Y977851D01*
X906829Y975794D01*
X905375Y973274D01*
X904622Y970464D01*
Y967555D01*
X905375Y964746D01*
X906829Y962226D01*
X908886Y960169D01*
X909464Y959836D01*
X909611Y956818D01*
X903206Y952238D01*
X902158Y951804D01*
X900872Y950518D01*
X900176Y948837D01*
Y947019D01*
X900872Y945338D01*
X902158Y944052D01*
X902596Y943871D01*
X903011Y942422D01*
X903033Y941009D01*
X899265Y937241D01*
X898856Y937072D01*
X897570Y935786D01*
X896874Y934105D01*
Y932287D01*
X897570Y930606D01*
X898856Y929320D01*
X900537Y928624D01*
X902355D01*
X904036Y929320D01*
X905322Y930606D01*
X905491Y931015D01*
X908268Y933792D01*
X910254D01*
X911939Y934127D01*
X913367Y935081D01*
X936960Y958674D01*
X939615Y957962D01*
X942524D01*
X945334Y958715D01*
X947854Y960169D01*
X949911Y962226D01*
X951365Y964746D01*
X952118Y967555D01*
Y970464D01*
X951365Y973274D01*
X949911Y975794D01*
X947854Y977851D01*
X945334Y979305D01*
X943323Y979844D01*
X942140Y981787D01*
X941959Y982598D01*
X942389Y983362D01*
X942524D01*
X945334Y984115D01*
X947854Y985569D01*
X949911Y987626D01*
X951365Y990146D01*
X952118Y992955D01*
Y995864D01*
X951365Y998674D01*
X949911Y1001194D01*
X947854Y1003251D01*
X945334Y1004705D01*
X942524Y1005458D01*
D02*
G37*
G36*
X1044125Y980058D02*
X1041216D01*
X1038406Y979305D01*
X1035886Y977851D01*
X1033829Y975794D01*
X1032375Y973274D01*
X1031622Y970464D01*
Y967555D01*
X1032375Y964746D01*
X1033829Y962226D01*
X1035886Y960169D01*
X1038406Y958715D01*
X1041216Y957962D01*
X1044125D01*
X1046934Y958715D01*
X1049454Y960169D01*
X1051511Y962226D01*
X1052965Y964746D01*
X1053718Y967555D01*
Y970464D01*
X1052965Y973274D01*
X1051511Y975794D01*
X1049454Y977851D01*
X1046934Y979305D01*
X1044125Y980058D01*
D02*
G37*
G36*
X1018725D02*
X1015816D01*
X1013006Y979305D01*
X1010486Y977851D01*
X1008429Y975794D01*
X1006975Y973274D01*
X1006222Y970464D01*
Y967555D01*
X1006975Y964746D01*
X1008429Y962226D01*
X1010486Y960169D01*
X1013006Y958715D01*
X1015816Y957962D01*
X1018725D01*
X1021534Y958715D01*
X1024054Y960169D01*
X1026111Y962226D01*
X1027565Y964746D01*
X1028318Y967555D01*
Y970464D01*
X1027565Y973274D01*
X1026111Y975794D01*
X1024054Y977851D01*
X1021534Y979305D01*
X1018725Y980058D01*
D02*
G37*
G36*
X993325D02*
X990415D01*
X987606Y979305D01*
X985086Y977851D01*
X983029Y975794D01*
X981575Y973274D01*
X980822Y970464D01*
Y967555D01*
X981575Y964746D01*
X983029Y962226D01*
X985086Y960169D01*
X987606Y958715D01*
X990415Y957962D01*
X993325D01*
X996134Y958715D01*
X998654Y960169D01*
X1000711Y962226D01*
X1002165Y964746D01*
X1002918Y967555D01*
Y970464D01*
X1002165Y973274D01*
X1000711Y975794D01*
X998654Y977851D01*
X996134Y979305D01*
X993325Y980058D01*
D02*
G37*
G36*
X967924D02*
X965015D01*
X962206Y979305D01*
X959686Y977851D01*
X957629Y975794D01*
X956175Y973274D01*
X955422Y970464D01*
Y967555D01*
X956175Y964746D01*
X957629Y962226D01*
X959686Y960169D01*
X962206Y958715D01*
X965015Y957962D01*
X967924D01*
X970734Y958715D01*
X973254Y960169D01*
X975311Y962226D01*
X976765Y964746D01*
X977518Y967555D01*
Y970464D01*
X976765Y973274D01*
X975311Y975794D01*
X973254Y977851D01*
X970734Y979305D01*
X967924Y980058D01*
D02*
G37*
G36*
X891724D02*
X888816D01*
X886006Y979305D01*
X883486Y977851D01*
X881429Y975794D01*
X879975Y973274D01*
X879222Y970464D01*
Y967555D01*
X879975Y964746D01*
X881429Y962226D01*
X883486Y960169D01*
X886006Y958715D01*
X888816Y957962D01*
X891724D01*
X894534Y958715D01*
X897054Y960169D01*
X899111Y962226D01*
X900565Y964746D01*
X901318Y967555D01*
Y970464D01*
X900565Y973274D01*
X899111Y975794D01*
X897054Y977851D01*
X894534Y979305D01*
X891724Y980058D01*
D02*
G37*
G36*
X866324D02*
X863416D01*
X860606Y979305D01*
X858086Y977851D01*
X856029Y975794D01*
X854575Y973274D01*
X853822Y970464D01*
Y967555D01*
X854575Y964746D01*
X856029Y962226D01*
X858086Y960169D01*
X860606Y958715D01*
X863416Y957962D01*
X866324D01*
X869134Y958715D01*
X871654Y960169D01*
X873711Y962226D01*
X875165Y964746D01*
X875918Y967555D01*
Y970464D01*
X875165Y973274D01*
X873711Y975794D01*
X871654Y977851D01*
X869134Y979305D01*
X866324Y980058D01*
D02*
G37*
G36*
X840925D02*
X838016D01*
X835206Y979305D01*
X832686Y977851D01*
X830629Y975794D01*
X829175Y973274D01*
X828422Y970464D01*
Y967555D01*
X829175Y964746D01*
X830629Y962226D01*
X832686Y960169D01*
X835206Y958715D01*
X838016Y957962D01*
X840925D01*
X843734Y958715D01*
X846254Y960169D01*
X848311Y962226D01*
X849765Y964746D01*
X850518Y967555D01*
Y970464D01*
X849765Y973274D01*
X848311Y975794D01*
X846254Y977851D01*
X843734Y979305D01*
X840925Y980058D01*
D02*
G37*
G36*
X815525D02*
X812616D01*
X809806Y979305D01*
X807286Y977851D01*
X805229Y975794D01*
X803775Y973274D01*
X803022Y970464D01*
Y967555D01*
X803775Y964746D01*
X805229Y962226D01*
X807286Y960169D01*
X809806Y958715D01*
X812616Y957962D01*
X815525D01*
X818334Y958715D01*
X820854Y960169D01*
X822911Y962226D01*
X824365Y964746D01*
X825118Y967555D01*
Y970464D01*
X824365Y973274D01*
X822911Y975794D01*
X820854Y977851D01*
X818334Y979305D01*
X815525Y980058D01*
D02*
G37*
G36*
X790125D02*
X787215D01*
X784406Y979305D01*
X781886Y977851D01*
X779829Y975794D01*
X778375Y973274D01*
X777622Y970464D01*
Y967555D01*
X778375Y964746D01*
X779829Y962226D01*
X781886Y960169D01*
X784406Y958715D01*
X787215Y957962D01*
X790125D01*
X792934Y958715D01*
X795454Y960169D01*
X797511Y962226D01*
X798965Y964746D01*
X799718Y967555D01*
Y970464D01*
X798965Y973274D01*
X797511Y975794D01*
X795454Y977851D01*
X792934Y979305D01*
X790125Y980058D01*
D02*
G37*
G36*
X739324D02*
X736415D01*
X733606Y979305D01*
X731086Y977851D01*
X729029Y975794D01*
X727575Y973274D01*
X726822Y970464D01*
Y967555D01*
X727575Y964746D01*
X729029Y962226D01*
X731086Y960169D01*
X733606Y958715D01*
X736415Y957962D01*
X739324D01*
X742134Y958715D01*
X744654Y960169D01*
X746711Y962226D01*
X748165Y964746D01*
X748918Y967555D01*
Y970464D01*
X748165Y973274D01*
X746711Y975794D01*
X744654Y977851D01*
X742134Y979305D01*
X739324Y980058D01*
D02*
G37*
G36*
X663124Y1005458D02*
X660216D01*
X657406Y1004705D01*
X654886Y1003251D01*
X652829Y1001194D01*
X651375Y998674D01*
X650622Y995864D01*
Y992955D01*
X651375Y990146D01*
X652829Y987626D01*
X654886Y985569D01*
X657406Y984115D01*
X659884Y983451D01*
X660461Y982598D01*
X660407Y982042D01*
X659009Y979735D01*
X657406Y979305D01*
X654886Y977851D01*
X652829Y975794D01*
X651375Y973274D01*
X650622Y970464D01*
Y967555D01*
X651375Y964746D01*
X652829Y962226D01*
X654886Y960169D01*
X657406Y958715D01*
X660216Y957962D01*
X661886D01*
X661990Y957842D01*
X662177Y957522D01*
X662698Y955422D01*
X661858Y954582D01*
X661162Y952901D01*
Y951083D01*
X661858Y949402D01*
X663144Y948116D01*
X664825Y947420D01*
X666643D01*
X667589Y947812D01*
X669631Y946105D01*
X669290Y945281D01*
Y943463D01*
X669986Y941782D01*
X671272Y940496D01*
X672953Y939800D01*
X674771D01*
X676452Y940496D01*
X677738Y941782D01*
X677907Y942191D01*
X681645Y945929D01*
X684022Y944714D01*
Y943717D01*
X684718Y942036D01*
X686004Y940750D01*
X687685Y940054D01*
X689503D01*
X691184Y940750D01*
X692470Y942036D01*
X692819Y942879D01*
X708560Y958620D01*
X711015Y957962D01*
X713924D01*
X716734Y958715D01*
X719254Y960169D01*
X721311Y962226D01*
X722765Y964746D01*
X723518Y967555D01*
Y970464D01*
X722765Y973274D01*
X721311Y975794D01*
X719254Y977851D01*
X716734Y979305D01*
X713924Y980058D01*
X711015D01*
X708206Y979305D01*
X705686Y977851D01*
X703629Y975794D01*
X702175Y973274D01*
X701422Y970464D01*
Y967555D01*
X702175Y964746D01*
X702196Y964708D01*
X693015Y955527D01*
X690655Y956732D01*
X690675Y958538D01*
X691334Y958715D01*
X693854Y960169D01*
X695911Y962226D01*
X697365Y964746D01*
X698118Y967555D01*
Y970464D01*
X697365Y973274D01*
X695911Y975794D01*
X693854Y977851D01*
X691334Y979305D01*
X688524Y980058D01*
X685615D01*
X682806Y979305D01*
X680286Y977851D01*
X678229Y975794D01*
X678147Y975650D01*
X675284Y975771D01*
X669971Y987087D01*
X670511Y987626D01*
X671965Y990146D01*
X672718Y992955D01*
Y995864D01*
X671965Y998674D01*
X670511Y1001194D01*
X668454Y1003251D01*
X665934Y1004705D01*
X663124Y1005458D01*
D02*
G37*
G36*
X637724Y980058D02*
X634815D01*
X632006Y979305D01*
X629486Y977851D01*
X627429Y975794D01*
X625975Y973274D01*
X625222Y970464D01*
Y967555D01*
X625975Y964746D01*
X627429Y962226D01*
X629486Y960169D01*
X632006Y958715D01*
X634815Y957962D01*
X637724D01*
X640534Y958715D01*
X643054Y960169D01*
X645111Y962226D01*
X646565Y964746D01*
X647318Y967555D01*
Y970464D01*
X646565Y973274D01*
X645111Y975794D01*
X643054Y977851D01*
X640534Y979305D01*
X637724Y980058D01*
D02*
G37*
G36*
X612324D02*
X609416D01*
X606606Y979305D01*
X604086Y977851D01*
X602029Y975794D01*
X600575Y973274D01*
X599822Y970464D01*
Y967555D01*
X600575Y964746D01*
X602029Y962226D01*
X604086Y960169D01*
X606606Y958715D01*
X609416Y957962D01*
X612324D01*
X615134Y958715D01*
X617654Y960169D01*
X619711Y962226D01*
X621165Y964746D01*
X621918Y967555D01*
Y970464D01*
X621165Y973274D01*
X619711Y975794D01*
X617654Y977851D01*
X615134Y979305D01*
X612324Y980058D01*
D02*
G37*
G36*
X586925D02*
X584016D01*
X581206Y979305D01*
X578686Y977851D01*
X576629Y975794D01*
X575175Y973274D01*
X574422Y970464D01*
Y967555D01*
X575175Y964746D01*
X576629Y962226D01*
X578686Y960169D01*
X581206Y958715D01*
X584016Y957962D01*
X586925D01*
X589734Y958715D01*
X592254Y960169D01*
X594311Y962226D01*
X595765Y964746D01*
X596518Y967555D01*
Y970464D01*
X595765Y973274D01*
X594311Y975794D01*
X592254Y977851D01*
X589734Y979305D01*
X586925Y980058D01*
D02*
G37*
G36*
X561525D02*
X558615D01*
X555806Y979305D01*
X553286Y977851D01*
X551229Y975794D01*
X549775Y973274D01*
X549022Y970464D01*
Y967555D01*
X549775Y964746D01*
X551229Y962226D01*
X553286Y960169D01*
X555806Y958715D01*
X558615Y957962D01*
X561525D01*
X564334Y958715D01*
X566854Y960169D01*
X568911Y962226D01*
X570365Y964746D01*
X571118Y967555D01*
Y970464D01*
X570365Y973274D01*
X568911Y975794D01*
X566854Y977851D01*
X564334Y979305D01*
X561525Y980058D01*
D02*
G37*
G36*
X536124D02*
X533215D01*
X530406Y979305D01*
X527886Y977851D01*
X525829Y975794D01*
X524375Y973274D01*
X523622Y970464D01*
Y967555D01*
X524375Y964746D01*
X525829Y962226D01*
X527886Y960169D01*
X530406Y958715D01*
X533215Y957962D01*
X536124D01*
X538934Y958715D01*
X541454Y960169D01*
X543511Y962226D01*
X544965Y964746D01*
X545718Y967555D01*
Y970464D01*
X544965Y973274D01*
X543511Y975794D01*
X541454Y977851D01*
X538934Y979305D01*
X536124Y980058D01*
D02*
G37*
G36*
X1034943Y955802D02*
X1033125D01*
X1031444Y955106D01*
X1030158Y953820D01*
X1029462Y952139D01*
Y950321D01*
X1030158Y948640D01*
X1031444Y947354D01*
X1033125Y946658D01*
X1034943D01*
X1036624Y947354D01*
X1037910Y948640D01*
X1038606Y950321D01*
Y952139D01*
X1037910Y953820D01*
X1036624Y955106D01*
X1034943Y955802D01*
D02*
G37*
G36*
X729416Y930267D02*
X727597D01*
X725917Y929571D01*
X724630Y928285D01*
X723934Y926604D01*
Y924785D01*
X724630Y923105D01*
X725917Y921819D01*
X727597Y921123D01*
X729416D01*
X731096Y921819D01*
X732382Y923105D01*
X733078Y924785D01*
Y926604D01*
X732382Y928285D01*
X731096Y929571D01*
X729416Y930267D01*
D02*
G37*
G36*
X548279Y947674D02*
X546461D01*
X544780Y946978D01*
X543494Y945692D01*
X542798Y944011D01*
Y942193D01*
X543494Y940512D01*
X544780Y939226D01*
X546461Y938530D01*
X547859D01*
X701759Y909549D01*
X702925Y909066D01*
X704743D01*
X706424Y909762D01*
X707710Y911048D01*
X708406Y912729D01*
Y914547D01*
X707710Y916228D01*
X706424Y917514D01*
X704743Y918210D01*
X703345D01*
X549445Y947191D01*
X548279Y947674D01*
D02*
G37*
G36*
X1007104Y895063D02*
X1005424D01*
X1003872Y894420D01*
X1002683Y893232D01*
X1002040Y891679D01*
Y889999D01*
X1002683Y888446D01*
X1003872Y887258D01*
X1005424Y886615D01*
X1007104D01*
X1008657Y887258D01*
X1009845Y888446D01*
X1010488Y889999D01*
Y891679D01*
X1009845Y893232D01*
X1008657Y894420D01*
X1007104Y895063D01*
D02*
G37*
G36*
X764725Y980058D02*
X761815D01*
X759006Y979305D01*
X756486Y977851D01*
X754429Y975794D01*
X752975Y973274D01*
X752222Y970464D01*
Y967555D01*
X752975Y964746D01*
X754429Y962226D01*
X756486Y960169D01*
X759006Y958715D01*
X759375Y958616D01*
Y924649D01*
X721985Y887260D01*
X718886Y885720D01*
X717528D01*
X716534Y885309D01*
X714955Y885642D01*
X713725Y886494D01*
X713298Y887526D01*
X712012Y888812D01*
X710331Y889508D01*
X708513D01*
X708104Y889339D01*
X586532D01*
X576307Y899563D01*
X576138Y899972D01*
X574852Y901258D01*
X573171Y901954D01*
X571353D01*
X569672Y901258D01*
X568386Y899972D01*
X567690Y898291D01*
Y896473D01*
X568386Y894792D01*
X569672Y893506D01*
X570081Y893337D01*
X581595Y881823D01*
X583023Y880869D01*
X584708Y880533D01*
X584708Y880533D01*
X705009D01*
X705464Y879546D01*
X705700Y877993D01*
X704578Y876978D01*
X643137Y794220D01*
X642294Y792439D01*
X642196Y790471D01*
X642859Y788616D01*
X644182Y787155D01*
X645963Y786312D01*
X647931Y786214D01*
X649786Y786877D01*
X651247Y788200D01*
X712166Y870254D01*
X714738Y870217D01*
X715250Y869451D01*
Y867632D01*
X715946Y865951D01*
X717173Y864724D01*
X715960Y863511D01*
X715264Y861831D01*
Y860012D01*
X715960Y858331D01*
X717246Y857045D01*
X718927Y856349D01*
X720746D01*
X722426Y857045D01*
X723517Y858136D01*
X723733Y858217D01*
X725973Y858961D01*
D01*
X728438Y859187D01*
X759804D01*
X827774Y791218D01*
X827482Y789752D01*
X826196Y788466D01*
X825500Y786785D01*
Y784967D01*
X826196Y783286D01*
X827482Y782000D01*
X829163Y781304D01*
X830981D01*
X832662Y782000D01*
X833948Y783286D01*
X835414Y783578D01*
X906492Y712500D01*
X907755Y711655D01*
X909246Y711359D01*
X945420D01*
X946301Y710478D01*
X946301Y710478D01*
X946908Y710072D01*
X947624Y709356D01*
X949305Y708660D01*
X951123D01*
X952804Y709356D01*
X954090Y710642D01*
X954786Y712323D01*
Y714141D01*
X954090Y715822D01*
X952870Y717042D01*
X954090Y718262D01*
X954786Y719943D01*
Y721761D01*
X954090Y723442D01*
X952804Y724728D01*
X951123Y725424D01*
X949305D01*
X947624Y724728D01*
X946908Y724012D01*
X946301Y723606D01*
X946301Y723606D01*
X945420Y722725D01*
X912340D01*
X767538Y867527D01*
X768590Y870068D01*
X869276D01*
X871208Y870452D01*
X872846Y871547D01*
X878002Y876702D01*
X879097Y878341D01*
X879481Y880273D01*
X879097Y882206D01*
X878002Y883844D01*
X876364Y884939D01*
X874431Y885323D01*
X872499Y884939D01*
X870860Y883844D01*
X867184Y880168D01*
X729502D01*
X728450Y882708D01*
X766024Y920282D01*
X766869Y921545D01*
X767165Y923036D01*
Y958616D01*
X767534Y958715D01*
X770054Y960169D01*
X772111Y962226D01*
X773565Y964746D01*
X774318Y967555D01*
Y970464D01*
X773565Y973274D01*
X772111Y975794D01*
X770054Y977851D01*
X767534Y979305D01*
X764725Y980058D01*
D02*
G37*
G36*
X945535Y873506D02*
X943717D01*
X942036Y872810D01*
X940750Y871524D01*
X940054Y869843D01*
Y868025D01*
X940750Y866344D01*
X942036Y865058D01*
X943717Y864362D01*
X945535D01*
X947216Y865058D01*
X948502Y866344D01*
X949198Y868025D01*
Y869843D01*
X948502Y871524D01*
X947216Y872810D01*
X945535Y873506D01*
D02*
G37*
G36*
X965601Y871982D02*
X963783D01*
X962102Y871286D01*
X960816Y870000D01*
X960120Y868319D01*
Y866501D01*
X960816Y864820D01*
X962102Y863534D01*
X963783Y862838D01*
X965601D01*
X967282Y863534D01*
X968568Y864820D01*
X969264Y866501D01*
Y868319D01*
X968568Y870000D01*
X967282Y871286D01*
X965601Y871982D01*
D02*
G37*
G36*
X920135Y866140D02*
X918317D01*
X916636Y865444D01*
X915350Y864158D01*
X914654Y862477D01*
Y860659D01*
X915350Y858978D01*
X916636Y857692D01*
X918317Y856996D01*
X920135D01*
X921816Y857692D01*
X923102Y858978D01*
X923798Y860659D01*
Y862477D01*
X923102Y864158D01*
X921816Y865444D01*
X920135Y866140D01*
D02*
G37*
G36*
X1044595Y933958D02*
X1042777D01*
X1041096Y933262D01*
X1039810Y931976D01*
X1039114Y930295D01*
Y928813D01*
X1032727Y892654D01*
X1032277Y890157D01*
X1032190Y889948D01*
X1032228Y889935D01*
X1019918Y854389D01*
X1019882Y854128D01*
X1019699Y853688D01*
X1019497Y852149D01*
X1019374Y851688D01*
X1017318Y819448D01*
X1017328Y819380D01*
X1017002Y818593D01*
X1016905Y818527D01*
X977990Y779247D01*
X977596Y779084D01*
X976310Y777798D01*
X975614Y776117D01*
Y774299D01*
X976310Y772618D01*
X977276Y771652D01*
X977007Y770142D01*
X976497Y769112D01*
X976229D01*
X976126Y769070D01*
X959081D01*
X957396Y768735D01*
X955968Y767780D01*
X955861Y767673D01*
X941626D01*
X941217Y767842D01*
X939399D01*
X937718Y767146D01*
X936432Y765860D01*
X935736Y764179D01*
Y762361D01*
X936432Y760680D01*
X937718Y759394D01*
X939399Y758698D01*
X941217D01*
X941626Y758867D01*
X957684D01*
X959369Y759202D01*
X960797Y760157D01*
X960905Y760264D01*
X975513D01*
X976229Y759968D01*
X978047D01*
X979728Y760664D01*
X981014Y761950D01*
X981710Y763631D01*
Y765449D01*
X981014Y767130D01*
X980048Y768096D01*
X980317Y769606D01*
X980826Y770636D01*
X981095D01*
X982776Y771332D01*
X984062Y772618D01*
X984238Y773042D01*
X1023160Y812330D01*
X1023184Y812366D01*
X1024757Y814416D01*
X1025780Y816888D01*
X1025983Y818427D01*
X1026106Y818888D01*
X1028034Y849129D01*
X1028276Y851494D01*
D01*
X1029041Y853826D01*
X1040548Y887053D01*
X1040584Y887314D01*
X1040767Y887754D01*
X1040843Y888332D01*
X1040956Y888624D01*
X1047801Y927374D01*
X1048258Y928477D01*
Y930295D01*
X1047562Y931976D01*
X1046276Y933262D01*
X1044595Y933958D01*
D02*
G37*
G36*
X1007104Y855063D02*
X1005424D01*
X1003872Y854420D01*
X1002683Y853232D01*
X1002040Y851679D01*
Y849999D01*
X1002683Y848446D01*
X1003872Y847258D01*
X1005424Y846615D01*
X1007104D01*
X1008657Y847258D01*
X1009845Y848446D01*
X1010488Y849999D01*
Y851679D01*
X1009845Y853232D01*
X1008657Y854420D01*
X1007104Y855063D01*
D02*
G37*
G36*
X573171Y854456D02*
X571353D01*
X569672Y853760D01*
X568386Y852474D01*
X567690Y850793D01*
Y848975D01*
X568386Y847294D01*
X569672Y846008D01*
X571353Y845312D01*
X573171D01*
X574852Y846008D01*
X576138Y847294D01*
X576834Y848975D01*
Y850793D01*
X576138Y852474D01*
X574852Y853760D01*
X573171Y854456D01*
D02*
G37*
G36*
X983393Y860044D02*
X981575D01*
X979894Y859348D01*
X978608Y858062D01*
X977912Y856381D01*
Y854563D01*
X978608Y852882D01*
X979894Y851596D01*
X979945Y851575D01*
X980120Y850696D01*
X979424Y849015D01*
Y847197D01*
X980120Y845516D01*
X981406Y844230D01*
X983087Y843534D01*
X984905D01*
X986586Y844230D01*
X987872Y845516D01*
X988568Y847197D01*
Y849015D01*
X987872Y850696D01*
X986586Y851982D01*
X986535Y852003D01*
X986360Y852882D01*
X987056Y854563D01*
Y856381D01*
X986360Y858062D01*
X985074Y859348D01*
X983393Y860044D01*
D02*
G37*
G36*
X597555Y830834D02*
X595737D01*
X594056Y830138D01*
X592770Y828852D01*
X592074Y827171D01*
Y825353D01*
X592770Y823672D01*
X594056Y822386D01*
X595737Y821690D01*
X597555D01*
X599236Y822386D01*
X600522Y823672D01*
X601218Y825353D01*
Y827171D01*
X600522Y828852D01*
X599236Y830138D01*
X597555Y830834D01*
D02*
G37*
G36*
X517037Y829056D02*
X515219D01*
X513538Y828360D01*
X512252Y827074D01*
X511556Y825393D01*
Y823575D01*
X512252Y821894D01*
X513538Y820608D01*
X515219Y819912D01*
X517037D01*
X518718Y820608D01*
X520004Y821894D01*
X520700Y823575D01*
Y825393D01*
X520004Y827074D01*
X518718Y828360D01*
X517037Y829056D01*
D02*
G37*
G36*
X924707Y838454D02*
X922889D01*
X921208Y837758D01*
X919922Y836472D01*
X919226Y834791D01*
Y832973D01*
X919922Y831292D01*
X921208Y830006D01*
X922277Y829563D01*
X922589Y827313D01*
X922529Y826919D01*
X921716Y826582D01*
X920430Y825296D01*
X919734Y823615D01*
Y821797D01*
X920430Y820116D01*
X921716Y818830D01*
X923397Y818134D01*
X925215D01*
X926896Y818830D01*
X926965Y818899D01*
X928368Y820016D01*
X930098Y819084D01*
X931779Y818388D01*
X933597D01*
X935278Y819084D01*
X936564Y820370D01*
X937260Y822051D01*
Y823869D01*
X936564Y825550D01*
X935278Y826836D01*
X934822Y827025D01*
X934770Y829752D01*
X936056Y831038D01*
X936752Y832719D01*
Y834537D01*
X936056Y836218D01*
X934770Y837504D01*
X933089Y838200D01*
X931271D01*
X929590Y837504D01*
X927860Y836572D01*
X926457Y837689D01*
X926388Y837758D01*
X924707Y838454D01*
D02*
G37*
G36*
X844697Y823468D02*
X842879D01*
X841198Y822772D01*
X839912Y821486D01*
X839216Y819805D01*
Y818197D01*
X838703Y817770D01*
X836876Y816998D01*
X834949Y819131D01*
X834710Y819708D01*
X833424Y820994D01*
X831743Y821690D01*
X829925D01*
X828244Y820994D01*
X826958Y819708D01*
X826262Y818027D01*
Y816209D01*
X826958Y814528D01*
X828244Y813242D01*
X828497Y813137D01*
X845769Y794023D01*
X846008Y793446D01*
X847294Y792160D01*
X848975Y791464D01*
X850793D01*
X852474Y792160D01*
X855562Y791664D01*
X857346Y788799D01*
X857946Y787350D01*
X859232Y786064D01*
X860913Y785368D01*
X862731D01*
X864412Y786064D01*
X865135Y786787D01*
X867372Y786692D01*
X868062Y786421D01*
X869188Y783828D01*
Y783443D01*
X869884Y781762D01*
X871170Y780476D01*
X872851Y779780D01*
X874669D01*
X876350Y780476D01*
X877636Y781762D01*
X878332Y783443D01*
Y785261D01*
X877636Y786942D01*
X877281Y787297D01*
X864108Y817642D01*
Y818027D01*
X863412Y819708D01*
X862126Y820994D01*
X860445Y821690D01*
X858627D01*
X856946Y820994D01*
X855660Y819708D01*
X854964Y818027D01*
Y816209D01*
X855660Y814528D01*
X856015Y814174D01*
X858560Y808309D01*
X856305Y807126D01*
X848264Y820037D01*
X847664Y821486D01*
X846378Y822772D01*
X844697Y823468D01*
D02*
G37*
G36*
X646069Y827024D02*
X644251D01*
X642570Y826328D01*
X642416Y826174D01*
X641940D01*
X640255Y825839D01*
X638826Y824885D01*
X598886Y784945D01*
X595773D01*
X595538Y785179D01*
X594110Y786133D01*
X592425Y786469D01*
X577644D01*
X577235Y786638D01*
X575417D01*
X573736Y785942D01*
X572450Y784656D01*
X571754Y782975D01*
Y781157D01*
X569750Y779357D01*
X562400D01*
X562400Y779357D01*
X560715Y779022D01*
X559287Y778067D01*
X559287Y778067D01*
X554280Y773060D01*
X553325Y771631D01*
X552990Y769947D01*
X552990Y702447D01*
X553325Y700762D01*
X554280Y699334D01*
X555023Y698590D01*
X559073Y694541D01*
X559242Y694132D01*
X560528Y692846D01*
X562209Y692150D01*
X564027D01*
X565708Y692846D01*
X566994Y694132D01*
X567690Y695813D01*
Y697631D01*
X566994Y699312D01*
X565708Y700598D01*
X565299Y700767D01*
X561795Y704271D01*
X561795Y752258D01*
X562294Y752763D01*
X564335Y753746D01*
X565257Y753364D01*
X567075D01*
X567484Y753533D01*
X622859D01*
X622908Y753543D01*
X626086Y753856D01*
X629188Y754797D01*
X632047Y756326D01*
X632658Y756826D01*
X634554Y758376D01*
X634555Y758377D01*
X634555Y758377D01*
X636410Y760031D01*
X638199Y761559D01*
X642325Y764087D01*
X646796Y765939D01*
X651501Y767068D01*
X653844Y767253D01*
X656325Y767395D01*
X656335Y767395D01*
X656346Y767395D01*
X664201D01*
X664718Y766878D01*
Y766679D01*
X665414Y764998D01*
X666700Y763712D01*
X668381Y763016D01*
X670199D01*
X671880Y763712D01*
X673166Y764998D01*
X673862Y766679D01*
Y768497D01*
X673549Y769252D01*
X673357Y770217D01*
X672403Y771645D01*
X669137Y774911D01*
X667709Y775866D01*
X666024Y776201D01*
X656337D01*
X656325Y776238D01*
X650126Y775750D01*
X644080Y774299D01*
X638335Y771919D01*
X633033Y768670D01*
X630190Y766242D01*
X628304Y764632D01*
X628302Y764629D01*
X626356Y763195D01*
X624868Y762579D01*
X622932Y762324D01*
X622859Y762339D01*
X598421D01*
X597369Y764879D01*
X629458Y796967D01*
X634444D01*
X634853Y796798D01*
X636671D01*
X638352Y797494D01*
X639638Y798780D01*
X640334Y800461D01*
Y802279D01*
X639638Y803960D01*
X638352Y805246D01*
X636671Y805942D01*
X635928D01*
X634876Y808482D01*
X643763Y817369D01*
X644480D01*
X646164Y817704D01*
X647012Y818270D01*
X647750Y818576D01*
X649036Y819862D01*
X649732Y821543D01*
Y823361D01*
X649036Y825042D01*
X647750Y826328D01*
X646069Y827024D01*
D02*
G37*
G36*
X939849Y806157D02*
X937897Y805889D01*
X936196Y804895D01*
X935005Y803325D01*
X934505Y801419D01*
X934773Y799467D01*
X935767Y797766D01*
X937337Y796575D01*
X939243Y796075D01*
X985725Y793281D01*
X987677Y793549D01*
X989378Y794543D01*
X990569Y796113D01*
X991069Y798019D01*
X990801Y799971D01*
X989807Y801672D01*
X988237Y802863D01*
X986331Y803363D01*
X939849Y806157D01*
D02*
G37*
G36*
X517291Y793750D02*
X515473D01*
X513792Y793054D01*
X512506Y791768D01*
X511810Y790087D01*
Y788269D01*
X512506Y786588D01*
X513792Y785302D01*
X515473Y784606D01*
X517291D01*
X518972Y785302D01*
X520258Y786588D01*
X520954Y788269D01*
Y790087D01*
X520258Y791768D01*
X518972Y793054D01*
X517291Y793750D01*
D02*
G37*
G36*
X684931Y764540D02*
X683113D01*
X681432Y763844D01*
X680146Y762558D01*
X679450Y760877D01*
Y759059D01*
X680146Y757378D01*
X681432Y756092D01*
X683113Y755396D01*
X684931D01*
X686612Y756092D01*
X687898Y757378D01*
X688594Y759059D01*
Y760877D01*
X687898Y762558D01*
X686612Y763844D01*
X684931Y764540D01*
D02*
G37*
G36*
X701695Y741934D02*
X699877D01*
X698196Y741238D01*
X696910Y739952D01*
X696214Y738271D01*
Y736453D01*
X696910Y734772D01*
X698196Y733486D01*
X699877Y732790D01*
X701695D01*
X703376Y733486D01*
X704662Y734772D01*
X705358Y736453D01*
Y738271D01*
X704662Y739952D01*
X703376Y741238D01*
X701695Y741934D01*
D02*
G37*
G36*
X642513Y723138D02*
X640695D01*
X639014Y722442D01*
X637728Y721156D01*
X637032Y719475D01*
Y717657D01*
X637728Y715976D01*
X639014Y714690D01*
X640695Y713994D01*
X642513D01*
X644194Y714690D01*
X645480Y715976D01*
X646176Y717657D01*
Y719475D01*
X645480Y721156D01*
X644194Y722442D01*
X642513Y723138D01*
D02*
G37*
G36*
X987699Y705104D02*
X985881D01*
X984200Y704408D01*
X982914Y703122D01*
X982218Y701441D01*
Y699623D01*
X982914Y697942D01*
X984055Y696468D01*
X982914Y694994D01*
X982218Y693313D01*
Y691495D01*
X982914Y689814D01*
X984200Y688528D01*
X985881Y687832D01*
X987699D01*
X989380Y688528D01*
X990666Y689814D01*
X991362Y691495D01*
Y693313D01*
X990666Y694994D01*
X989525Y696468D01*
X990666Y697942D01*
X991362Y699623D01*
Y701441D01*
X990666Y703122D01*
X989380Y704408D01*
X987699Y705104D01*
D02*
G37*
G36*
X534817Y693928D02*
X532999D01*
X531318Y693232D01*
X530032Y691946D01*
X529336Y690265D01*
Y688447D01*
X530032Y686766D01*
X531318Y685480D01*
X532999Y684784D01*
X534817D01*
X536498Y685480D01*
X537784Y686766D01*
X538480Y688447D01*
Y690265D01*
X537784Y691946D01*
X536498Y693232D01*
X534817Y693928D01*
D02*
G37*
G36*
X742335Y687832D02*
X740517D01*
X738836Y687136D01*
X737550Y685850D01*
X736854Y684169D01*
Y682351D01*
X737550Y680670D01*
X738836Y679384D01*
X740517Y678688D01*
X742335D01*
X744016Y679384D01*
X745302Y680670D01*
X745998Y682351D01*
Y684169D01*
X745302Y685850D01*
X744016Y687136D01*
X742335Y687832D01*
D02*
G37*
G36*
X615048Y674972D02*
X613229D01*
X611549Y674276D01*
X610262Y672990D01*
X609566Y671309D01*
Y669491D01*
X610262Y667810D01*
X611549Y666524D01*
X613229Y665828D01*
X615048D01*
X616728Y666524D01*
X618014Y667810D01*
X618710Y669491D01*
Y671309D01*
X618014Y672990D01*
X616728Y674276D01*
X615048Y674972D01*
D02*
G37*
G36*
X1000145Y668020D02*
X998327D01*
X996646Y667324D01*
X995360Y666038D01*
X994664Y664357D01*
Y662539D01*
X995360Y660858D01*
X996646Y659572D01*
X998327Y658876D01*
X1000145D01*
X1001826Y659572D01*
X1003112Y660858D01*
X1003808Y662539D01*
Y664357D01*
X1003112Y666038D01*
X1001826Y667324D01*
X1000145Y668020D01*
D02*
G37*
G36*
X788309Y802132D02*
X786491D01*
X784810Y801436D01*
X783524Y800150D01*
X782828Y798469D01*
Y796651D01*
X783524Y794970D01*
X784810Y793684D01*
X784926Y793636D01*
X820631Y750164D01*
X820768Y750052D01*
X820857Y749899D01*
X900843Y658989D01*
X899797Y656675D01*
X896907D01*
X728015Y741999D01*
X727506Y742508D01*
X725825Y743204D01*
X724007D01*
X722326Y742508D01*
X721040Y741222D01*
X720344Y739541D01*
Y737723D01*
X721040Y736042D01*
X722326Y734756D01*
X724007Y734060D01*
X724202D01*
X893873Y648342D01*
X894034Y648298D01*
X894173Y648204D01*
X894856Y648069D01*
X895528Y647882D01*
X895694Y647902D01*
X895858Y647869D01*
X903938D01*
X904347Y647700D01*
X906165D01*
X907846Y648396D01*
X910230Y648320D01*
X932314Y623220D01*
X932045Y622754D01*
X931292Y619944D01*
Y617035D01*
X932045Y614226D01*
X933499Y611706D01*
X935556Y609649D01*
X938076Y608195D01*
X940885Y607442D01*
X943794D01*
X946604Y608195D01*
X949124Y609649D01*
X951181Y611706D01*
X952635Y614226D01*
X953388Y617035D01*
Y619944D01*
X952635Y622754D01*
X951181Y625274D01*
X949124Y627331D01*
X946604Y628785D01*
X943794Y629538D01*
X940885D01*
X938942Y629017D01*
X936300Y632019D01*
X936275Y632395D01*
X937142Y634908D01*
X937818Y635188D01*
X939104Y636474D01*
X939800Y638155D01*
Y638795D01*
X942340Y639780D01*
X957615Y623050D01*
X957445Y622754D01*
X956692Y619944D01*
Y617035D01*
X957445Y614226D01*
X958899Y611706D01*
X960956Y609649D01*
X963476Y608195D01*
X966285Y607442D01*
X969194D01*
X972004Y608195D01*
X974319Y609531D01*
X975209Y609316D01*
X976941Y608475D01*
X977246Y604210D01*
X977246Y604204D01*
X977246Y604204D01*
X977246Y604203D01*
X977269Y604119D01*
X977387Y603684D01*
X977490Y602907D01*
X977738Y602309D01*
X975584Y600870D01*
X974524Y601931D01*
X972004Y603385D01*
X969194Y604138D01*
X966285D01*
X963476Y603385D01*
X960956Y601931D01*
X958899Y599874D01*
X957445Y597354D01*
X956692Y594544D01*
Y591636D01*
X957445Y588826D01*
X958899Y586306D01*
X960956Y584249D01*
X963476Y582795D01*
X966285Y582042D01*
X969194D01*
X972004Y582795D01*
X974524Y584249D01*
X976581Y586306D01*
X978035Y588826D01*
X978788Y591636D01*
Y594544D01*
X978035Y597354D01*
X977906Y597578D01*
X979909Y599189D01*
X982664Y596679D01*
X982092Y594544D01*
Y591636D01*
X982845Y588826D01*
X984299Y586306D01*
X986356Y584249D01*
X988876Y582795D01*
X991685Y582042D01*
X994594D01*
X997404Y582795D01*
X999924Y584249D01*
X1001981Y586306D01*
X1003435Y588826D01*
X1004188Y591636D01*
Y594544D01*
X1003435Y597354D01*
X1001981Y599874D01*
X999924Y601931D01*
X997404Y603385D01*
X994594Y604138D01*
X991685D01*
X988876Y603385D01*
X988748Y603312D01*
X986850Y604821D01*
X986935Y606460D01*
X987679Y607125D01*
X989359Y608065D01*
X991685Y607442D01*
X994594D01*
X997404Y608195D01*
X999924Y609649D01*
X1001981Y611706D01*
X1003435Y614226D01*
X1004188Y617035D01*
Y619944D01*
X1003435Y622754D01*
X1001981Y625274D01*
X999924Y627331D01*
X997404Y628785D01*
X994594Y629538D01*
X991685D01*
X988876Y628785D01*
X986356Y627331D01*
X985508Y627254D01*
X983199Y627765D01*
X982617Y628523D01*
X982513Y628603D01*
X982376Y628787D01*
X982370Y628792D01*
X982360Y628799D01*
X982353Y628808D01*
X963777Y645414D01*
X964747Y647954D01*
X965093D01*
X966774Y648650D01*
X968060Y649936D01*
X968756Y651617D01*
Y653435D01*
X968060Y655116D01*
X966774Y656402D01*
X965093Y657098D01*
X963275D01*
X961594Y656402D01*
X960308Y655116D01*
X959612Y653435D01*
Y652544D01*
X957209Y651285D01*
X950632Y657165D01*
X950534Y657402D01*
X949248Y658688D01*
X947567Y659384D01*
X945749D01*
X944068Y658688D01*
X942782Y657402D01*
X942417Y656521D01*
X940154Y655816D01*
X939596Y655843D01*
X934510Y661415D01*
X934278Y661974D01*
X932992Y663260D01*
X931311Y663956D01*
X929493D01*
X927812Y663260D01*
X926526Y661974D01*
X925830Y660293D01*
Y660220D01*
X923290Y659260D01*
X918533Y664656D01*
X918276Y665276D01*
X916990Y666562D01*
X915309Y667258D01*
X913491D01*
X911810Y666562D01*
X910524Y665276D01*
X910492Y665198D01*
X907540Y664708D01*
X827467Y755715D01*
X827447Y755730D01*
X827436Y755752D01*
X791587Y799399D01*
X791276Y800150D01*
X789990Y801436D01*
X788309Y802132D01*
D02*
G37*
G36*
X974999Y665226D02*
X973181D01*
X971500Y664530D01*
X970214Y663244D01*
X969518Y661563D01*
Y659745D01*
X970214Y658064D01*
X971500Y656778D01*
X973181Y656082D01*
X974999D01*
X976680Y656778D01*
X977966Y658064D01*
X978662Y659745D01*
Y661563D01*
X977966Y663244D01*
X976680Y664530D01*
X974999Y665226D01*
D02*
G37*
G36*
X555137Y641350D02*
X553319D01*
X551638Y640654D01*
X550352Y639368D01*
X550017Y638559D01*
X548839Y637123D01*
X547150Y633963D01*
X546109Y630533D01*
X545957Y628986D01*
X545527Y628556D01*
X545352Y628294D01*
X543084Y627463D01*
X542119Y627680D01*
X540204Y628785D01*
X537394Y629538D01*
X534486D01*
X531676Y628785D01*
X529156Y627331D01*
X527099Y625274D01*
X525645Y622754D01*
X524892Y619944D01*
Y617035D01*
X525645Y614226D01*
X527099Y611706D01*
X529156Y609649D01*
X531676Y608195D01*
X534486Y607442D01*
X537394D01*
X540204Y608195D01*
X541697Y609057D01*
X544237Y607767D01*
Y604060D01*
X544171Y603899D01*
X543638Y603477D01*
X541528Y602621D01*
X540204Y603385D01*
X537394Y604138D01*
X534486D01*
X531676Y603385D01*
X529156Y601931D01*
X527099Y599874D01*
X525645Y597354D01*
X524892Y594544D01*
Y591636D01*
X525645Y588826D01*
X527099Y586306D01*
X529156Y584249D01*
X531676Y582795D01*
X534486Y582042D01*
X537394D01*
X540204Y582795D01*
X542724Y584249D01*
X544781Y586306D01*
X546235Y588826D01*
X546988Y591636D01*
Y594544D01*
X548640Y596049D01*
X549522Y595246D01*
X550292Y593929D01*
Y591636D01*
X551045Y588826D01*
X552499Y586306D01*
X554556Y584249D01*
X557076Y582795D01*
X559885Y582042D01*
X562794D01*
X565604Y582795D01*
X568124Y584249D01*
X570181Y586306D01*
X571635Y588826D01*
X572388Y591636D01*
Y594544D01*
X571635Y597354D01*
X570181Y599874D01*
X568124Y601931D01*
X565604Y603385D01*
X562794Y604138D01*
X559885D01*
X557076Y603385D01*
X555752Y602621D01*
X553642Y603477D01*
X553109Y603899D01*
X553043Y604060D01*
Y607767D01*
X555583Y609057D01*
X557076Y608195D01*
X559885Y607442D01*
X562794D01*
X565604Y608195D01*
X568124Y609649D01*
X570181Y611706D01*
X571635Y614226D01*
X572388Y617035D01*
Y619944D01*
X571635Y622754D01*
X570181Y625274D01*
X568124Y627331D01*
X565604Y628785D01*
X562794Y629538D01*
X559885D01*
X558874Y629267D01*
X556143Y630882D01*
X555889Y631836D01*
X556655Y632835D01*
X556818Y632902D01*
X558104Y634188D01*
X558800Y635869D01*
Y637687D01*
X558104Y639368D01*
X556818Y640654D01*
X555137Y641350D01*
D02*
G37*
G36*
X785261Y644652D02*
X783443D01*
X781762Y643956D01*
X780476Y642670D01*
X779780Y640989D01*
Y639980D01*
X776093Y625656D01*
X773381Y625274D01*
X771324Y627331D01*
X768804Y628785D01*
X765994Y629538D01*
X763085D01*
X760276Y628785D01*
X757756Y627331D01*
X755699Y625274D01*
X754245Y622754D01*
X753492Y619944D01*
Y617035D01*
X754245Y614226D01*
X755699Y611706D01*
X757756Y609649D01*
X760276Y608195D01*
X763085Y607442D01*
X765994D01*
X768804Y608195D01*
X771324Y609649D01*
X773381Y611706D01*
X773501Y611916D01*
X774236Y612148D01*
X774753Y612186D01*
X776326Y611729D01*
X781639Y600413D01*
X781099Y599874D01*
X779645Y597354D01*
X778892Y594544D01*
Y591636D01*
X779645Y588826D01*
X781099Y586306D01*
X783156Y584249D01*
X785676Y582795D01*
X788485Y582042D01*
X791395D01*
X794204Y582795D01*
X796724Y584249D01*
X798781Y586306D01*
X800235Y588826D01*
X800988Y591636D01*
Y594544D01*
X800235Y597354D01*
X798781Y599874D01*
X796724Y601931D01*
X794204Y603385D01*
X791726Y604049D01*
X791149Y604902D01*
X791203Y605458D01*
X792601Y607765D01*
X794204Y608195D01*
X796724Y609649D01*
X798781Y611706D01*
X800235Y614226D01*
X800988Y617035D01*
Y619944D01*
X800235Y622754D01*
X798781Y625274D01*
X796724Y627331D01*
X794204Y628785D01*
X791395Y629538D01*
X788807D01*
X787612Y630354D01*
X786642Y631315D01*
X788237Y637512D01*
X788924Y639171D01*
Y640989D01*
X788228Y642670D01*
X786942Y643956D01*
X785261Y644652D01*
D02*
G37*
G36*
X998875Y779018D02*
X997057D01*
X995376Y778322D01*
X994090Y777036D01*
X993394Y775355D01*
Y773537D01*
X993720Y772748D01*
X997289Y739541D01*
X997431Y739086D01*
X997569Y738037D01*
X997607Y737944D01*
X997613Y737879D01*
X1006846Y705561D01*
X1006288Y704822D01*
X1004736Y704179D01*
X1003548Y702991D01*
X1002905Y701438D01*
Y699758D01*
X1003548Y698205D01*
X1004736Y697017D01*
X1006288Y696374D01*
X1007296Y695176D01*
X1006042Y687940D01*
X1006054Y687449D01*
X1005888Y686190D01*
X1006237Y683538D01*
X1006877Y681993D01*
X1007000Y681554D01*
X1017447Y660969D01*
X1017426Y660877D01*
X1015789Y658622D01*
X1015091D01*
X1013410Y657926D01*
X1012124Y656640D01*
X1011428Y654959D01*
Y653141D01*
X1012124Y651460D01*
X1013410Y650174D01*
X1015091Y649478D01*
X1016909D01*
X1018590Y650174D01*
X1019576Y651160D01*
X1021300Y651249D01*
X1022466Y651077D01*
X1035405Y625579D01*
X1035099Y625274D01*
X1033645Y622754D01*
X1032892Y619944D01*
Y617035D01*
X1033645Y614226D01*
X1035099Y611706D01*
X1037156Y609649D01*
X1039676Y608195D01*
X1042486Y607442D01*
X1045395D01*
X1048204Y608195D01*
X1050724Y609649D01*
X1052781Y611706D01*
X1054235Y614226D01*
X1054988Y617035D01*
Y619944D01*
X1054235Y622754D01*
X1052781Y625274D01*
X1050724Y627331D01*
X1048204Y628785D01*
X1045395Y629538D01*
X1043271D01*
X1015995Y683288D01*
X1014887Y685556D01*
X1014725Y686435D01*
X1015129Y688807D01*
X1016880Y698908D01*
X1016868Y699400D01*
X1017025Y700598D01*
X1016688Y703159D01*
X1016650Y703252D01*
X1016644Y703317D01*
X1007411Y735635D01*
X1007969Y736374D01*
X1009521Y737017D01*
X1010710Y738205D01*
X1011353Y739758D01*
Y741438D01*
X1010710Y742991D01*
X1009521Y744179D01*
X1007969Y744822D01*
X1006288D01*
X1005528Y745273D01*
X1002501Y773448D01*
X1002538Y773537D01*
Y775355D01*
X1001842Y777036D01*
X1000556Y778322D01*
X998875Y779018D01*
D02*
G37*
G36*
X1019995Y629538D02*
X1017085D01*
X1014276Y628785D01*
X1011756Y627331D01*
X1009699Y625274D01*
X1008245Y622754D01*
X1007492Y619944D01*
Y617035D01*
X1008245Y614226D01*
X1009699Y611706D01*
X1011756Y609649D01*
X1014276Y608195D01*
X1017085Y607442D01*
X1019995D01*
X1022804Y608195D01*
X1025324Y609649D01*
X1027381Y611706D01*
X1028835Y614226D01*
X1029588Y617035D01*
Y619944D01*
X1028835Y622754D01*
X1027381Y625274D01*
X1025324Y627331D01*
X1022804Y628785D01*
X1019995Y629538D01*
D02*
G37*
G36*
X918394D02*
X915486D01*
X912676Y628785D01*
X910156Y627331D01*
X908099Y625274D01*
X906645Y622754D01*
X905892Y619944D01*
Y617035D01*
X906645Y614226D01*
X908099Y611706D01*
X910156Y609649D01*
X912676Y608195D01*
X915486Y607442D01*
X918394D01*
X921204Y608195D01*
X923724Y609649D01*
X925781Y611706D01*
X927235Y614226D01*
X927988Y617035D01*
Y619944D01*
X927235Y622754D01*
X925781Y625274D01*
X923724Y627331D01*
X921204Y628785D01*
X918394Y629538D01*
D02*
G37*
G36*
X892995D02*
X890086D01*
X887276Y628785D01*
X884756Y627331D01*
X882699Y625274D01*
X881245Y622754D01*
X880492Y619944D01*
Y617035D01*
X881245Y614226D01*
X882699Y611706D01*
X884756Y609649D01*
X887276Y608195D01*
X890086Y607442D01*
X892995D01*
X895804Y608195D01*
X898324Y609649D01*
X900381Y611706D01*
X901835Y614226D01*
X902588Y617035D01*
Y619944D01*
X901835Y622754D01*
X900381Y625274D01*
X898324Y627331D01*
X895804Y628785D01*
X892995Y629538D01*
D02*
G37*
G36*
X867595D02*
X864686D01*
X861876Y628785D01*
X859356Y627331D01*
X857299Y625274D01*
X855845Y622754D01*
X855092Y619944D01*
Y617035D01*
X855845Y614226D01*
X857299Y611706D01*
X859356Y609649D01*
X861876Y608195D01*
X864686Y607442D01*
X867595D01*
X870404Y608195D01*
X872924Y609649D01*
X874981Y611706D01*
X876435Y614226D01*
X877188Y617035D01*
Y619944D01*
X876435Y622754D01*
X874981Y625274D01*
X872924Y627331D01*
X870404Y628785D01*
X867595Y629538D01*
D02*
G37*
G36*
X842195D02*
X839286D01*
X836476Y628785D01*
X833956Y627331D01*
X831899Y625274D01*
X830445Y622754D01*
X829692Y619944D01*
Y617035D01*
X830445Y614226D01*
X831899Y611706D01*
X833956Y609649D01*
X836476Y608195D01*
X839286Y607442D01*
X842195D01*
X845004Y608195D01*
X847524Y609649D01*
X849581Y611706D01*
X851035Y614226D01*
X851788Y617035D01*
Y619944D01*
X851035Y622754D01*
X849581Y625274D01*
X847524Y627331D01*
X845004Y628785D01*
X842195Y629538D01*
D02*
G37*
G36*
X816795D02*
X813885D01*
X811076Y628785D01*
X808556Y627331D01*
X806499Y625274D01*
X805045Y622754D01*
X804292Y619944D01*
Y617035D01*
X805045Y614226D01*
X806499Y611706D01*
X808556Y609649D01*
X811076Y608195D01*
X813885Y607442D01*
X816795D01*
X819604Y608195D01*
X822124Y609649D01*
X824181Y611706D01*
X825635Y614226D01*
X826388Y617035D01*
Y619944D01*
X825635Y622754D01*
X824181Y625274D01*
X822124Y627331D01*
X819604Y628785D01*
X816795Y629538D01*
D02*
G37*
G36*
X740594D02*
X737685D01*
X734876Y628785D01*
X732356Y627331D01*
X730299Y625274D01*
X728845Y622754D01*
X728092Y619944D01*
Y617035D01*
X728845Y614226D01*
X730299Y611706D01*
X732356Y609649D01*
X734876Y608195D01*
X737685Y607442D01*
X740594D01*
X743404Y608195D01*
X745924Y609649D01*
X747981Y611706D01*
X749435Y614226D01*
X750188Y617035D01*
Y619944D01*
X749435Y622754D01*
X747981Y625274D01*
X745924Y627331D01*
X743404Y628785D01*
X740594Y629538D01*
D02*
G37*
G36*
X715194D02*
X712286D01*
X709476Y628785D01*
X706956Y627331D01*
X704899Y625274D01*
X703445Y622754D01*
X702692Y619944D01*
Y617035D01*
X703445Y614226D01*
X704899Y611706D01*
X706956Y609649D01*
X709476Y608195D01*
X712286Y607442D01*
X715194D01*
X718004Y608195D01*
X720524Y609649D01*
X722581Y611706D01*
X724035Y614226D01*
X724788Y617035D01*
Y619944D01*
X724035Y622754D01*
X722581Y625274D01*
X720524Y627331D01*
X718004Y628785D01*
X715194Y629538D01*
D02*
G37*
G36*
X689794D02*
X686886D01*
X684076Y628785D01*
X681556Y627331D01*
X679499Y625274D01*
X678045Y622754D01*
X677292Y619944D01*
Y617035D01*
X678045Y614226D01*
X679499Y611706D01*
X681556Y609649D01*
X684076Y608195D01*
X686886Y607442D01*
X689794D01*
X692604Y608195D01*
X695124Y609649D01*
X697181Y611706D01*
X698635Y614226D01*
X699388Y617035D01*
Y619944D01*
X698635Y622754D01*
X697181Y625274D01*
X695124Y627331D01*
X692604Y628785D01*
X689794Y629538D01*
D02*
G37*
G36*
X664395D02*
X661486D01*
X658676Y628785D01*
X656156Y627331D01*
X654099Y625274D01*
X652645Y622754D01*
X651892Y619944D01*
Y617035D01*
X652645Y614226D01*
X654099Y611706D01*
X656156Y609649D01*
X658676Y608195D01*
X661486Y607442D01*
X664395D01*
X667204Y608195D01*
X669724Y609649D01*
X671781Y611706D01*
X673235Y614226D01*
X673988Y617035D01*
Y619944D01*
X673235Y622754D01*
X671781Y625274D01*
X669724Y627331D01*
X667204Y628785D01*
X664395Y629538D01*
D02*
G37*
G36*
X638994D02*
X636086D01*
X633276Y628785D01*
X630756Y627331D01*
X628699Y625274D01*
X627245Y622754D01*
X626492Y619944D01*
Y617035D01*
X627245Y614226D01*
X628699Y611706D01*
X630756Y609649D01*
X633276Y608195D01*
X636086Y607442D01*
X638994D01*
X641804Y608195D01*
X644324Y609649D01*
X646381Y611706D01*
X647835Y614226D01*
X648588Y617035D01*
Y619944D01*
X647835Y622754D01*
X646381Y625274D01*
X644324Y627331D01*
X641804Y628785D01*
X638994Y629538D01*
D02*
G37*
G36*
X613595D02*
X610686D01*
X607876Y628785D01*
X605356Y627331D01*
X603299Y625274D01*
X601845Y622754D01*
X601092Y619944D01*
Y617035D01*
X601845Y614226D01*
X603299Y611706D01*
X605356Y609649D01*
X607876Y608195D01*
X610686Y607442D01*
X613595D01*
X616404Y608195D01*
X618924Y609649D01*
X620981Y611706D01*
X622435Y614226D01*
X623188Y617035D01*
Y619944D01*
X622435Y622754D01*
X620981Y625274D01*
X618924Y627331D01*
X616404Y628785D01*
X613595Y629538D01*
D02*
G37*
G36*
X588195D02*
X585285D01*
X582476Y628785D01*
X579956Y627331D01*
X577899Y625274D01*
X576445Y622754D01*
X575692Y619944D01*
Y617035D01*
X576445Y614226D01*
X577899Y611706D01*
X579956Y609649D01*
X582476Y608195D01*
X585285Y607442D01*
X588195D01*
X591004Y608195D01*
X593524Y609649D01*
X595581Y611706D01*
X597035Y614226D01*
X597788Y617035D01*
Y619944D01*
X597035Y622754D01*
X595581Y625274D01*
X593524Y627331D01*
X591004Y628785D01*
X588195Y629538D01*
D02*
G37*
G36*
X511995D02*
X509086D01*
X506276Y628785D01*
X503756Y627331D01*
X501699Y625274D01*
X500245Y622754D01*
X499492Y619944D01*
Y617035D01*
X500245Y614226D01*
X501699Y611706D01*
X503756Y609649D01*
X506276Y608195D01*
X509086Y607442D01*
X511995D01*
X514804Y608195D01*
X517324Y609649D01*
X519381Y611706D01*
X520835Y614226D01*
X521588Y617035D01*
Y619944D01*
X520835Y622754D01*
X519381Y625274D01*
X517324Y627331D01*
X514804Y628785D01*
X511995Y629538D01*
D02*
G37*
G36*
X1045845Y603491D02*
Y594995D01*
X1054341D01*
X1053762Y597158D01*
X1052374Y599562D01*
X1050412Y601524D01*
X1048008Y602912D01*
X1045845Y603491D01*
D02*
G37*
G36*
X1042035D02*
X1039872Y602912D01*
X1037468Y601524D01*
X1035506Y599562D01*
X1034118Y597158D01*
X1033539Y594995D01*
X1042035D01*
Y603491D01*
D02*
G37*
G36*
X1054341Y591185D02*
X1045845D01*
Y582689D01*
X1048008Y583268D01*
X1050412Y584656D01*
X1052374Y586618D01*
X1053762Y589022D01*
X1054341Y591185D01*
D02*
G37*
G36*
X1042035D02*
X1033539D01*
X1034118Y589022D01*
X1035506Y586618D01*
X1037468Y584656D01*
X1039872Y583268D01*
X1042035Y582689D01*
Y591185D01*
D02*
G37*
G36*
X1019995Y604138D02*
X1017085D01*
X1014276Y603385D01*
X1011756Y601931D01*
X1009699Y599874D01*
X1008245Y597354D01*
X1007492Y594544D01*
Y591636D01*
X1008245Y588826D01*
X1009699Y586306D01*
X1011756Y584249D01*
X1014276Y582795D01*
X1017085Y582042D01*
X1019995D01*
X1022804Y582795D01*
X1025324Y584249D01*
X1027381Y586306D01*
X1028835Y588826D01*
X1029588Y591636D01*
Y594544D01*
X1028835Y597354D01*
X1027381Y599874D01*
X1025324Y601931D01*
X1022804Y603385D01*
X1019995Y604138D01*
D02*
G37*
G36*
X943794D02*
X940885D01*
X938076Y603385D01*
X935556Y601931D01*
X933499Y599874D01*
X932045Y597354D01*
X931292Y594544D01*
Y591636D01*
X932045Y588826D01*
X933499Y586306D01*
X935556Y584249D01*
X938076Y582795D01*
X940885Y582042D01*
X943794D01*
X946604Y582795D01*
X949124Y584249D01*
X951181Y586306D01*
X952635Y588826D01*
X953388Y591636D01*
Y594544D01*
X952635Y597354D01*
X951181Y599874D01*
X949124Y601931D01*
X946604Y603385D01*
X943794Y604138D01*
D02*
G37*
G36*
X918394D02*
X915486D01*
X912676Y603385D01*
X910156Y601931D01*
X908099Y599874D01*
X906645Y597354D01*
X905892Y594544D01*
Y591636D01*
X906645Y588826D01*
X908099Y586306D01*
X910156Y584249D01*
X912676Y582795D01*
X915486Y582042D01*
X918394D01*
X921204Y582795D01*
X923724Y584249D01*
X925781Y586306D01*
X927235Y588826D01*
X927988Y591636D01*
Y594544D01*
X927235Y597354D01*
X925781Y599874D01*
X923724Y601931D01*
X921204Y603385D01*
X918394Y604138D01*
D02*
G37*
G36*
X892995D02*
X890086D01*
X887276Y603385D01*
X884756Y601931D01*
X882699Y599874D01*
X881245Y597354D01*
X880492Y594544D01*
Y591636D01*
X881245Y588826D01*
X882699Y586306D01*
X884756Y584249D01*
X887276Y582795D01*
X890086Y582042D01*
X892995D01*
X895804Y582795D01*
X898324Y584249D01*
X900381Y586306D01*
X901835Y588826D01*
X902588Y591636D01*
Y594544D01*
X901835Y597354D01*
X900381Y599874D01*
X898324Y601931D01*
X895804Y603385D01*
X892995Y604138D01*
D02*
G37*
G36*
X867595D02*
X864686D01*
X861876Y603385D01*
X859356Y601931D01*
X857299Y599874D01*
X855845Y597354D01*
X855092Y594544D01*
Y591636D01*
X855845Y588826D01*
X857299Y586306D01*
X859356Y584249D01*
X861876Y582795D01*
X864686Y582042D01*
X867595D01*
X870404Y582795D01*
X872924Y584249D01*
X874981Y586306D01*
X876435Y588826D01*
X877188Y591636D01*
Y594544D01*
X876435Y597354D01*
X874981Y599874D01*
X872924Y601931D01*
X870404Y603385D01*
X867595Y604138D01*
D02*
G37*
G36*
X842195D02*
X839286D01*
X836476Y603385D01*
X833956Y601931D01*
X831899Y599874D01*
X830445Y597354D01*
X829692Y594544D01*
Y591636D01*
X830445Y588826D01*
X831899Y586306D01*
X833956Y584249D01*
X836476Y582795D01*
X839286Y582042D01*
X842195D01*
X845004Y582795D01*
X847524Y584249D01*
X849581Y586306D01*
X851035Y588826D01*
X851788Y591636D01*
Y594544D01*
X851035Y597354D01*
X849581Y599874D01*
X847524Y601931D01*
X845004Y603385D01*
X842195Y604138D01*
D02*
G37*
G36*
X816795D02*
X813885D01*
X811076Y603385D01*
X808556Y601931D01*
X806499Y599874D01*
X805045Y597354D01*
X804292Y594544D01*
Y591636D01*
X805045Y588826D01*
X806499Y586306D01*
X808556Y584249D01*
X811076Y582795D01*
X813885Y582042D01*
X816795D01*
X819604Y582795D01*
X822124Y584249D01*
X824181Y586306D01*
X825635Y588826D01*
X826388Y591636D01*
Y594544D01*
X825635Y597354D01*
X824181Y599874D01*
X822124Y601931D01*
X819604Y603385D01*
X816795Y604138D01*
D02*
G37*
G36*
X765994D02*
X763085D01*
X760276Y603385D01*
X757756Y601931D01*
X755699Y599874D01*
X754245Y597354D01*
X753492Y594544D01*
Y591636D01*
X754245Y588826D01*
X755699Y586306D01*
X757756Y584249D01*
X760276Y582795D01*
X763085Y582042D01*
X765994D01*
X768804Y582795D01*
X771324Y584249D01*
X773381Y586306D01*
X774835Y588826D01*
X775588Y591636D01*
Y594544D01*
X774835Y597354D01*
X773381Y599874D01*
X771324Y601931D01*
X768804Y603385D01*
X765994Y604138D01*
D02*
G37*
G36*
X740594D02*
X737685D01*
X734876Y603385D01*
X732356Y601931D01*
X730299Y599874D01*
X728845Y597354D01*
X728092Y594544D01*
Y591636D01*
X728845Y588826D01*
X730299Y586306D01*
X732356Y584249D01*
X734876Y582795D01*
X737685Y582042D01*
X740594D01*
X743404Y582795D01*
X745924Y584249D01*
X747981Y586306D01*
X749435Y588826D01*
X750188Y591636D01*
Y594544D01*
X749435Y597354D01*
X747981Y599874D01*
X745924Y601931D01*
X743404Y603385D01*
X740594Y604138D01*
D02*
G37*
G36*
X715194D02*
X712286D01*
X709476Y603385D01*
X706956Y601931D01*
X704899Y599874D01*
X703445Y597354D01*
X702692Y594544D01*
Y591636D01*
X703445Y588826D01*
X704899Y586306D01*
X706956Y584249D01*
X709476Y582795D01*
X712286Y582042D01*
X715194D01*
X718004Y582795D01*
X720524Y584249D01*
X722581Y586306D01*
X724035Y588826D01*
X724788Y591636D01*
Y594544D01*
X724035Y597354D01*
X722581Y599874D01*
X720524Y601931D01*
X718004Y603385D01*
X715194Y604138D01*
D02*
G37*
G36*
X689794D02*
X686886D01*
X684076Y603385D01*
X681556Y601931D01*
X679499Y599874D01*
X678045Y597354D01*
X677292Y594544D01*
Y591636D01*
X678045Y588826D01*
X679499Y586306D01*
X681556Y584249D01*
X684076Y582795D01*
X686886Y582042D01*
X689794D01*
X692604Y582795D01*
X695124Y584249D01*
X697181Y586306D01*
X698635Y588826D01*
X699388Y591636D01*
Y594544D01*
X698635Y597354D01*
X697181Y599874D01*
X695124Y601931D01*
X692604Y603385D01*
X689794Y604138D01*
D02*
G37*
G36*
X664395D02*
X661486D01*
X658676Y603385D01*
X656156Y601931D01*
X654099Y599874D01*
X652645Y597354D01*
X651892Y594544D01*
Y591636D01*
X652645Y588826D01*
X654099Y586306D01*
X656156Y584249D01*
X658676Y582795D01*
X661486Y582042D01*
X664395D01*
X667204Y582795D01*
X669724Y584249D01*
X671781Y586306D01*
X673235Y588826D01*
X673988Y591636D01*
Y594544D01*
X673235Y597354D01*
X671781Y599874D01*
X669724Y601931D01*
X667204Y603385D01*
X664395Y604138D01*
D02*
G37*
G36*
X638994D02*
X636086D01*
X633276Y603385D01*
X630756Y601931D01*
X628699Y599874D01*
X627245Y597354D01*
X626492Y594544D01*
Y591636D01*
X627245Y588826D01*
X628699Y586306D01*
X630756Y584249D01*
X633276Y582795D01*
X636086Y582042D01*
X638994D01*
X641804Y582795D01*
X644324Y584249D01*
X646381Y586306D01*
X647835Y588826D01*
X648588Y591636D01*
Y594544D01*
X647835Y597354D01*
X646381Y599874D01*
X644324Y601931D01*
X641804Y603385D01*
X638994Y604138D01*
D02*
G37*
G36*
X613595D02*
X610686D01*
X607876Y603385D01*
X605356Y601931D01*
X603299Y599874D01*
X601845Y597354D01*
X601092Y594544D01*
Y591636D01*
X601845Y588826D01*
X603299Y586306D01*
X605356Y584249D01*
X607876Y582795D01*
X610686Y582042D01*
X613595D01*
X616404Y582795D01*
X618924Y584249D01*
X620981Y586306D01*
X622435Y588826D01*
X623188Y591636D01*
Y594544D01*
X622435Y597354D01*
X620981Y599874D01*
X618924Y601931D01*
X616404Y603385D01*
X613595Y604138D01*
D02*
G37*
G36*
X588195D02*
X585285D01*
X582476Y603385D01*
X579956Y601931D01*
X577899Y599874D01*
X576445Y597354D01*
X575692Y594544D01*
Y591636D01*
X576445Y588826D01*
X577899Y586306D01*
X579956Y584249D01*
X582476Y582795D01*
X585285Y582042D01*
X588195D01*
X591004Y582795D01*
X593524Y584249D01*
X595581Y586306D01*
X597035Y588826D01*
X597788Y591636D01*
Y594544D01*
X597035Y597354D01*
X595581Y599874D01*
X593524Y601931D01*
X591004Y603385D01*
X588195Y604138D01*
D02*
G37*
G36*
X511995D02*
X509086D01*
X506276Y603385D01*
X503756Y601931D01*
X501699Y599874D01*
X500245Y597354D01*
X499492Y594544D01*
Y591636D01*
X500245Y588826D01*
X501699Y586306D01*
X503756Y584249D01*
X506276Y582795D01*
X509086Y582042D01*
X511995D01*
X514804Y582795D01*
X517324Y584249D01*
X519381Y586306D01*
X520835Y588826D01*
X521588Y591636D01*
Y594544D01*
X520835Y597354D01*
X519381Y599874D01*
X517324Y601931D01*
X514804Y603385D01*
X511995Y604138D01*
D02*
G37*
%LPD*%
G36*
X592866Y776210D02*
X593744Y773706D01*
X588623Y768585D01*
X588214Y768416D01*
X586928Y767130D01*
X586232Y765449D01*
Y763631D01*
X585369Y762339D01*
X567484D01*
X567075Y762508D01*
X565257D01*
X564335Y762126D01*
X562294Y763110D01*
X561795Y763614D01*
Y768123D01*
X564224Y770551D01*
X574059D01*
X574062Y770547D01*
X574532Y770352D01*
X577035Y770263D01*
X582656Y769987D01*
X583228Y769751D01*
X585047D01*
X586727Y770447D01*
X588013Y771733D01*
X588709Y773413D01*
Y775232D01*
X589015Y775658D01*
X590502Y777104D01*
X592866Y776210D01*
D02*
G37*
D11*
X939546Y801116D02*
X986028Y798322D01*
X727710Y875021D02*
X727807Y875117D01*
X869276D01*
X874431Y880273D01*
X647192Y791210D02*
X708633Y873967D01*
D12*
X719518Y874986D02*
G03*
X719973Y875021I-224J5838D01*
G01*
X710587Y874986D02*
G03*
X709293Y874582I80J-2539D01*
G01*
X708872Y874243D02*
G03*
X708633Y873967I1796J-1796D01*
G01*
X576004Y774728D02*
G03*
X576294Y774707I576J5814D01*
G01*
X575152Y774877D02*
G03*
X574532Y774954I-620J-2463D01*
G01*
X575152Y774877D02*
G03*
X576004Y774728I1428J5665D01*
G01*
X981638Y604507D02*
G03*
X982452Y602828I2533J191D01*
G01*
X980259Y623813D02*
G03*
X979424Y625521I-2534J-181D01*
G01*
X907908Y657624D02*
G03*
X908423Y657181I1899J1687D01*
G01*
X910562Y654727D02*
G03*
X910910Y654212I2262J1155D01*
G01*
X910459Y654928D02*
G03*
X908423Y657181I-5203J-2656D01*
G01*
X1010380Y687188D02*
G03*
X1010926Y683546I5756J-998D01*
G01*
X1012542Y699660D02*
G03*
X1012411Y702107I-5413J938D01*
G01*
X1001666Y740011D02*
G03*
X1001846Y739089I5462J587D01*
G01*
X1020032Y815428D02*
G03*
X1021712Y819168I-4150J4112D01*
G01*
X1024078Y852948D02*
G03*
X1023768Y851408I5520J-1912D01*
G01*
X1036388Y888494D02*
G03*
X1036621Y889390I-5520J1912D01*
G01*
X672464Y969003D02*
G03*
X672463Y969157I-10794J7D01*
G01*
X921949Y960230D02*
G03*
X925243Y964024I-6279J8780D01*
G01*
X824034Y752958D02*
G03*
X824162Y752807I4514J3708D01*
G01*
X779487Y621181D02*
G03*
X780169Y613903I10453J-2691D01*
G01*
X622859Y757936D02*
G03*
X631442Y761490I0J12141D01*
G01*
X656325Y771798D02*
G03*
X631442Y761490I0J-35187D01*
G01*
X554228Y636778D02*
G03*
X550164Y626967I9811J-9811D01*
G01*
X644480Y821772D02*
X645160Y822452D01*
X641940Y821772D02*
X644480D01*
X600710Y780542D02*
X641940Y821772D01*
X515580Y715759D02*
X518681D01*
X510794Y719582D02*
X511756D01*
X515580Y715759D01*
X518681D02*
X524764Y709676D01*
X572262Y897382D02*
X584708Y884936D01*
X709422D01*
X548640Y625443D02*
X550164Y626967D01*
X548640Y602742D02*
Y625443D01*
X665734Y951992D02*
X672337Y958595D01*
Y967360D01*
X685728Y956238D02*
Y967668D01*
X673862Y944372D02*
X685728Y956238D01*
Y967668D02*
X687070Y969010D01*
X719973Y875021D02*
X727710D01*
X710587Y874986D02*
X719518D01*
X708872Y874243D02*
X709293Y874582D01*
X592425Y782066D02*
X593949Y780542D01*
X576326Y782066D02*
X592425D01*
X557393Y769947D02*
X562400Y774954D01*
X576294Y774707D02*
X584137Y774323D01*
X562400Y774954D02*
X574532D01*
X557393Y702447D02*
X557393Y769947D01*
X593949Y780542D02*
X600710D01*
X930402Y659384D02*
X967740Y618490D01*
X982452Y602828D02*
X993140Y593090D01*
X981638Y604517D02*
X981638Y604507D01*
X980259Y623813D02*
X981638Y604517D01*
X979419Y625526D02*
X979424Y625521D01*
X946658Y654812D02*
X979419Y625526D01*
X859536Y817118D02*
X873760Y784352D01*
X843788Y818896D02*
X861822Y789940D01*
X830834Y817118D02*
X849884Y796036D01*
X914400Y662686D02*
X935228Y639064D01*
X910459Y654928D02*
X910562Y654727D01*
X895858Y652272D02*
X905256D01*
X910910Y654212D02*
X942340Y618490D01*
X907900Y657633D02*
X907908Y657624D01*
X724916Y738632D02*
X895858Y652272D01*
X824162Y752807D02*
X907900Y657633D01*
X1010926Y683546D02*
X1043940Y618490D01*
X1010380Y687188D02*
X1012542Y699660D01*
X1001846Y739089D02*
X1012411Y702107D01*
X997966Y774446D02*
X1001666Y740011D01*
X980186Y775208D02*
X1020032Y815428D01*
X1021712Y819168D02*
X1023768Y851408D01*
X1024078Y852948D02*
X1036388Y888494D01*
X1036621Y889390D02*
X1043686Y929386D01*
X547370Y943102D02*
X703834Y913638D01*
X672337Y967360D02*
X672464Y968158D01*
X672337Y967360D02*
X672337Y967360D01*
X672431Y971487D02*
X672463Y969157D01*
X661670Y994410D02*
X672431Y971487D01*
X672464Y968158D02*
X672464Y969003D01*
X712470Y968756D02*
Y969010D01*
X688594Y944880D02*
X712470Y968756D01*
X688594Y944626D02*
Y944880D01*
X925243Y964024D02*
X941070Y994410D01*
X904748Y947928D02*
X921949Y960230D01*
X906444Y938194D02*
X910254D01*
X901446Y933196D02*
X906444Y938194D01*
X910254D02*
X941070Y969010D01*
X874431Y880273D02*
X874588D01*
X787400Y797560D02*
X824034Y752958D01*
X779487Y621181D02*
X784352Y640080D01*
X780169Y613903D02*
X789940Y593090D01*
X590804Y764540D02*
X627634Y801370D01*
X635762D01*
X566166Y757936D02*
X622859D01*
X656336Y771798D02*
X666024D01*
X656325Y771798D02*
X656336Y771798D01*
X669290Y767588D02*
Y768532D01*
X666024Y771798D02*
X669290Y768532D01*
X557393Y702447D02*
X558137Y701703D01*
X563118Y696722D01*
X1038098Y782574D02*
X1038352D01*
X959081Y764667D02*
X977011D01*
X957684Y763270D02*
X959081Y764667D01*
X940308Y763270D02*
X957684D01*
X977011Y764667D02*
X977138Y764540D01*
D65*
X725440Y866732D02*
G03*
X725878Y866659I473J1470D01*
G01*
Y863081D02*
G03*
X725374Y862985I35J-1544D01*
G01*
X719836Y860921D02*
X725374Y862985D01*
X761418Y863082D02*
X909246Y715254D01*
X719822Y868541D02*
X725440Y866732D01*
X725896Y863082D02*
X761418D01*
X725878Y863081D02*
X725896Y863082D01*
X725878Y866658D02*
X725896Y866658D01*
X762899D01*
X910727Y718830D01*
X724289Y884055D02*
X763270Y923036D01*
X718437Y881148D02*
X724289Y884055D01*
X763270Y923036D02*
Y969010D01*
X947033Y715254D02*
X949055Y713232D01*
X947033Y718830D02*
X949055Y720852D01*
X950214D01*
X910727Y718830D02*
X947033D01*
X909246Y715254D02*
X947033D01*
X949055Y713232D02*
X950214D01*
D68*
X1042670Y994410D02*
D03*
Y969010D02*
D03*
X1017270Y994410D02*
D03*
Y969010D02*
D03*
X991870Y994410D02*
D03*
Y969010D02*
D03*
X966470Y994410D02*
D03*
Y969010D02*
D03*
X941070Y994410D02*
D03*
Y969010D02*
D03*
X915670Y994410D02*
D03*
Y969010D02*
D03*
X890270Y994410D02*
D03*
Y969010D02*
D03*
X864870Y994410D02*
D03*
Y969010D02*
D03*
X839470Y994410D02*
D03*
Y969010D02*
D03*
X814070Y994410D02*
D03*
Y969010D02*
D03*
X788670Y994410D02*
D03*
Y969010D02*
D03*
X763270Y994410D02*
D03*
Y969010D02*
D03*
X737870Y994410D02*
D03*
Y969010D02*
D03*
X712470Y994410D02*
D03*
Y969010D02*
D03*
X687070Y994410D02*
D03*
Y969010D02*
D03*
X661670Y994410D02*
D03*
Y969010D02*
D03*
X636270Y994410D02*
D03*
Y969010D02*
D03*
X610870Y994410D02*
D03*
Y969010D02*
D03*
X585470Y994410D02*
D03*
Y969010D02*
D03*
X560070Y994410D02*
D03*
Y969010D02*
D03*
X534670D02*
D03*
Y994410D02*
D03*
X509270Y969010D02*
D03*
Y994410D02*
D03*
X1043940Y618490D02*
D03*
Y593090D02*
D03*
X1018540Y618490D02*
D03*
Y593090D02*
D03*
X993140Y618490D02*
D03*
Y593090D02*
D03*
X967740Y618490D02*
D03*
Y593090D02*
D03*
X942340Y618490D02*
D03*
Y593090D02*
D03*
X916940Y618490D02*
D03*
Y593090D02*
D03*
X891540Y618490D02*
D03*
Y593090D02*
D03*
X866140Y618490D02*
D03*
Y593090D02*
D03*
X840740Y618490D02*
D03*
Y593090D02*
D03*
X815340Y618490D02*
D03*
Y593090D02*
D03*
X789940Y618490D02*
D03*
Y593090D02*
D03*
X764540Y618490D02*
D03*
Y593090D02*
D03*
X739140Y618490D02*
D03*
Y593090D02*
D03*
X713740Y618490D02*
D03*
Y593090D02*
D03*
X688340Y618490D02*
D03*
Y593090D02*
D03*
X662940Y618490D02*
D03*
Y593090D02*
D03*
X637540Y618490D02*
D03*
Y593090D02*
D03*
X612140Y618490D02*
D03*
Y593090D02*
D03*
X586740Y618490D02*
D03*
Y593090D02*
D03*
X561340Y618490D02*
D03*
Y593090D02*
D03*
X535940D02*
D03*
Y618490D02*
D03*
X510540Y593090D02*
D03*
Y618490D02*
D03*
D69*
X645160Y822452D02*
D03*
X571500Y766572D02*
D03*
X516382Y789178D02*
D03*
X510794Y719582D02*
D03*
X524764Y709676D02*
D03*
X572262Y897382D02*
D03*
X548640Y602742D02*
D03*
X665734Y951992D02*
D03*
X641604Y718566D02*
D03*
X1017270Y741426D02*
D03*
X973582Y913638D02*
D03*
X1015238Y840232D02*
D03*
X1030732Y891032D02*
D03*
X1014984Y906780D02*
D03*
X1015991Y753430D02*
D03*
X1016898Y689746D02*
D03*
X1032138Y700922D02*
D03*
X1031630Y740292D02*
D03*
X576580Y796798D02*
D03*
X576326Y782066D02*
D03*
X584137Y774323D02*
D03*
X571754Y869950D02*
D03*
X572262Y849884D02*
D03*
X763778Y913892D02*
D03*
X1016000Y654050D02*
D03*
X838200Y765048D02*
D03*
X752252Y919576D02*
D03*
X1029598Y851036D02*
D03*
X700786Y737362D02*
D03*
X986536Y661670D02*
D03*
X974090Y660654D02*
D03*
X964184Y652526D02*
D03*
X694690Y760476D02*
D03*
X589534Y834898D02*
D03*
X999236Y663448D02*
D03*
X986790Y700532D02*
D03*
X719822Y868541D02*
D03*
X1038098Y782574D02*
D03*
X611124Y749046D02*
D03*
X626872Y735076D02*
D03*
X969518Y756158D02*
D03*
X948944Y786130D02*
D03*
X964692Y867410D02*
D03*
X986790Y692404D02*
D03*
X968502Y786384D02*
D03*
X959104D02*
D03*
X959230Y831601D02*
D03*
X932688Y822960D02*
D03*
X977138Y764540D02*
D03*
X940308Y763270D02*
D03*
X1013088Y921140D02*
D03*
X974852Y814832D02*
D03*
X923798Y833882D02*
D03*
X919226Y861568D02*
D03*
X1015882Y819540D02*
D03*
X728506Y925695D02*
D03*
X944626Y868934D02*
D03*
X924306Y822706D02*
D03*
X919734Y847344D02*
D03*
X932180Y833628D02*
D03*
X605790Y679958D02*
D03*
X598424Y704342D02*
D03*
X658496Y690626D02*
D03*
X983996Y848106D02*
D03*
X582422Y721360D02*
D03*
X657640Y666784D02*
D03*
X608838Y691642D02*
D03*
X607617Y664923D02*
D03*
X621030Y647700D02*
D03*
X828548Y756666D02*
D03*
X982484Y855472D02*
D03*
X709422Y884936D02*
D03*
X596436Y737197D02*
D03*
X635394Y645296D02*
D03*
X1032256Y809498D02*
D03*
X717296Y724408D02*
D03*
X718437Y881148D02*
D03*
X596646Y826262D02*
D03*
X753946Y685111D02*
D03*
X650494Y659130D02*
D03*
X873760Y784352D02*
D03*
X859536Y817118D02*
D03*
X950214Y713232D02*
D03*
Y720852D02*
D03*
X719836Y860921D02*
D03*
X830072Y785876D02*
D03*
X787400Y797560D02*
D03*
X669290Y767588D02*
D03*
X647192Y791210D02*
D03*
X905256Y652272D02*
D03*
X590804Y764540D02*
D03*
X784352Y640080D02*
D03*
X516128Y824484D02*
D03*
X554228Y636778D02*
D03*
X563118Y696722D02*
D03*
X533908Y689356D02*
D03*
X688594Y944626D02*
D03*
X614138Y670400D02*
D03*
X724916Y738632D02*
D03*
X986028Y798322D02*
D03*
X939546Y801116D02*
D03*
X684022Y759968D02*
D03*
X874588Y880273D02*
D03*
X930402Y659384D02*
D03*
X1034034Y951230D02*
D03*
X904748Y947928D02*
D03*
X946658Y654812D02*
D03*
X901446Y933196D02*
D03*
X741426Y683260D02*
D03*
X703834Y913638D02*
D03*
X547370Y943102D02*
D03*
X997966Y774446D02*
D03*
X635762Y801370D02*
D03*
X914400Y662686D02*
D03*
X830834Y817118D02*
D03*
X1043686Y929386D02*
D03*
X935228Y639064D02*
D03*
X980186Y775208D02*
D03*
X673862Y944372D02*
D03*
X843788Y818896D02*
D03*
X566166Y757936D02*
D03*
X849884Y796036D02*
D03*
X861822Y789940D02*
D03*
M02*
