G04*
G04 #@! TF.GenerationSoftware,Altium Limited,Altium Designer,25.4.2 (15)*
G04*
G04 Layer_Color=65535*
%FSLAX44Y44*%
%MOMM*%
G71*
G04*
G04 #@! TF.SameCoordinates,BD49B22D-EE2B-44C8-A640-33F07053280C*
G04*
G04*
G04 #@! TF.FilePolarity,Positive*
G04*
G01*
G75*
%ADD10C,0.1500*%
%ADD11C,0.3810*%
%ADD12C,0.2540*%
%ADD13C,0.2032*%
%ADD14C,0.1524*%
%ADD15C,0.1270*%
%ADD16C,0.1016*%
%ADD17C,0.2000*%
%ADD18C,0.1000*%
%ADD19C,0.0762*%
%ADD20C,0.0508*%
D10*
X534756Y737759D02*
G03*
X534756Y737759I-8500J0D01*
G01*
Y805920D02*
G03*
X534756Y805920I-8500J0D01*
G01*
Y771840D02*
G03*
X534756Y771840I-8500J0D01*
G01*
X1000481Y737618D02*
Y745238D01*
Y695708D02*
Y703328D01*
X999617Y887859D02*
Y895479D01*
Y845949D02*
Y853569D01*
D11*
X612898Y798640D02*
G03*
X612898Y798640I-1905J0D01*
G01*
D12*
X659024Y804926D02*
G03*
X659024Y804926I-7620J0D01*
G01*
X949198Y783366D02*
G03*
X949198Y783366I-254J0D01*
G01*
X495808Y923036D02*
X1055878D01*
X495808Y1009396D02*
X1055878D01*
Y923036D02*
Y1009396D01*
X495808Y923036D02*
Y1009396D01*
Y579628D02*
X1055878D01*
X495808Y661162D02*
X1055878D01*
Y579628D02*
Y661162D01*
X495808Y579628D02*
Y661162D01*
X496062Y956310D02*
X1055624D01*
X496824Y630936D02*
X1054100D01*
X712470Y722308D02*
X795088Y804926D01*
X629852D02*
X712470Y887544D01*
X795088Y804926D01*
X629852D02*
X712470Y722308D01*
X447040Y904240D02*
X450540Y907740D01*
X451910D01*
X447040Y904240D02*
X450540Y900740D01*
X451910D01*
X529590Y911860D02*
Y916940D01*
X524510Y911860D02*
X529590D01*
X524510Y909320D02*
Y911860D01*
Y896620D02*
Y909320D01*
Y896620D02*
X529590D01*
Y891540D02*
Y896620D01*
X504190Y891540D02*
Y916940D01*
X451910Y900740D02*
X504190D01*
X451910Y907740D02*
X504190D01*
X451910Y882340D02*
X504190D01*
X451910Y875340D02*
X504190D01*
Y866140D02*
Y891540D01*
X529590Y866140D02*
Y871220D01*
X524510D02*
X529590D01*
X524510D02*
Y883920D01*
Y886460D01*
X529590D01*
Y891540D01*
X450540Y875340D02*
X451910D01*
X447040Y878840D02*
X450540Y875340D01*
Y882340D02*
X451910D01*
X447040Y878840D02*
X450540Y882340D01*
X447040Y853440D02*
X450540Y856940D01*
X451910D01*
X447040Y853440D02*
X450540Y849940D01*
X451910D01*
X529590Y861060D02*
Y866140D01*
X524510Y861060D02*
X529590D01*
X524510Y858520D02*
Y861060D01*
Y845820D02*
Y858520D01*
Y845820D02*
X529590D01*
Y840740D02*
Y845820D01*
X504190Y840740D02*
Y866140D01*
Y840740D02*
X529590D01*
X451910Y849940D02*
X504190D01*
X451910Y856940D02*
X504190D01*
X451910Y933140D02*
X504190D01*
X451910Y926140D02*
X504190D01*
Y916940D02*
Y942340D01*
X529590D01*
Y916940D02*
Y922020D01*
X524510D02*
X529590D01*
X524510D02*
Y934720D01*
Y937260D01*
X529590D01*
Y942340D01*
X450540Y926140D02*
X451910D01*
X447040Y929640D02*
X450540Y926140D01*
Y933140D02*
X451910D01*
X447040Y929640D02*
X450540Y933140D01*
D13*
X962198Y878420D02*
G03*
X967278Y873340I5080J0D01*
G01*
Y883340D02*
G03*
X962198Y878260I0J-5080D01*
G01*
X967278Y865840D02*
Y873280D01*
Y883440D02*
Y891840D01*
D14*
X569143Y789824D02*
Y806821D01*
X560143Y789823D02*
Y806821D01*
X569143D01*
X569141Y789823D02*
X569143Y789824D01*
X560143Y789823D02*
X569141D01*
X567619Y768996D02*
Y785993D01*
X558619Y768995D02*
Y785993D01*
X567619D01*
X567617Y768995D02*
X567619Y768996D01*
X558619Y768995D02*
X567617D01*
X613951Y723852D02*
X620315Y730216D01*
X601933Y735870D02*
Y735872D01*
X608296Y742235D01*
X612509Y738021D01*
X616101Y734429D02*
X620315Y730216D01*
X601933Y735872D02*
X606147Y731659D01*
X609739Y728066D02*
X613952Y723853D01*
X627870Y696213D02*
X654811Y669272D01*
X631462Y645923D02*
X654811Y669272D01*
X604521Y672864D02*
X631462Y645923D01*
X604521Y672864D02*
X627870Y696213D01*
X645621Y683040D02*
X651985Y689404D01*
X664003Y677384D02*
Y677386D01*
X657640Y671021D02*
X664003Y677384D01*
X653427Y675235D02*
X657640Y671021D01*
X645621Y683040D02*
X649835Y678827D01*
X659790Y681597D02*
X664003Y677384D01*
X651984Y689403D02*
X656197Y685190D01*
X643161Y685244D02*
X649525Y691608D01*
X631143Y697262D02*
Y697264D01*
X637506Y703627D01*
X641719Y699414D01*
X645312Y695821D02*
X649525Y691608D01*
X631143Y697264D02*
X635356Y693051D01*
X638949Y689458D02*
X643162Y685245D01*
X642760Y709655D02*
X654778Y697637D01*
X649123Y716020D02*
X661142Y704000D01*
X654778Y697637D02*
X661142Y704000D01*
X642760Y709655D02*
Y709657D01*
X649123Y716020D01*
X978590Y639529D02*
Y656526D01*
X969590Y639528D02*
Y656526D01*
X978590D01*
X978588Y639528D02*
X978590Y639529D01*
X969590Y639528D02*
X978588D01*
X1003483Y639964D02*
Y656961D01*
X994483Y639963D02*
Y656961D01*
X1003483D01*
X1003481Y639963D02*
X1003483Y639964D01*
X994483Y639963D02*
X1003481D01*
X982035Y639709D02*
X991035D01*
X982035Y656706D02*
X982037Y656707D01*
X991035D01*
Y650748D02*
Y656707D01*
Y639709D02*
Y645668D01*
X982037Y650748D02*
Y656707D01*
Y639709D02*
Y645668D01*
X926410Y860488D02*
X935410D01*
X935408Y843490D02*
X935410Y843491D01*
X926410Y843490D02*
X935408D01*
X926410D02*
Y849449D01*
Y854529D02*
Y860488D01*
X935408Y843490D02*
Y849449D01*
Y854529D02*
Y860488D01*
X1039851Y757938D02*
X1051662D01*
X1011911D02*
X1020801D01*
X1011911Y684528D02*
X1020801D01*
X1039851D02*
X1051662D01*
Y757938D01*
X1054202Y681988D02*
X1056742Y684528D01*
X1054202Y687068D02*
X1056742Y684528D01*
X1054202Y687068D02*
Y689608D01*
X1056804Y692148D01*
X1051662Y684528D02*
X1054202Y681988D01*
X1051662Y757938D02*
X1054202Y760478D01*
X1056742Y757938D01*
X1054202Y755398D02*
X1056742Y757938D01*
X1054202Y752858D02*
Y755398D01*
Y752858D02*
X1056804Y750318D01*
X1054202Y689608D02*
Y752858D01*
X1056804Y692148D02*
Y750318D01*
X1013652Y704144D02*
Y735894D01*
X547233Y710509D02*
Y719509D01*
X530235Y710511D02*
X530236Y710509D01*
X530235Y710511D02*
Y719509D01*
X536194D01*
X541274D02*
X547233D01*
X530235Y710511D02*
X536194D01*
X541274D02*
X547233D01*
X530490Y698571D02*
X547487D01*
X530489Y707571D02*
X547487D01*
Y698571D02*
Y707571D01*
X530489Y698573D02*
X530490Y698571D01*
X530489Y698573D02*
Y707571D01*
X951230Y828040D02*
Y835660D01*
Y828040D02*
X953770Y825500D01*
X966470D01*
X953770Y838200D02*
X966470D01*
X951230Y835660D02*
X953770Y838200D01*
X966470Y825500D02*
Y838200D01*
X952754Y735076D02*
Y742696D01*
Y735076D02*
X955294Y732536D01*
X967994D01*
X955294Y745236D02*
X967994D01*
X952754Y742696D02*
X955294Y745236D01*
X967994Y732536D02*
Y745236D01*
X944982Y780318D02*
Y791748D01*
X972922Y780318D02*
Y791748D01*
X944982D02*
X972922D01*
X944982Y780318D02*
X972922D01*
X951621Y810841D02*
Y819841D01*
X968618D02*
X968619Y819839D01*
Y810841D02*
Y819839D01*
X962660Y810841D02*
X968619D01*
X951621D02*
X957580D01*
X962660Y819839D02*
X968619D01*
X951621D02*
X957580D01*
X948065Y751405D02*
Y760405D01*
X965062D02*
X965063Y760403D01*
Y751405D02*
Y760403D01*
X959104Y751405D02*
X965063D01*
X948065D02*
X954024D01*
X959104Y760403D02*
X965063D01*
X948065D02*
X954024D01*
X953770Y687324D02*
Y700024D01*
X949960Y687324D02*
X967740D01*
X949960D02*
Y700024D01*
X967740D01*
Y687324D02*
Y700024D01*
X952500Y687324D02*
Y700024D01*
X951230Y687324D02*
Y700024D01*
X958805Y716209D02*
X975802D01*
X958805Y707209D02*
X975803D01*
X958805D02*
Y716209D01*
X975802D02*
X975803Y716207D01*
Y707209D02*
Y716207D01*
X958733Y726115D02*
X975730D01*
X958733Y717115D02*
X975731D01*
X958733D02*
Y726115D01*
X975730D02*
X975731Y726113D01*
Y717115D02*
Y726113D01*
X617681Y721648D02*
X624045Y728012D01*
X636063Y715992D02*
Y715994D01*
X629700Y709629D02*
X636063Y715992D01*
X625487Y713842D02*
X629700Y709629D01*
X617681Y721648D02*
X621894Y717435D01*
X631850Y720205D02*
X636063Y715992D01*
X624044Y728011D02*
X628257Y723798D01*
X1010550Y944189D02*
X1027547D01*
X1010549Y953189D02*
X1027547D01*
Y944189D02*
Y953189D01*
X1010549Y944191D02*
X1010550Y944189D01*
X1010549Y944191D02*
Y953189D01*
X995383Y793314D02*
X1012380D01*
X995382Y802314D02*
X1012380D01*
Y793314D02*
Y802314D01*
X995382Y793316D02*
X995383Y793314D01*
X995382Y793316D02*
Y802314D01*
X1015864Y932942D02*
Y938022D01*
Y935482D02*
X1018404Y938022D01*
X1015864Y935482D02*
X1018404Y932942D01*
Y938022D01*
X1031104Y795528D02*
Y800608D01*
X1028564Y795528D02*
X1031104Y798068D01*
X1028564Y800608D02*
X1031104Y798068D01*
X1028564Y795528D02*
Y800608D01*
X808689Y769400D02*
X815053Y775764D01*
X827071Y763744D02*
Y763746D01*
X820708Y757381D02*
X827071Y763744D01*
X816495Y761594D02*
X820708Y757381D01*
X808689Y769400D02*
X812903Y765187D01*
X822858Y767957D02*
X827071Y763744D01*
X815052Y775763D02*
X819265Y771550D01*
X592789Y840520D02*
X599153Y846884D01*
X611171Y834864D02*
Y834866D01*
X604808Y828501D02*
X611171Y834864D01*
X600595Y832714D02*
X604808Y828501D01*
X592789Y840520D02*
X597002Y836307D01*
X606958Y839077D02*
X611171Y834864D01*
X599152Y846883D02*
X603365Y842670D01*
X829851Y767032D02*
X836215Y773396D01*
X817833Y779050D02*
Y779052D01*
X824196Y785415D01*
X828409Y781201D01*
X832001Y777609D02*
X836215Y773396D01*
X817833Y779052D02*
X822047Y774839D01*
X825639Y771246D02*
X829852Y767033D01*
X747047Y685752D02*
X753411Y692116D01*
X735029Y697770D02*
Y697772D01*
X741392Y704135D01*
X745605Y699921D01*
X749197Y696329D02*
X753411Y692116D01*
X735029Y697772D02*
X739242Y693559D01*
X742835Y689967D02*
X747048Y685753D01*
X742729Y904192D02*
X749093Y910556D01*
X730711Y916210D02*
Y916212D01*
X737074Y922575D01*
X741287Y918362D01*
X744880Y914769D02*
X749093Y910556D01*
X730711Y916212D02*
X734924Y911999D01*
X738517Y908407D02*
X742730Y904193D01*
X627586Y727677D02*
X633950Y721313D01*
X639604Y739695D02*
X639606D01*
X645969Y733332D01*
X641756Y729119D02*
X645969Y733332D01*
X633950Y721313D02*
X638163Y725527D01*
X635393Y735481D02*
X639606Y739695D01*
X627587Y727676D02*
X631800Y731889D01*
X744546Y901025D02*
X750910Y894661D01*
X756564Y913043D02*
X756566D01*
X762929Y906681D01*
X758716Y902467D02*
X762929Y906681D01*
X750910Y894661D02*
X755123Y898875D01*
X752353Y908829D02*
X756566Y913043D01*
X744547Y901024D02*
X748761Y905237D01*
X1038987Y908179D02*
X1050798D01*
X1011047D02*
X1019937D01*
X1011047Y834769D02*
X1019937D01*
X1038987D02*
X1050798D01*
Y908179D01*
X1053338Y832229D02*
X1055878Y834769D01*
X1053338Y837309D02*
X1055878Y834769D01*
X1053338Y837309D02*
Y839849D01*
X1055940Y842389D01*
X1050798Y834769D02*
X1053338Y832229D01*
X1050798Y908179D02*
X1053338Y910719D01*
X1055878Y908179D01*
X1053338Y905639D02*
X1055878Y908179D01*
X1053338Y903099D02*
Y905639D01*
Y903099D02*
X1055940Y900559D01*
X1053338Y839849D02*
Y903099D01*
X1055940Y842389D02*
Y900559D01*
X1012788Y854385D02*
Y886135D01*
D15*
X506256Y750259D02*
X546256D01*
X506256Y725259D02*
X546256D01*
X506256Y818420D02*
X546256D01*
X506256Y793420D02*
X546256D01*
X506256Y784340D02*
X546256D01*
X506256Y759340D02*
X546256D01*
D16*
X596928Y712334D02*
X605908Y703354D01*
X607704Y723110D02*
X616684Y714130D01*
D17*
X941278Y865840D02*
Y891840D01*
Y865840D02*
X967278D01*
X941278Y891840D02*
X967278D01*
D18*
X1004434Y941832D02*
X1014594D01*
X1003164Y940562D02*
X1004434Y941832D01*
X1003164Y930402D02*
Y940562D01*
X1004434Y929132D02*
X1014594D01*
X1003164Y930402D02*
X1004434Y929132D01*
X1019674D02*
X1031104D01*
Y941832D01*
X1019674D02*
X1031104D01*
X1032374Y791718D02*
X1042534D01*
X1043804Y792988D01*
Y803148D01*
X1032374Y804418D02*
X1042534D01*
X1043804Y803148D01*
X1015864Y804418D02*
X1027294D01*
X1015864Y791718D02*
Y804418D01*
Y791718D02*
X1027294D01*
D19*
X1048132Y944117D02*
X1047497Y943482D01*
Y942213D01*
X1048132Y941578D01*
X1050671D01*
X1051306Y942213D01*
Y943482D01*
X1050671Y944117D01*
X1049402D01*
Y942848D01*
X1051306Y945387D02*
X1047497D01*
X1051306Y947926D01*
X1047497D01*
Y949196D02*
X1051306D01*
Y951100D01*
X1050671Y951735D01*
X1048132D01*
X1047497Y951100D01*
Y949196D01*
X1004317Y609600D02*
X1006856D01*
X1008126Y610870D01*
X1006856Y612139D01*
X1004317D01*
Y615948D02*
Y613409D01*
X1008126D01*
Y615948D01*
X1006222Y613409D02*
Y614678D01*
X1008126Y617218D02*
X1004317D01*
Y619122D01*
X1004952Y619757D01*
X1006222D01*
X1006856Y619122D01*
Y617218D01*
Y618487D02*
X1008126Y619757D01*
X1004317Y623565D02*
Y621026D01*
X1006222D01*
Y622296D01*
Y621026D01*
X1008126D01*
X1006222Y624835D02*
Y627374D01*
X1004952Y626105D02*
X1007491D01*
X515112Y925068D02*
X511303D01*
Y926972D01*
X511938Y927607D01*
X513208D01*
X513842Y926972D01*
Y925068D01*
X511303Y928877D02*
X515112D01*
Y930781D01*
X514477Y931416D01*
X513842D01*
X513208Y930781D01*
Y928877D01*
Y930781D01*
X512573Y931416D01*
X511938D01*
X511303Y930781D01*
Y928877D01*
X514477Y932686D02*
X515112Y933320D01*
Y934590D01*
X514477Y935225D01*
X511938D01*
X511303Y934590D01*
Y933320D01*
X511938Y932686D01*
X512573D01*
X513208Y933320D01*
Y935225D01*
X516128Y943102D02*
X512319D01*
Y945006D01*
X512954Y945641D01*
X514224D01*
X514858Y945006D01*
Y943102D01*
X512319Y946911D02*
X516128D01*
Y948815D01*
X515493Y949450D01*
X514858D01*
X514224Y948815D01*
Y946911D01*
Y948815D01*
X513589Y949450D01*
X512954D01*
X512319Y948815D01*
Y946911D01*
X512954Y950720D02*
X512319Y951354D01*
Y952624D01*
X512954Y953259D01*
X513589D01*
X514224Y952624D01*
X514858Y953259D01*
X515493D01*
X516128Y952624D01*
Y951354D01*
X515493Y950720D01*
X514858D01*
X514224Y951354D01*
X513589Y950720D01*
X512954D01*
X514224Y951354D02*
Y952624D01*
X538734Y925830D02*
X534925D01*
Y927734D01*
X535560Y928369D01*
X536830D01*
X537464Y927734D01*
Y925830D01*
X534925Y929639D02*
X538734D01*
Y931543D01*
X538099Y932178D01*
X537464D01*
X536830Y931543D01*
Y929639D01*
Y931543D01*
X536195Y932178D01*
X535560D01*
X534925Y931543D01*
Y929639D01*
Y933448D02*
Y935987D01*
X535560D01*
X538099Y933448D01*
X538734D01*
X538480Y940054D02*
X534671D01*
Y941958D01*
X535306Y942593D01*
X536576D01*
X537210Y941958D01*
Y940054D01*
X534671Y943863D02*
X538480D01*
Y945767D01*
X537845Y946402D01*
X537210D01*
X536576Y945767D01*
Y943863D01*
Y945767D01*
X535941Y946402D01*
X535306D01*
X534671Y945767D01*
Y943863D01*
Y950211D02*
X535306Y948941D01*
X536576Y947672D01*
X537845D01*
X538480Y948306D01*
Y949576D01*
X537845Y950211D01*
X537210D01*
X536576Y949576D01*
Y947672D01*
X566420Y925576D02*
X562611D01*
Y927480D01*
X563246Y928115D01*
X564516D01*
X565150Y927480D01*
Y925576D01*
X562611Y929385D02*
X566420D01*
Y931289D01*
X565785Y931924D01*
X565150D01*
X564516Y931289D01*
Y929385D01*
Y931289D01*
X563881Y931924D01*
X563246D01*
X562611Y931289D01*
Y929385D01*
Y935733D02*
Y933194D01*
X564516D01*
X563881Y934463D01*
Y935098D01*
X564516Y935733D01*
X565785D01*
X566420Y935098D01*
Y933828D01*
X565785Y933194D01*
X566674Y939038D02*
X562865D01*
Y940942D01*
X563500Y941577D01*
X564770D01*
X565404Y940942D01*
Y939038D01*
X562865Y942847D02*
X566674D01*
Y944751D01*
X566039Y945386D01*
X565404D01*
X564770Y944751D01*
Y942847D01*
Y944751D01*
X564135Y945386D01*
X563500D01*
X562865Y944751D01*
Y942847D01*
X566674Y948560D02*
X562865D01*
X564770Y946656D01*
Y949195D01*
X643382Y939546D02*
X639573D01*
Y941450D01*
X640208Y942085D01*
X641478D01*
X642112Y941450D01*
Y939546D01*
X639573Y943355D02*
X643382D01*
Y945259D01*
X642747Y945894D01*
X640208D01*
X639573Y945259D01*
Y943355D01*
X640208Y947164D02*
X639573Y947798D01*
Y949068D01*
X640208Y949703D01*
X640843D01*
X641478Y949068D01*
Y948433D01*
Y949068D01*
X642112Y949703D01*
X642747D01*
X643382Y949068D01*
Y947798D01*
X642747Y947164D01*
X643128Y926084D02*
X639319D01*
Y927988D01*
X639954Y928623D01*
X641224D01*
X641858Y927988D01*
Y926084D01*
X639319Y929893D02*
X643128D01*
Y931797D01*
X642493Y932432D01*
X639954D01*
X639319Y931797D01*
Y929893D01*
X643128Y936241D02*
Y933702D01*
X640589Y936241D01*
X639954D01*
X639319Y935606D01*
Y934336D01*
X639954Y933702D01*
X615188Y940562D02*
X611379D01*
Y942466D01*
X612014Y943101D01*
X613284D01*
X613918Y942466D01*
Y940562D01*
X611379Y944371D02*
X615188D01*
Y946275D01*
X614553Y946910D01*
X612014D01*
X611379Y946275D01*
Y944371D01*
Y950719D02*
Y948180D01*
X613284D01*
X612649Y949449D01*
Y950084D01*
X613284Y950719D01*
X614553D01*
X615188Y950084D01*
Y948814D01*
X614553Y948180D01*
X615442Y926338D02*
X611633D01*
Y928242D01*
X612268Y928877D01*
X613538D01*
X614172Y928242D01*
Y926338D01*
X611633Y930147D02*
X615442D01*
Y932051D01*
X614807Y932686D01*
X612268D01*
X611633Y932051D01*
Y930147D01*
Y936495D02*
X612268Y935225D01*
X613538Y933956D01*
X614807D01*
X615442Y934590D01*
Y935860D01*
X614807Y936495D01*
X614172D01*
X613538Y935860D01*
Y933956D01*
X591820Y940054D02*
X588011D01*
Y941958D01*
X588646Y942593D01*
X589916D01*
X590550Y941958D01*
Y940054D01*
X588011Y943863D02*
X591820D01*
Y945767D01*
X591185Y946402D01*
X588646D01*
X588011Y945767D01*
Y943863D01*
Y947672D02*
Y950211D01*
X588646D01*
X591185Y947672D01*
X591820D01*
Y925576D02*
X588011D01*
Y927480D01*
X588646Y928115D01*
X589916D01*
X590550Y927480D01*
Y925576D01*
X588011Y929385D02*
X591820D01*
Y931289D01*
X591185Y931924D01*
X590550D01*
X589916Y931289D01*
Y929385D01*
Y931289D01*
X589281Y931924D01*
X588646D01*
X588011Y931289D01*
Y929385D01*
X588646Y933194D02*
X588011Y933828D01*
Y935098D01*
X588646Y935733D01*
X589281D01*
X589916Y935098D01*
Y934463D01*
Y935098D01*
X590550Y935733D01*
X591185D01*
X591820Y935098D01*
Y933828D01*
X591185Y933194D01*
X716026Y941832D02*
X712217D01*
Y943736D01*
X712852Y944371D01*
X714122D01*
X714756Y943736D01*
Y941832D01*
X712852Y948180D02*
X712217Y947545D01*
Y946276D01*
X712852Y945641D01*
X715391D01*
X716026Y946276D01*
Y947545D01*
X715391Y948180D01*
X716026Y949450D02*
Y950719D01*
Y950084D01*
X712217D01*
X712852Y949450D01*
Y952624D02*
X712217Y953258D01*
Y954528D01*
X712852Y955163D01*
X715391D01*
X716026Y954528D01*
Y953258D01*
X715391Y952624D01*
X712852D01*
X715264Y926338D02*
X711455D01*
Y928242D01*
X712090Y928877D01*
X713360D01*
X713994Y928242D01*
Y926338D01*
X712090Y932686D02*
X711455Y932051D01*
Y930782D01*
X712090Y930147D01*
X714629D01*
X715264Y930782D01*
Y932051D01*
X714629Y932686D01*
X715264Y933956D02*
Y935225D01*
Y934590D01*
X711455D01*
X712090Y933956D01*
X715264Y937130D02*
Y938399D01*
Y937764D01*
X711455D01*
X712090Y937130D01*
X685546Y940308D02*
X681737D01*
Y942212D01*
X682372Y942847D01*
X683642D01*
X684276Y942212D01*
Y940308D01*
X682372Y946656D02*
X681737Y946021D01*
Y944752D01*
X682372Y944117D01*
X684911D01*
X685546Y944752D01*
Y946021D01*
X684911Y946656D01*
X685546Y947926D02*
Y949195D01*
Y948560D01*
X681737D01*
X682372Y947926D01*
X685546Y953639D02*
Y951099D01*
X683007Y953639D01*
X682372D01*
X681737Y953004D01*
Y951734D01*
X682372Y951099D01*
X690880Y926592D02*
X687071D01*
Y928496D01*
X687706Y929131D01*
X688976D01*
X689610Y928496D01*
Y926592D01*
X687071Y930401D02*
X690880D01*
Y932305D01*
X690245Y932940D01*
X687706D01*
X687071Y932305D01*
Y930401D01*
X687706Y934210D02*
X687071Y934844D01*
Y936114D01*
X687706Y936749D01*
X690245D01*
X690880Y936114D01*
Y934844D01*
X690245Y934210D01*
X687706D01*
X663194Y939800D02*
X659385D01*
Y941704D01*
X660020Y942339D01*
X661290D01*
X661924Y941704D01*
Y939800D01*
X659385Y943609D02*
X663194D01*
Y945513D01*
X662559Y946148D01*
X660020D01*
X659385Y945513D01*
Y943609D01*
X663194Y947418D02*
Y948687D01*
Y948052D01*
X659385D01*
X660020Y947418D01*
X667258Y925830D02*
X663449D01*
Y927734D01*
X664084Y928369D01*
X665354D01*
X665988Y927734D01*
Y925830D01*
X663449Y929639D02*
X667258D01*
Y931543D01*
X666623Y932178D01*
X664084D01*
X663449Y931543D01*
Y929639D01*
X667258Y935987D02*
Y933448D01*
X664719Y935987D01*
X664084D01*
X663449Y935352D01*
Y934082D01*
X664084Y933448D01*
X794258Y940562D02*
X790449D01*
Y942466D01*
X791084Y943101D01*
X792354D01*
X792988Y942466D01*
Y940562D01*
X794258Y944371D02*
X791719D01*
X790449Y945640D01*
X791719Y946910D01*
X794258D01*
X792354D01*
Y944371D01*
X794258Y948180D02*
Y949449D01*
Y948814D01*
X790449D01*
X791084Y948180D01*
X794258Y951354D02*
Y952623D01*
Y951988D01*
X790449D01*
X791084Y951354D01*
X793496Y925576D02*
X789687D01*
Y927480D01*
X790322Y928115D01*
X791592D01*
X792226Y927480D01*
Y925576D01*
X793496Y929385D02*
X790957D01*
X789687Y930654D01*
X790957Y931924D01*
X793496D01*
X791592D01*
Y929385D01*
X793496Y933194D02*
Y934463D01*
Y933828D01*
X789687D01*
X790322Y933194D01*
Y936367D02*
X789687Y937002D01*
Y938272D01*
X790322Y938907D01*
X792861D01*
X793496Y938272D01*
Y937002D01*
X792861Y936367D01*
X790322D01*
X766064Y941070D02*
X762255D01*
Y942974D01*
X762890Y943609D01*
X764160D01*
X764794Y942974D01*
Y941070D01*
X766064Y944879D02*
X763525D01*
X762255Y946148D01*
X763525Y947418D01*
X766064D01*
X764160D01*
Y944879D01*
X766064Y948688D02*
Y949957D01*
Y949322D01*
X762255D01*
X762890Y948688D01*
Y951861D02*
X762255Y952496D01*
Y953766D01*
X762890Y954401D01*
X763525D01*
X764160Y953766D01*
Y953131D01*
Y953766D01*
X764794Y954401D01*
X765429D01*
X766064Y953766D01*
Y952496D01*
X765429Y951861D01*
X765810Y925830D02*
X762001D01*
Y927734D01*
X762636Y928369D01*
X763906D01*
X764540Y927734D01*
Y925830D01*
X765810Y929639D02*
X763271D01*
X762001Y930908D01*
X763271Y932178D01*
X765810D01*
X763906D01*
Y929639D01*
X765810Y933448D02*
Y934717D01*
Y934082D01*
X762001D01*
X762636Y933448D01*
X765810Y939161D02*
Y936621D01*
X763271Y939161D01*
X762636D01*
X762001Y938526D01*
Y937256D01*
X762636Y936621D01*
X742188Y939546D02*
X738379D01*
Y941450D01*
X739014Y942085D01*
X740284D01*
X740918Y941450D01*
Y939546D01*
X742188Y943355D02*
X739649D01*
X738379Y944624D01*
X739649Y945894D01*
X742188D01*
X740284D01*
Y943355D01*
X742188Y947164D02*
Y948433D01*
Y947798D01*
X738379D01*
X739014Y947164D01*
X738379Y952877D02*
Y950338D01*
X740284D01*
X739649Y951607D01*
Y952242D01*
X740284Y952877D01*
X741553D01*
X742188Y952242D01*
Y950972D01*
X741553Y950338D01*
X742188Y925068D02*
X738379D01*
Y926972D01*
X739014Y927607D01*
X740284D01*
X740918Y926972D01*
Y925068D01*
X742188Y928877D02*
X739649D01*
X738379Y930146D01*
X739649Y931416D01*
X742188D01*
X740284D01*
Y928877D01*
X742188Y932686D02*
Y933955D01*
Y933320D01*
X738379D01*
X739014Y932686D01*
X742188Y937764D02*
X738379D01*
X740284Y935860D01*
Y938399D01*
X871474Y939038D02*
X867665D01*
Y940942D01*
X868300Y941577D01*
X869570D01*
X870204Y940942D01*
Y939038D01*
X868300Y945386D02*
X867665Y944751D01*
Y943482D01*
X868300Y942847D01*
X870839D01*
X871474Y943482D01*
Y944751D01*
X870839Y945386D01*
X867665Y946656D02*
Y949195D01*
X868300D01*
X870839Y946656D01*
X871474D01*
X871220Y925576D02*
X867411D01*
Y927480D01*
X868046Y928115D01*
X869316D01*
X869950Y927480D01*
Y925576D01*
X868046Y931924D02*
X867411Y931289D01*
Y930020D01*
X868046Y929385D01*
X870585D01*
X871220Y930020D01*
Y931289D01*
X870585Y931924D01*
X867411Y935733D02*
X868046Y934463D01*
X869316Y933194D01*
X870585D01*
X871220Y933828D01*
Y935098D01*
X870585Y935733D01*
X869950D01*
X869316Y935098D01*
Y933194D01*
X843280Y940054D02*
X839471D01*
Y941958D01*
X840106Y942593D01*
X841376D01*
X842010Y941958D01*
Y940054D01*
X840106Y946402D02*
X839471Y945767D01*
Y944498D01*
X840106Y943863D01*
X842645D01*
X843280Y944498D01*
Y945767D01*
X842645Y946402D01*
Y947672D02*
X843280Y948306D01*
Y949576D01*
X842645Y950211D01*
X840106D01*
X839471Y949576D01*
Y948306D01*
X840106Y947672D01*
X840741D01*
X841376Y948306D01*
Y950211D01*
X843534Y925830D02*
X839725D01*
Y927734D01*
X840360Y928369D01*
X841630D01*
X842264Y927734D01*
Y925830D01*
X840360Y932178D02*
X839725Y931543D01*
Y930274D01*
X840360Y929639D01*
X842899D01*
X843534Y930274D01*
Y931543D01*
X842899Y932178D01*
X840360Y933448D02*
X839725Y934082D01*
Y935352D01*
X840360Y935987D01*
X840995D01*
X841630Y935352D01*
X842264Y935987D01*
X842899D01*
X843534Y935352D01*
Y934082D01*
X842899Y933448D01*
X842264D01*
X841630Y934082D01*
X840995Y933448D01*
X840360D01*
X841630Y934082D02*
Y935352D01*
X819912Y939546D02*
X816103D01*
Y941450D01*
X816738Y942085D01*
X818008D01*
X818642Y941450D01*
Y939546D01*
X819912Y943355D02*
X817373D01*
X816103Y944624D01*
X817373Y945894D01*
X819912D01*
X818008D01*
Y943355D01*
X819277Y947164D02*
X819912Y947798D01*
Y949068D01*
X819277Y949703D01*
X816738D01*
X816103Y949068D01*
Y947798D01*
X816738Y947164D01*
X817373D01*
X818008Y947798D01*
Y949703D01*
X819912Y925068D02*
X816103D01*
Y926972D01*
X816738Y927607D01*
X818008D01*
X818642Y926972D01*
Y925068D01*
X819912Y928877D02*
X817373D01*
X816103Y930146D01*
X817373Y931416D01*
X819912D01*
X818008D01*
Y928877D01*
X816738Y932686D02*
X816103Y933320D01*
Y934590D01*
X816738Y935225D01*
X817373D01*
X818008Y934590D01*
X818642Y935225D01*
X819277D01*
X819912Y934590D01*
Y933320D01*
X819277Y932686D01*
X818642D01*
X818008Y933320D01*
X817373Y932686D01*
X816738D01*
X818008Y933320D02*
Y934590D01*
X947928Y940816D02*
X944119D01*
Y942720D01*
X944754Y943355D01*
X946024D01*
X946658Y942720D01*
Y940816D01*
X944119Y944625D02*
X947928D01*
Y946529D01*
X947293Y947164D01*
X944754D01*
X944119Y946529D01*
Y944625D01*
X947928Y948434D02*
Y949703D01*
Y949068D01*
X944119D01*
X944754Y948434D01*
X947928Y951608D02*
Y952877D01*
Y952242D01*
X944119D01*
X944754Y951608D01*
X947928Y925068D02*
X944119D01*
Y926972D01*
X944754Y927607D01*
X946024D01*
X946658Y926972D01*
Y925068D01*
X944119Y928877D02*
X947928D01*
Y930781D01*
X947293Y931416D01*
X944754D01*
X944119Y930781D01*
Y928877D01*
X947928Y932686D02*
Y933955D01*
Y933320D01*
X944119D01*
X944754Y932686D01*
Y935860D02*
X944119Y936494D01*
Y937764D01*
X944754Y938399D01*
X947293D01*
X947928Y937764D01*
Y936494D01*
X947293Y935860D01*
X944754D01*
X919734Y941832D02*
X915925D01*
Y943736D01*
X916560Y944371D01*
X917830D01*
X918464Y943736D01*
Y941832D01*
X915925Y945641D02*
X919734D01*
Y947545D01*
X919099Y948180D01*
X916560D01*
X915925Y947545D01*
Y945641D01*
X919734Y949450D02*
Y950719D01*
Y950084D01*
X915925D01*
X916560Y949450D01*
Y952624D02*
X915925Y953258D01*
Y954528D01*
X916560Y955163D01*
X917195D01*
X917830Y954528D01*
Y953893D01*
Y954528D01*
X918464Y955163D01*
X919099D01*
X919734Y954528D01*
Y953258D01*
X919099Y952624D01*
X920242Y925322D02*
X916433D01*
Y927226D01*
X917068Y927861D01*
X918338D01*
X918972Y927226D01*
Y925322D01*
X916433Y929131D02*
X920242D01*
Y931035D01*
X919607Y931670D01*
X917068D01*
X916433Y931035D01*
Y929131D01*
X920242Y932940D02*
Y934209D01*
Y933574D01*
X916433D01*
X917068Y932940D01*
X920242Y938653D02*
Y936114D01*
X917703Y938653D01*
X917068D01*
X916433Y938018D01*
Y936748D01*
X917068Y936114D01*
X896620Y941324D02*
X892811D01*
Y943228D01*
X893446Y943863D01*
X894716D01*
X895350Y943228D01*
Y941324D01*
X892811Y945133D02*
X896620D01*
Y947037D01*
X895985Y947672D01*
X893446D01*
X892811Y947037D01*
Y945133D01*
X896620Y948942D02*
Y950211D01*
Y949576D01*
X892811D01*
X893446Y948942D01*
X892811Y954655D02*
Y952115D01*
X894716D01*
X894081Y953385D01*
Y954020D01*
X894716Y954655D01*
X895985D01*
X896620Y954020D01*
Y952750D01*
X895985Y952115D01*
X896620Y925576D02*
X892811D01*
Y927480D01*
X893446Y928115D01*
X894716D01*
X895350Y927480D01*
Y925576D01*
X892811Y929385D02*
X896620D01*
Y931289D01*
X895985Y931924D01*
X893446D01*
X892811Y931289D01*
Y929385D01*
X896620Y933194D02*
Y934463D01*
Y933828D01*
X892811D01*
X893446Y933194D01*
X896620Y938272D02*
X892811D01*
X894716Y936367D01*
Y938907D01*
X1048513Y931417D02*
Y928878D01*
X1050418D01*
X1049783Y930148D01*
Y930782D01*
X1050418Y931417D01*
X1051687D01*
X1052322Y930782D01*
Y929513D01*
X1051687Y928878D01*
X1048513Y932687D02*
X1051052D01*
X1052322Y933956D01*
X1051052Y935226D01*
X1048513D01*
X1027304Y965707D02*
X1026669Y965072D01*
Y963803D01*
X1027304Y963168D01*
X1029843D01*
X1030478Y963803D01*
Y965072D01*
X1029843Y965707D01*
X1028574D01*
Y964438D01*
X1030478Y966977D02*
X1026669D01*
X1030478Y969516D01*
X1026669D01*
Y970786D02*
X1030478D01*
Y972690D01*
X1029843Y973325D01*
X1027304D01*
X1026669Y972690D01*
Y970786D01*
X991362Y940308D02*
X987553D01*
Y942212D01*
X988188Y942847D01*
X989458D01*
X990092Y942212D01*
Y940308D01*
X987553Y944117D02*
X991362D01*
Y946021D01*
X990727Y946656D01*
X990092D01*
X989458Y946021D01*
Y944117D01*
Y946021D01*
X988823Y946656D01*
X988188D01*
X987553Y946021D01*
Y944117D01*
X991362Y947926D02*
Y949195D01*
Y948560D01*
X987553D01*
X988188Y947926D01*
X987553Y953639D02*
Y951099D01*
X989458D01*
X988823Y952369D01*
Y953004D01*
X989458Y953639D01*
X990727D01*
X991362Y953004D01*
Y951734D01*
X990727Y951099D01*
X992633Y924814D02*
X995172D01*
X996442Y926084D01*
X995172Y927353D01*
X992633D01*
Y928623D02*
X996442D01*
Y930527D01*
X995807Y931162D01*
X995172D01*
X994538Y930527D01*
Y928623D01*
Y930527D01*
X993903Y931162D01*
X993268D01*
X992633Y930527D01*
Y928623D01*
X996442Y932432D02*
X993903D01*
X992633Y933701D01*
X993903Y934971D01*
X996442D01*
X994538D01*
Y932432D01*
X992633Y936240D02*
Y938780D01*
Y937510D01*
X996442D01*
X973001Y940054D02*
X969192D01*
Y941958D01*
X969827Y942593D01*
X971097D01*
X971732Y941958D01*
Y940054D01*
X969192Y943863D02*
X973001D01*
Y945767D01*
X972366Y946402D01*
X969827D01*
X969192Y945767D01*
Y943863D01*
X972366Y947672D02*
X973001Y948306D01*
Y949576D01*
X972366Y950211D01*
X969827D01*
X969192Y949576D01*
Y948306D01*
X969827Y947672D01*
X970462D01*
X971097Y948306D01*
Y950211D01*
X973001Y925576D02*
X969192D01*
Y927480D01*
X969827Y928115D01*
X971097D01*
X971732Y927480D01*
Y925576D01*
X969192Y929385D02*
X973001D01*
Y931289D01*
X972366Y931924D01*
X969827D01*
X969192Y931289D01*
Y929385D01*
X969827Y933194D02*
X969192Y933828D01*
Y935098D01*
X969827Y935733D01*
X970462D01*
X971097Y935098D01*
X971732Y935733D01*
X972366D01*
X973001Y935098D01*
Y933828D01*
X972366Y933194D01*
X971732D01*
X971097Y933828D01*
X970462Y933194D01*
X969827D01*
X971097Y933828D02*
Y935098D01*
X1032002Y989330D02*
X1028193D01*
Y991234D01*
X1028828Y991869D01*
X1030098D01*
X1030732Y991234D01*
Y989330D01*
X1028193Y995678D02*
Y993139D01*
X1032002D01*
Y995678D01*
X1030098Y993139D02*
Y994408D01*
X1028828Y996948D02*
X1028193Y997582D01*
Y998852D01*
X1028828Y999487D01*
X1031367D01*
X1032002Y998852D01*
Y997582D01*
X1031367Y996948D01*
X1028828D01*
X1045972Y925576D02*
X1042163D01*
Y927480D01*
X1042798Y928115D01*
X1044068D01*
X1044702Y927480D01*
Y925576D01*
X1042163Y931924D02*
Y929385D01*
X1045972D01*
Y931924D01*
X1044068Y929385D02*
Y930654D01*
X1042798Y933194D02*
X1042163Y933828D01*
Y935098D01*
X1042798Y935733D01*
X1045337D01*
X1045972Y935098D01*
Y933828D01*
X1045337Y933194D01*
X1042798D01*
X1040004Y636777D02*
X1039369Y636142D01*
Y634873D01*
X1040004Y634238D01*
X1042543D01*
X1043178Y634873D01*
Y636142D01*
X1042543Y636777D01*
X1041274D01*
Y635508D01*
X1043178Y638047D02*
X1039369D01*
X1043178Y640586D01*
X1039369D01*
Y641856D02*
X1043178D01*
Y643760D01*
X1042543Y644395D01*
X1040004D01*
X1039369Y643760D01*
Y641856D01*
Y651255D02*
Y648716D01*
X1041274D01*
X1040639Y649986D01*
Y650620D01*
X1041274Y651255D01*
X1042543D01*
X1043178Y650620D01*
Y649351D01*
X1042543Y648716D01*
X1039369Y652525D02*
X1041908D01*
X1043178Y653794D01*
X1041908Y655064D01*
X1039369D01*
X964692Y632714D02*
X960883D01*
Y634618D01*
X961518Y635253D01*
X962788D01*
X963422Y634618D01*
Y632714D01*
X960883Y636523D02*
X964692D01*
Y638427D01*
X964057Y639062D01*
X963422D01*
X962788Y638427D01*
Y636523D01*
Y638427D01*
X962153Y639062D01*
X961518D01*
X960883Y638427D01*
Y636523D01*
X964692Y640332D02*
Y641601D01*
Y640966D01*
X960883D01*
X961518Y640332D01*
X964692Y646045D02*
Y643505D01*
X962153Y646045D01*
X961518D01*
X960883Y645410D01*
Y644140D01*
X961518Y643505D01*
X959358Y645668D02*
X955549D01*
Y647572D01*
X956184Y648207D01*
X957454D01*
X958088Y647572D01*
Y645668D01*
X955549Y649477D02*
X959358D01*
Y651381D01*
X958723Y652016D01*
X958088D01*
X957454Y651381D01*
Y649477D01*
Y651381D01*
X956819Y652016D01*
X956184D01*
X955549Y651381D01*
Y649477D01*
X959358Y653286D02*
Y654555D01*
Y653920D01*
X955549D01*
X956184Y653286D01*
Y656460D02*
X955549Y657094D01*
Y658364D01*
X956184Y658999D01*
X956819D01*
X957454Y658364D01*
Y657729D01*
Y658364D01*
X958088Y658999D01*
X958723D01*
X959358Y658364D01*
Y657094D01*
X958723Y656460D01*
X1007110Y584962D02*
X1003301D01*
Y586866D01*
X1003936Y587501D01*
X1005206D01*
X1005840Y586866D01*
Y584962D01*
X1003301Y588771D02*
X1007110D01*
Y590675D01*
X1006475Y591310D01*
X1005840D01*
X1005206Y590675D01*
Y588771D01*
Y590675D01*
X1004571Y591310D01*
X1003936D01*
X1003301Y590675D01*
Y588771D01*
X1007110Y592580D02*
Y593849D01*
Y593214D01*
X1003301D01*
X1003936Y592580D01*
X1007110Y597658D02*
X1003301D01*
X1005206Y595754D01*
Y598293D01*
X1020319Y632460D02*
X1022858D01*
X1024128Y633730D01*
X1022858Y634999D01*
X1020319D01*
Y636269D02*
X1024128D01*
Y638173D01*
X1023493Y638808D01*
X1020954D01*
X1020319Y638173D01*
Y636269D01*
Y640078D02*
X1024128D01*
Y641982D01*
X1023493Y642617D01*
X1020954D01*
X1020319Y641982D01*
Y640078D01*
X1024128Y643886D02*
X1021589D01*
X1020319Y645156D01*
X1021589Y646425D01*
X1024128D01*
X1022224D01*
Y643886D01*
X1021970Y648716D02*
X1021335Y649351D01*
Y650620D01*
X1021970Y651255D01*
X1022605D01*
X1023240Y650620D01*
Y649986D01*
Y650620D01*
X1023874Y651255D01*
X1024509D01*
X1025144Y650620D01*
Y649351D01*
X1024509Y648716D01*
X1021335Y652525D02*
X1023874D01*
X1025144Y653794D01*
X1023874Y655064D01*
X1021335D01*
X1021970Y656334D02*
X1021335Y656968D01*
Y658238D01*
X1021970Y658873D01*
X1022605D01*
X1023240Y658238D01*
Y657603D01*
Y658238D01*
X1023874Y658873D01*
X1024509D01*
X1025144Y658238D01*
Y656968D01*
X1024509Y656334D01*
X893826Y633222D02*
X890017D01*
Y635126D01*
X890652Y635761D01*
X891922D01*
X892556Y635126D01*
Y633222D01*
X890017Y639570D02*
Y637031D01*
X893826D01*
Y639570D01*
X891922Y637031D02*
Y638300D01*
X893826Y640840D02*
Y642109D01*
Y641474D01*
X890017D01*
X890652Y640840D01*
X893826Y646553D02*
Y644014D01*
X891287Y646553D01*
X890652D01*
X890017Y645918D01*
Y644648D01*
X890652Y644014D01*
X893826Y647700D02*
X890017D01*
Y649604D01*
X890652Y650239D01*
X891922D01*
X892556Y649604D01*
Y647700D01*
X890017Y654048D02*
Y651509D01*
X893826D01*
Y654048D01*
X891922Y651509D02*
Y652778D01*
X893826Y655318D02*
Y656587D01*
Y655952D01*
X890017D01*
X890652Y655318D01*
Y658492D02*
X890017Y659126D01*
Y660396D01*
X890652Y661031D01*
X891287D01*
X891922Y660396D01*
Y659761D01*
Y660396D01*
X892556Y661031D01*
X893191D01*
X893826Y660396D01*
Y659126D01*
X893191Y658492D01*
X917448Y633984D02*
X913639D01*
Y635888D01*
X914274Y636523D01*
X915544D01*
X916178Y635888D01*
Y633984D01*
X913639Y640332D02*
Y637793D01*
X917448D01*
Y640332D01*
X915544Y637793D02*
Y639062D01*
X917448Y641602D02*
Y642871D01*
Y642236D01*
X913639D01*
X914274Y641602D01*
X917448Y646680D02*
X913639D01*
X915544Y644775D01*
Y647315D01*
X917194Y648208D02*
X913385D01*
Y650112D01*
X914020Y650747D01*
X915290D01*
X915924Y650112D01*
Y648208D01*
X913385Y654556D02*
Y652017D01*
X917194D01*
Y654556D01*
X915290Y652017D02*
Y653286D01*
X917194Y655826D02*
Y657095D01*
Y656460D01*
X913385D01*
X914020Y655826D01*
X913385Y661539D02*
Y658999D01*
X915290D01*
X914655Y660269D01*
Y660904D01*
X915290Y661539D01*
X916559D01*
X917194Y660904D01*
Y659634D01*
X916559Y658999D01*
X945896Y632714D02*
X942087D01*
Y634618D01*
X942722Y635253D01*
X943992D01*
X944626Y634618D01*
Y632714D01*
X942087Y636523D02*
X945896D01*
Y638427D01*
X945261Y639062D01*
X944626D01*
X943992Y638427D01*
Y636523D01*
Y638427D01*
X943357Y639062D01*
X942722D01*
X942087Y638427D01*
Y636523D01*
X945896Y640332D02*
Y641601D01*
Y640966D01*
X942087D01*
X942722Y640332D01*
Y643505D02*
X942087Y644140D01*
Y645410D01*
X942722Y646045D01*
X945261D01*
X945896Y645410D01*
Y644140D01*
X945261Y643505D01*
X942722D01*
X945388Y647192D02*
X941579D01*
Y649096D01*
X942214Y649731D01*
X943484D01*
X944118Y649096D01*
Y647192D01*
X941579Y651001D02*
X945388D01*
Y652905D01*
X944753Y653540D01*
X944118D01*
X943484Y652905D01*
Y651001D01*
Y652905D01*
X942849Y653540D01*
X942214D01*
X941579Y652905D01*
Y651001D01*
X945388Y654810D02*
Y656079D01*
Y655444D01*
X941579D01*
X942214Y654810D01*
X945388Y657983D02*
Y659253D01*
Y658618D01*
X941579D01*
X942214Y657983D01*
X817118Y633730D02*
X813309D01*
Y635634D01*
X813944Y636269D01*
X815214D01*
X815848Y635634D01*
Y633730D01*
X813309Y637539D02*
X817118D01*
Y639443D01*
X816483Y640078D01*
X815848D01*
X815214Y639443D01*
Y637539D01*
Y639443D01*
X814579Y640078D01*
X813944D01*
X813309Y639443D01*
Y637539D01*
X817118Y643887D02*
Y641348D01*
X814579Y643887D01*
X813944D01*
X813309Y643252D01*
Y641982D01*
X813944Y641348D01*
X817118Y648208D02*
X813309D01*
Y650112D01*
X813944Y650747D01*
X815214D01*
X815848Y650112D01*
Y648208D01*
X813309Y654556D02*
Y652017D01*
X817118D01*
Y654556D01*
X815214Y652017D02*
Y653286D01*
X813309Y655826D02*
Y658365D01*
X813944D01*
X816483Y655826D01*
X817118D01*
X840740Y634492D02*
X836931D01*
Y636396D01*
X837566Y637031D01*
X838836D01*
X839470Y636396D01*
Y634492D01*
X836931Y640840D02*
Y638301D01*
X840740D01*
Y640840D01*
X838836Y638301D02*
Y639570D01*
X837566Y642110D02*
X836931Y642744D01*
Y644014D01*
X837566Y644649D01*
X838201D01*
X838836Y644014D01*
X839470Y644649D01*
X840105D01*
X840740Y644014D01*
Y642744D01*
X840105Y642110D01*
X839470D01*
X838836Y642744D01*
X838201Y642110D01*
X837566D01*
X838836Y642744D02*
Y644014D01*
X840486Y648716D02*
X836677D01*
Y650620D01*
X837312Y651255D01*
X838582D01*
X839216Y650620D01*
Y648716D01*
X836677Y655064D02*
Y652525D01*
X840486D01*
Y655064D01*
X838582Y652525D02*
Y653794D01*
X839851Y656334D02*
X840486Y656968D01*
Y658238D01*
X839851Y658873D01*
X837312D01*
X836677Y658238D01*
Y656968D01*
X837312Y656334D01*
X837947D01*
X838582Y656968D01*
Y658873D01*
X868426Y634238D02*
X864617D01*
Y636142D01*
X865252Y636777D01*
X866522D01*
X867156Y636142D01*
Y634238D01*
X864617Y640586D02*
Y638047D01*
X868426D01*
Y640586D01*
X866522Y638047D02*
Y639316D01*
X868426Y641856D02*
Y643125D01*
Y642490D01*
X864617D01*
X865252Y641856D01*
Y645030D02*
X864617Y645664D01*
Y646934D01*
X865252Y647569D01*
X867791D01*
X868426Y646934D01*
Y645664D01*
X867791Y645030D01*
X865252D01*
X868680Y647700D02*
X864871D01*
Y649604D01*
X865506Y650239D01*
X866776D01*
X867410Y649604D01*
Y647700D01*
X864871Y654048D02*
Y651509D01*
X868680D01*
Y654048D01*
X866776Y651509D02*
Y652778D01*
X868680Y655318D02*
Y656587D01*
Y655952D01*
X864871D01*
X865506Y655318D01*
X868680Y658492D02*
Y659761D01*
Y659126D01*
X864871D01*
X865506Y658492D01*
X739394Y633730D02*
X735585D01*
Y635634D01*
X736220Y636269D01*
X737490D01*
X738124Y635634D01*
Y633730D01*
X739394Y637539D02*
X736855D01*
X735585Y638808D01*
X736855Y640078D01*
X739394D01*
X737490D01*
Y637539D01*
X735585Y641348D02*
Y643887D01*
X736220D01*
X738759Y641348D01*
X739394D01*
Y648208D02*
X735585D01*
Y650112D01*
X736220Y650747D01*
X737490D01*
X738124Y650112D01*
Y648208D01*
X739394Y652017D02*
X736855D01*
X735585Y653286D01*
X736855Y654556D01*
X739394D01*
X737490D01*
Y652017D01*
X735585Y658365D02*
X736220Y657095D01*
X737490Y655826D01*
X738759D01*
X739394Y656460D01*
Y657730D01*
X738759Y658365D01*
X738124D01*
X737490Y657730D01*
Y655826D01*
X763016Y634492D02*
X759207D01*
Y636396D01*
X759842Y637031D01*
X761112D01*
X761746Y636396D01*
Y634492D01*
X759842Y640840D02*
X759207Y640205D01*
Y638936D01*
X759842Y638301D01*
X762381D01*
X763016Y638936D01*
Y640205D01*
X762381Y640840D01*
X759207Y644649D02*
Y642110D01*
X761112D01*
X760477Y643379D01*
Y644014D01*
X761112Y644649D01*
X762381D01*
X763016Y644014D01*
Y642744D01*
X762381Y642110D01*
X762762Y648716D02*
X758953D01*
Y650620D01*
X759588Y651255D01*
X760858D01*
X761492Y650620D01*
Y648716D01*
X759588Y655064D02*
X758953Y654429D01*
Y653160D01*
X759588Y652525D01*
X762127D01*
X762762Y653160D01*
Y654429D01*
X762127Y655064D01*
X762762Y658238D02*
X758953D01*
X760858Y656334D01*
Y658873D01*
X790702Y634238D02*
X786893D01*
Y636142D01*
X787528Y636777D01*
X788798D01*
X789432Y636142D01*
Y634238D01*
X786893Y638047D02*
X790702D01*
Y639951D01*
X790067Y640586D01*
X789432D01*
X788798Y639951D01*
Y638047D01*
Y639951D01*
X788163Y640586D01*
X787528D01*
X786893Y639951D01*
Y638047D01*
X787528Y641856D02*
X786893Y642490D01*
Y643760D01*
X787528Y644395D01*
X790067D01*
X790702Y643760D01*
Y642490D01*
X790067Y641856D01*
X787528D01*
X790956Y647700D02*
X787147D01*
Y649604D01*
X787782Y650239D01*
X789052D01*
X789686Y649604D01*
Y647700D01*
X787147Y651509D02*
X790956D01*
Y653413D01*
X790321Y654048D01*
X789686D01*
X789052Y653413D01*
Y651509D01*
Y653413D01*
X788417Y654048D01*
X787782D01*
X787147Y653413D01*
Y651509D01*
X790956Y655318D02*
Y656587D01*
Y655952D01*
X787147D01*
X787782Y655318D01*
X664464Y634492D02*
X660655D01*
Y636396D01*
X661290Y637031D01*
X662560D01*
X663194Y636396D01*
Y634492D01*
X664464Y638301D02*
X661925D01*
X660655Y639570D01*
X661925Y640840D01*
X664464D01*
X662560D01*
Y638301D01*
X664464Y642110D02*
Y643379D01*
Y642744D01*
X660655D01*
X661290Y642110D01*
X664464Y648970D02*
X660655D01*
Y650874D01*
X661290Y651509D01*
X662560D01*
X663194Y650874D01*
Y648970D01*
X664464Y652779D02*
X661925D01*
X660655Y654048D01*
X661925Y655318D01*
X664464D01*
X662560D01*
Y652779D01*
X661290Y656588D02*
X660655Y657222D01*
Y658492D01*
X661290Y659127D01*
X663829D01*
X664464Y658492D01*
Y657222D01*
X663829Y656588D01*
X661290D01*
X688086Y635254D02*
X684277D01*
Y637158D01*
X684912Y637793D01*
X686182D01*
X686816Y637158D01*
Y635254D01*
X688086Y639063D02*
X685547D01*
X684277Y640332D01*
X685547Y641602D01*
X688086D01*
X686182D01*
Y639063D01*
X684912Y642872D02*
X684277Y643506D01*
Y644776D01*
X684912Y645411D01*
X685547D01*
X686182Y644776D01*
Y644141D01*
Y644776D01*
X686816Y645411D01*
X687451D01*
X688086Y644776D01*
Y643506D01*
X687451Y642872D01*
X687832Y649478D02*
X684023D01*
Y651382D01*
X684658Y652017D01*
X685928D01*
X686562Y651382D01*
Y649478D01*
X687832Y653287D02*
X685293D01*
X684023Y654556D01*
X685293Y655826D01*
X687832D01*
X685928D01*
Y653287D01*
X687832Y659635D02*
Y657096D01*
X685293Y659635D01*
X684658D01*
X684023Y659000D01*
Y657730D01*
X684658Y657096D01*
X715772Y635000D02*
X711963D01*
Y636904D01*
X712598Y637539D01*
X713868D01*
X714502Y636904D01*
Y635000D01*
X715772Y638809D02*
X713233D01*
X711963Y640078D01*
X713233Y641348D01*
X715772D01*
X713868D01*
Y638809D01*
X711963Y645157D02*
Y642618D01*
X713868D01*
X713233Y643887D01*
Y644522D01*
X713868Y645157D01*
X715137D01*
X715772Y644522D01*
Y643252D01*
X715137Y642618D01*
X716026Y648462D02*
X712217D01*
Y650366D01*
X712852Y651001D01*
X714122D01*
X714756Y650366D01*
Y648462D01*
X716026Y652271D02*
X713487D01*
X712217Y653540D01*
X713487Y654810D01*
X716026D01*
X714122D01*
Y652271D01*
X716026Y657984D02*
X712217D01*
X714122Y656080D01*
Y658619D01*
X589026Y634238D02*
X585217D01*
Y636142D01*
X585852Y636777D01*
X587122D01*
X587756Y636142D01*
Y634238D01*
X585852Y640586D02*
X585217Y639951D01*
Y638682D01*
X585852Y638047D01*
X588391D01*
X589026Y638682D01*
Y639951D01*
X588391Y640586D01*
X589026Y641856D02*
Y643125D01*
Y642490D01*
X585217D01*
X585852Y641856D01*
Y645030D02*
X585217Y645664D01*
Y646934D01*
X585852Y647569D01*
X586487D01*
X587122Y646934D01*
Y646299D01*
Y646934D01*
X587756Y647569D01*
X588391D01*
X589026Y646934D01*
Y645664D01*
X588391Y645030D01*
X589026Y648716D02*
X585217D01*
Y650620D01*
X585852Y651255D01*
X587122D01*
X587756Y650620D01*
Y648716D01*
X585217Y655064D02*
Y652525D01*
X589026D01*
Y655064D01*
X587122Y652525D02*
Y653794D01*
X585217Y658873D02*
X585852Y657603D01*
X587122Y656334D01*
X588391D01*
X589026Y656968D01*
Y658238D01*
X588391Y658873D01*
X587756D01*
X587122Y658238D01*
Y656334D01*
X612648Y635000D02*
X608839D01*
Y636904D01*
X609474Y637539D01*
X610744D01*
X611378Y636904D01*
Y635000D01*
X609474Y641348D02*
X608839Y640713D01*
Y639444D01*
X609474Y638809D01*
X612013D01*
X612648Y639444D01*
Y640713D01*
X612013Y641348D01*
X612648Y642618D02*
Y643887D01*
Y643252D01*
X608839D01*
X609474Y642618D01*
X612394Y649224D02*
X608585D01*
Y651128D01*
X609220Y651763D01*
X610490D01*
X611124Y651128D01*
Y649224D01*
X609220Y655572D02*
X608585Y654937D01*
Y653668D01*
X609220Y653033D01*
X611759D01*
X612394Y653668D01*
Y654937D01*
X611759Y655572D01*
X609220Y656842D02*
X608585Y657476D01*
Y658746D01*
X609220Y659381D01*
X611759D01*
X612394Y658746D01*
Y657476D01*
X611759Y656842D01*
X609220D01*
X640334Y634746D02*
X636525D01*
Y636650D01*
X637160Y637285D01*
X638430D01*
X639064Y636650D01*
Y634746D01*
X637160Y641094D02*
X636525Y640459D01*
Y639190D01*
X637160Y638555D01*
X639699D01*
X640334Y639190D01*
Y640459D01*
X639699Y641094D01*
X637160Y642364D02*
X636525Y642998D01*
Y644268D01*
X637160Y644903D01*
X637795D01*
X638430Y644268D01*
Y643633D01*
Y644268D01*
X639064Y644903D01*
X639699D01*
X640334Y644268D01*
Y642998D01*
X639699Y642364D01*
X640588Y648208D02*
X636779D01*
Y650112D01*
X637414Y650747D01*
X638684D01*
X639318Y650112D01*
Y648208D01*
X637414Y654556D02*
X636779Y653921D01*
Y652652D01*
X637414Y652017D01*
X639953D01*
X640588Y652652D01*
Y653921D01*
X639953Y654556D01*
X640588Y658365D02*
Y655826D01*
X638049Y658365D01*
X637414D01*
X636779Y657730D01*
Y656460D01*
X637414Y655826D01*
X563880Y647700D02*
X560071D01*
Y649604D01*
X560706Y650239D01*
X561976D01*
X562610Y649604D01*
Y647700D01*
X560071Y654048D02*
Y651509D01*
X563880D01*
Y654048D01*
X561976Y651509D02*
Y652778D01*
X563880Y657222D02*
X560071D01*
X561976Y655318D01*
Y657857D01*
X563626Y634238D02*
X559817D01*
Y636142D01*
X560452Y636777D01*
X561722D01*
X562356Y636142D01*
Y634238D01*
X559817Y640586D02*
Y638047D01*
X563626D01*
Y640586D01*
X561722Y638047D02*
Y639316D01*
X559817Y644395D02*
Y641856D01*
X561722D01*
X561087Y643125D01*
Y643760D01*
X561722Y644395D01*
X562991D01*
X563626Y643760D01*
Y642490D01*
X562991Y641856D01*
X535686Y648716D02*
X531877D01*
Y650620D01*
X532512Y651255D01*
X533782D01*
X534416Y650620D01*
Y648716D01*
X531877Y655064D02*
Y652525D01*
X535686D01*
Y655064D01*
X533782Y652525D02*
Y653794D01*
X535686Y658873D02*
Y656334D01*
X533147Y658873D01*
X532512D01*
X531877Y658238D01*
Y656968D01*
X532512Y656334D01*
X535940Y634492D02*
X532131D01*
Y636396D01*
X532766Y637031D01*
X534036D01*
X534670Y636396D01*
Y634492D01*
X532131Y640840D02*
Y638301D01*
X535940D01*
Y640840D01*
X534036Y638301D02*
Y639570D01*
X532766Y642110D02*
X532131Y642744D01*
Y644014D01*
X532766Y644649D01*
X533401D01*
X534036Y644014D01*
Y643379D01*
Y644014D01*
X534670Y644649D01*
X535305D01*
X535940Y644014D01*
Y642744D01*
X535305Y642110D01*
X512318Y648208D02*
X508509D01*
Y650112D01*
X509144Y650747D01*
X510414D01*
X511048Y650112D01*
Y648208D01*
X508509Y654556D02*
Y652017D01*
X512318D01*
Y654556D01*
X510414Y652017D02*
Y653286D01*
X509144Y655826D02*
X508509Y656460D01*
Y657730D01*
X509144Y658365D01*
X511683D01*
X512318Y657730D01*
Y656460D01*
X511683Y655826D01*
X509144D01*
X512318Y633730D02*
X508509D01*
Y635634D01*
X509144Y636269D01*
X510414D01*
X511048Y635634D01*
Y633730D01*
X508509Y640078D02*
Y637539D01*
X512318D01*
Y640078D01*
X510414Y637539D02*
Y638808D01*
X512318Y641348D02*
Y642617D01*
Y641982D01*
X508509D01*
X509144Y641348D01*
D20*
X710946Y806449D02*
Y804333D01*
X711369Y803910D01*
X712216D01*
X712639Y804333D01*
Y806449D01*
X713485Y803910D02*
X714332D01*
X713908D01*
Y806449D01*
X713485Y806026D01*
X956818Y787399D02*
Y785283D01*
X957241Y784860D01*
X958088D01*
X958511Y785283D01*
Y787399D01*
X959357Y786976D02*
X959780Y787399D01*
X960627D01*
X961050Y786976D01*
Y786553D01*
X960627Y786130D01*
X960204D01*
X960627D01*
X961050Y785706D01*
Y785283D01*
X960627Y784860D01*
X959780D01*
X959357Y785283D01*
X958511Y833119D02*
X956818D01*
Y830580D01*
X958511D01*
X956818Y831850D02*
X957664D01*
X961050Y830580D02*
X959357D01*
X961050Y832273D01*
Y832696D01*
X960627Y833119D01*
X959780D01*
X959357Y832696D01*
X960289Y740155D02*
X958596D01*
Y737616D01*
X960289D01*
X958596Y738886D02*
X959442D01*
X961135Y737616D02*
X961982D01*
X961558D01*
Y740155D01*
X961135Y739732D01*
X958765Y816186D02*
X958342Y816609D01*
X957495D01*
X957072Y816186D01*
Y814493D01*
X957495Y814070D01*
X958342D01*
X958765Y814493D01*
X959611Y814070D02*
X960458D01*
X960034D01*
Y816609D01*
X959611Y816186D01*
X963420Y816609D02*
X962574Y816186D01*
X961727Y815340D01*
Y814493D01*
X962150Y814070D01*
X962997D01*
X963420Y814493D01*
Y814916D01*
X962997Y815340D01*
X961727D01*
X955209Y756750D02*
X954786Y757173D01*
X953939D01*
X953516Y756750D01*
Y755057D01*
X953939Y754634D01*
X954786D01*
X955209Y755057D01*
X956055Y754634D02*
X956902D01*
X956478D01*
Y757173D01*
X956055Y756750D01*
X959864Y757173D02*
X958171D01*
Y755904D01*
X959018Y756327D01*
X959441D01*
X959864Y755904D01*
Y755057D01*
X959441Y754634D01*
X958594D01*
X958171Y755057D01*
X604774Y714501D02*
Y714078D01*
X605620Y713232D01*
X606467Y714078D01*
Y714501D01*
X605620Y713232D02*
Y711962D01*
X609006D02*
X607313D01*
X609006Y713655D01*
Y714078D01*
X608583Y714501D01*
X607736D01*
X607313Y714078D01*
X627888Y672337D02*
Y671914D01*
X628734Y671068D01*
X629581Y671914D01*
Y672337D01*
X628734Y671068D02*
Y669798D01*
X630427D02*
X631274D01*
X630850D01*
Y672337D01*
X630427Y671914D01*
X1020064Y721867D02*
Y719751D01*
X1020487Y719328D01*
X1021334D01*
X1021757Y719751D01*
Y721867D01*
X1024296Y721444D02*
X1023873Y721867D01*
X1023026D01*
X1022603Y721444D01*
Y721021D01*
X1023026Y720598D01*
X1023873D01*
X1024296Y720174D01*
Y719751D01*
X1023873Y719328D01*
X1023026D01*
X1022603Y719751D01*
X1025142Y721867D02*
Y719328D01*
X1026412D01*
X1026835Y719751D01*
Y720174D01*
X1026412Y720598D01*
X1025142D01*
X1026412D01*
X1026835Y721021D01*
Y721444D01*
X1026412Y721867D01*
X1025142D01*
X1029374Y719328D02*
X1027682D01*
X1029374Y721021D01*
Y721444D01*
X1028951Y721867D01*
X1028105D01*
X1027682Y721444D01*
X1019556Y872235D02*
Y870119D01*
X1019979Y869696D01*
X1020826D01*
X1021249Y870119D01*
Y872235D01*
X1023788Y871812D02*
X1023365Y872235D01*
X1022518D01*
X1022095Y871812D01*
Y871389D01*
X1022518Y870966D01*
X1023365D01*
X1023788Y870542D01*
Y870119D01*
X1023365Y869696D01*
X1022518D01*
X1022095Y870119D01*
X1024634Y872235D02*
Y869696D01*
X1025904D01*
X1026327Y870119D01*
Y870542D01*
X1025904Y870966D01*
X1024634D01*
X1025904D01*
X1026327Y871389D01*
Y871812D01*
X1025904Y872235D01*
X1024634D01*
X1027174Y869696D02*
X1028020D01*
X1027597D01*
Y872235D01*
X1027174Y871812D01*
X952246Y880109D02*
Y877993D01*
X952669Y877570D01*
X953516D01*
X953939Y877993D01*
Y880109D01*
X956478Y877570D02*
X954785D01*
X956478Y879263D01*
Y879686D01*
X956055Y880109D01*
X955208D01*
X954785Y879686D01*
X561848Y797052D02*
Y799591D01*
X563118D01*
X563541Y799168D01*
Y798322D01*
X563118Y797898D01*
X561848D01*
X562694D02*
X563541Y797052D01*
X564387D02*
X565234D01*
X564810D01*
Y799591D01*
X564387Y799168D01*
X566503Y797052D02*
X567350D01*
X566926D01*
Y799591D01*
X566503Y799168D01*
X1016000Y947420D02*
Y949959D01*
X1017270D01*
X1017693Y949536D01*
Y948690D01*
X1017270Y948266D01*
X1016000D01*
X1016846D02*
X1017693Y947420D01*
X1018539D02*
X1019386D01*
X1018962D01*
Y949959D01*
X1018539Y949536D01*
X1020655D02*
X1021078Y949959D01*
X1021925D01*
X1022348Y949536D01*
Y947843D01*
X1021925Y947420D01*
X1021078D01*
X1020655Y947843D01*
Y949536D01*
X1001776Y796544D02*
Y799083D01*
X1003046D01*
X1003469Y798660D01*
Y797814D01*
X1003046Y797390D01*
X1001776D01*
X1002622D02*
X1003469Y796544D01*
X1004315Y796967D02*
X1004738Y796544D01*
X1005585D01*
X1006008Y796967D01*
Y798660D01*
X1005585Y799083D01*
X1004738D01*
X1004315Y798660D01*
Y798237D01*
X1004738Y797814D01*
X1006008D01*
X965200Y710438D02*
Y712977D01*
X966470D01*
X966893Y712554D01*
Y711708D01*
X966470Y711284D01*
X965200D01*
X966046D02*
X966893Y710438D01*
X967739Y712554D02*
X968162Y712977D01*
X969009D01*
X969432Y712554D01*
Y712131D01*
X969009Y711708D01*
X969432Y711284D01*
Y710861D01*
X969009Y710438D01*
X968162D01*
X967739Y710861D01*
Y711284D01*
X968162Y711708D01*
X967739Y712131D01*
Y712554D01*
X968162Y711708D02*
X969009D01*
X965200Y720344D02*
Y722883D01*
X966470D01*
X966893Y722460D01*
Y721614D01*
X966470Y721190D01*
X965200D01*
X966046D02*
X966893Y720344D01*
X967739Y722883D02*
X969432D01*
Y722460D01*
X967739Y720767D01*
Y720344D01*
X972058Y646684D02*
Y649223D01*
X973328D01*
X973751Y648800D01*
Y647954D01*
X973328Y647530D01*
X972058D01*
X972904D02*
X973751Y646684D01*
X976290Y649223D02*
X975444Y648800D01*
X974597Y647954D01*
Y647107D01*
X975020Y646684D01*
X975867D01*
X976290Y647107D01*
Y647530D01*
X975867Y647954D01*
X974597D01*
X996950Y647192D02*
Y649731D01*
X998220D01*
X998643Y649308D01*
Y648462D01*
X998220Y648038D01*
X996950D01*
X997796D02*
X998643Y647192D01*
X1001182Y649731D02*
X999489D01*
Y648462D01*
X1000336Y648885D01*
X1000759D01*
X1001182Y648462D01*
Y647615D01*
X1000759Y647192D01*
X999912D01*
X999489Y647615D01*
X561086Y776224D02*
Y778763D01*
X562356D01*
X562779Y778340D01*
Y777494D01*
X562356Y777070D01*
X561086D01*
X561932D02*
X562779Y776224D01*
X564895D02*
Y778763D01*
X563625Y777494D01*
X565318D01*
X536956Y701802D02*
Y704341D01*
X538226D01*
X538649Y703918D01*
Y703072D01*
X538226Y702648D01*
X536956D01*
X537802D02*
X538649Y701802D01*
X539495Y703918D02*
X539918Y704341D01*
X540765D01*
X541188Y703918D01*
Y703495D01*
X540765Y703072D01*
X540342D01*
X540765D01*
X541188Y702648D01*
Y702225D01*
X540765Y701802D01*
X539918D01*
X539495Y702225D01*
X650240Y705612D02*
Y708151D01*
X651510D01*
X651933Y707728D01*
Y706882D01*
X651510Y706458D01*
X650240D01*
X651086D02*
X651933Y705612D01*
X652779D02*
X653626D01*
X653202D01*
Y708151D01*
X652779Y707728D01*
X1012444Y936751D02*
Y934212D01*
X1014137D01*
X1016676Y936751D02*
X1014983D01*
Y934212D01*
X1016676D01*
X1014983Y935482D02*
X1015830D01*
X1017522Y936751D02*
Y934212D01*
X1018792D01*
X1019215Y934635D01*
Y936328D01*
X1018792Y936751D01*
X1017522D01*
X1021754Y934212D02*
X1020062D01*
X1021754Y935905D01*
Y936328D01*
X1021331Y936751D01*
X1020485D01*
X1020062Y936328D01*
X1025652Y799337D02*
Y796798D01*
X1027345D01*
X1029884Y799337D02*
X1028191D01*
Y796798D01*
X1029884D01*
X1028191Y798068D02*
X1029038D01*
X1030730Y799337D02*
Y796798D01*
X1032000D01*
X1032423Y797221D01*
Y798914D01*
X1032000Y799337D01*
X1030730D01*
X1033270Y796798D02*
X1034116D01*
X1033693D01*
Y799337D01*
X1033270Y798914D01*
X521716Y807211D02*
Y804672D01*
Y805518D01*
X523409Y807211D01*
X522139Y805942D01*
X523409Y804672D01*
X525948Y807211D02*
X524255D01*
Y804672D01*
X525948D01*
X524255Y805942D02*
X525102D01*
X526794Y807211D02*
Y806788D01*
X527641Y805942D01*
X528487Y806788D01*
Y807211D01*
X527641Y805942D02*
Y804672D01*
X529334Y806788D02*
X529757Y807211D01*
X530603D01*
X531026Y806788D01*
Y806365D01*
X530603Y805942D01*
X530180D01*
X530603D01*
X531026Y805518D01*
Y805095D01*
X530603Y804672D01*
X529757D01*
X529334Y805095D01*
X521716Y773175D02*
Y770636D01*
Y771482D01*
X523409Y773175D01*
X522139Y771906D01*
X523409Y770636D01*
X525948Y773175D02*
X524255D01*
Y770636D01*
X525948D01*
X524255Y771906D02*
X525102D01*
X526794Y773175D02*
Y772752D01*
X527641Y771906D01*
X528487Y772752D01*
Y773175D01*
X527641Y771906D02*
Y770636D01*
X531026D02*
X529334D01*
X531026Y772329D01*
Y772752D01*
X530603Y773175D01*
X529757D01*
X529334Y772752D01*
X521970Y739139D02*
Y736600D01*
Y737446D01*
X523663Y739139D01*
X522393Y737870D01*
X523663Y736600D01*
X526202Y739139D02*
X524509D01*
Y736600D01*
X526202D01*
X524509Y737870D02*
X525356D01*
X527048Y739139D02*
Y738716D01*
X527895Y737870D01*
X528741Y738716D01*
Y739139D01*
X527895Y737870D02*
Y736600D01*
X529588D02*
X530434D01*
X530011D01*
Y739139D01*
X529588Y738716D01*
X504105Y892809D02*
X503258D01*
X503682D01*
Y890693D01*
X503258Y890270D01*
X502835D01*
X502412Y890693D01*
X504951Y890270D02*
Y892809D01*
X506221D01*
X506644Y892386D01*
Y891540D01*
X506221Y891116D01*
X504951D01*
X507490Y892386D02*
X507914Y892809D01*
X508760D01*
X509183Y892386D01*
Y891963D01*
X508760Y891540D01*
X508337D01*
X508760D01*
X509183Y891116D01*
Y890693D01*
X508760Y890270D01*
X507914D01*
X507490Y890693D01*
X775631Y607059D02*
X774784D01*
X775208D01*
Y604943D01*
X774784Y604520D01*
X774361D01*
X773938Y604943D01*
X776477Y604520D02*
Y607059D01*
X777747D01*
X778170Y606636D01*
Y605790D01*
X777747Y605366D01*
X776477D01*
X780709Y604520D02*
X779016D01*
X780709Y606213D01*
Y606636D01*
X780286Y607059D01*
X779440D01*
X779016Y606636D01*
X774615Y982979D02*
X773768D01*
X774192D01*
Y980863D01*
X773768Y980440D01*
X773345D01*
X772922Y980863D01*
X775461Y980440D02*
Y982979D01*
X776731D01*
X777154Y982556D01*
Y981710D01*
X776731Y981286D01*
X775461D01*
X778000Y980440D02*
X778847D01*
X778424D01*
Y982979D01*
X778000Y982556D01*
X957072Y694943D02*
Y692404D01*
X958342D01*
X958765Y692827D01*
Y694520D01*
X958342Y694943D01*
X957072D01*
X959611Y692404D02*
X960458D01*
X960034D01*
Y694943D01*
X959611Y694520D01*
X929555Y852762D02*
X929132Y853185D01*
X928285D01*
X927862Y852762D01*
Y851069D01*
X928285Y850646D01*
X929132D01*
X929555Y851069D01*
X930401Y850646D02*
X931248D01*
X930824D01*
Y853185D01*
X930401Y852762D01*
X933787Y850646D02*
Y853185D01*
X932517Y851916D01*
X934210D01*
X985181Y649054D02*
X984758Y649477D01*
X983911D01*
X983488Y649054D01*
Y647361D01*
X983911Y646938D01*
X984758D01*
X985181Y647361D01*
X986027Y646938D02*
X986874D01*
X986450D01*
Y649477D01*
X986027Y649054D01*
X988143D02*
X988566Y649477D01*
X989413D01*
X989836Y649054D01*
Y648631D01*
X989413Y648208D01*
X988990D01*
X989413D01*
X989836Y647784D01*
Y647361D01*
X989413Y646938D01*
X988566D01*
X988143Y647361D01*
X600625Y838538D02*
X600202Y838961D01*
X599355D01*
X598932Y838538D01*
Y836845D01*
X599355Y836422D01*
X600202D01*
X600625Y836845D01*
X601471Y836422D02*
X602318D01*
X601894D01*
Y838961D01*
X601471Y838538D01*
X605280Y836422D02*
X603587D01*
X605280Y838115D01*
Y838538D01*
X604857Y838961D01*
X604010D01*
X603587Y838538D01*
X825923Y777070D02*
X825500Y777493D01*
X824653D01*
X824230Y777070D01*
Y775377D01*
X824653Y774954D01*
X825500D01*
X825923Y775377D01*
X826769Y774954D02*
X827616D01*
X827192D01*
Y777493D01*
X826769Y777070D01*
X828885Y774954D02*
X829732D01*
X829308D01*
Y777493D01*
X828885Y777070D01*
X742865Y695790D02*
X742442Y696213D01*
X741595D01*
X741172Y695790D01*
Y694097D01*
X741595Y693674D01*
X742442D01*
X742865Y694097D01*
X743711Y693674D02*
X744558D01*
X744134D01*
Y696213D01*
X743711Y695790D01*
X745827D02*
X746250Y696213D01*
X747097D01*
X747520Y695790D01*
Y694097D01*
X747097Y693674D01*
X746250D01*
X745827Y694097D01*
Y695790D01*
X739563Y914230D02*
X739140Y914653D01*
X738293D01*
X737870Y914230D01*
Y912537D01*
X738293Y912114D01*
X739140D01*
X739563Y912537D01*
X740409D02*
X740832Y912114D01*
X741679D01*
X742102Y912537D01*
Y914230D01*
X741679Y914653D01*
X740832D01*
X740409Y914230D01*
Y913807D01*
X740832Y913384D01*
X742102D01*
X636439Y731350D02*
X636016Y731773D01*
X635169D01*
X634746Y731350D01*
Y729657D01*
X635169Y729234D01*
X636016D01*
X636439Y729657D01*
X637285Y731350D02*
X637708Y731773D01*
X638555D01*
X638978Y731350D01*
Y730927D01*
X638555Y730504D01*
X638978Y730080D01*
Y729657D01*
X638555Y729234D01*
X637708D01*
X637285Y729657D01*
Y730080D01*
X637708Y730504D01*
X637285Y730927D01*
Y731350D01*
X637708Y730504D02*
X638555D01*
X753279Y904578D02*
X752856Y905001D01*
X752009D01*
X751586Y904578D01*
Y902885D01*
X752009Y902462D01*
X752856D01*
X753279Y902885D01*
X754125Y905001D02*
X755818D01*
Y904578D01*
X754125Y902885D01*
Y902462D01*
X817541Y767418D02*
X817118Y767841D01*
X816271D01*
X815848Y767418D01*
Y765725D01*
X816271Y765302D01*
X817118D01*
X817541Y765725D01*
X820080Y767841D02*
X819234Y767418D01*
X818387Y766572D01*
Y765725D01*
X818810Y765302D01*
X819657D01*
X820080Y765725D01*
Y766148D01*
X819657Y766572D01*
X818387D01*
X538395Y715856D02*
X537972Y716279D01*
X537125D01*
X536702Y715856D01*
Y714163D01*
X537125Y713740D01*
X537972D01*
X538395Y714163D01*
X540934Y716279D02*
X539241D01*
Y715010D01*
X540088Y715433D01*
X540511D01*
X540934Y715010D01*
Y714163D01*
X540511Y713740D01*
X539664D01*
X539241Y714163D01*
X626533Y719666D02*
X626110Y720089D01*
X625263D01*
X624840Y719666D01*
Y717973D01*
X625263Y717550D01*
X626110D01*
X626533Y717973D01*
X628649Y717550D02*
Y720089D01*
X627379Y718820D01*
X629072D01*
X610785Y733890D02*
X610362Y734313D01*
X609515D01*
X609092Y733890D01*
Y732197D01*
X609515Y731774D01*
X610362D01*
X610785Y732197D01*
X611631Y733890D02*
X612054Y734313D01*
X612901D01*
X613324Y733890D01*
Y733467D01*
X612901Y733044D01*
X612478D01*
X612901D01*
X613324Y732620D01*
Y732197D01*
X612901Y731774D01*
X612054D01*
X611631Y732197D01*
X654473Y681058D02*
X654050Y681481D01*
X653203D01*
X652780Y681058D01*
Y679365D01*
X653203Y678942D01*
X654050D01*
X654473Y679365D01*
X657012Y678942D02*
X655319D01*
X657012Y680635D01*
Y681058D01*
X656589Y681481D01*
X655742D01*
X655319Y681058D01*
X640249Y695282D02*
X639826Y695705D01*
X638979D01*
X638556Y695282D01*
Y693589D01*
X638979Y693166D01*
X639826D01*
X640249Y693589D01*
X641095Y693166D02*
X641942D01*
X641518D01*
Y695705D01*
X641095Y695282D01*
M02*
