M48
;Layer_Color=9474304
;FILE_FORMAT=4:4
METRIC,LZ
;TYPE=PLATED
T01F00S00C0.3048
T02F00S00C0.9000
;TYPE=NON_PLATED
T03F00S00C0.5400
%
T01
X00905256Y00652272
X009144Y00662686
X00930402Y00659384
X00946658Y00654812
X00964184Y00652526
X0097409Y00660654
X00986536Y0066167
X00999236Y00663448
X01016Y0065405
X01016898Y00689746
X01032138Y00700922
X0103163Y00740292
X0101727Y00741426
X01015991Y0075343
X00997966Y00774446
X00980186Y00775208
X00977138Y0076454
X00969518Y00756158
X00968502Y00786384
X00959104
X00948944Y0078613
X00940308Y0076327
X00950214Y00720852
Y00713232
X0098679Y00700532
Y00692404
X00935228Y00639064
X0087376Y00784352
X00861822Y0078994
X00830072Y00785876
X008382Y00765048
X00828548Y00756666
X01038098Y00782574
X00724916Y00738632
X00717296Y00724408
X00700786Y00737362
X0069469Y00760476
X00684022Y00759968
X0066929Y00767588
X00647192Y0079121
X00626872Y00735076
X00611124Y00749046
X00596436Y00737197
X00582422Y0072136
X00598424Y00704342
X00608838Y00691642
X0060579Y00679958
X00607617Y00664923
X00614138Y006704
X0062103Y006477
X00635394Y00645296
X00650494Y0065913
X0065764Y00666784
X00658496Y00690626
X00641604Y00718566
X00590804Y0076454
X00584137Y00774323
X00576326Y00782066
X005715Y00766572
X00566166Y00757936
X00563118Y00696722
X00533908Y00689356
X00524764Y00709676
X00510794Y00719582
X00516382Y00789178
X00554228Y00636778
X0054864Y00602742
X00784352Y0064008
X00753946Y00685111
X00741426Y0068326
X007874Y0079756
X00719836Y00860921
X00719822Y00868541
X00718437Y00881148
X00709422Y00884936
X00703834Y00913638
X00728506Y00925695
X00752252Y00919576
X00763778Y00913892
X00688594Y00944626
X00673862Y00944372
X00665734Y00951992
X0054737Y00943102
X00572262Y00897382
X00571754Y0086995
X00572262Y00849884
X00589534Y00834898
X00596646Y00826262
X0057658Y00796798
X00635762Y0080137
X0064516Y00822452
X00516128Y00824484
X00830834Y00817118
X00843788Y00818896
X00859536Y00817118
X00849884Y00796036
X00939546Y00801116
X00932688Y0082296
X00924306Y00822706
X00923798Y00833882
X0093218Y00833628
X00919734Y00847344
X00919226Y00861568
X00944626Y00868934
X00964692Y0086741
X00982484Y00855472
X00983996Y00848106
X01015238Y00840232
X01015882Y0081954
X01032256Y00809498
X01029598Y00851036
X01030732Y00891032
X01014984Y0090678
X01013088Y0092114
X01043686Y00929386
X01034034Y0095123
X00973582Y00913638
X00901446Y00933196
X00904748Y00947928
X00874588Y00880273
X0095923Y00831601
X00974852Y00814832
X00986028Y00798322
T02
X0081534Y0059309
X0084074
X0086614
X0089154
X0091694
X0094234
X0096774
X0099314
X0101854
X0104394
Y0061849
X0101854
X0099314
X0096774
X0094234
X0091694
X0089154
X0086614
X0084074
X0081534
X0078994
Y0059309
X0076454
Y0061849
X0073914
Y0059309
X0071374
Y0061849
X0068834
Y0059309
X0066294
Y0061849
X0063754
Y0059309
X0061214
Y0061849
X0058674
Y0059309
X0056134
Y0061849
X0053594
Y0059309
X0051054
Y0061849
X0050927Y0096901
X0053467
X0056007
X0058547
X0061087
X0063627
X0066167
X0068707
X0071247
X0073787
X0076327
X0078867
Y0099441
X0076327
X0073787
X0071247
X0068707
X0066167
X0063627
X0061087
X0058547
X0056007
X0053467
X0050927
X0081407
X0083947
X0086487
X0089027
X0091567
X0094107
X0096647
X0099187
X0101727
X0104267
Y0096901
X0101727
X0099187
X0096647
X0094107
X0091567
X0089027
X0086487
X0083947
X0081407
T03
X01007129Y00700598
Y00740598
X01006264Y00850839
Y00890839
M30
