G04*
G04 #@! TF.GenerationSoftware,Altium Limited,Altium Designer,25.4.2 (15)*
G04*
G04 Layer_Color=16711935*
%FSLAX44Y44*%
%MOMM*%
G71*
G04*
G04 #@! TF.SameCoordinates,650349F4-E42F-4F09-9699-990218BC5844*
G04*
G04*
G04 #@! TF.FilePolarity,Negative*
G04*
G01*
G75*
%ADD61C,1.6508*%
%ADD62C,0.0508*%
%ADD63C,0.8128*%
%ADD64C,0.6604*%
D61*
X1042670Y994410D02*
D03*
Y969010D02*
D03*
X1017270Y994410D02*
D03*
Y969010D02*
D03*
X991870Y994410D02*
D03*
Y969010D02*
D03*
X966470Y994410D02*
D03*
Y969010D02*
D03*
X941070Y994410D02*
D03*
Y969010D02*
D03*
X915670Y994410D02*
D03*
Y969010D02*
D03*
X890270Y994410D02*
D03*
Y969010D02*
D03*
X864870Y994410D02*
D03*
Y969010D02*
D03*
X839470Y994410D02*
D03*
Y969010D02*
D03*
X814070Y994410D02*
D03*
Y969010D02*
D03*
X788670Y994410D02*
D03*
Y969010D02*
D03*
X763270Y994410D02*
D03*
Y969010D02*
D03*
X737870Y994410D02*
D03*
Y969010D02*
D03*
X712470Y994410D02*
D03*
Y969010D02*
D03*
X687070Y994410D02*
D03*
Y969010D02*
D03*
X661670Y994410D02*
D03*
Y969010D02*
D03*
X636270Y994410D02*
D03*
Y969010D02*
D03*
X610870Y994410D02*
D03*
Y969010D02*
D03*
X585470Y994410D02*
D03*
Y969010D02*
D03*
X560070Y994410D02*
D03*
Y969010D02*
D03*
X534670D02*
D03*
Y994410D02*
D03*
X509270Y969010D02*
D03*
Y994410D02*
D03*
X1043940Y618490D02*
D03*
Y593090D02*
D03*
X1018540Y618490D02*
D03*
Y593090D02*
D03*
X993140Y618490D02*
D03*
Y593090D02*
D03*
X967740Y618490D02*
D03*
Y593090D02*
D03*
X942340Y618490D02*
D03*
Y593090D02*
D03*
X916940Y618490D02*
D03*
Y593090D02*
D03*
X891540Y618490D02*
D03*
Y593090D02*
D03*
X866140Y618490D02*
D03*
Y593090D02*
D03*
X840740Y618490D02*
D03*
Y593090D02*
D03*
X815340Y618490D02*
D03*
Y593090D02*
D03*
X789940Y618490D02*
D03*
Y593090D02*
D03*
X764540Y618490D02*
D03*
Y593090D02*
D03*
X739140Y618490D02*
D03*
Y593090D02*
D03*
X713740Y618490D02*
D03*
Y593090D02*
D03*
X688340Y618490D02*
D03*
Y593090D02*
D03*
X662940Y618490D02*
D03*
Y593090D02*
D03*
X637540Y618490D02*
D03*
Y593090D02*
D03*
X612140Y618490D02*
D03*
Y593090D02*
D03*
X586740Y618490D02*
D03*
Y593090D02*
D03*
X561340Y618490D02*
D03*
Y593090D02*
D03*
X535940D02*
D03*
Y618490D02*
D03*
X510540Y593090D02*
D03*
Y618490D02*
D03*
D62*
X1007129Y700598D02*
D03*
Y740598D02*
D03*
X1006264Y850839D02*
D03*
Y890839D02*
D03*
D63*
X645160Y822452D02*
D03*
X516382Y789178D02*
D03*
X510794Y719582D02*
D03*
X524764Y709676D02*
D03*
X572262Y897382D02*
D03*
X548640Y602742D02*
D03*
X665734Y951992D02*
D03*
X641604Y718566D02*
D03*
X576326Y782066D02*
D03*
X584137Y774323D02*
D03*
X572262Y849884D02*
D03*
X873760Y784352D02*
D03*
X859536Y817118D02*
D03*
X950214Y713232D02*
D03*
Y720852D02*
D03*
X719836Y860921D02*
D03*
X830072Y785876D02*
D03*
X787400Y797560D02*
D03*
X669290Y767588D02*
D03*
X647192Y791210D02*
D03*
X905256Y652272D02*
D03*
X590804Y764540D02*
D03*
X784352Y640080D02*
D03*
X516128Y824484D02*
D03*
X554228Y636778D02*
D03*
X563118Y696722D02*
D03*
X533908Y689356D02*
D03*
X688594Y944626D02*
D03*
X614138Y670400D02*
D03*
X724916Y738632D02*
D03*
X986028Y798322D02*
D03*
X939546Y801116D02*
D03*
X684022Y759968D02*
D03*
X874588Y880273D02*
D03*
X930402Y659384D02*
D03*
X1034034Y951230D02*
D03*
X904748Y947928D02*
D03*
X946658Y654812D02*
D03*
X901446Y933196D02*
D03*
X741426Y683260D02*
D03*
X703834Y913638D02*
D03*
X547370Y943102D02*
D03*
X997966Y774446D02*
D03*
X635762Y801370D02*
D03*
X914400Y662686D02*
D03*
X830834Y817118D02*
D03*
X1043686Y929386D02*
D03*
X935228Y639064D02*
D03*
X980186Y775208D02*
D03*
X673862Y944372D02*
D03*
X843788Y818896D02*
D03*
X566166Y757936D02*
D03*
X849884Y796036D02*
D03*
X861822Y789940D02*
D03*
D64*
X571500Y766572D02*
D03*
X1017270Y741426D02*
D03*
X973582Y913638D02*
D03*
X576580Y796798D02*
D03*
X571754Y869950D02*
D03*
M02*
