G04*
G04 #@! TF.GenerationSoftware,Altium Limited,Altium Designer,25.4.2 (15)*
G04*
G04 Layer_Color=8421504*
%FSLAX44Y44*%
%MOMM*%
G71*
G04*
G04 #@! TF.SameCoordinates,650349F4-E42F-4F09-9699-990218BC5844*
G04*
G04*
G04 #@! TF.FilePolarity,Positive*
G04*
G01*
G75*
%ADD21R,0.5000X0.4000*%
%ADD22R,1.4800X1.9000*%
G04:AMPARAMS|DCode=23|XSize=0.3mm|YSize=1.8mm|CornerRadius=0mm|HoleSize=0mm|Usage=FLASHONLY|Rotation=135.000|XOffset=0mm|YOffset=0mm|HoleType=Round|Shape=Round|*
%AMOVALD23*
21,1,1.5000,0.3000,0.0000,0.0000,225.0*
1,1,0.3000,0.5303,0.5303*
1,1,0.3000,-0.5303,-0.5303*
%
%ADD23OVALD23*%

G04:AMPARAMS|DCode=24|XSize=0.3mm|YSize=1.8mm|CornerRadius=0mm|HoleSize=0mm|Usage=FLASHONLY|Rotation=45.000|XOffset=0mm|YOffset=0mm|HoleType=Round|Shape=Round|*
%AMOVALD24*
21,1,1.5000,0.3000,0.0000,0.0000,135.0*
1,1,0.3000,0.5303,-0.5303*
1,1,0.3000,-0.5303,0.5303*
%
%ADD24OVALD24*%

G04:AMPARAMS|DCode=25|XSize=1.6mm|YSize=1.2mm|CornerRadius=0mm|HoleSize=0mm|Usage=FLASHONLY|Rotation=225.000|XOffset=0mm|YOffset=0mm|HoleType=Round|Shape=Rectangle|*
%AMROTATEDRECTD25*
4,1,4,0.1414,0.9900,0.9900,0.1414,-0.1414,-0.9900,-0.9900,-0.1414,0.1414,0.9900,0.0*
%
%ADD25ROTATEDRECTD25*%

G04:AMPARAMS|DCode=26|XSize=0.4mm|YSize=0.5mm|CornerRadius=0mm|HoleSize=0mm|Usage=FLASHONLY|Rotation=315.000|XOffset=0mm|YOffset=0mm|HoleType=Round|Shape=Rectangle|*
%AMROTATEDRECTD26*
4,1,4,-0.3182,-0.0354,0.0354,0.3182,0.3182,0.0354,-0.0354,-0.3182,-0.3182,-0.0354,0.0*
%
%ADD26ROTATEDRECTD26*%

G04:AMPARAMS|DCode=27|XSize=1.3mm|YSize=1.2mm|CornerRadius=0mm|HoleSize=0mm|Usage=FLASHONLY|Rotation=135.000|XOffset=0mm|YOffset=0mm|HoleType=Round|Shape=Rectangle|*
%AMROTATEDRECTD27*
4,1,4,0.8839,-0.0354,0.0354,-0.8839,-0.8839,0.0354,-0.0354,0.8839,0.8839,-0.0354,0.0*
%
%ADD27ROTATEDRECTD27*%

%ADD28O,0.2500X1.2000*%
%ADD29R,0.2500X1.2000*%
%ADD30R,1.6000X0.3500*%
%ADD31R,1.5000X1.5000*%
%ADD32R,1.5000X1.9000*%
%ADD33R,2.0000X1.0000*%
%ADD34R,0.4000X0.5000*%
%ADD35R,0.5000X1.2000*%
%ADD36R,1.0000X1.4000*%
%ADD37R,1.0000X0.8000*%
%ADD38R,0.8000X1.0000*%
%ADD39O,3.0000X1.0000*%
G04:AMPARAMS|DCode=40|XSize=0.4mm|YSize=0.5mm|CornerRadius=0mm|HoleSize=0mm|Usage=FLASHONLY|Rotation=225.000|XOffset=0mm|YOffset=0mm|HoleType=Round|Shape=Rectangle|*
%AMROTATEDRECTD40*
4,1,4,-0.0354,0.3182,0.3182,-0.0354,0.0354,-0.3182,-0.3182,0.0354,-0.0354,0.3182,0.0*
%
%ADD40ROTATEDRECTD40*%

D21*
X564643Y802821D02*
D03*
X564642Y793822D02*
D03*
X563119Y781993D02*
D03*
X563118Y772994D02*
D03*
X974090Y652526D02*
D03*
X974089Y643527D02*
D03*
X998983Y652961D02*
D03*
X998982Y643962D02*
D03*
X986535Y643709D02*
D03*
X986536Y652708D02*
D03*
X930910Y856488D02*
D03*
X930909Y847489D02*
D03*
D22*
X506256Y737759D02*
D03*
X546256D02*
D03*
X506256Y805920D02*
D03*
X546256D02*
D03*
X506256Y771840D02*
D03*
X546256D02*
D03*
D23*
X616479Y793785D02*
D03*
X620014Y790249D02*
D03*
X623550Y786714D02*
D03*
X627085Y783178D02*
D03*
X630621Y779643D02*
D03*
X634156Y776107D02*
D03*
X637692Y772572D02*
D03*
X641227Y769036D02*
D03*
X644763Y765501D02*
D03*
X648298Y761965D02*
D03*
X651834Y758430D02*
D03*
X655369Y754894D02*
D03*
X658905Y751359D02*
D03*
X662440Y747823D02*
D03*
X665976Y744288D02*
D03*
X669512Y740752D02*
D03*
X673047Y737216D02*
D03*
X676583Y733681D02*
D03*
X680118Y730145D02*
D03*
X683654Y726610D02*
D03*
X687189Y723074D02*
D03*
X690725Y719539D02*
D03*
X694260Y716003D02*
D03*
X697796Y712468D02*
D03*
X701331Y708932D02*
D03*
X808464Y816065D02*
D03*
X804928Y819600D02*
D03*
X801393Y823136D02*
D03*
X797857Y826671D02*
D03*
X794322Y830207D02*
D03*
X790786Y833742D02*
D03*
X787251Y837278D02*
D03*
X783715Y840813D02*
D03*
X780179Y844349D02*
D03*
X776644Y847884D02*
D03*
X773108Y851420D02*
D03*
X769573Y854956D02*
D03*
X766037Y858491D02*
D03*
X762502Y862027D02*
D03*
X758966Y865562D02*
D03*
X755431Y869098D02*
D03*
X751895Y872633D02*
D03*
X748360Y876169D02*
D03*
X744824Y879704D02*
D03*
X741289Y883240D02*
D03*
X737753Y886775D02*
D03*
X734218Y890311D02*
D03*
X730682Y893846D02*
D03*
X727147Y897382D02*
D03*
X723611Y900917D02*
D03*
D24*
Y708932D02*
D03*
X727147Y712468D02*
D03*
X730682Y716003D02*
D03*
X734218Y719539D02*
D03*
X737753Y723074D02*
D03*
X741289Y726610D02*
D03*
X744824Y730145D02*
D03*
X748360Y733681D02*
D03*
X751895Y737216D02*
D03*
X755431Y740752D02*
D03*
X758966Y744288D02*
D03*
X762502Y747823D02*
D03*
X766037Y751359D02*
D03*
X769573Y754894D02*
D03*
X773108Y758430D02*
D03*
X776644Y761965D02*
D03*
X780180Y765501D02*
D03*
X783715Y769036D02*
D03*
X787251Y772572D02*
D03*
X790786Y776107D02*
D03*
X794322Y779643D02*
D03*
X797857Y783178D02*
D03*
X801393Y786714D02*
D03*
X804928Y790249D02*
D03*
X808464Y793785D02*
D03*
X701331Y900917D02*
D03*
X697796Y897382D02*
D03*
X694260Y893846D02*
D03*
X690725Y890311D02*
D03*
X687189Y886775D02*
D03*
X683654Y883240D02*
D03*
X680118Y879704D02*
D03*
X676583Y876169D02*
D03*
X673047Y872633D02*
D03*
X669512Y869098D02*
D03*
X665976Y865562D02*
D03*
X662440Y862027D02*
D03*
X658905Y858491D02*
D03*
X655369Y854956D02*
D03*
X651834Y851420D02*
D03*
X648298Y847884D02*
D03*
X644763Y844349D02*
D03*
X641227Y840813D02*
D03*
X637692Y837278D02*
D03*
X634156Y833742D02*
D03*
X630621Y830207D02*
D03*
X627085Y826671D02*
D03*
X623550Y823136D02*
D03*
X620014Y819600D02*
D03*
X616479Y816065D02*
D03*
D25*
X596907Y723131D02*
D03*
X616706Y703333D02*
D03*
D26*
X614305Y729862D02*
D03*
X607942Y736226D02*
D03*
X651631Y683394D02*
D03*
X657994Y677030D02*
D03*
X643515Y691254D02*
D03*
X637152Y697618D02*
D03*
X655132Y703647D02*
D03*
X648769Y710011D02*
D03*
X623691Y722002D02*
D03*
X630054Y715638D02*
D03*
X814699Y769754D02*
D03*
X821062Y763390D02*
D03*
X598799Y840874D02*
D03*
X605162Y834510D02*
D03*
X830205Y773042D02*
D03*
X823842Y779406D02*
D03*
X747401Y691762D02*
D03*
X741038Y698126D02*
D03*
X743083Y910202D02*
D03*
X736720Y916566D02*
D03*
D27*
X628252Y684503D02*
D03*
X643101Y669654D02*
D03*
X631080Y657633D02*
D03*
X616231Y672482D02*
D03*
D28*
X964278Y854340D02*
D03*
X959278D02*
D03*
X954278D02*
D03*
X949278D02*
D03*
X944278D02*
D03*
Y903340D02*
D03*
X949278D02*
D03*
X954278D02*
D03*
X959278D02*
D03*
D29*
X964278D02*
D03*
D30*
X1000862Y727075D02*
D03*
Y720598D02*
D03*
Y714121D02*
D03*
Y707644D02*
D03*
Y733552D02*
D03*
X999998Y877316D02*
D03*
Y870839D02*
D03*
Y864362D02*
D03*
Y857885D02*
D03*
Y883793D02*
D03*
D31*
X1002532Y686058D02*
D03*
Y755138D02*
D03*
X1001668Y836299D02*
D03*
Y905379D02*
D03*
D32*
X1030072Y685038D02*
D03*
Y756158D02*
D03*
X1029208Y835279D02*
D03*
Y906399D02*
D03*
D33*
X1029970Y711708D02*
D03*
Y729488D02*
D03*
X1029106Y861949D02*
D03*
Y879729D02*
D03*
D34*
X543233Y715009D02*
D03*
X534234Y715010D02*
D03*
X543487Y703071D02*
D03*
X534488Y703072D02*
D03*
X955621Y815341D02*
D03*
X964620Y815340D02*
D03*
X952065Y755905D02*
D03*
X961064Y755904D02*
D03*
X962805Y711709D02*
D03*
X971804Y711708D02*
D03*
X962733Y721615D02*
D03*
X971732Y721614D02*
D03*
X1023547Y948689D02*
D03*
X1014548Y948690D02*
D03*
X1008380Y797814D02*
D03*
X999381Y797815D02*
D03*
D35*
X958952Y772160D02*
D03*
X968452Y800160D02*
D03*
X949452D02*
D03*
X949452Y772160D02*
D03*
X968452D02*
D03*
D36*
X943850Y831850D02*
D03*
X973850D02*
D03*
X945374Y738886D02*
D03*
X975374D02*
D03*
D37*
X941705Y693674D02*
D03*
X975995D02*
D03*
D38*
X1008634Y935482D02*
D03*
X1025634D02*
D03*
X1038334Y798068D02*
D03*
X1021334D02*
D03*
D39*
X549910Y904240D02*
D03*
Y878840D02*
D03*
Y853440D02*
D03*
Y929640D02*
D03*
D40*
X633596Y727323D02*
D03*
X639960Y733686D02*
D03*
X750556Y900671D02*
D03*
X756920Y907034D02*
D03*
M02*
